<?xml version="1.0" encoding="UTF-8" standalone="no"?>
<!DOCTYPE svg PUBLIC "-//W3C//DTD SVG 1.1//EN" "http://www.w3.org/Graphics/SVG/1.1/DTD/svg11.dtd">
<svg xmlns="http://www.w3.org/2000/svg" version="1.1" viewBox="0 0 1024 1024" width="1024.0pt" height="1024.0pt">
<path d="M 382.27 168.76 C 386.26 170.64 389.94 173.15 393.89 175.13 C 408.19 182.48 422.81 189.02 438.18 193.83 C 469.38 204.22 503.21 207.19 535.84 203.66 C 571.64 199.60 606.63 187.96 637.71 169.72 C 640.31 168.30 642.96 167.42 645.96 167.91 C 652.04 168.77 658.00 170.67 663.99 172.02 C 690.64 178.90 717.11 186.69 743.03 195.95 C 751.97 198.93 758.17 204.84 765.09 210.90 C 780.18 224.51 792.64 240.30 803.73 257.27 C 808.94 265.43 814.09 273.64 819.05 281.96 C 830.61 300.91 841.02 319.58 855.18 336.83 C 865.25 349.01 875.88 360.78 887.27 371.73 C 892.36 376.69 896.29 383.99 894.25 391.23 C 891.79 399.87 885.40 407.91 879.75 414.75 C 867.19 429.52 852.64 442.68 836.65 453.65 C 812.38 470.36 783.98 480.89 754.81 484.75 C 748.73 485.61 742.59 485.77 736.50 486.58 C 734.98 493.22 734.65 500.18 733.84 506.99 C 732.12 526.65 731.25 546.26 732.75 565.97 C 733.65 587.75 737.93 608.52 742.20 629.80 C 747.75 657.57 754.92 684.85 761.67 712.34 C 768.23 738.18 774.82 764.05 781.05 789.98 C 782.04 794.40 782.87 798.90 781.21 803.28 C 777.80 811.83 771.43 817.93 763.85 822.86 C 745.02 835.83 724.15 845.73 702.23 852.23 C 673.93 860.49 645.35 866.03 616.20 870.23 C 594.91 873.27 573.48 874.84 552.01 875.91 C 542.65 876.22 533.38 877.21 524.00 877.00 C 509.33 876.83 494.58 877.50 480.02 876.26 C 453.64 875.11 427.39 873.07 401.33 868.70 C 389.74 866.80 378.17 864.91 366.71 862.27 C 352.74 859.06 338.33 855.88 324.78 851.22 C 301.77 843.52 279.21 833.41 258.83 820.18 C 252.61 816.08 245.72 811.10 243.20 803.76 C 240.99 797.61 243.48 791.00 244.96 784.95 C 255.40 742.70 266.41 700.63 276.22 658.20 C 283.37 627.48 289.54 595.65 291.34 564.12 C 293.02 540.37 291.56 516.01 288.57 492.42 C 288.29 490.45 287.89 488.51 287.49 486.56 C 282.88 485.98 278.24 485.87 273.62 485.42 C 246.34 482.34 219.11 473.82 195.74 459.27 C 174.41 446.25 155.76 429.32 140.19 409.82 C 135.96 404.36 131.53 398.01 129.71 391.28 C 128.60 387.35 129.01 383.39 130.66 379.68 C 132.84 374.54 136.62 371.30 140.48 367.48 C 151.09 356.68 161.57 345.85 170.85 333.86 C 181.34 320.68 189.65 306.71 198.31 292.31 C 210.08 272.64 222.04 252.26 236.22 234.22 C 245.55 223.03 255.70 212.23 267.10 203.11 C 272.84 198.51 279.23 196.52 285.99 193.98 C 313.73 183.96 342.22 175.81 370.86 168.82 C 374.54 168.10 378.76 166.95 382.27 168.76 Z" fill="#da9ea4" />
<path d="M 356.63 203.16 C 358.03 210.10 359.01 217.07 361.13 223.85 C 366.94 244.91 377.81 264.37 392.53 280.48 C 407.26 296.88 425.42 309.39 445.34 318.66 C 488.37 337.93 539.25 336.96 581.78 316.77 C 612.03 302.48 637.43 278.32 652.25 248.24 C 656.42 239.92 659.45 230.92 661.95 221.97 C 663.73 215.74 664.38 209.29 666.12 203.05 C 680.73 206.24 694.98 211.34 709.26 215.74 C 714.28 217.40 719.30 218.91 724.10 221.14 C 723.15 223.46 722.17 225.76 721.03 227.99 C 712.78 243.81 708.56 262.31 705.81 279.83 C 703.17 295.39 702.11 311.23 702.07 326.99 C 702.54 344.08 704.38 361.17 706.91 378.07 C 710.40 399.63 712.55 422.16 711.09 444.00 C 710.55 455.45 708.82 466.68 706.97 477.97 C 703.44 499.33 701.99 521.37 701.21 542.99 C 701.16 551.94 701.72 560.92 702.36 569.84 C 704.86 594.06 710.57 618.68 715.38 642.64 C 723.21 679.21 732.61 715.48 741.11 751.91 C 743.76 763.13 746.58 774.32 749.66 785.43 C 750.36 788.59 751.47 792.41 749.29 795.25 C 746.78 798.59 742.61 800.94 739.11 803.13 C 722.29 813.40 704.31 819.96 685.47 825.46 C 674.82 828.46 664.13 831.26 653.24 833.25 C 634.74 836.67 616.12 839.50 597.41 841.49 C 560.99 845.32 524.59 845.77 488.00 845.05 C 474.72 845.17 461.51 844.17 448.25 843.60 C 415.58 840.83 382.55 836.32 350.73 828.27 C 326.28 822.09 302.13 812.66 280.66 799.36 C 278.55 797.88 275.28 796.16 274.31 793.68 C 273.61 789.00 275.95 783.64 277.05 779.10 C 279.53 769.19 282.01 759.27 284.32 749.33 C 291.91 716.02 300.69 683.05 307.60 649.59 C 314.76 614.31 322.91 579.24 322.56 543.04 C 321.98 518.95 319.97 494.95 315.77 471.20 C 313.07 455.33 311.86 438.96 312.60 422.87 C 313.34 389.85 322.65 355.28 321.94 322.00 C 321.33 301.11 318.82 280.32 314.02 259.97 C 311.85 251.51 309.31 243.09 306.01 234.99 C 304.08 230.18 301.47 225.76 299.33 221.04 C 314.01 215.38 329.17 210.77 344.24 206.26 C 348.31 204.95 352.40 203.80 356.63 203.16 Z" fill="#f6d0d4" />
<path d="M 389.43 205.72 C 400.92 211.98 412.53 217.81 424.88 222.19 C 441.26 228.51 458.18 232.00 475.50 234.59 C 492.01 236.54 508.86 237.72 525.48 236.64 C 557.04 234.72 588.51 227.38 617.36 214.38 C 623.21 211.96 628.44 208.59 633.83 205.33 C 630.86 218.35 626.10 230.93 619.50 242.55 C 611.23 257.49 599.20 269.52 585.29 279.25 C 564.72 292.86 540.61 299.80 516.04 300.65 C 494.21 301.11 472.62 297.59 452.80 288.17 C 434.44 279.62 418.58 265.58 406.94 249.09 C 399.99 238.62 394.68 227.01 391.19 214.94 C 390.37 211.89 389.57 208.89 389.43 205.72 Z" fill="#f6d0d4" />
<path d="M 274.90 237.71 C 280.79 249.16 284.80 261.96 287.47 274.53 C 290.23 286.34 291.86 298.17 292.58 310.27 C 293.89 329.24 292.08 348.53 289.29 367.30 C 286.25 385.17 283.62 403.05 282.41 421.15 C 281.44 432.67 282.52 444.20 281.92 455.71 C 253.52 453.75 225.32 444.37 201.83 428.17 C 191.07 420.79 181.55 411.85 173.06 401.95 C 169.38 397.43 165.83 393.09 163.05 387.95 C 166.74 383.98 170.97 380.61 174.70 376.70 C 184.44 366.68 193.45 355.89 201.38 344.38 C 224.74 310.76 242.16 274.21 269.64 242.62 C 271.25 240.84 273.02 239.21 274.90 237.71 Z" fill="#f6d0d4" />
<path d="M 748.06 237.86 C 751.80 240.85 754.84 244.41 757.92 248.06 C 774.44 267.83 788.43 290.25 801.70 312.30 C 811.87 328.38 821.25 343.97 833.29 358.71 C 841.79 369.01 850.66 378.94 861.06 387.37 C 859.12 391.79 856.12 395.38 853.05 399.04 C 842.09 412.44 828.66 423.85 813.94 432.93 C 792.39 446.17 767.29 453.78 742.14 455.75 C 741.85 451.17 741.94 446.59 742.04 442.00 C 742.41 423.51 740.31 404.66 737.62 386.38 C 735.61 373.92 733.23 361.57 732.01 349.00 C 730.65 337.98 730.92 327.08 730.95 316.00 C 731.33 295.39 734.71 274.76 741.15 255.17 C 743.16 249.35 745.17 243.29 748.06 237.86 Z" fill="#f6d0d4" />
</svg>