<?xml version="1.0" encoding="UTF-8" standalone="no"?>
<!DOCTYPE svg PUBLIC "-//W3C//DTD SVG 1.1//EN" "http://www.w3.org/Graphics/SVG/1.1/DTD/svg11.dtd">
<svg xmlns="http://www.w3.org/2000/svg" version="1.1" viewBox="0 0 1024 1024" width="1024.0pt" height="1024.0pt">
<path d="M 487.00 123.13 C 511.31 123.32 535.70 122.59 559.98 123.84 C 572.23 124.01 584.50 124.84 596.66 126.39 C 603.38 127.33 609.68 128.73 615.35 132.65 C 619.85 135.70 622.78 139.84 625.65 144.36 C 630.56 152.18 635.01 160.31 639.79 168.20 C 641.96 171.72 644.16 174.96 647.57 177.40 C 651.77 180.37 656.75 182.39 661.36 184.64 C 685.66 196.03 709.99 207.35 734.31 218.69 C 746.17 224.46 758.93 229.83 770.00 237.01 C 782.19 245.45 793.01 255.91 799.67 269.34 C 803.80 277.26 804.95 285.29 807.20 293.81 C 808.63 299.33 809.74 304.88 810.49 310.54 C 812.17 323.20 814.49 335.59 816.84 348.16 C 827.85 408.53 838.57 468.95 849.68 529.30 C 858.62 579.32 867.57 629.33 876.66 679.32 C 878.20 688.16 880.00 696.96 881.25 705.84 C 882.34 713.57 881.75 721.33 882.86 729.07 C 884.31 740.02 886.37 750.89 888.23 761.78 C 889.53 769.56 891.79 778.14 890.98 785.99 C 890.17 794.31 884.58 801.60 877.06 805.07 C 871.37 807.81 865.01 807.89 858.87 808.85 C 848.21 810.48 837.67 812.99 827.10 815.10 C 808.68 818.83 790.22 822.62 771.67 825.63 C 765.92 826.68 760.63 825.36 755.22 823.55 C 755.63 827.47 756.13 831.70 755.58 835.60 C 754.40 843.27 750.29 850.41 743.86 854.85 C 738.65 858.44 732.97 861.38 727.47 864.48 C 693.44 882.49 656.84 892.70 619.02 899.02 C 599.16 902.10 579.08 903.84 559.02 904.88 C 547.34 905.06 535.70 905.99 524.00 905.88 C 507.95 905.81 491.81 906.25 475.79 905.33 C 442.80 904.41 409.68 900.82 377.46 893.51 C 345.29 885.90 313.16 874.26 284.65 857.36 C 278.09 853.51 272.46 848.51 269.86 841.16 C 267.67 835.31 268.19 829.65 268.80 823.58 C 264.62 824.68 260.42 825.90 256.07 825.78 C 250.26 825.52 244.46 824.23 238.72 823.28 C 216.32 819.44 194.20 814.31 171.87 810.10 C 165.79 808.91 159.57 808.60 153.49 807.42 C 143.09 805.41 134.35 796.57 133.10 785.95 C 132.30 778.71 134.34 770.73 135.56 763.57 C 137.54 752.09 139.78 740.63 141.20 729.07 C 142.24 721.00 141.62 712.95 142.85 704.91 C 144.20 695.76 145.96 686.66 147.57 677.55 C 166.39 573.95 185.13 470.35 203.70 366.70 C 206.45 351.44 209.53 336.20 211.90 320.88 C 213.24 312.52 213.80 304.22 215.98 296.00 C 217.89 288.92 219.04 281.47 221.65 274.63 C 227.31 260.53 237.26 249.35 249.28 240.28 C 258.90 232.92 269.80 228.04 280.67 222.67 C 310.13 208.85 339.53 194.90 368.95 180.98 C 373.43 178.86 377.57 176.68 380.54 172.55 C 387.92 161.78 393.54 149.76 401.21 139.19 C 406.07 132.64 413.34 128.68 421.30 127.28 C 431.73 125.39 442.41 124.54 452.99 124.06 C 464.35 124.03 475.63 122.88 487.00 123.13 Z" fill="#84afc0" />
<path d="M 467.00 158.97 C 499.00 158.78 531.00 158.83 563.00 159.03 C 571.67 159.19 580.32 159.87 588.99 160.19 C 571.91 178.37 554.74 196.49 537.35 214.36 C 529.10 223.12 520.90 232.07 511.99 240.16 C 510.90 239.19 509.81 238.24 508.73 237.27 C 495.58 224.38 483.25 210.76 470.32 197.67 C 458.71 185.08 446.47 172.98 435.10 160.19 C 445.75 159.93 456.35 158.91 467.00 158.97 Z" fill="#bad7e1" />
<path d="M 409.97 184.76 C 413.16 187.33 415.92 190.30 418.76 193.24 C 435.98 210.68 453.43 227.90 470.36 245.63 C 473.76 249.00 477.16 252.34 480.21 256.04 C 475.74 260.37 470.68 263.92 465.92 267.91 C 458.99 273.66 451.86 279.16 444.94 284.93 C 442.80 286.72 440.52 288.30 438.23 289.88 C 435.60 284.28 433.63 278.43 431.30 272.70 C 422.77 251.28 414.20 229.87 405.49 208.52 C 403.93 204.56 401.82 200.63 400.85 196.49 C 400.44 195.06 401.35 194.24 402.05 193.11 C 404.32 190.03 407.07 187.26 409.97 184.76 Z" fill="#bad7e1" />
<path d="M 614.01 184.82 C 617.57 187.79 620.38 191.36 623.04 195.13 C 621.63 199.83 619.71 204.27 617.76 208.75 C 608.83 231.16 599.88 253.56 590.98 275.98 C 589.16 280.76 587.41 285.55 585.14 290.14 C 572.99 280.56 561.04 270.71 548.85 261.18 C 546.89 259.65 545.10 257.94 543.26 256.27 C 544.56 254.90 545.83 253.49 547.15 252.14 C 565.62 233.96 583.56 215.22 601.79 196.80 C 605.92 192.72 609.59 188.37 614.01 184.82 Z" fill="#bad7e1" />
<path d="M 373.65 213.11 C 375.75 217.56 377.51 222.13 379.30 226.70 C 390.39 253.61 401.49 280.52 412.56 307.44 C 414.53 312.13 416.35 317.49 419.47 321.54 C 423.17 326.29 429.01 328.74 435.00 328.09 C 439.35 327.73 442.55 325.45 445.91 322.92 C 457.93 313.63 469.64 303.97 481.60 294.61 C 486.30 290.96 490.73 287.03 495.79 283.87 C 496.09 289.58 495.97 295.28 495.93 301.00 C 495.96 487.33 495.94 673.67 495.93 860.00 C 496.01 864.97 496.01 869.92 495.79 874.89 C 493.19 874.97 490.61 875.13 488.01 875.09 C 457.87 873.99 427.84 872.00 398.06 866.96 C 363.23 861.53 329.44 848.73 299.22 830.67 C 299.15 829.13 299.03 827.60 298.95 826.06 C 298.91 689.38 298.98 552.69 298.92 416.00 C 298.29 384.06 294.19 352.53 285.15 321.84 C 281.41 308.83 276.62 296.02 271.53 283.46 C 269.20 277.63 266.43 272.00 264.27 266.10 C 267.38 264.21 270.53 262.41 273.80 260.80 C 301.52 247.00 329.51 233.77 357.49 220.50 C 362.91 218.03 367.99 215.03 373.65 213.11 Z" fill="#bad7e1" />
<path d="M 650.09 212.93 C 654.91 214.59 659.24 216.98 663.79 219.22 C 689.57 231.86 715.62 243.95 741.39 256.61 C 747.52 259.74 753.77 262.51 759.65 266.10 C 754.41 278.82 748.89 291.39 744.42 304.42 C 732.88 337.13 726.60 371.37 725.00 405.99 C 724.68 419.65 724.92 433.33 724.88 447.00 C 724.83 553.33 724.90 659.67 724.85 766.00 C 724.79 787.60 725.06 809.21 724.77 830.80 C 719.58 834.62 713.80 837.17 708.11 840.12 C 688.37 850.10 667.54 857.65 646.11 863.09 C 618.55 869.77 590.28 872.31 562.02 873.91 C 550.24 874.13 538.79 875.57 527.00 874.86 C 526.66 869.57 526.69 864.30 526.80 859.00 C 526.75 672.67 526.77 486.33 526.77 300.00 C 526.71 294.61 526.64 289.23 526.99 283.85 C 531.13 286.34 534.89 289.32 538.64 292.35 C 550.10 301.21 561.31 310.37 572.73 319.27 C 576.24 321.97 579.86 325.24 583.93 327.02 C 589.63 329.29 596.67 328.40 601.39 324.37 C 605.49 321.03 607.51 316.24 609.52 311.49 C 620.89 283.85 632.24 256.20 643.52 228.52 C 645.74 223.22 647.34 217.99 650.09 212.93 Z" fill="#bad7e1" />
<path d="M 245.63 300.93 C 247.80 305.20 249.40 309.66 250.82 314.21 C 261.32 345.25 267.81 378.19 268.63 410.98 C 268.60 515.65 268.63 620.32 268.57 724.98 C 260.99 724.56 253.74 722.83 246.25 721.72 C 221.84 717.86 197.53 713.39 173.14 709.45 C 173.40 706.38 173.66 703.33 174.25 700.30 C 179.45 673.54 183.90 646.65 188.80 619.82 C 193.04 594.32 197.95 568.95 202.50 543.52 C 211.13 496.97 219.25 450.33 227.72 403.75 C 233.57 369.46 239.66 335.21 245.63 300.93 Z" fill="#bad7e1" />
<path d="M 778.12 300.77 C 783.42 329.96 788.43 359.29 793.47 388.53 C 800.47 427.87 807.39 467.23 814.42 506.58 C 821.08 543.53 827.97 580.44 834.60 617.40 C 839.68 644.18 844.11 671.06 849.17 697.84 C 849.99 701.75 850.54 705.63 850.86 709.61 C 822.37 715.01 793.55 719.04 764.98 724.06 C 761.77 724.64 758.54 724.87 755.29 725.08 C 754.91 710.40 755.24 695.69 755.12 681.00 C 755.15 594.34 755.09 507.66 755.15 421.00 C 755.14 386.78 760.44 352.64 771.13 320.12 C 773.35 313.56 775.04 307.01 778.12 300.77 Z" fill="#bad7e1" />
<path d="M 559.26 371.50 C 568.23 370.97 576.18 377.86 576.28 386.98 C 577.12 396.88 567.80 405.08 558.15 403.85 C 550.11 403.01 544.06 396.01 544.00 387.99 C 543.82 379.44 550.65 371.88 559.26 371.50 Z" fill="#84afc0" />
<path d="M 556.35 489.38 C 566.21 486.90 576.48 494.78 576.36 504.99 C 576.72 513.72 569.77 521.22 561.01 521.33 C 552.51 521.89 545.15 515.15 544.14 506.86 C 543.12 498.98 548.59 491.11 556.35 489.38 Z" fill="#84afc0" />
<path d="M 556.44 608.47 C 566.13 606.17 576.47 613.87 576.29 624.00 C 576.56 631.62 571.45 638.41 563.98 640.05 C 555.53 642.01 546.81 636.81 544.58 628.43 C 542.27 619.72 547.57 610.46 556.44 608.47 Z" fill="#84afc0" />
<path d="M 555.46 726.50 C 562.60 724.39 570.55 727.18 574.22 733.78 C 578.42 741.53 576.20 751.85 568.36 756.34 C 560.29 760.97 549.63 757.81 545.68 749.31 C 541.21 740.51 546.11 729.37 555.46 726.50 Z" fill="#84afc0" />
<path d="M 170.58 739.44 C 173.84 739.24 177.27 739.96 180.48 740.50 C 206.14 745.15 231.86 749.72 257.50 754.46 C 257.23 758.70 256.78 762.88 256.14 767.08 C 254.75 776.57 254.02 786.14 252.72 795.65 C 247.47 794.99 242.30 793.95 237.12 792.88 C 218.08 789.28 199.03 785.73 180.01 782.00 C 174.71 781.05 169.42 780.17 164.22 778.76 C 164.75 772.45 166.06 766.29 167.07 760.05 C 168.40 753.22 168.94 746.19 170.58 739.44 Z" fill="#bad7e1" />
<path d="M 853.67 739.32 C 855.57 748.41 856.55 757.67 858.22 766.81 C 858.95 770.76 859.49 774.67 859.83 778.67 C 857.86 779.10 855.90 779.58 853.92 779.98 C 833.72 783.56 813.63 787.73 793.45 791.44 C 785.96 792.76 778.59 794.59 771.06 795.65 C 769.99 788.88 769.64 782.05 768.72 775.26 C 767.93 768.29 766.67 761.43 766.30 754.42 C 790.92 749.71 815.71 745.68 840.41 741.37 C 844.82 740.48 849.19 739.76 853.67 739.32 Z" fill="#bad7e1" />
</svg>