<?xml version="1.0" encoding="UTF-8" standalone="no"?>
<!DOCTYPE svg PUBLIC "-//W3C//DTD SVG 1.1//EN" "http://www.w3.org/Graphics/SVG/1.1/DTD/svg11.dtd">
<svg xmlns="http://www.w3.org/2000/svg" version="1.1" viewBox="0 0 836 1254" width="836.0pt" height="1254.0pt">
<path d="M 285.07 228.92 C 288.94 231.83 290.63 236.28 290.79 241.01 C 291.34 254.35 291.95 267.69 292.28 281.04 C 293.51 307.70 294.80 334.33 295.83 361.01 C 295.97 363.44 295.95 366.11 296.73 368.44 C 297.76 370.74 299.74 372.71 301.43 374.56 C 309.62 383.41 319.22 390.95 328.91 398.09 C 335.67 403.10 343.45 407.10 350.91 411.09 C 361.53 416.73 373.06 420.42 384.72 423.25 C 396.04 425.63 407.39 427.29 419.00 427.05 C 430.08 427.31 441.09 425.21 452.05 423.01 C 462.14 420.48 472.17 417.16 481.47 412.46 C 501.95 402.30 521.30 388.65 536.63 371.60 C 540.78 367.39 539.43 362.40 539.85 357.00 C 540.82 334.78 542.05 312.54 543.29 290.34 C 543.97 273.88 544.72 257.44 545.66 240.99 C 546.01 236.47 546.60 232.34 550.27 229.26 C 556.64 223.96 566.69 224.37 573.58 228.41 C 577.78 230.98 580.02 235.02 580.06 239.95 C 580.16 251.63 579.96 263.33 579.62 275.00 C 579.41 283.66 579.87 292.33 579.86 301.00 C 579.81 310.02 580.69 318.99 580.67 328.00 C 580.92 347.92 582.02 367.39 587.32 386.70 C 593.19 407.35 602.25 427.10 613.86 445.15 C 620.69 455.40 627.51 464.98 637.08 472.89 C 640.40 475.77 645.14 479.10 646.50 483.44 C 647.67 487.92 646.52 493.26 645.80 497.77 C 643.57 509.64 642.52 521.64 640.57 533.54 C 636.72 561.49 633.65 589.53 630.59 617.57 C 629.47 633.96 628.27 650.35 627.62 666.76 C 625.80 691.41 627.91 715.70 630.79 740.16 C 635.52 775.11 641.10 809.90 647.34 844.61 C 653.51 882.24 660.51 919.64 668.00 957.03 C 669.30 963.62 671.87 971.18 670.93 977.89 C 669.99 983.51 664.13 986.27 659.57 988.57 C 641.95 996.65 622.87 1002.16 604.19 1007.16 C 584.59 1011.78 564.75 1015.47 544.92 1018.93 C 513.88 1024.47 482.49 1027.70 451.00 1028.91 C 436.61 1028.90 422.35 1030.33 407.95 1029.63 C 394.30 1028.89 380.63 1028.38 366.97 1027.93 C 351.44 1026.84 335.99 1025.88 320.61 1023.40 C 290.21 1019.25 259.99 1013.84 230.10 1006.88 C 213.90 1002.84 197.93 997.81 182.43 991.60 C 177.27 989.34 171.18 986.90 167.24 982.76 C 163.92 979.09 164.21 974.77 165.15 970.25 C 173.70 930.00 180.96 889.52 187.96 848.98 C 192.99 817.97 198.67 787.02 202.87 755.88 C 205.39 740.10 207.15 724.17 208.40 708.24 C 209.32 697.55 208.94 686.73 208.92 676.00 C 208.02 655.97 206.66 635.96 205.12 615.97 C 202.79 595.92 201.10 575.82 198.28 555.84 C 196.51 539.53 193.75 523.36 191.92 507.06 C 191.21 500.14 188.92 493.07 189.22 486.13 C 189.66 480.26 194.41 476.98 198.48 473.47 C 206.08 467.06 212.64 459.46 218.32 451.32 C 233.88 429.06 245.38 403.51 250.86 376.87 C 255.37 356.32 254.82 333.84 255.71 312.82 C 256.23 302.71 256.06 292.59 256.63 282.48 C 257.22 272.63 256.91 262.86 257.00 253.00 C 257.09 247.67 256.45 242.29 256.85 236.98 C 257.19 232.82 260.07 229.53 263.69 227.69 C 270.28 224.39 279.01 224.48 285.07 228.92 Z" fill="#ea9093" />
<path d="M 564.68 258.80 C 564.50 274.20 564.83 289.64 565.21 305.04 C 566.45 325.37 565.79 346.10 567.52 366.44 C 570.39 388.85 578.76 411.10 588.71 431.29 C 598.75 450.88 611.67 470.10 627.87 485.14 C 629.31 486.61 631.17 488.24 631.88 490.20 C 632.13 493.37 631.33 496.72 630.85 499.85 C 624.90 540.40 618.89 580.86 615.57 621.74 C 613.32 649.19 610.94 677.45 612.76 704.96 C 613.68 726.41 616.81 747.85 619.87 769.08 C 628.11 823.01 636.85 876.96 647.59 930.45 C 647.82 932.05 648.14 933.93 647.67 935.50 C 643.06 938.24 637.62 939.69 632.63 941.63 C 602.46 951.77 571.49 958.97 540.09 964.08 C 489.64 973.25 439.17 975.46 388.00 974.02 C 337.24 972.23 286.82 964.88 237.60 952.38 C 220.80 947.83 203.77 942.83 187.81 935.83 C 188.52 928.64 190.29 921.69 191.61 914.61 C 199.60 872.27 206.69 829.76 213.17 787.17 C 217.69 757.83 222.50 727.62 223.62 697.98 C 224.35 683.90 223.29 670.03 222.86 655.96 C 221.43 633.93 219.64 611.91 217.07 589.98 C 214.15 562.20 210.03 534.53 206.17 506.87 C 205.55 501.91 204.36 496.97 204.10 491.99 C 203.74 489.54 205.80 487.91 207.28 486.28 C 228.71 466.49 244.96 440.66 255.61 413.62 C 262.62 395.63 267.71 376.36 268.77 357.03 C 269.33 343.01 269.98 329.01 270.17 314.98 C 271.21 297.29 271.23 279.52 271.29 261.80 C 271.77 269.15 271.54 276.51 271.90 283.87 L 272.99 283.87 C 273.11 281.25 273.24 278.63 273.37 276.01 C 273.67 276.87 273.96 277.74 274.26 278.61 C 274.69 278.19 275.13 277.77 275.56 277.36 C 275.98 278.66 276.40 279.97 276.83 281.27 C 276.96 279.13 277.15 277.00 277.31 274.86 C 278.79 290.22 278.94 305.60 279.89 320.98 C 280.00 328.34 280.08 335.67 280.68 343.01 C 281.32 361.36 282.28 379.71 283.09 398.05 C 283.14 401.91 284.70 404.99 287.02 407.96 C 303.66 429.70 322.96 450.43 347.04 463.96 C 370.13 477.31 396.52 482.72 423.04 481.84 C 442.63 480.90 461.71 477.06 479.40 468.40 C 505.85 455.86 527.16 434.80 544.92 411.92 C 547.85 407.95 551.55 404.19 551.84 399.00 C 553.43 375.85 554.20 352.58 555.45 329.39 C 556.10 320.27 555.94 311.15 556.76 302.04 C 556.92 290.92 558.11 279.89 558.71 268.79 C 558.67 272.83 558.88 276.88 558.98 280.92 C 560.23 278.99 561.42 277.00 562.67 275.06 C 562.77 279.65 562.89 284.24 563.14 288.83 L 564.10 288.80 C 564.43 278.77 563.82 268.81 564.68 258.80 Z" fill="#ffcccd" />
<path d="M 298.01 393.38 C 303.62 397.22 308.34 402.20 314.05 405.96 C 330.01 417.87 347.54 427.04 366.30 433.69 C 400.16 445.04 437.41 444.61 471.18 433.17 C 479.27 430.30 487.09 426.61 494.75 422.76 C 510.29 414.92 524.14 404.66 537.19 393.23 C 535.96 397.28 534.31 400.36 531.67 403.66 C 515.71 424.84 494.66 445.34 470.11 456.08 C 438.59 469.19 401.65 470.44 369.61 458.38 C 343.25 448.18 321.96 428.13 305.04 405.96 C 302.07 401.83 298.69 398.65 298.01 393.38 Z" fill="#ffcccd" />
<path d="M 184.34 951.36 C 188.50 952.17 192.53 954.09 196.53 955.48 C 240.44 970.77 285.05 978.97 331.04 984.90 C 375.25 989.55 419.56 991.34 463.95 988.21 C 484.63 986.92 505.35 985.06 525.81 981.79 C 561.94 976.67 597.91 968.97 632.60 957.61 C 639.02 955.53 645.25 952.94 651.73 951.02 C 653.50 958.59 655.18 966.17 656.57 973.81 C 640.02 980.83 622.85 986.11 605.42 990.43 C 589.12 994.63 572.66 998.05 556.11 1001.11 C 521.73 1007.05 486.82 1011.45 451.96 1013.13 C 433.73 1014.56 415.29 1013.98 397.00 1013.99 C 382.32 1013.41 367.63 1012.43 352.98 1011.29 C 320.17 1008.43 287.51 1003.41 255.27 996.73 C 229.58 991.09 203.53 984.36 179.36 973.86 C 180.88 966.36 182.13 958.69 184.34 951.36 Z" fill="#ffcccd" />
</svg>