<?xml version="1.0" encoding="UTF-8" standalone="no"?>
<!DOCTYPE svg PUBLIC "-//W3C//DTD SVG 1.1//EN" "http://www.w3.org/Graphics/SVG/1.1/DTD/svg11.dtd">
<svg xmlns="http://www.w3.org/2000/svg" version="1.1" viewBox="0 0 1024 1024" width="1024.0pt" height="1024.0pt">
<path d="M 505.00 118.00 C 516.70 117.90 528.34 117.84 539.99 119.14 C 559.47 120.43 578.97 124.19 597.82 129.21 C 619.40 135.28 640.90 144.59 658.88 158.13 C 674.62 169.41 686.32 186.44 692.19 204.81 C 696.06 217.39 697.46 231.05 694.41 243.96 C 705.12 248.96 715.76 254.10 726.03 259.97 C 741.17 268.57 754.99 278.34 766.09 291.93 C 779.12 308.10 786.87 328.18 794.73 347.26 C 798.86 358.80 803.51 370.12 807.21 381.81 C 811.80 395.94 816.59 410.04 820.68 424.33 C 830.50 458.15 839.52 492.31 848.57 526.33 C 854.59 550.53 860.52 574.74 865.97 599.07 C 870.28 619.15 874.94 639.19 878.51 659.42 C 881.21 673.80 883.85 688.14 885.43 702.70 C 887.18 715.80 887.65 730.22 884.01 743.04 C 882.89 747.29 880.67 750.96 879.04 754.98 C 877.96 757.39 879.01 759.87 879.65 762.26 C 882.44 770.96 885.31 780.00 887.08 788.99 C 888.25 794.74 888.33 800.53 886.02 806.03 C 884.42 810.18 881.42 813.38 877.62 815.61 C 865.25 822.75 852.01 827.21 838.41 831.36 C 827.65 834.20 816.20 836.60 805.04 836.70 C 799.11 836.78 793.51 833.69 789.28 829.72 C 784.79 825.43 782.73 820.06 780.62 814.37 C 777.98 807.00 775.37 799.63 772.84 792.22 C 772.15 790.43 771.47 788.29 770.13 786.87 C 768.35 785.28 766.03 784.19 763.97 782.99 C 755.19 778.01 747.39 771.81 742.82 762.58 C 741.27 770.88 739.59 778.91 735.30 786.30 C 732.67 791.54 728.76 795.56 724.81 799.78 C 722.56 802.10 723.08 805.01 722.94 807.98 C 723.10 818.99 722.91 830.00 723.08 841.00 C 723.14 845.73 722.71 850.32 720.66 854.64 C 717.36 862.14 710.61 867.22 703.15 870.16 C 693.94 873.75 683.30 875.06 673.57 876.61 C 667.64 877.60 661.65 877.98 655.68 878.69 C 645.51 880.12 635.20 880.30 624.96 881.18 C 610.64 882.01 596.30 882.78 581.96 883.20 C 565.69 884.31 549.30 883.91 533.00 884.08 C 502.35 883.96 471.62 884.58 440.99 883.20 C 424.61 882.65 408.22 881.82 391.90 880.32 C 376.63 879.83 361.27 877.58 346.08 875.77 C 338.11 874.69 329.96 873.35 322.35 870.66 C 314.82 867.89 307.93 863.06 304.26 855.74 C 301.68 850.85 300.87 845.49 300.94 840.01 C 301.04 829.33 300.93 818.65 301.10 807.97 C 300.99 805.80 301.28 802.94 299.73 801.23 C 297.03 797.91 293.84 795.13 291.53 791.47 C 285.67 782.71 283.41 773.29 280.99 763.21 C 275.53 773.46 266.58 779.23 256.75 784.75 C 253.97 786.27 252.86 787.93 251.86 790.89 C 249.37 798.32 246.71 805.68 244.05 813.04 C 241.98 818.60 239.71 824.23 235.63 828.64 C 230.40 834.29 222.93 837.56 215.17 836.72 C 194.15 834.86 173.41 828.63 154.35 819.67 C 149.66 817.32 143.75 814.75 140.54 810.48 C 136.47 804.96 135.98 797.61 136.88 791.02 C 138.40 780.23 142.30 769.69 145.29 759.24 C 146.83 755.06 143.29 750.99 141.94 747.10 C 137.31 735.17 137.40 720.80 138.34 708.21 C 139.86 692.27 142.62 676.19 145.50 660.41 C 152.01 626.53 159.47 592.89 167.37 559.31 C 171.72 541.71 175.68 524.03 180.53 506.56 C 189.27 473.02 198.43 439.67 208.52 406.52 C 216.86 380.12 225.56 353.09 236.83 327.84 C 241.55 317.38 246.39 306.40 253.22 297.21 C 257.96 290.65 263.42 284.83 269.62 279.64 C 280.73 269.93 293.11 262.06 306.05 255.04 C 313.58 251.03 321.38 247.57 329.08 243.85 C 325.05 219.43 332.95 193.45 348.25 174.24 C 361.87 157.31 381.47 146.50 401.20 138.22 C 434.35 124.75 469.38 119.20 505.00 118.00 Z" fill="#f1975a" />
<path d="M 515.00 144.16 C 525.03 144.40 535.02 144.69 544.96 146.17 C 563.14 147.89 581.21 151.70 598.48 157.63 C 613.98 162.66 628.76 169.39 641.82 179.24 C 639.80 181.09 637.79 182.95 635.73 184.74 C 626.68 192.25 618.81 200.72 608.95 207.26 C 596.06 201.68 581.40 199.29 567.58 197.04 C 561.35 195.97 555.17 194.86 548.85 194.56 C 541.27 194.17 533.80 192.87 526.23 192.46 C 515.43 191.96 504.81 192.68 494.00 192.73 C 470.58 193.99 447.67 197.06 425.27 204.25 C 421.97 205.37 418.61 207.34 415.15 207.74 C 412.37 206.56 409.93 204.28 407.63 202.36 C 398.89 194.74 389.68 187.72 381.10 179.92 C 386.23 175.85 391.59 172.33 397.52 169.52 C 409.53 163.67 422.07 158.11 435.11 155.06 C 443.40 152.73 451.81 150.94 460.24 149.20 C 465.72 148.10 471.28 147.83 476.80 146.89 C 489.34 144.78 502.30 144.31 515.00 144.16 Z" fill="#fbc398" />
<path d="M 661.15 198.94 C 665.69 206.38 669.24 215.00 670.27 223.68 C 671.01 233.38 667.93 244.76 659.88 250.87 C 653.52 255.88 646.76 260.21 639.25 263.29 C 615.13 273.38 589.59 280.44 563.61 283.60 C 555.41 284.64 547.28 285.76 538.99 285.90 C 546.72 280.71 554.95 276.70 562.92 271.90 C 571.58 266.62 580.11 261.15 588.60 255.60 C 597.47 249.92 605.75 243.42 614.39 237.39 C 626.73 228.20 639.32 218.91 650.76 208.73 C 654.33 205.54 657.54 202.06 661.15 198.94 Z" fill="#fbc398" />
<path d="M 363.12 199.73 C 369.61 204.51 375.21 210.44 381.44 215.58 C 392.56 224.85 404.02 233.74 415.71 242.28 C 426.41 249.65 437.16 256.93 448.24 263.73 C 457.34 269.23 466.03 275.43 475.25 280.72 C 477.80 282.20 480.12 284.00 482.39 285.87 C 474.78 286.36 467.65 284.60 460.15 283.81 C 452.28 282.91 444.44 280.85 436.66 279.28 C 424.75 276.82 413.38 273.04 401.88 269.13 C 389.07 264.40 375.73 259.72 364.89 251.12 C 357.08 244.89 353.35 234.82 354.04 224.98 C 354.64 216.07 358.45 207.25 363.12 199.73 Z" fill="#fbc398" />
<path d="M 509.85 218.60 C 526.02 218.63 542.28 219.52 558.32 221.64 C 566.74 223.25 575.32 224.13 583.61 226.28 C 568.24 235.93 553.80 246.88 538.42 256.49 C 530.87 261.87 522.97 266.56 514.62 270.59 C 512.96 271.25 511.31 272.16 509.51 271.48 C 504.54 269.68 500.10 266.18 495.54 263.53 C 489.05 259.70 482.91 255.41 476.73 251.13 C 464.78 243.45 453.44 234.77 442.16 226.14 C 451.34 223.31 460.72 222.38 470.21 221.31 C 483.38 219.19 496.51 219.54 509.85 218.60 Z" fill="#fbc398" />
<path d="M 342.79 267.28 C 345.38 269.32 347.79 271.58 350.44 273.55 C 359.19 280.14 368.71 283.65 378.67 288.33 C 393.13 294.16 407.90 298.96 422.97 302.95 C 433.15 305.12 443.27 307.47 453.53 309.28 C 453.65 320.87 452.89 332.45 453.16 344.04 C 453.43 353.03 452.95 362.00 453.15 370.99 C 453.47 388.33 452.94 405.66 453.06 423.00 C 453.23 429.88 451.66 436.72 456.71 442.28 C 461.36 448.39 470.91 448.58 476.08 443.06 C 479.48 439.77 480.20 435.58 480.16 431.03 C 480.15 414.68 479.87 398.35 480.25 382.00 C 480.49 373.00 479.97 364.01 480.01 355.00 C 480.02 340.50 479.92 326.00 480.04 311.51 C 495.57 313.78 511.52 313.70 527.18 313.62 C 533.17 313.65 538.92 312.92 544.85 312.18 C 544.71 323.11 544.37 334.03 544.28 344.95 C 544.67 363.99 544.12 383.03 544.40 402.07 C 544.64 412.80 543.78 423.65 544.33 434.37 C 544.46 440.06 548.96 445.11 554.24 446.74 C 561.55 448.71 569.41 442.87 570.56 435.60 C 571.24 431.50 571.02 427.15 571.02 423.00 C 570.88 386.32 571.23 349.61 570.95 312.93 C 571.05 311.60 571.03 309.92 571.76 308.75 C 575.31 307.35 579.43 307.06 583.19 306.43 C 599.75 303.97 615.04 299.00 630.89 293.90 C 640.25 290.59 649.44 287.72 657.78 282.83 C 663.64 279.42 670.49 276.87 675.44 272.42 C 677.50 270.71 679.53 268.50 681.96 267.35 C 687.23 268.64 692.18 271.65 697.12 273.88 C 708.84 279.38 720.11 285.72 730.44 293.57 C 738.17 299.14 744.63 305.40 750.32 313.06 C 735.05 329.40 725.10 349.27 718.59 370.53 C 716.09 379.81 713.69 389.45 713.27 399.04 C 712.83 409.41 711.52 419.60 711.83 430.00 C 712.09 438.92 711.76 447.87 712.43 456.76 C 713.04 463.90 713.14 471.06 713.68 478.20 C 714.55 488.84 714.60 499.50 715.62 510.14 C 716.71 531.71 718.15 553.29 718.47 574.89 C 718.87 582.24 719.02 589.60 719.31 596.95 C 720.64 626.81 719.72 656.80 720.29 686.76 C 719.90 709.08 720.70 731.33 719.62 753.66 C 718.75 763.75 716.08 773.30 708.36 780.35 C 702.15 786.38 692.24 786.85 684.11 788.04 C 683.90 783.77 683.83 779.51 684.08 775.24 C 684.55 766.97 684.30 758.74 684.58 750.46 C 684.87 742.51 684.54 734.51 684.33 726.55 C 684.07 721.68 684.07 716.64 683.08 711.85 C 682.24 707.56 678.00 704.03 675.46 700.57 C 671.63 695.39 667.86 690.08 664.21 684.78 C 655.24 670.40 648.15 654.70 642.23 638.84 C 638.35 627.79 634.89 616.67 631.61 605.43 C 629.35 597.57 620.66 594.85 613.34 594.48 C 591.38 593.73 569.37 594.47 547.41 594.03 C 526.61 594.04 505.80 594.18 485.00 594.05 C 470.74 594.19 456.50 593.87 442.25 594.29 C 430.25 594.33 418.36 593.45 406.10 595.09 C 402.19 595.67 398.34 596.59 395.38 599.38 C 392.75 601.81 391.90 605.69 390.95 609.01 C 389.58 614.40 387.66 619.59 385.91 624.86 C 382.00 636.72 377.94 648.52 373.01 660.00 C 370.16 667.21 366.16 673.67 362.45 680.44 C 359.19 686.28 354.99 691.66 351.19 697.18 C 348.64 700.91 345.41 704.11 342.86 707.82 C 340.22 711.66 340.30 716.51 340.18 720.97 C 340.10 736.65 339.88 752.32 340.08 768.00 C 339.95 774.62 340.76 781.14 340.22 787.75 C 334.18 786.52 327.81 785.95 321.97 783.99 C 316.81 782.21 313.21 778.03 310.64 773.37 C 306.59 765.74 305.25 757.56 304.89 749.02 C 303.95 735.01 303.74 721.03 303.91 706.99 C 303.94 694.67 303.47 682.35 303.76 670.03 C 303.39 654.36 304.16 638.69 303.98 623.00 C 304.53 599.65 305.50 576.30 306.19 552.96 C 307.21 537.77 307.21 522.55 308.54 507.38 C 308.99 493.23 310.61 479.19 311.29 465.06 C 312.24 455.55 312.40 446.07 312.32 436.52 C 312.67 416.63 311.74 395.79 306.62 376.49 C 302.32 358.55 294.46 341.30 283.65 326.35 C 280.38 321.71 276.54 317.41 272.94 313.01 C 286.89 295.30 306.60 284.29 326.51 274.55 C 331.85 272.09 337.19 269.05 342.79 267.28 Z" fill="#fbc398" />
<path d="M 763.04 337.99 C 766.52 344.74 769.09 352.06 771.97 359.10 C 777.42 372.36 781.32 386.16 786.39 399.58 C 789.93 411.68 794.07 423.59 797.22 435.80 C 802.29 453.42 807.69 470.92 812.34 488.65 C 814.50 496.94 817.09 505.06 818.84 513.45 C 820.95 523.58 824.34 533.35 826.52 543.46 C 828.90 554.34 832.23 564.99 834.56 575.87 C 837.99 592.41 842.52 608.68 845.89 625.23 C 849.14 637.50 851.10 650.04 853.90 662.43 C 857.33 682.29 862.57 703.04 862.22 723.02 C 862.10 729.86 861.18 736.39 857.01 742.04 C 854.17 745.94 849.74 747.63 845.47 749.50 C 831.18 755.81 814.94 759.30 799.75 762.68 C 794.72 763.78 789.16 765.25 784.00 764.98 C 779.82 764.80 776.49 762.15 773.49 759.49 C 766.57 753.24 761.98 744.05 756.50 736.50 C 752.64 730.79 746.32 724.28 746.45 717.04 C 746.29 709.11 746.30 701.18 746.27 693.25 C 745.88 669.86 746.33 646.39 745.20 623.03 C 745.40 608.32 744.02 593.69 743.88 578.98 C 742.92 561.12 742.30 543.20 741.62 525.32 C 740.52 512.58 740.06 499.81 739.17 487.06 C 738.67 470.32 736.86 453.68 736.61 436.93 C 736.20 421.01 736.50 404.51 739.83 388.91 C 741.21 382.24 743.86 375.58 746.12 369.11 C 749.95 357.95 756.08 347.48 763.04 337.99 Z" fill="#fbc398" />
<path d="M 260.75 338.91 C 275.48 357.38 282.70 379.22 286.47 402.28 C 288.03 417.29 286.97 431.95 287.01 446.99 C 285.84 474.16 283.40 501.11 282.52 528.27 C 282.30 537.54 281.03 546.72 281.08 556.00 C 281.00 574.38 278.73 592.64 279.07 611.00 C 279.11 619.00 278.42 626.96 278.30 634.95 C 277.72 660.75 277.68 687.38 277.45 713.25 C 277.21 717.68 275.55 721.61 273.46 725.46 C 267.87 735.69 263.10 745.55 255.67 754.68 C 252.39 758.63 248.13 762.33 243.30 764.20 C 238.82 765.89 233.13 764.51 228.59 763.50 C 213.84 759.91 199.32 757.25 184.80 752.20 C 179.71 750.30 174.54 748.00 170.16 744.74 C 165.14 740.88 163.27 734.52 162.55 728.49 C 161.46 718.47 162.64 707.90 163.87 697.93 C 167.05 677.53 171.16 657.41 175.31 637.20 C 179.25 618.21 183.38 599.23 188.33 580.47 C 190.96 569.93 193.31 559.32 195.79 548.74 C 204.33 515.59 213.46 482.63 222.67 449.66 C 226.64 436.54 229.73 423.23 234.22 410.25 C 238.91 397.16 242.60 383.78 247.83 370.87 C 252.11 360.37 255.49 348.88 260.75 338.91 Z" fill="#fbc398" />
<path d="M 424.14 620.46 C 437.67 620.44 451.18 620.63 464.71 620.43 C 491.15 620.62 517.63 620.08 544.04 620.61 C 552.68 620.70 561.30 620.35 569.94 620.70 C 583.10 620.68 596.22 620.29 609.37 621.09 C 614.73 639.88 621.97 658.34 629.79 676.25 C 635.94 688.66 642.71 701.78 651.52 712.50 C 653.85 715.43 657.06 717.97 658.85 721.25 C 659.80 726.68 659.01 732.49 659.18 738.00 C 658.85 753.27 659.21 768.54 658.94 783.81 C 658.82 786.00 658.56 789.87 656.14 790.75 C 652.27 791.56 648.08 790.96 644.13 791.28 C 617.50 793.32 590.72 793.49 564.09 795.34 C 550.23 795.80 536.36 795.93 522.50 795.84 C 504.75 796.04 486.80 796.26 469.08 795.20 C 444.06 794.67 419.04 793.45 394.04 792.10 C 384.44 791.04 374.80 790.84 365.22 789.71 C 364.59 771.47 364.86 753.25 364.84 735.00 C 364.90 731.15 364.40 727.01 365.22 723.24 C 366.63 720.30 369.34 717.90 371.35 715.33 C 377.46 707.51 383.47 699.77 387.67 690.70 C 397.57 672.53 404.46 653.70 411.40 634.27 C 412.99 629.93 413.88 625.05 416.12 621.01 C 418.61 620.21 421.55 620.48 424.14 620.46 Z" fill="#fbc398" />
<path d="M 167.43 772.84 C 171.19 772.82 175.09 774.79 178.57 776.09 C 183.70 778.29 188.96 779.29 194.31 780.82 C 199.39 782.19 204.33 784.02 209.42 785.34 C 214.90 786.76 220.32 787.23 225.94 787.65 C 225.26 791.12 224.04 794.35 222.69 797.59 C 221.28 800.94 220.68 804.77 218.92 807.93 C 217.21 810.50 214.37 810.50 211.60 810.33 C 198.30 808.90 185.58 805.40 172.97 801.01 C 169.17 799.56 164.72 798.21 161.57 795.57 C 161.76 792.22 162.93 788.86 163.68 785.60 C 164.79 781.39 165.55 776.76 167.43 772.84 Z" fill="#fbc398" />
<path d="M 857.24 773.12 C 859.35 780.72 860.97 788.43 863.46 795.94 C 854.75 800.30 845.28 803.26 835.97 806.05 C 829.12 808.24 821.82 809.29 814.72 810.42 C 811.94 810.68 807.88 811.20 805.53 809.45 C 803.11 806.35 802.25 801.91 800.68 798.32 C 799.16 794.92 798.52 791.45 798.21 787.74 C 802.87 787.89 807.50 787.55 811.99 786.25 C 821.71 783.52 831.56 781.44 841.13 778.17 C 846.91 776.44 851.34 773.76 857.24 773.12 Z" fill="#fbc398" />
<path d="M 353.97 816.05 C 360.44 816.65 367.05 816.45 373.55 816.67 C 383.28 817.03 392.99 818.19 402.70 818.84 C 414.39 819.31 426.09 819.84 437.78 820.48 C 456.09 822.07 474.64 822.28 493.01 822.40 C 506.07 822.81 519.11 823.26 532.18 822.84 C 544.36 823.17 556.42 821.81 568.59 821.73 C 573.58 821.69 578.52 821.07 583.50 821.00 C 593.29 821.08 603.04 820.19 612.83 819.83 C 624.81 818.79 636.62 817.27 648.72 817.27 C 655.51 817.30 662.21 816.54 668.98 816.24 C 677.15 815.67 685.24 814.25 693.41 813.65 C 694.40 813.61 695.38 813.61 696.36 813.80 C 697.24 814.66 697.23 816.37 697.31 817.53 C 697.34 821.55 697.06 825.56 697.17 829.58 C 697.20 833.54 697.62 837.66 697.13 841.59 C 696.89 842.78 696.83 844.12 695.54 844.66 C 691.99 846.32 687.90 846.95 684.13 848.03 C 677.88 849.81 671.67 849.73 665.30 850.62 C 650.09 853.26 634.44 853.47 619.08 855.17 C 610.93 856.17 602.88 855.76 594.72 856.26 C 584.16 856.86 573.63 857.48 563.06 857.44 C 544.84 858.55 526.67 857.67 508.44 858.25 C 501.29 858.32 494.16 857.76 487.00 857.92 C 468.16 858.16 448.95 856.95 430.19 856.53 C 413.45 855.55 396.56 855.09 379.91 853.26 C 370.50 852.64 361.11 851.57 351.79 850.17 C 344.81 848.76 337.00 848.22 330.48 845.52 C 328.95 844.75 327.15 844.28 326.89 842.33 C 325.95 837.06 326.91 831.45 326.62 826.09 C 326.66 822.02 325.77 816.64 327.84 813.00 C 336.55 813.60 345.31 814.94 353.97 816.05 Z" fill="#fbc398" />
</svg>