<?xml version="1.0" encoding="UTF-8" standalone="no"?>
<!DOCTYPE svg PUBLIC "-//W3C//DTD SVG 1.1//EN" "http://www.w3.org/Graphics/SVG/1.1/DTD/svg11.dtd">
<svg xmlns="http://www.w3.org/2000/svg" version="1.1" viewBox="0 0 1024 1024" width="1024.0pt" height="1024.0pt">
<path d="M 401.42 157.61 C 409.75 159.98 417.63 164.15 425.71 167.27 C 436.34 171.45 447.24 174.07 458.32 176.72 C 457.45 176.94 456.60 177.22 455.78 177.57 C 473.34 181.67 492.01 182.75 510.00 183.08 C 525.46 182.89 541.00 181.94 556.28 179.47 C 562.33 178.55 568.33 177.36 574.16 175.47 C 573.35 175.22 572.53 174.97 571.72 174.74 C 578.73 172.77 585.80 170.97 592.73 168.73 C 601.94 165.75 610.41 160.44 619.65 157.67 C 624.77 156.19 629.09 158.19 633.61 160.38 C 641.39 164.38 649.09 168.46 657.17 171.84 C 671.90 178.07 686.57 184.47 701.32 190.66 C 710.28 194.45 719.30 197.69 728.06 201.93 C 747.21 211.08 765.22 222.62 779.86 238.13 C 794.81 253.17 804.47 271.25 812.17 290.82 C 822.57 316.82 830.50 343.50 838.56 370.46 C 846.47 397.84 854.30 425.24 862.45 452.54 C 875.74 499.23 888.52 546.06 901.07 592.95 C 904.16 604.18 908.29 615.29 910.56 626.71 C 910.57 631.89 911.83 636.67 913.32 641.58 C 916.78 655.33 919.86 669.46 921.40 683.55 C 922.44 693.28 924.31 702.83 923.34 712.53 C 922.86 716.89 923.02 721.01 923.64 725.34 C 923.22 731.13 921.77 736.65 920.18 742.20 C 919.12 745.99 918.92 749.39 919.62 753.26 C 921.12 761.59 922.95 769.86 924.91 778.08 C 926.39 784.82 928.21 792.34 927.37 799.25 C 926.77 804.66 923.88 809.31 919.73 812.74 C 912.19 819.08 901.86 822.44 892.70 825.71 C 878.27 830.71 863.40 835.68 848.35 838.37 C 841.93 839.34 834.34 840.10 828.13 837.84 C 821.13 835.05 815.62 828.32 812.17 821.82 C 808.61 815.02 805.85 807.77 803.60 800.45 C 802.36 796.58 801.18 792.67 798.39 789.60 C 795.76 786.69 791.93 784.53 788.75 782.23 C 782.17 777.69 777.02 771.27 771.62 765.41 C 768.32 761.72 764.71 758.22 761.71 754.30 C 759.34 751.21 757.90 747.78 756.47 744.20 C 755.23 751.31 752.57 757.76 748.95 763.97 C 745.94 769.14 744.17 774.40 743.21 780.29 C 742.98 779.43 742.75 778.57 742.52 777.70 C 740.42 787.27 741.02 796.24 740.75 805.99 C 740.63 810.15 741.12 814.24 741.72 818.34 C 742.08 827.54 739.49 837.40 733.62 844.61 C 728.13 851.29 719.88 854.78 711.64 856.63 C 702.47 858.59 693.04 859.53 683.75 860.76 C 675.86 861.73 668.23 863.16 660.28 863.55 C 656.71 863.33 653.18 863.10 649.61 863.45 C 629.72 865.39 609.80 866.56 589.84 867.38 C 579.43 868.34 568.99 867.53 558.60 868.62 C 564.11 869.47 569.65 869.60 575.21 869.33 C 569.63 869.72 564.07 870.01 558.49 869.49 C 550.66 868.13 543.09 869.23 535.00 868.93 C 515.33 869.12 495.67 868.96 476.01 868.92 C 461.74 868.78 446.84 866.78 432.68 868.67 C 417.78 868.38 402.87 867.26 388.01 866.20 C 364.73 864.67 342.20 861.27 319.14 857.89 C 309.46 856.39 300.17 854.05 292.75 847.25 C 286.13 840.92 282.45 831.42 282.31 822.32 C 283.58 811.56 283.06 800.55 282.53 789.76 C 282.17 790.92 281.82 792.09 281.49 793.26 C 281.00 786.59 280.56 779.66 278.79 773.19 C 277.17 767.36 273.90 762.98 271.43 757.58 C 269.28 752.95 267.96 748.16 266.66 743.25 C 265.46 746.74 264.31 750.09 262.13 753.13 C 258.98 757.51 254.96 761.36 251.34 765.36 C 245.74 771.35 241.05 777.54 234.28 782.26 C 230.27 785.19 225.62 787.60 223.07 792.05 C 220.55 796.49 219.46 801.89 217.67 806.67 C 214.98 813.98 211.95 821.94 207.13 828.12 C 203.04 833.23 197.95 837.77 191.22 838.67 C 184.22 837.65 177.06 837.42 170.21 835.80 C 157.72 832.79 145.39 829.26 133.48 824.43 C 129.68 822.82 125.91 821.95 121.82 821.49 C 114.15 819.04 105.53 815.00 100.48 808.51 C 95.78 802.38 95.78 795.26 96.89 787.96 C 98.97 775.39 102.64 763.03 104.46 750.41 C 105.05 746.10 103.88 742.35 102.77 738.25 C 97.81 720.68 98.20 702.87 100.96 684.98 C 103.83 660.61 110.13 636.66 117.18 613.19 C 121.19 600.32 125.05 587.41 128.33 574.33 C 139.34 532.94 150.88 491.74 162.53 450.53 C 170.60 423.75 178.02 396.79 185.99 369.99 C 193.67 344.34 201.43 318.09 211.16 293.16 C 217.87 276.03 225.87 259.01 237.89 244.91 C 242.89 239.32 248.25 233.83 253.77 228.76 C 265.11 218.77 278.56 210.84 291.95 203.94 C 296.07 201.80 300.31 199.90 304.75 198.48 C 309.80 197.91 314.22 195.97 318.76 193.81 C 331.85 188.28 344.85 182.53 357.94 176.98 C 368.20 172.86 377.91 167.69 387.80 162.79 C 389.39 162.05 390.36 160.86 391.31 159.45 C 394.62 157.90 397.69 156.55 401.42 157.61 Z" fill="#59b483" />
<path d="M 391.31 159.45 C 390.36 160.86 389.39 162.05 387.80 162.79 C 377.91 167.69 368.20 172.86 357.94 176.98 C 344.85 182.53 331.85 188.28 318.76 193.81 C 314.22 195.97 309.80 197.91 304.75 198.48 C 307.65 197.14 310.50 195.69 313.46 194.45 C 325.66 189.41 337.74 184.07 349.87 178.88 C 358.40 175.15 367.15 171.66 375.43 167.42 C 380.73 164.73 385.88 161.89 391.31 159.45 Z" fill="#59b483" />
<path d="M 571.72 174.74 C 572.53 174.97 573.35 175.22 574.16 175.47 C 568.33 177.36 562.33 178.55 556.28 179.47 C 541.00 181.94 525.46 182.89 510.00 183.08 C 492.01 182.75 473.34 181.67 455.78 177.57 C 456.60 177.22 457.45 176.94 458.32 176.72 C 471.51 178.92 484.58 180.96 498.00 181.06 C 508.34 181.12 518.71 181.33 529.04 180.86 C 543.41 179.95 557.70 178.09 571.72 174.74 Z" fill="#59b483" />
<path d="M 413.32 194.00 C 444.59 205.29 477.86 209.48 511.00 209.04 C 526.75 209.26 542.54 208.34 558.15 206.20 C 575.53 203.98 592.64 200.18 609.09 194.07 C 604.59 204.91 597.38 213.94 589.13 222.15 C 583.87 227.27 577.82 230.97 571.35 234.35 C 553.20 244.26 531.44 248.02 510.94 247.79 C 501.84 247.53 492.29 247.54 483.44 245.55 C 478.59 244.50 473.75 243.32 468.97 242.00 C 444.51 235.08 423.52 217.37 413.32 194.00 Z" fill="#a2deb7" />
<path d="M 639.09 199.95 C 642.65 200.86 646.17 202.12 649.66 203.27 C 646.10 222.49 635.74 238.88 622.22 252.67 C 621.05 252.97 619.88 253.26 618.71 253.55 C 618.35 251.49 618.05 249.41 617.74 247.34 C 616.03 248.85 614.34 250.37 612.64 251.90 C 612.58 251.60 612.52 251.30 612.48 251.00 C 610.96 250.48 609.43 250.04 607.89 249.59 C 608.60 251.38 609.29 253.19 610.01 254.97 C 608.38 253.73 606.74 252.51 605.11 251.26 C 606.36 248.30 607.43 245.10 609.88 242.88 C 611.94 240.99 614.53 240.67 617.14 240.12 C 615.97 239.32 614.80 238.51 613.63 237.70 C 618.04 232.76 622.69 227.91 626.48 222.48 C 631.60 215.43 635.12 207.65 639.09 199.95 Z" fill="#9ad8b0" />
<path d="M 383.78 201.05 C 388.77 211.98 394.74 222.28 402.63 231.39 C 412.16 243.16 425.25 252.38 438.53 259.47 C 458.06 269.43 480.20 274.20 502.02 275.10 C 528.23 276.19 554.36 272.29 578.32 261.32 C 591.07 255.39 603.62 247.65 613.63 237.70 C 614.80 238.51 615.97 239.32 617.14 240.12 C 614.53 240.67 611.94 240.99 609.88 242.88 C 607.43 245.10 606.36 248.30 605.11 251.26 C 606.74 252.51 608.38 253.73 610.01 254.97 C 609.29 253.19 608.60 251.38 607.89 249.59 C 609.43 250.04 610.96 250.48 612.48 251.00 C 612.52 251.30 612.58 251.60 612.64 251.90 C 614.34 250.37 616.03 248.85 617.74 247.34 C 618.05 249.41 618.35 251.49 618.71 253.55 C 619.88 253.26 621.05 252.97 622.22 252.67 C 603.07 272.71 578.10 284.48 551.24 290.29 C 541.91 292.31 532.53 293.90 522.97 294.17 C 493.84 296.35 463.11 292.11 436.64 279.35 C 422.87 272.90 410.74 263.74 400.16 252.86 C 387.03 239.33 377.20 222.54 373.19 204.02 C 376.72 203.01 380.24 202.02 383.78 201.05 Z" fill="#a2deb7" />
<path d="M 348.69 209.31 C 349.99 222.34 354.84 234.40 361.37 245.64 C 370.78 262.60 385.46 276.53 400.47 288.53 C 423.24 306.10 450.40 318.72 479.18 321.80 C 492.71 323.54 506.22 323.16 520.00 323.09 C 533.30 323.10 546.67 321.57 559.64 318.65 C 586.45 312.32 611.59 298.39 631.99 279.97 C 644.87 268.45 656.56 254.98 664.58 239.59 C 669.53 229.85 673.64 220.04 674.38 209.00 C 690.56 217.86 708.11 223.87 724.39 232.62 C 734.16 237.79 742.80 244.60 750.73 252.26 C 758.98 260.23 767.12 269.08 773.13 278.89 C 777.66 286.13 780.90 293.90 784.19 301.79 C 791.14 318.95 797.01 336.65 802.74 354.25 C 806.13 364.51 808.59 374.99 811.66 385.34 C 817.80 407.14 824.42 428.80 830.37 450.65 C 843.27 495.03 855.64 539.55 867.93 584.10 C 873.35 604.35 879.57 624.33 884.26 644.72 C 887.10 656.51 889.18 668.47 891.67 680.36 C 893.89 690.90 894.28 701.32 894.64 712.06 C 894.62 717.85 894.61 724.70 892.00 729.98 C 889.17 735.36 884.08 737.68 878.63 739.65 C 861.28 745.77 843.71 751.27 826.35 757.38 C 821.95 758.92 817.82 760.32 813.06 759.97 C 805.52 759.29 797.98 755.85 793.08 749.95 C 786.35 741.95 781.68 732.06 777.39 722.61 C 773.22 713.43 768.85 704.32 764.95 695.03 C 763.14 690.76 762.18 686.66 761.93 682.02 C 759.93 642.95 755.67 604.01 752.88 564.97 C 751.14 539.32 748.89 513.70 747.08 488.04 C 745.60 464.83 744.19 441.61 742.55 418.41 C 741.11 402.61 739.89 386.80 738.93 370.96 C 738.56 364.15 736.90 356.69 733.00 350.99 C 730.55 347.01 724.00 347.39 720.01 347.91 C 716.97 348.30 715.63 349.79 714.57 352.53 C 710.58 363.18 711.73 375.58 712.43 386.70 C 713.66 406.90 715.25 427.07 716.56 447.26 C 719.37 492.91 722.93 538.51 725.59 584.16 C 728.28 625.89 730.62 667.65 732.49 709.42 C 733.21 718.19 733.44 726.82 731.44 735.47 C 728.82 747.37 723.13 758.80 712.82 765.80 C 703.20 772.50 691.88 774.04 680.54 775.50 C 654.23 778.59 627.74 780.33 601.28 781.38 C 591.96 782.19 582.62 781.80 573.29 782.42 C 559.26 783.31 545.07 782.86 531.00 783.05 C 523.02 783.05 515.06 783.54 507.08 783.31 C 492.39 782.99 477.70 782.99 463.00 782.99 C 452.98 783.01 443.02 782.00 433.00 782.02 C 427.62 782.03 422.26 781.77 416.90 781.38 C 393.79 780.18 370.62 778.87 347.60 776.43 C 339.40 775.48 330.85 774.50 322.97 772.02 C 314.77 769.43 307.36 764.79 302.03 757.97 C 295.80 750.01 292.43 739.67 291.35 729.71 C 290.50 720.92 291.11 711.66 291.69 702.86 C 293.76 655.24 296.79 607.56 299.94 560.02 C 304.01 498.02 308.42 436.02 312.86 374.04 C 313.24 366.74 312.71 358.82 309.97 351.98 C 308.54 348.38 305.30 347.86 301.85 347.50 C 297.71 347.31 293.19 347.95 290.78 351.76 C 285.70 359.45 285.28 369.14 284.82 378.04 C 282.55 412.04 280.16 446.04 277.89 480.04 C 276.20 501.85 274.23 523.64 272.48 545.45 C 270.18 577.46 267.28 609.48 264.50 641.45 C 263.57 653.98 262.35 666.51 261.91 679.05 C 261.76 683.60 260.88 687.81 259.01 691.97 C 253.40 704.66 247.38 716.95 241.50 729.51 C 237.95 736.79 233.92 744.43 228.42 750.44 C 223.44 755.94 216.38 759.43 209.00 760.13 C 203.69 760.60 198.97 758.65 194.08 756.94 C 177.79 751.10 161.16 746.20 145.00 740.03 C 140.30 738.18 135.22 736.08 132.34 731.68 C 129.37 727.17 129.06 721.26 128.95 716.03 C 128.80 702.81 129.82 689.48 132.56 676.54 C 133.99 669.62 135.30 662.68 136.77 655.77 C 142.98 626.77 151.60 598.81 159.17 570.18 C 172.14 524.18 185.08 478.18 198.26 432.24 C 202.97 416.86 207.44 401.41 211.94 385.96 C 215.95 371.79 219.87 357.63 224.71 343.72 C 231.72 323.17 238.87 301.32 249.15 282.15 C 255.49 270.18 264.66 260.66 274.24 251.24 C 283.82 241.86 295.02 234.83 307.07 229.06 C 320.91 222.39 334.88 216.06 348.69 209.31 Z" fill="#a2deb7" />
<path d="M 910.56 626.71 C 915.48 641.90 918.89 657.72 921.58 673.45 C 923.92 691.10 926.94 707.57 923.64 725.34 C 923.02 721.01 922.86 716.89 923.34 712.53 C 924.31 702.83 922.44 693.28 921.40 683.55 C 919.86 669.46 916.78 655.33 913.32 641.58 C 911.83 636.67 910.57 631.89 910.56 626.71 Z" fill="#59b483" />
<path d="M 134.25 767.06 C 139.02 767.96 143.62 770.23 148.20 771.85 C 157.32 775.13 165.99 779.34 174.88 783.14 C 180.03 785.33 185.39 786.03 190.91 786.56 C 189.64 792.49 188.51 798.68 186.23 804.31 C 185.09 807.03 183.20 809.38 180.03 809.47 C 175.19 809.39 170.26 807.62 165.62 806.36 C 152.10 802.19 138.55 797.69 125.66 791.81 C 126.48 787.52 127.82 783.58 129.57 779.59 C 131.36 775.50 132.23 771.02 134.25 767.06 Z" fill="#a2deb7" />
<path d="M 890.70 767.76 C 892.34 775.96 895.19 783.79 897.13 791.91 C 881.45 798.81 864.95 803.96 848.49 808.62 C 844.73 809.39 839.65 810.92 837.42 806.61 C 834.47 800.67 833.88 793.39 832.36 786.96 C 837.12 785.90 841.95 784.97 846.64 783.62 C 852.79 781.86 858.38 778.96 864.50 776.52 C 869.75 774.43 875.03 772.38 880.23 770.17 C 883.58 768.73 887.10 768.14 890.70 767.76 Z" fill="#a2deb7" />
<path d="M 742.52 777.70 C 742.75 778.57 742.98 779.43 743.21 780.29 C 741.63 792.98 742.16 805.61 741.72 818.34 C 741.12 814.24 740.63 810.15 740.75 805.99 C 741.02 796.24 740.42 787.27 742.52 777.70 Z" fill="#59b483" />
<path d="M 282.53 789.76 C 283.06 800.55 283.58 811.56 282.31 822.32 C 281.53 812.63 281.73 802.97 281.49 793.26 C 281.82 792.09 282.17 790.92 282.53 789.76 Z" fill="#59b483" />
<path d="M 311.78 800.69 C 316.83 800.83 321.88 802.42 326.89 803.11 C 347.18 806.15 367.73 807.87 388.16 809.68 C 386.33 809.93 384.50 810.20 382.68 810.51 C 385.04 810.91 387.43 811.11 389.79 811.48 C 389.39 812.80 388.99 814.12 388.59 815.45 C 389.72 813.95 390.85 812.46 391.96 810.96 C 393.08 811.81 394.45 812.15 394.76 813.64 C 392.99 815.03 390.98 816.18 389.06 817.33 C 387.75 816.58 386.43 815.83 385.13 815.08 C 384.72 816.86 384.25 818.63 383.68 820.37 C 382.85 819.95 382.02 819.54 381.19 819.12 C 381.68 818.41 382.17 817.71 382.66 817.00 C 380.95 816.97 379.25 816.94 377.54 816.92 C 377.58 815.61 377.62 814.31 377.66 813.00 C 376.36 815.17 375.10 817.36 374.01 819.65 C 374.10 823.03 372.11 824.85 370.13 827.30 C 372.67 827.65 375.22 827.97 377.77 828.23 C 377.05 831.20 376.18 834.06 375.16 836.94 C 356.60 835.15 338.14 832.51 319.79 829.21 C 316.93 828.44 312.43 827.93 311.54 824.52 C 309.59 818.39 308.99 811.45 309.33 805.05 C 309.69 803.39 309.39 800.64 311.78 800.69 Z" fill="#a2deb7" />
<path d="M 713.73 800.86 C 714.06 807.49 714.46 814.66 713.29 821.21 C 712.93 822.95 712.50 824.99 711.42 826.43 C 709.99 827.78 707.70 828.35 705.85 828.86 C 700.01 830.23 693.98 830.90 688.05 831.80 C 687.29 830.76 686.53 829.73 685.76 828.69 C 685.67 829.43 685.59 830.17 685.50 830.91 C 682.57 830.99 679.64 831.01 676.71 831.18 C 672.24 831.37 668.15 833.20 663.62 833.19 C 659.98 833.20 656.47 833.40 652.93 834.32 C 652.07 833.92 651.22 833.51 650.36 833.10 C 650.85 832.22 651.34 831.34 651.83 830.45 C 650.59 830.46 649.35 830.46 648.11 830.47 C 647.47 828.59 646.84 826.71 646.21 824.83 C 646.93 825.64 647.65 826.45 648.37 827.26 C 648.92 827.01 649.47 826.76 650.01 826.52 C 650.90 827.00 651.78 827.48 652.66 827.96 C 652.40 827.17 652.14 826.37 651.88 825.57 C 653.81 826.63 655.82 827.24 657.96 827.71 C 657.63 826.66 657.30 825.61 656.97 824.55 C 655.95 824.54 654.93 824.52 653.91 824.51 C 655.04 823.49 656.19 822.50 657.32 821.49 C 657.00 820.71 656.67 819.93 656.33 819.16 C 657.57 819.30 658.80 819.45 660.03 819.60 C 659.26 818.96 658.48 818.32 657.69 817.68 C 655.80 817.34 653.43 817.26 651.76 816.21 C 649.80 814.91 648.07 813.18 646.32 811.60 C 644.02 812.35 641.70 813.03 639.37 813.65 C 638.57 814.73 637.79 815.81 637.01 816.90 C 636.83 815.01 636.65 813.12 636.47 811.23 C 641.31 811.35 645.90 810.81 650.63 809.81 C 650.24 810.76 649.85 811.70 649.46 812.64 C 653.75 810.33 657.44 809.30 662.34 808.94 C 669.00 808.19 675.65 807.29 682.31 806.52 C 681.12 806.30 679.92 806.02 678.73 805.70 C 684.27 804.95 689.81 804.12 695.34 803.32 C 701.46 802.22 707.48 800.98 713.73 800.86 Z" fill="#a2deb7" />
<path d="M 678.73 805.70 C 679.92 806.02 681.12 806.30 682.31 806.52 C 675.65 807.29 669.00 808.19 662.34 808.94 C 657.44 809.30 653.75 810.33 649.46 812.64 C 649.85 811.70 650.24 810.76 650.63 809.81 C 645.90 810.81 641.31 811.35 636.47 811.23 C 636.65 813.12 636.83 815.01 637.01 816.90 C 637.79 815.81 638.57 814.73 639.37 813.65 C 641.70 813.03 644.02 812.35 646.32 811.60 C 648.07 813.18 649.80 814.91 651.76 816.21 C 653.43 817.26 655.80 817.34 657.69 817.68 C 658.48 818.32 659.26 818.96 660.03 819.60 C 658.80 819.45 657.57 819.30 656.33 819.16 C 656.67 819.93 657.00 820.71 657.32 821.49 C 656.19 822.50 655.04 823.49 653.91 824.51 C 654.93 824.52 655.95 824.54 656.97 824.55 C 657.30 825.61 657.63 826.66 657.96 827.71 C 655.82 827.24 653.81 826.63 651.88 825.57 C 652.14 826.37 652.40 827.17 652.66 827.96 C 651.78 827.48 650.90 827.00 650.01 826.52 C 649.47 826.76 648.92 827.01 648.37 827.26 C 647.65 826.45 646.93 825.64 646.21 824.83 C 646.84 826.71 647.47 828.59 648.11 830.47 C 649.35 830.46 650.59 830.46 651.83 830.45 C 651.34 831.34 650.85 832.22 650.36 833.10 C 651.22 833.51 652.07 833.92 652.93 834.32 C 656.47 833.40 659.98 833.20 663.62 833.19 C 668.15 833.20 672.24 831.37 676.71 831.18 C 679.64 831.01 682.57 830.99 685.50 830.91 C 685.59 830.17 685.67 829.43 685.76 828.69 C 686.53 829.73 687.29 830.76 688.05 831.80 C 673.44 834.19 658.73 835.44 644.03 837.12 C 626.11 839.02 607.99 839.96 590.01 840.94 C 581.32 841.26 572.70 842.01 564.00 842.01 C 557.95 842.00 551.93 842.39 545.89 842.61 C 522.34 843.05 498.75 843.32 475.21 842.65 C 441.75 841.57 408.49 840.48 375.16 836.94 C 376.18 834.06 377.05 831.20 377.77 828.23 C 375.22 827.97 372.67 827.65 370.13 827.30 C 372.11 824.85 374.10 823.03 374.01 819.65 C 375.10 817.36 376.36 815.17 377.66 813.00 C 377.62 814.31 377.58 815.61 377.54 816.92 C 379.25 816.94 380.95 816.97 382.66 817.00 C 382.17 817.71 381.68 818.41 381.19 819.12 C 382.02 819.54 382.85 819.95 383.68 820.37 C 384.25 818.63 384.72 816.86 385.13 815.08 C 386.43 815.83 387.75 816.58 389.06 817.33 C 390.98 816.18 392.99 815.03 394.76 813.64 C 394.45 812.15 393.08 811.81 391.96 810.96 C 390.85 812.46 389.72 813.95 388.59 815.45 C 388.99 814.12 389.39 812.80 389.79 811.48 C 387.43 811.11 385.04 810.91 382.68 810.51 C 384.50 810.20 386.33 809.93 388.16 809.68 C 403.43 810.76 418.73 811.79 434.04 812.20 C 441.36 812.61 448.65 813.17 456.00 813.01 C 468.03 812.78 479.98 813.98 492.00 813.98 C 510.52 813.98 529.00 814.19 547.52 813.48 C 557.68 812.99 567.86 813.14 578.02 812.80 C 588.66 812.02 599.32 811.99 609.96 811.17 C 632.90 809.61 655.86 808.06 678.73 805.70 Z" fill="#a2deb7" />
<path d="M 133.48 824.43 C 145.39 829.26 157.72 832.79 170.21 835.80 C 177.06 837.42 184.22 837.65 191.22 838.67 C 182.06 840.48 172.22 837.91 163.34 835.64 C 149.21 831.85 135.30 827.17 121.82 821.49 C 125.91 821.95 129.68 822.82 133.48 824.43 Z" fill="#59b483" />
<path d="M 545.89 842.61 C 549.69 842.61 553.47 842.93 557.23 843.42 C 552.82 843.76 548.41 843.89 544.00 843.90 C 521.00 844.05 498.00 844.06 475.00 843.95 C 470.57 843.94 466.18 843.76 461.76 843.41 C 466.23 842.86 470.71 842.58 475.21 842.65 C 498.75 843.32 522.34 843.05 545.89 842.61 Z" fill="#59b483" />
<path d="M 660.28 863.55 C 650.97 864.97 641.61 865.71 632.22 866.36 C 613.23 867.67 594.23 868.73 575.21 869.33 C 569.65 869.60 564.11 869.47 558.60 868.62 C 568.99 867.53 579.43 868.34 589.84 867.38 C 609.80 866.56 629.72 865.39 649.61 863.45 C 653.18 863.10 656.71 863.33 660.28 863.55 Z" fill="#59b483" />
<path d="M 476.01 868.92 C 495.67 868.96 515.33 869.12 535.00 868.93 C 543.09 869.23 550.66 868.13 558.49 869.49 C 547.66 870.38 536.85 870.08 526.00 870.35 C 504.65 870.78 483.35 870.04 462.00 869.87 C 452.21 869.84 442.47 868.89 432.68 868.67 C 446.84 866.78 461.74 868.78 476.01 868.92 Z" fill="#59b483" />
</svg>