<?xml version="1.0" encoding="UTF-8" standalone="no"?>
<!DOCTYPE svg PUBLIC "-//W3C//DTD SVG 1.1//EN" "http://www.w3.org/Graphics/SVG/1.1/DTD/svg11.dtd">
<svg xmlns="http://www.w3.org/2000/svg" version="1.1" viewBox="104.03 99.08 817.03 817.03" width="1024.0pt" height="1024.0pt">
<path d="M 385.00 100.14 C 393.04 99.95 401.02 102.94 404.32 110.78 C 406.64 115.22 405.83 119.25 406.79 124.00 C 407.19 136.32 411.80 148.70 417.46 159.54 C 429.19 181.00 449.16 198.25 472.00 206.85 C 497.60 216.24 526.34 216.28 552.00 207.01 C 572.23 199.64 589.71 185.63 601.71 167.76 C 609.04 156.66 614.92 143.41 616.39 130.11 C 617.67 123.26 616.45 113.91 621.06 108.00 C 623.51 104.03 628.54 101.57 633.00 100.83 C 638.46 99.08 645.44 101.63 651.00 102.03 C 659.69 103.71 668.93 104.64 677.58 106.46 C 682.77 107.82 686.82 111.71 688.01 117.00 C 688.55 122.94 687.92 129.11 687.15 135.00 C 687.08 141.09 685.78 146.88 685.99 153.00 C 684.70 168.65 685.00 184.31 685.17 200.00 C 686.13 218.39 687.23 237.97 690.97 256.00 C 697.04 290.25 710.09 323.14 733.76 349.22 C 741.09 356.95 748.66 364.32 757.13 370.79 C 760.73 374.04 764.49 376.04 766.12 381.00 C 767.51 383.97 766.98 387.81 766.66 391.00 C 765.67 396.84 766.29 402.84 765.54 408.75 C 764.67 416.69 765.50 423.28 764.42 431.00 C 763.67 469.49 763.94 508.08 764.46 546.57 C 764.78 547.30 764.91 548.11 764.83 549.00 C 764.96 560.34 765.30 571.67 765.43 583.00 C 766.50 590.73 765.69 597.97 766.54 606.28 C 767.31 614.47 766.73 622.87 767.74 631.00 C 768.20 636.96 767.77 643.09 768.64 649.00 C 769.12 654.00 768.93 659.00 769.35 664.00 C 770.16 669.22 769.86 674.77 770.34 680.00 C 771.16 685.17 770.89 690.73 771.30 696.00 C 772.22 701.13 771.84 706.84 772.35 712.00 C 773.17 716.68 772.88 721.36 773.31 726.00 C 774.31 730.94 773.75 735.88 774.45 740.76 C 775.15 744.83 774.89 748.93 775.30 753.00 C 776.20 757.37 775.84 761.69 776.30 766.00 C 777.07 770.01 776.94 773.98 777.28 778.00 C 778.25 782.56 777.81 787.08 778.46 791.66 C 779.34 795.71 778.75 800.08 779.58 804.16 C 780.13 807.73 779.94 811.39 780.36 815.00 C 781.41 819.36 780.66 823.63 781.66 828.00 C 782.51 840.11 783.88 853.78 785.02 866.00 C 785.22 873.61 788.15 881.73 783.63 888.64 C 778.65 895.50 769.37 899.13 761.58 901.55 C 745.43 906.12 728.07 907.92 711.33 909.46 C 706.58 910.34 701.76 909.78 697.00 910.73 C 687.30 911.08 677.71 912.12 668.00 912.19 C 661.01 912.84 654.02 913.03 647.00 913.11 C 646.12 913.08 645.31 913.22 644.57 913.54 C 624.90 913.94 605.11 914.38 585.44 914.46 C 584.72 914.81 583.90 914.96 583.00 914.90 C 570.33 915.13 557.67 915.02 545.00 915.39 C 539.97 915.61 535.82 915.04 531.00 915.87 C 519.34 916.11 507.66 916.05 496.00 915.88 C 494.59 915.76 492.87 916.07 491.57 915.46 C 470.72 915.36 449.87 914.98 429.00 914.88 C 428.10 914.94 427.29 914.80 426.56 914.46 C 410.05 914.36 393.51 913.87 377.00 913.58 C 371.92 912.64 366.23 913.24 361.00 912.72 C 354.34 911.87 347.67 912.24 341.00 911.64 C 335.32 910.73 329.67 911.39 324.00 910.32 C 314.53 909.88 304.56 908.64 295.12 907.60 C 280.25 905.56 263.70 903.44 250.17 896.72 C 245.37 894.22 240.69 890.65 238.45 885.55 C 237.46 882.40 236.94 879.29 237.72 876.00 C 238.09 871.96 237.96 867.99 238.84 864.00 C 238.87 857.92 240.14 852.09 240.18 846.00 C 241.26 840.69 240.74 835.31 241.85 830.00 C 241.94 823.61 243.10 817.39 243.25 811.00 C 244.30 806.59 243.67 802.24 244.56 797.81 C 245.16 793.89 244.80 789.71 245.55 785.79 C 246.23 781.54 245.73 777.25 246.68 773.00 C 247.09 768.31 246.89 763.65 247.76 759.00 C 247.94 751.61 249.01 744.39 249.21 737.00 C 250.14 731.68 249.80 726.35 250.33 721.00 C 251.29 715.65 250.68 710.34 251.62 705.00 C 252.12 699.81 251.86 694.30 252.67 689.00 C 253.12 684.36 252.82 679.42 253.54 674.78 C 254.04 669.53 253.88 664.26 254.25 659.00 C 255.22 651.96 254.74 645.00 255.41 638.00 C 256.27 630.68 255.71 623.11 256.54 615.75 C 257.20 607.18 256.75 598.60 257.61 590.00 C 258.22 578.04 257.98 562.95 258.87 551.00 C 259.16 542.94 258.64 533.79 259.57 526.00 C 259.85 502.00 260.10 478.01 259.77 454.00 C 259.47 448.68 259.90 443.13 259.18 438.00 C 258.86 432.40 259.20 426.61 258.68 421.06 C 257.89 412.50 258.34 401.47 257.15 393.00 C 257.01 389.68 256.84 386.32 256.99 383.00 C 257.72 379.28 259.92 376.09 262.96 373.83 C 284.99 357.18 303.23 335.91 315.25 311.04 C 320.45 300.49 324.61 289.27 327.92 278.00 C 338.61 240.75 339.74 199.70 338.73 161.00 C 338.36 158.31 338.98 155.53 338.13 153.00 C 337.83 149.49 338.12 145.37 337.42 141.85 C 336.80 137.54 337.17 133.20 336.28 129.00 C 335.87 125.38 335.84 121.64 335.96 118.00 C 336.74 112.98 340.35 108.98 345.00 107.08 C 357.89 104.24 371.93 102.64 385.00 100.14 Z" fill="#66d8c4"/>
<path d="M 380.81 125.22 C 382.39 128.44 381.68 131.58 382.74 135.00 C 384.04 147.42 385.81 160.51 386.19 173.00 C 387.79 188.43 386.34 204.70 387.59 220.13 C 388.35 236.24 391.15 252.97 396.92 268.00 C 404.08 287.87 416.69 306.30 433.00 319.90 C 452.87 336.68 478.00 346.96 504.00 348.06 C 515.32 348.53 526.43 348.17 537.43 345.46 C 562.18 340.22 586.14 327.17 602.97 308.00 C 614.76 294.69 622.96 279.33 628.54 262.55 C 632.98 248.23 635.92 233.07 636.27 218.00 C 637.53 203.30 636.40 188.03 637.46 173.28 C 638.25 168.54 637.72 163.75 638.64 159.00 C 639.41 149.49 640.51 139.41 641.96 130.00 C 642.20 128.51 641.79 124.97 644.00 124.91 C 649.04 124.71 653.84 125.65 658.77 126.42 C 660.69 127.28 663.61 126.36 664.54 128.44 C 663.77 131.86 664.24 135.14 663.54 138.71 C 662.83 142.11 663.14 145.52 662.74 149.00 C 662.13 151.90 662.03 155.04 661.95 158.00 C 661.94 162.70 661.17 167.29 661.11 172.00 C 660.95 183.66 660.86 195.35 661.35 207.00 C 662.16 212.58 661.71 218.28 662.42 223.85 C 665.05 257.19 671.39 290.80 686.26 320.95 C 698.78 346.58 717.01 368.92 739.65 386.35 C 740.78 387.43 742.75 388.43 743.17 390.00 C 742.90 395.64 743.10 401.40 742.37 407.00 C 741.72 415.03 742.16 422.94 741.30 431.00 C 740.34 470.95 740.51 512.04 741.42 552.00 C 742.36 563.60 741.58 575.44 742.71 587.00 C 743.13 595.33 742.79 603.75 743.68 612.00 C 744.09 618.13 743.91 625.01 744.56 631.19 C 745.19 637.08 744.79 642.89 745.42 648.84 C 746.18 654.81 745.85 661.19 746.37 667.00 C 747.32 673.91 746.69 681.04 747.82 688.00 C 748.06 692.26 747.96 696.49 748.46 700.75 C 749.17 705.50 748.81 710.26 749.36 715.00 C 750.25 720.64 749.78 726.35 750.65 732.00 C 751.20 736.38 750.75 740.93 751.54 745.25 C 752.22 749.68 751.73 754.57 752.66 759.00 C 753.12 763.69 752.89 768.34 753.76 773.00 C 753.92 780.07 755.07 786.93 755.20 794.00 C 756.10 797.98 755.88 801.97 756.28 806.00 C 757.16 810.00 756.84 813.97 757.37 818.00 C 758.18 821.96 757.87 825.97 758.41 830.00 C 759.33 834.04 758.71 838.07 759.58 842.15 C 760.21 845.48 759.76 849.07 760.54 852.36 C 761.11 855.83 760.82 859.40 761.42 862.85 C 762.31 866.88 761.70 871.56 762.54 875.60 C 762.36 876.39 761.85 876.90 761.00 877.14 C 746.70 882.06 730.88 883.91 715.86 885.59 C 703.41 886.61 691.38 887.87 679.00 888.25 C 670.60 889.44 662.36 888.63 654.00 889.61 C 645.34 890.14 636.66 889.87 628.00 890.41 C 618.96 891.01 610.06 890.93 601.00 891.11 C 599.59 891.20 597.85 890.91 596.57 891.54 C 546.10 892.18 495.47 892.56 445.00 891.58 C 430.76 890.86 416.29 891.11 402.00 890.75 C 390.15 889.63 377.95 890.38 366.00 889.25 C 359.74 888.87 353.32 889.10 347.00 888.39 C 341.59 887.86 336.03 888.21 330.67 887.46 C 308.56 885.86 285.34 884.19 264.16 877.68 C 262.81 876.75 261.11 877.16 261.23 875.00 C 262.29 869.36 261.63 863.61 262.69 858.00 C 264.26 836.52 266.82 813.62 268.33 792.00 C 269.28 787.75 268.79 783.58 269.46 779.30 C 270.25 774.95 269.70 770.28 270.62 766.00 C 271.15 761.37 270.87 756.56 271.64 752.00 C 272.17 747.76 271.85 743.50 272.46 739.25 C 273.27 734.33 272.74 729.58 273.54 724.72 C 274.07 720.15 273.92 715.56 274.32 711.00 C 275.15 706.15 274.86 700.87 275.24 696.00 C 276.28 689.33 275.71 682.67 276.60 676.00 C 277.23 670.10 276.77 663.91 277.68 658.00 C 278.12 651.90 277.90 645.84 278.54 639.75 C 279.26 632.57 278.78 625.15 279.65 618.00 C 280.20 610.36 279.76 602.60 280.61 595.00 C 281.13 584.96 280.92 575.07 281.76 565.00 C 282.10 556.00 281.95 547.00 282.40 538.00 C 282.97 528.35 282.89 520.57 283.02 511.00 C 282.96 487.05 283.43 462.91 282.38 439.00 C 281.81 430.81 282.24 422.03 281.45 413.77 C 280.84 408.56 281.19 403.23 280.70 398.00 C 280.63 395.36 279.77 392.05 280.54 389.55 C 296.21 377.57 310.23 363.72 321.42 347.42 C 329.94 335.49 337.42 321.53 342.90 308.00 C 353.34 281.85 359.21 253.25 361.42 225.14 C 362.39 219.79 361.83 214.16 362.54 208.75 C 363.20 200.54 362.91 192.23 363.03 184.00 C 362.90 178.03 363.14 171.92 362.43 166.00 C 361.91 153.68 360.77 141.20 359.18 129.00 C 359.15 127.54 360.82 127.10 362.00 127.05 C 367.89 126.27 374.98 124.34 380.81 125.22 Z" fill="#c3feed"/>
<path d="M 410.45 190.46 L 410.54 190.46 C 424.11 207.06 441.36 219.58 461.00 228.00 C 492.98 241.12 530.49 241.20 562.65 228.60 C 581.96 220.87 599.26 208.70 613.29 193.27 L 613.76 193.27 L 614.05 194.00 C 614.11 203.51 614.39 213.69 613.38 223.11 C 611.40 243.08 606.07 262.13 595.24 279.15 C 591.18 286.10 585.13 292.67 579.54 298.54 C 577.16 300.00 575.35 302.35 573.00 303.87 C 564.28 310.83 553.50 316.32 543.00 319.67 C 528.24 324.30 512.97 324.81 497.42 323.54 C 495.17 322.34 492.34 323.17 490.00 321.95 C 469.02 318.12 449.96 306.23 436.17 290.00 C 427.02 279.02 420.45 266.60 416.13 253.00 C 411.02 236.30 409.62 219.76 409.46 202.36 C 410.25 198.59 409.28 194.06 410.45 190.46 Z" fill="#c3feed"/>
</svg>