<?xml version="1.0" encoding="UTF-8" standalone="no"?>
<!DOCTYPE svg PUBLIC "-//W3C//DTD SVG 1.1//EN" "http://www.w3.org/Graphics/SVG/1.1/DTD/svg11.dtd">
<svg xmlns="http://www.w3.org/2000/svg" version="1.1" viewBox="0 0 1024 1024" width="1024.0pt" height="1024.0pt">
<path d="M 411.00 158.13 C 415.67 157.37 419.69 159.05 423.54 161.46 C 441.91 175.97 464.29 181.23 487.00 183.99 C 490.98 183.92 494.12 184.66 498.00 184.97 C 508.64 184.89 519.40 185.42 530.00 184.67 C 533.97 183.54 538.15 184.52 542.00 183.23 C 544.48 182.83 546.64 183.20 549.00 182.09 C 551.95 182.33 554.10 180.84 557.00 180.94 C 558.99 179.79 561.14 180.38 563.05 179.27 C 573.11 176.77 581.97 173.01 591.00 167.98 C 596.77 164.78 600.62 160.18 607.00 158.09 C 612.97 157.16 619.02 160.42 624.42 162.57 C 655.63 174.70 686.85 186.63 718.00 199.05 C 725.68 202.32 733.70 204.76 741.00 208.87 C 755.29 215.93 769.63 226.57 779.92 239.00 C 785.85 245.49 790.46 252.34 795.60 259.40 C 827.70 305.24 860.11 351.35 891.44 397.55 C 893.93 400.98 894.34 404.84 893.92 409.00 C 892.28 414.70 886.99 419.11 882.17 422.25 C 838.96 453.11 795.59 483.64 752.25 514.25 C 751.69 517.62 752.12 521.53 751.99 525.00 C 752.00 626.35 751.96 727.66 752.00 829.00 C 751.71 831.51 752.55 835.03 751.34 837.25 C 749.89 843.42 743.63 848.64 737.42 849.46 C 735.39 850.25 733.15 849.80 731.00 850.38 C 728.27 851.36 725.74 850.70 723.00 851.92 C 719.77 851.75 717.27 853.30 714.00 853.05 C 710.64 853.92 707.19 853.75 704.00 854.92 C 702.26 855.05 700.22 854.84 698.59 855.54 C 696.24 856.35 693.94 855.56 691.70 856.58 C 689.31 857.38 687.02 856.56 684.68 857.58 C 682.26 858.15 679.63 857.74 677.26 858.39 C 675.07 859.44 672.15 858.61 670.06 859.30 C 667.59 860.25 664.39 859.76 662.00 860.22 C 659.01 861.29 656.04 860.76 653.00 861.27 C 651.63 861.77 650.45 861.87 649.00 861.96 C 644.50 861.90 640.57 863.45 636.00 863.07 C 631.32 863.90 626.74 864.04 622.00 864.36 C 617.98 865.54 613.92 864.53 609.71 865.57 C 605.23 866.42 600.50 865.52 596.17 866.57 C 590.36 867.25 586.02 866.75 580.26 867.43 C 574.09 868.62 567.10 867.36 561.00 868.65 C 553.76 869.08 546.29 869.01 539.00 869.01 C 522.33 869.34 506.71 869.61 490.00 869.25 C 479.08 868.59 467.73 869.62 457.00 868.31 C 451.67 867.87 446.34 868.12 441.00 867.80 C 435.00 866.21 428.02 867.77 422.00 866.22 C 418.09 865.83 414.21 866.27 410.32 865.54 C 406.47 864.73 402.54 865.38 398.74 864.46 C 395.09 863.72 391.51 864.33 387.89 863.39 C 385.04 862.54 381.62 863.46 378.71 862.43 C 376.32 861.62 373.46 862.40 371.11 861.62 C 368.40 860.58 365.04 861.44 362.32 860.57 C 359.41 859.49 356.63 860.51 353.64 859.46 C 351.20 858.70 348.63 859.32 346.23 858.62 C 344.03 857.55 341.65 858.39 339.23 857.57 C 336.64 856.69 334.00 857.29 331.43 856.54 C 329.45 855.57 327.27 856.32 325.17 855.62 C 322.75 854.70 320.31 855.31 317.86 854.42 C 315.73 853.63 313.67 854.39 311.58 853.46 C 309.59 852.59 306.97 853.38 304.86 852.34 C 300.10 851.77 294.86 850.73 290.00 850.00 C 285.94 849.55 281.57 848.51 278.73 845.27 C 275.54 842.66 273.46 839.08 273.02 835.00 C 272.99 733.33 273.04 631.66 273.01 530.00 C 272.83 524.94 273.39 519.18 272.73 514.27 C 264.31 508.71 254.79 501.67 246.21 495.74 C 212.54 471.74 178.66 447.89 145.00 423.87 C 140.11 420.31 134.59 417.70 132.00 412.00 C 129.43 407.20 130.80 400.26 134.25 396.15 C 155.94 363.99 178.31 332.26 200.25 300.22 C 214.84 279.58 225.73 262.83 241.27 242.26 C 245.85 237.66 250.76 231.26 256.04 227.14 C 267.06 216.97 280.66 209.29 294.35 203.38 C 306.61 198.66 318.68 193.68 331.00 189.03 C 347.93 182.16 365.07 175.92 382.00 169.05 C 391.36 165.84 401.92 160.78 411.00 158.13 Z" fill="#8cb0bf" />
<path d="M 600.46 199.46 L 600.64 199.46 C 601.66 201.69 599.12 205.55 598.74 208.00 C 596.82 211.37 596.43 214.19 594.22 218.04 C 591.84 222.10 589.19 227.48 585.74 230.68 C 581.11 236.99 573.76 243.82 567.00 248.09 C 547.34 262.17 520.94 267.66 497.00 263.77 C 494.30 263.47 490.61 261.96 488.00 262.03 C 485.79 260.49 483.28 261.12 481.00 259.87 C 471.38 256.44 463.16 252.17 454.81 246.20 C 447.54 241.10 443.71 236.51 437.73 230.16 C 431.93 222.42 428.08 215.07 424.88 206.00 C 424.46 204.27 422.77 202.06 423.19 200.25 C 423.94 199.98 424.76 200.02 425.65 200.38 C 429.40 202.99 433.06 203.42 437.00 205.14 C 441.30 206.63 446.32 208.30 450.71 209.35 C 454.76 211.61 459.07 210.79 463.19 212.68 C 467.55 213.40 473.64 214.85 478.00 215.09 C 479.36 215.56 479.80 216.05 481.34 215.46 C 484.07 216.54 487.31 215.64 490.06 216.68 C 507.40 217.55 526.97 217.74 544.00 215.83 C 562.83 212.88 583.34 207.85 600.46 199.46 Z" fill="#bed8e1" />
<path d="M 387.69 200.27 C 388.25 207.02 391.28 213.75 393.76 220.00 C 399.88 235.62 409.12 249.23 421.04 260.85 C 430.16 270.10 440.80 277.73 452.44 283.55 C 465.86 290.33 481.49 295.25 496.41 296.46 C 500.33 297.58 504.96 296.67 509.00 297.42 C 519.75 297.58 530.32 296.83 540.82 294.69 C 542.24 293.66 544.65 294.34 546.08 293.25 C 561.42 289.59 576.30 282.35 589.00 272.88 C 593.98 269.37 598.43 264.93 603.04 261.04 C 608.54 254.93 614.63 249.00 618.87 241.96 C 621.63 238.77 623.45 234.05 625.66 230.74 C 629.76 221.82 633.97 212.62 636.01 203.00 C 636.21 201.86 636.42 199.86 638.00 199.98 C 639.63 201.10 641.73 201.60 643.55 202.45 C 669.36 212.61 695.44 222.40 721.00 232.96 C 727.07 235.46 733.13 238.82 738.77 242.20 C 739.51 243.34 741.94 243.52 742.17 245.00 C 741.87 247.43 740.76 250.33 739.40 252.39 C 739.78 253.76 738.92 254.76 738.32 256.20 C 737.01 260.66 736.00 264.46 735.00 269.00 C 730.98 287.36 727.82 305.78 725.46 324.41 C 724.51 326.48 725.39 329.20 724.42 331.32 C 723.74 334.06 724.24 336.96 723.54 339.75 C 722.71 343.11 723.17 346.58 722.70 350.00 C 721.57 356.15 722.11 360.88 721.58 367.00 C 720.62 375.21 721.04 383.76 720.72 392.00 C 720.08 394.87 721.05 398.96 720.35 402.00 C 720.52 408.04 720.62 414.92 720.34 421.00 C 720.51 425.75 720.66 431.29 720.18 436.00 C 721.14 438.94 719.69 443.37 720.58 446.28 C 720.68 458.30 720.18 469.84 720.45 481.78 C 720.43 487.21 720.16 490.02 720.35 496.00 C 720.13 496.97 720.23 497.73 720.65 498.31 C 720.47 499.57 719.79 501.03 720.56 502.41 C 720.02 506.33 720.48 510.12 720.29 514.00 C 720.71 517.83 719.97 521.91 720.38 526.00 C 719.97 528.95 720.90 532.18 720.20 535.00 C 720.70 536.60 720.75 536.37 720.30 538.00 C 720.65 552.49 720.06 566.62 720.42 581.15 C 719.92 601.82 720.57 622.36 720.23 643.00 C 720.78 647.85 719.86 654.33 720.34 659.00 C 719.85 674.08 720.65 689.01 720.11 704.00 C 720.61 712.08 719.91 720.55 720.54 728.58 C 719.67 731.18 720.85 734.29 720.19 737.00 C 720.34 746.14 720.18 754.79 720.32 764.00 C 720.58 771.62 719.81 779.42 720.54 787.35 C 719.92 791.54 720.56 797.31 720.54 801.76 C 720.00 808.23 720.47 813.58 720.15 820.00 C 719.69 821.50 718.24 819.83 717.00 820.75 C 705.97 821.86 693.02 824.15 682.27 825.39 C 679.66 826.36 676.67 825.61 674.00 826.67 C 666.12 827.25 657.81 828.73 650.00 829.15 C 648.14 829.12 646.93 830.26 645.00 829.70 C 637.95 830.65 630.95 831.15 624.00 831.97 C 618.77 831.73 614.18 833.23 609.00 833.02 C 605.20 832.69 601.76 834.23 598.00 833.93 C 590.08 833.92 585.11 835.11 577.00 835.08 C 575.76 834.82 574.76 836.05 573.74 835.40 C 564.54 835.81 556.38 836.13 547.00 836.12 C 544.16 835.99 540.64 836.86 538.00 836.31 C 534.35 836.35 529.81 837.13 526.33 836.43 C 523.82 837.30 520.64 836.60 518.00 836.73 C 509.55 837.06 500.50 836.76 492.00 836.74 C 490.94 837.02 489.82 836.92 488.63 836.45 C 481.85 837.08 473.42 835.70 467.00 836.17 C 460.52 835.89 452.52 835.86 446.00 835.13 C 439.22 835.07 433.63 834.63 427.00 834.20 C 422.91 833.83 418.95 834.24 414.91 833.37 C 410.33 832.76 405.55 833.17 401.00 832.09 C 394.61 832.14 390.18 831.03 382.88 830.61 C 371.55 829.59 360.36 827.99 349.00 826.82 C 342.95 825.65 336.88 825.51 331.00 824.07 C 322.96 823.25 312.14 821.38 304.44 819.58 C 304.93 814.12 303.98 808.22 304.54 803.34 C 303.74 799.76 304.98 793.60 304.24 790.00 C 305.00 787.52 304.01 785.40 304.59 783.14 C 304.61 779.50 303.84 777.34 304.62 773.81 C 303.79 764.58 304.90 751.68 304.34 741.00 C 304.55 725.58 304.37 710.35 304.38 695.00 C 304.43 658.64 304.33 621.26 304.42 585.00 C 304.38 580.43 304.70 574.44 304.36 570.13 C 305.07 568.07 303.82 564.95 304.56 562.82 C 304.79 559.63 303.88 555.78 304.56 552.65 C 304.31 532.50 304.58 511.93 304.40 491.77 C 304.09 490.58 304.17 488.98 304.62 487.83 C 304.20 464.36 304.25 440.61 304.27 417.00 C 304.74 413.15 303.46 407.25 304.54 403.44 C 304.03 402.78 303.89 401.97 304.10 401.00 C 304.06 392.74 304.11 384.25 303.91 376.00 C 303.86 372.28 302.92 368.72 303.04 365.00 C 303.03 359.80 302.04 353.15 301.99 348.00 C 301.67 345.18 302.06 342.70 301.09 340.00 C 301.14 335.15 300.01 330.83 299.76 326.00 C 298.54 323.02 299.54 319.87 298.28 317.00 C 297.41 309.61 295.89 302.35 294.75 295.00 C 294.38 290.68 292.26 282.99 291.64 278.18 C 290.74 276.74 291.38 274.89 290.38 273.63 C 289.17 264.89 285.71 254.01 282.31 245.81 C 281.90 243.86 284.59 244.04 285.67 242.67 C 292.53 237.93 301.02 233.69 308.73 230.70 C 310.12 229.31 312.69 229.42 314.24 228.31 C 326.68 223.35 339.18 218.67 351.59 213.57 C 361.79 209.86 371.95 205.88 382.00 201.84 C 383.66 201.46 385.99 199.39 387.69 200.27 Z" fill="#bed8e1" />
<path d="M 258.76 276.00 C 259.26 279.13 259.83 280.51 260.38 283.71 C 261.47 285.20 260.46 287.07 261.68 288.29 C 262.20 292.66 263.68 297.68 264.10 302.00 C 265.35 305.29 264.76 308.68 265.96 312.00 C 265.79 315.65 267.45 318.30 267.11 322.00 C 268.38 324.30 267.62 326.50 268.34 328.92 C 269.52 337.13 270.92 348.90 271.35 357.08 C 272.36 361.59 271.54 366.71 272.63 371.13 C 273.33 383.04 272.80 394.20 273.18 406.00 C 272.96 417.83 273.12 431.91 272.87 444.00 C 272.35 453.29 272.91 464.48 272.64 473.82 C 271.31 474.84 269.81 473.00 268.80 472.28 C 261.12 466.84 253.47 461.66 245.87 456.25 C 241.83 452.75 237.28 450.33 233.00 446.97 C 225.47 441.52 215.15 434.44 208.00 428.92 C 195.20 420.47 181.59 409.69 169.32 401.68 C 168.80 399.75 171.91 398.26 172.29 396.25 C 174.68 393.69 176.26 390.25 178.75 387.75 C 179.54 385.34 181.72 383.99 182.54 381.56 C 185.72 378.91 187.44 374.12 190.25 371.13 C 203.67 351.41 218.64 330.48 232.12 311.00 C 240.36 298.85 248.86 286.95 257.20 275.00 C 257.61 273.59 258.94 275.08 258.76 276.00 Z" fill="#bed8e1" />
<path d="M 767.38 274.39 L 767.61 274.39 C 768.35 276.53 769.70 278.20 770.98 280.00 C 789.64 306.76 807.99 333.51 826.75 360.16 C 834.51 372.13 843.21 383.10 851.19 394.89 C 852.43 397.42 854.88 398.98 855.60 401.60 C 845.89 408.12 836.53 415.10 826.92 421.75 C 825.23 422.23 824.85 423.61 823.33 424.33 C 810.41 433.92 797.30 442.97 784.20 452.26 C 781.64 454.72 778.18 456.19 775.64 458.64 C 772.68 460.19 770.22 462.78 767.21 464.27 C 765.59 465.93 763.44 467.44 761.31 468.31 C 758.78 470.79 755.40 472.36 752.71 474.70 C 752.14 474.82 751.92 474.25 752.05 473.00 C 751.96 455.70 752.17 436.06 751.58 419.00 C 752.08 416.18 751.08 413.48 751.75 411.00 C 750.85 408.44 752.32 406.24 751.46 403.66 C 751.59 394.57 752.15 385.31 752.00 376.00 C 752.32 373.68 751.62 370.80 752.58 368.66 C 753.00 364.82 752.80 360.81 753.25 357.00 C 755.71 329.96 759.38 303.24 765.93 277.00 C 765.82 275.94 766.30 275.07 767.38 274.39 Z" fill="#bed8e1" />
</svg>