<?xml version="1.0" encoding="UTF-8" standalone="no"?>
<!DOCTYPE svg PUBLIC "-//W3C//DTD SVG 1.1//EN" "http://www.w3.org/Graphics/SVG/1.1/DTD/svg11.dtd">
<svg xmlns="http://www.w3.org/2000/svg" version="1.1" viewBox="96.82 93.5 831.56 831.56" width="1024.0pt" height="1024.0pt">
<path d="M 414.00 93.88 C 419.45 94.21 423.94 98.07 425.99 102.99 C 428.11 108.09 427.70 114.00 429.17 118.93 C 430.23 122.44 433.62 125.35 436.23 127.77 C 451.72 142.04 471.33 151.57 492.13 154.89 C 511.44 158.28 531.80 156.82 550.31 150.30 C 566.01 144.98 580.24 135.63 591.83 123.82 C 596.59 119.09 595.35 111.98 597.00 105.96 C 598.42 99.72 603.32 94.26 609.99 93.89 C 616.50 93.55 623.47 95.78 629.81 97.19 C 644.08 100.47 657.84 103.73 671.30 109.69 C 685.21 115.80 697.98 124.55 708.82 135.18 C 713.90 140.15 718.87 145.12 723.36 150.63 C 735.49 165.44 745.08 182.24 755.62 198.41 C 759.05 203.95 762.18 209.24 760.04 215.98 C 757.93 223.39 750.10 226.39 744.22 230.23 C 725.27 242.27 707.18 255.76 689.23 269.24 C 684.06 273.03 679.31 277.32 674.32 281.33 C 671.58 283.70 667.76 283.60 664.35 283.98 C 663.08 287.65 662.03 291.34 661.15 295.13 C 659.24 302.12 657.04 309.03 654.97 315.97 C 650.01 332.06 645.87 348.46 643.07 365.07 C 641.30 375.23 640.52 385.75 641.11 396.05 C 641.43 402.34 645.67 407.06 648.73 412.28 C 668.20 444.16 683.97 478.38 696.45 513.57 C 708.75 548.42 718.59 583.98 727.09 619.93 C 744.74 693.92 756.45 770.95 768.98 846.06 C 769.89 851.85 771.93 858.77 770.52 864.54 C 768.91 870.37 762.96 874.12 758.13 877.14 C 736.63 890.40 711.26 898.51 686.97 904.97 C 646.46 915.34 604.71 921.27 563.00 923.77 C 554.32 924.05 545.67 924.64 537.00 925.01 C 522.34 925.06 507.67 924.97 493.00 925.04 C 442.34 923.56 392.15 918.46 342.89 906.13 C 326.37 902.09 310.11 897.04 294.32 890.68 C 283.41 886.22 272.41 880.99 262.65 874.35 C 258.69 871.54 254.59 868.09 253.93 862.96 C 253.26 857.40 254.84 851.25 255.73 845.75 C 261.57 810.90 267.27 776.02 273.15 741.18 C 277.35 717.26 281.86 693.41 286.59 669.59 C 298.54 609.83 312.84 551.77 334.79 494.80 C 346.32 465.69 359.46 437.60 375.93 410.93 C 379.15 405.68 382.75 401.55 382.93 395.06 C 383.89 371.56 378.73 347.15 372.37 324.61 C 369.29 313.51 365.37 302.63 362.62 291.47 C 361.96 288.84 360.97 286.36 359.94 283.88 C 356.68 283.48 353.29 283.56 350.58 281.44 C 328.87 263.95 306.25 247.34 282.87 232.13 C 278.11 228.92 272.66 226.40 268.32 222.66 C 263.55 218.58 262.51 211.38 264.82 205.73 C 266.73 201.10 269.97 196.88 272.62 192.62 C 284.99 173.35 297.58 152.10 314.17 136.16 C 324.51 125.58 336.83 116.40 350.40 110.39 C 365.46 103.74 381.49 100.17 397.41 96.39 C 402.68 95.16 408.58 93.50 414.00 93.88 Z" fill="#69cec2"/>
<path d="M 404.95 119.46 C 406.38 124.00 407.00 128.60 407.75 133.28 C 410.78 150.47 415.36 166.97 423.50 182.49 C 430.56 196.12 440.05 208.35 452.26 217.75 C 466.94 229.30 485.22 236.49 503.96 237.06 C 515.07 237.38 527.00 237.57 537.81 234.81 C 548.34 232.32 558.42 227.42 567.36 221.35 C 580.53 212.13 591.04 199.85 598.83 185.82 C 608.43 169.21 613.27 151.30 616.53 132.53 C 617.16 128.12 617.92 123.77 619.05 119.45 C 623.67 120.12 628.19 121.18 632.72 122.28 C 643.24 124.58 653.44 127.28 663.30 131.71 C 673.46 136.22 682.71 142.57 690.75 150.25 C 703.03 161.61 713.30 175.59 722.42 189.57 C 726.21 195.77 730.27 201.24 733.06 207.91 C 730.13 210.47 727.08 212.73 723.77 214.78 C 710.83 223.34 698.32 232.57 685.96 241.96 C 680.34 246.16 675.14 250.86 669.54 255.11 C 669.57 248.48 670.06 241.90 670.57 235.30 C 670.73 232.21 671.04 228.77 670.23 225.75 C 668.94 221.66 664.92 218.81 660.71 218.43 C 656.01 217.96 650.91 220.72 649.33 225.30 C 648.08 228.91 647.94 233.07 647.63 236.85 C 646.19 257.47 642.66 277.82 636.60 297.59 C 629.67 320.16 622.72 342.13 619.68 365.67 C 618.31 373.62 618.32 381.61 617.66 389.63 C 604.18 391.05 590.57 390.87 577.05 391.84 C 566.68 392.02 556.35 392.56 545.99 392.92 C 527.33 393.09 508.66 392.96 490.00 393.00 C 479.64 393.08 469.35 392.08 459.00 392.04 C 454.38 392.01 449.76 391.90 445.15 391.61 C 432.52 390.81 419.74 390.96 407.15 389.60 C 406.38 385.08 406.10 380.55 405.89 375.98 C 404.80 361.79 401.88 347.44 398.34 333.67 C 393.66 314.26 386.79 296.00 382.34 276.67 C 379.57 265.04 377.98 252.98 376.79 241.10 C 376.26 236.06 376.40 230.67 375.08 225.79 C 373.40 220.05 366.55 216.89 361.00 218.93 C 356.89 220.36 354.01 223.45 353.85 227.94 C 353.30 237.17 354.69 246.53 354.89 255.78 C 349.99 252.16 345.50 248.05 340.68 244.32 C 327.88 234.36 314.78 224.76 301.40 215.60 C 297.78 213.29 294.32 210.89 291.15 207.98 C 293.79 202.19 297.46 197.16 300.76 191.76 C 307.59 180.81 315.25 170.40 323.58 160.56 C 330.88 151.90 339.43 144.09 348.97 137.97 C 360.90 130.31 375.13 126.05 388.84 122.84 C 394.32 121.60 399.37 120.08 404.95 119.46 Z" fill="#c3fceb"/>
<path d="M 437.60 158.26 C 444.52 162.10 450.88 166.71 458.26 169.77 C 480.11 179.27 505.19 182.00 528.78 179.78 C 543.85 177.93 559.26 173.92 572.70 166.73 C 577.20 164.23 581.50 161.39 586.11 159.08 C 580.62 174.16 571.46 188.71 558.90 198.87 C 533.99 218.54 496.26 219.70 470.06 201.92 C 454.97 191.52 443.80 175.35 437.60 158.26 Z" fill="#c3fceb"/>
<path d="M 402.49 413.47 C 404.50 412.80 406.90 413.03 408.99 413.10 C 419.98 413.96 431.00 414.46 442.00 414.95 C 453.69 415.03 465.30 416.25 477.00 416.00 C 496.01 416.20 514.99 416.65 534.00 416.19 C 543.67 415.91 553.35 416.13 563.02 415.87 C 578.65 414.97 594.30 414.86 609.92 413.60 C 613.71 413.39 617.82 412.69 621.56 413.40 C 623.25 414.64 624.53 416.61 625.68 418.34 C 632.07 428.73 638.29 439.22 643.98 450.01 C 657.70 476.44 669.77 503.60 679.09 531.90 C 685.46 551.23 691.29 570.75 696.58 590.41 C 703.14 615.14 708.68 640.07 713.88 665.12 C 725.38 721.82 735.18 778.83 743.98 836.01 C 744.93 842.64 746.58 849.08 746.96 855.79 C 744.44 857.83 741.85 859.60 738.85 860.89 C 716.42 871.97 692.94 878.80 668.70 884.69 C 642.41 890.70 615.72 895.20 588.85 897.72 C 572.93 899.29 557.02 900.13 541.01 900.92 C 525.02 901.15 509.00 901.03 493.00 901.00 C 451.42 899.72 410.48 896.04 369.76 887.23 C 344.73 881.68 319.51 875.26 295.87 865.12 C 289.50 862.14 283.32 859.71 277.67 855.82 C 278.15 848.10 279.97 840.56 280.88 832.87 C 288.65 783.56 296.77 734.40 306.43 685.42 C 314.99 641.99 323.97 599.42 337.11 557.11 C 345.31 529.85 355.38 503.10 367.22 477.21 C 375.79 459.03 384.59 440.27 395.25 423.25 C 397.36 419.98 399.36 415.87 402.49 413.47 Z" fill="#c3fceb"/>
</svg>