<?xml version="1.0" encoding="UTF-8" standalone="no"?>
<!DOCTYPE svg PUBLIC "-//W3C//DTD SVG 1.1//EN" "http://www.w3.org/Graphics/SVG/1.1/DTD/svg11.dtd">
<svg xmlns="http://www.w3.org/2000/svg" version="1.1" viewBox="-29.11 175.8 894.99 894.99" width="836.0pt" height="1254.0pt">
<path d="M 314.08 176.08 C 316.58 175.80 319.02 176.32 320.76 178.24 C 323.91 181.85 325.71 186.45 328.89 190.09 C 338.79 201.65 351.79 210.41 365.81 216.19 C 382.90 222.97 400.71 225.40 419.00 225.80 C 433.68 225.26 448.10 223.61 462.13 219.10 C 479.38 213.68 495.70 204.37 507.66 190.65 C 510.74 187.17 512.65 183.01 515.38 179.33 C 516.79 177.43 518.72 176.20 521.12 176.07 C 525.57 175.83 530.40 177.94 534.56 179.41 C 551.63 185.64 568.52 192.24 584.94 200.06 C 600.09 206.95 613.45 216.03 625.66 227.32 C 645.35 245.21 662.32 266.90 676.99 289.02 C 682.82 297.29 687.27 306.23 691.79 315.25 C 693.72 319.39 695.05 323.60 693.01 328.01 C 691.02 332.37 686.33 334.39 682.24 336.29 C 667.81 342.56 653.70 349.48 639.77 356.79 C 626.83 363.14 613.91 369.53 601.06 376.06 C 596.35 378.56 591.32 379.88 586.29 381.51 C 583.77 382.07 583.53 384.80 582.89 386.87 C 581.52 393.25 580.65 399.71 579.07 406.04 C 573.73 429.99 565.11 451.70 562.32 476.26 C 561.63 483.14 560.74 490.15 561.03 497.06 C 561.18 500.88 562.69 504.17 564.51 507.46 C 567.60 512.97 570.87 518.39 574.29 523.70 C 592.73 551.93 609.04 581.59 624.46 611.55 C 638.90 640.41 652.20 669.86 664.18 699.83 C 672.70 721.63 680.54 743.71 688.19 765.82 C 692.13 777.40 695.79 789.06 699.20 800.81 C 705.87 823.69 712.43 846.62 718.28 869.72 C 726.21 902.11 734.19 934.73 739.36 967.68 C 739.87 971.35 740.53 975.79 739.27 979.35 C 737.85 983.04 734.72 986.24 731.72 988.72 C 725.17 993.93 717.76 998.12 709.85 1000.88 C 697.37 1005.29 683.91 1007.89 670.83 1009.82 C 666.36 1010.36 662.04 1011.17 657.68 1012.27 C 657.02 1016.84 657.02 1022.15 653.81 1025.78 C 649.08 1031.39 641.97 1035.36 635.39 1038.39 C 623.91 1043.63 612.08 1045.07 599.70 1046.69 C 588.21 1048.01 576.56 1048.25 565.00 1048.34 C 559.36 1048.44 553.63 1047.95 548.02 1048.50 C 544.40 1048.90 541.55 1050.70 538.38 1052.34 C 535.01 1054.16 531.48 1055.65 527.85 1056.88 C 508.08 1063.78 486.43 1066.80 465.64 1068.65 C 444.28 1070.79 422.46 1070.45 401.00 1070.34 C 380.81 1070.31 360.66 1068.59 340.76 1065.20 C 326.68 1062.46 313.30 1059.74 300.10 1053.89 C 295.34 1051.77 291.37 1048.63 286.05 1048.38 C 280.05 1048.04 274.01 1048.45 268.00 1048.33 C 252.46 1048.38 236.97 1046.94 221.66 1044.40 C 213.92 1043.11 206.37 1041.09 199.25 1037.76 C 193.10 1034.88 186.66 1030.96 182.33 1025.64 C 179.16 1021.95 179.11 1016.83 178.40 1012.26 C 174.85 1011.44 171.28 1010.74 167.66 1010.27 C 152.65 1008.21 138.12 1005.51 123.91 1000.10 C 117.32 997.51 111.17 993.71 105.53 989.47 C 102.11 986.79 98.23 983.18 97.16 978.82 C 96.25 974.62 97.00 969.86 97.60 965.64 C 102.38 934.52 109.74 903.71 117.10 873.11 C 123.77 847.15 130.70 821.21 138.56 795.60 C 149.76 758.12 163.29 721.27 178.01 685.05 C 200.12 631.68 225.56 577.70 257.39 529.40 C 262.47 521.66 267.34 513.89 271.82 505.77 C 273.49 502.68 274.89 499.64 274.90 496.05 C 274.93 490.05 274.12 484.04 273.73 478.05 C 272.55 462.92 268.48 449.13 264.44 434.61 C 260.43 419.86 256.50 404.87 254.30 389.73 C 253.86 387.04 253.24 384.39 252.62 381.74 C 247.34 380.97 242.21 380.07 237.38 377.68 C 227.06 372.67 216.80 367.53 206.47 362.53 C 188.94 353.56 171.29 344.70 153.23 336.81 C 148.75 334.76 143.95 332.86 142.12 327.85 C 140.00 322.03 142.68 316.42 145.24 311.26 C 148.51 304.96 151.78 298.58 155.55 292.56 C 167.58 273.59 180.91 255.70 196.56 239.55 C 210.07 225.42 225.82 212.20 243.31 203.30 C 261.54 194.11 280.90 186.79 300.21 180.21 C 304.71 178.72 309.37 176.64 314.08 176.08 Z" fill="#6bc5c3"/>
<path d="M 304.38 198.00 C 306.17 209.85 308.19 221.95 311.51 233.48 C 316.08 248.52 322.36 263.65 331.45 276.55 C 338.97 286.83 348.38 296.01 359.14 302.86 C 373.12 311.93 389.69 317.14 406.22 318.70 C 422.09 319.96 437.85 319.03 453.07 314.08 C 470.94 308.48 487.28 297.70 499.38 283.39 C 514.83 265.02 523.63 241.65 528.35 218.36 C 529.83 211.55 530.67 204.64 532.19 197.84 C 539.08 199.52 545.26 202.64 551.84 205.16 C 566.13 210.81 580.03 216.60 592.93 225.07 C 612.04 237.73 627.76 254.19 641.98 272.03 C 650.84 283.49 659.76 295.37 667.22 307.79 C 669.45 311.29 671.25 315.00 672.83 318.83 C 667.22 322.46 661.20 325.21 655.30 328.30 C 638.76 336.81 621.98 344.91 605.47 353.47 C 598.72 356.89 592.82 361.08 585.37 362.97 C 584.81 355.97 584.91 348.96 584.29 341.97 C 583.30 330.58 582.07 319.18 580.15 307.91 C 579.56 305.03 578.92 301.37 576.90 299.11 C 572.66 294.90 564.38 296.69 562.46 302.44 C 561.49 305.78 562.26 309.80 562.77 313.18 C 565.42 327.62 566.64 342.33 566.83 357.00 C 567.02 368.62 565.21 379.85 563.27 391.26 C 560.69 406.34 555.54 420.99 551.82 435.82 C 548.48 448.93 545.33 462.27 543.68 475.71 C 543.15 480.92 542.89 486.14 542.19 491.34 C 529.55 492.87 516.74 492.87 504.04 493.80 C 491.01 494.06 478.03 495.14 465.00 495.04 C 433.33 495.12 401.67 495.12 370.00 495.12 C 349.25 495.38 328.67 494.14 307.96 492.97 C 303.07 492.84 298.31 492.39 293.49 491.64 C 293.02 486.73 292.72 481.81 292.23 476.90 C 289.57 454.31 283.53 433.18 277.63 411.38 C 274.66 398.96 271.89 386.41 270.21 373.73 C 267.91 358.23 269.49 341.62 271.04 326.06 C 271.62 319.07 273.79 312.10 273.75 305.11 C 273.66 298.71 266.14 295.08 260.66 297.64 C 256.81 299.34 256.03 303.65 255.26 307.35 C 253.51 317.79 252.67 328.45 251.73 339.00 C 250.95 347.02 251.17 355.07 250.49 363.10 C 243.18 361.38 237.60 357.27 230.98 354.01 C 215.72 346.23 200.37 338.63 185.06 330.95 C 177.20 326.96 169.60 323.65 162.34 318.78 C 165.22 311.47 169.37 305.16 173.54 298.54 C 183.48 283.44 194.53 269.06 206.69 255.68 C 220.69 240.59 236.54 227.44 254.78 217.79 C 266.46 211.79 278.56 207.31 290.71 202.70 C 295.17 200.83 299.66 199.12 304.38 198.00 Z" fill="#c5efe6"/>
<path d="M 325.28 212.24 C 330.91 216.51 336.12 221.18 342.29 224.72 C 366.19 239.05 393.47 243.89 421.04 243.70 C 447.13 243.17 472.61 237.79 495.11 224.14 C 500.86 220.77 505.78 216.47 510.86 212.22 C 507.21 234.46 498.87 256.67 483.59 273.58 C 469.82 288.88 450.56 297.84 430.28 300.38 C 413.18 302.67 395.46 300.24 379.62 293.38 C 367.87 288.35 357.70 280.23 349.72 270.29 C 336.49 254.02 328.92 232.69 325.28 212.24 Z" fill="#c5efe6"/>
<path d="M 543.81 509.17 C 547.83 514.46 550.38 520.49 553.94 526.05 C 562.68 540.03 571.70 553.79 579.90 568.11 C 591.32 587.44 601.53 607.35 611.62 627.39 C 625.86 656.19 638.45 685.89 650.21 715.78 C 675.55 779.75 693.73 845.70 709.42 912.59 C 712.74 927.46 716.25 942.19 718.86 957.19 C 719.63 961.67 720.89 966.37 720.76 970.93 C 720.69 973.64 718.98 975.38 717.00 976.97 C 713.30 979.84 708.70 981.78 704.31 983.32 C 693.06 987.16 681.66 988.95 670.09 991.10 C 665.49 992.07 660.98 992.68 656.28 992.94 C 654.93 985.64 654.31 978.24 653.07 970.92 C 646.40 924.39 635.50 877.74 623.75 832.24 C 620.23 818.65 616.18 805.21 612.32 791.71 C 611.26 788.35 610.08 784.04 607.42 781.58 C 602.62 777.50 594.25 779.04 592.63 785.60 C 591.90 790.85 594.84 796.78 596.13 801.84 C 602.17 823.38 608.37 844.77 613.44 866.56 C 619.91 892.14 625.08 918.05 630.04 943.95 C 634.17 964.92 636.63 985.93 638.81 1007.17 C 638.91 1010.64 639.66 1014.17 636.68 1016.69 C 629.68 1022.85 618.73 1025.19 609.77 1026.70 C 589.09 1029.69 568.02 1030.41 547.16 1029.71 C 546.19 1024.23 545.92 1018.71 545.62 1013.17 C 543.85 992.47 541.43 971.83 538.74 951.23 C 536.88 937.44 534.76 923.70 533.15 909.88 C 532.65 906.50 532.33 902.41 530.48 899.47 C 526.94 894.81 519.27 895.13 516.17 900.14 C 514.41 903.23 515.28 907.86 515.66 911.23 C 517.29 921.56 518.35 931.95 519.66 942.32 C 522.22 960.26 523.68 978.37 525.64 996.39 C 526.80 1006.53 527.26 1016.73 528.36 1026.87 C 528.68 1030.14 528.77 1033.42 528.84 1036.70 C 525.80 1038.15 522.77 1039.56 519.54 1040.56 C 501.02 1046.20 481.59 1048.44 462.38 1050.36 C 447.95 1051.55 433.48 1052.19 419.00 1052.14 C 398.12 1052.31 376.94 1051.53 356.22 1048.78 C 343.04 1047.13 329.81 1044.71 317.06 1040.96 C 313.58 1039.95 310.35 1038.42 307.12 1036.80 C 307.20 1034.06 307.27 1031.31 307.49 1028.57 C 310.27 997.70 313.34 966.84 317.10 936.06 C 318.04 928.04 318.77 920.02 320.13 912.05 C 320.57 908.66 321.48 904.22 319.99 901.02 C 317.70 896.57 311.77 894.73 307.47 897.45 C 303.90 899.58 303.38 904.07 302.73 907.79 C 299.93 929.42 296.85 951.01 294.69 972.72 C 292.29 991.61 290.58 1010.51 289.41 1029.51 C 280.68 1030.45 271.74 1029.87 262.96 1029.78 C 246.69 1028.95 229.18 1028.07 213.49 1023.54 C 208.65 1022.06 203.12 1020.14 199.33 1016.67 C 196.63 1014.38 197.32 1010.73 197.43 1007.59 C 198.96 992.34 200.72 977.11 202.88 961.93 C 211.91 907.05 224.84 853.32 239.86 799.81 C 241.00 795.78 242.76 791.36 242.74 787.15 C 242.67 783.66 240.13 781.02 236.93 779.98 C 233.16 778.72 228.74 780.17 226.71 783.66 C 224.11 788.09 222.89 793.50 221.38 798.38 C 208.28 843.58 197.26 889.42 188.69 935.70 C 185.20 954.73 182.68 973.87 180.30 993.06 C 175.38 992.80 170.61 992.16 165.78 991.18 C 152.86 988.91 138.67 986.74 126.59 981.40 C 122.96 979.70 118.33 977.24 116.45 973.54 C 115.35 970.51 116.08 966.66 116.50 963.52 C 118.73 950.90 121.40 938.37 123.79 925.77 C 128.98 901.75 134.61 877.79 141.11 854.09 C 148.81 825.11 157.05 796.16 166.77 767.78 C 177.71 734.20 190.91 701.30 204.87 668.87 C 222.38 628.90 241.77 588.95 264.92 551.92 C 270.90 542.25 277.17 532.77 283.04 523.03 C 285.47 519.11 287.24 514.64 290.05 510.99 C 290.76 509.87 292.78 510.00 293.95 509.92 C 299.32 510.01 304.66 510.84 310.02 511.14 C 323.61 512.25 337.26 512.29 350.85 513.32 C 349.71 529.47 346.07 545.60 343.53 561.59 C 341.32 573.63 339.76 585.76 337.72 597.83 C 337.24 601.43 336.40 606.26 338.52 609.49 C 341.65 614.59 350.18 614.29 353.24 609.28 C 355.03 606.33 355.54 602.39 356.11 599.03 C 357.74 587.81 359.64 576.63 361.43 565.43 C 363.90 548.10 367.15 530.94 368.54 513.46 C 393.69 513.34 418.85 513.51 444.00 513.42 C 451.25 513.36 458.41 512.71 465.65 513.38 C 467.64 522.01 468.20 530.69 469.56 539.46 C 472.73 560.43 476.17 581.35 479.65 602.27 C 480.29 605.34 481.07 609.25 483.63 611.33 C 488.45 615.11 496.42 613.26 498.16 607.10 C 499.37 601.88 497.27 595.71 496.56 590.47 C 493.86 573.04 490.73 555.69 487.68 538.32 C 486.42 529.68 484.71 521.04 484.06 512.34 C 497.86 511.91 511.63 511.25 525.41 510.47 C 531.55 509.98 537.65 509.30 543.81 509.17 Z" fill="#c5efe6"/>
</svg>