<?xml version="1.0" encoding="UTF-8" standalone="no"?>
<!DOCTYPE svg PUBLIC "-//W3C//DTD SVG 1.1//EN" "http://www.w3.org/Graphics/SVG/1.1/DTD/svg11.dtd">
<svg xmlns="http://www.w3.org/2000/svg" version="1.1" viewBox="-49.14 155.26 935.18 935.18" width="836.0pt" height="1254.0pt">
<path d="M 331.12 156.15 C 335.74 155.59 341.38 155.46 344.77 159.22 C 349.40 164.29 350.79 172.50 351.94 179.04 C 353.92 191.81 355.69 204.76 357.57 217.54 C 362.83 219.36 368.57 219.36 373.89 221.11 C 388.20 224.95 400.83 232.45 412.19 241.82 C 414.21 243.43 416.35 245.35 418.73 246.37 C 422.21 244.07 425.12 240.95 428.52 238.51 C 440.17 229.55 453.18 222.77 467.63 219.74 C 471.08 218.99 474.99 218.79 478.21 217.33 C 480.69 201.27 481.85 184.07 486.32 168.34 C 487.88 163.36 490.89 157.76 496.34 156.35 C 501.17 155.26 506.61 155.95 511.18 157.80 C 515.21 159.45 517.76 163.01 518.90 167.11 C 521.09 174.81 519.64 183.99 520.23 192.02 C 521.36 204.42 520.83 215.93 523.87 228.21 C 525.37 233.71 528.60 238.90 530.73 244.27 C 536.29 258.62 538.21 274.07 534.11 289.08 C 530.81 303.04 523.93 314.58 518.77 327.78 C 512.75 342.43 507.64 359.08 507.93 375.04 C 507.99 383.79 510.91 391.62 514.64 399.39 C 522.44 415.35 528.89 432.16 535.23 448.75 C 546.51 479.27 554.65 510.81 560.15 542.87 C 562.83 555.01 564.13 567.35 566.49 579.54 C 570.41 603.65 574.81 627.64 579.30 651.65 C 583.71 676.01 589.59 699.83 595.11 723.92 C 597.43 733.58 599.45 743.31 602.06 752.90 C 616.24 809.07 632.05 864.81 650.18 919.83 C 657.71 943.17 665.84 966.35 674.87 989.15 C 677.99 997.43 682.75 1005.19 685.32 1013.63 C 688.42 1024.72 680.54 1036.80 670.87 1041.87 C 661.71 1047.07 651.24 1049.99 640.95 1052.01 C 630.03 1053.86 619.10 1055.27 608.00 1054.89 C 601.23 1055.10 594.09 1054.22 587.43 1055.44 C 585.18 1057.40 584.26 1061.07 582.52 1063.55 C 579.07 1069.22 572.38 1071.63 566.32 1073.36 C 551.91 1077.26 538.72 1075.78 524.00 1076.05 C 509.29 1075.72 494.63 1076.96 480.29 1080.34 C 471.58 1082.56 462.93 1085.09 454.18 1087.12 C 442.56 1089.24 430.82 1090.44 419.00 1090.01 C 405.96 1090.36 393.08 1089.59 380.33 1086.69 C 373.17 1084.88 366.03 1083.01 358.89 1081.09 C 349.94 1078.69 340.67 1077.29 331.45 1076.41 C 315.28 1075.27 298.91 1076.95 282.76 1075.51 C 274.24 1074.66 264.58 1072.56 257.52 1067.47 C 253.41 1064.48 252.34 1060.33 249.65 1056.34 C 248.87 1054.92 246.46 1055.07 245.06 1054.89 C 235.75 1054.60 226.40 1055.19 217.09 1054.72 C 203.95 1053.63 191.05 1051.67 178.51 1047.46 C 170.42 1044.58 161.60 1040.79 155.98 1034.03 C 151.48 1028.41 148.48 1020.90 150.76 1013.71 C 152.94 1006.76 156.73 1000.27 159.50 993.53 C 169.37 969.42 177.99 944.86 186.09 920.11 C 200.77 874.67 214.52 828.91 226.70 782.74 C 234.09 755.86 240.81 728.86 246.61 701.59 C 251.08 682.09 255.18 662.51 258.76 642.83 C 259.79 636.26 260.87 629.71 262.19 623.19 C 267.17 595.91 270.97 568.41 276.15 541.17 C 282.00 506.66 291.50 472.88 304.30 440.31 C 309.63 426.21 315.06 412.18 321.59 398.58 C 325.43 390.84 328.13 382.77 328.05 374.03 C 328.21 356.50 321.60 338.11 314.84 322.12 C 309.31 309.88 303.62 298.16 301.12 284.83 C 298.16 270.32 300.34 254.87 306.39 241.41 C 308.53 236.62 311.02 232.45 312.21 227.26 C 314.94 214.37 314.86 202.05 315.83 189.04 C 316.36 181.15 314.75 171.33 318.06 164.04 C 320.45 158.75 325.79 156.98 331.12 156.15 Z" fill="#63bfc6"/>
<path d="M 334.54 172.05 C 335.54 177.06 335.77 182.22 336.56 187.27 C 337.85 196.36 340.24 205.04 340.75 213.99 C 341.15 218.94 340.90 224.86 343.93 229.07 C 346.29 232.39 350.19 233.32 353.95 234.09 C 362.37 235.57 370.32 236.29 378.32 239.69 C 386.75 243.31 394.57 248.63 401.86 254.15 C 406.05 257.25 409.62 261.12 413.85 264.15 C 416.31 265.88 419.24 266.62 421.95 264.93 C 425.33 262.85 428.16 259.76 431.22 257.23 C 443.04 247.37 455.60 239.00 470.94 235.94 C 476.80 234.52 483.17 234.76 488.85 232.82 C 493.47 230.88 494.23 225.27 494.77 220.90 C 495.63 210.06 496.52 199.26 498.57 188.56 C 499.64 183.03 500.00 176.90 502.12 171.75 C 504.90 173.63 503.85 177.10 504.17 180.01 C 504.89 197.13 504.74 213.60 507.53 230.58 C 508.63 236.40 511.58 240.74 514.02 245.98 C 516.78 251.74 518.32 258.29 519.41 264.57 C 521.18 274.08 518.63 284.59 515.64 293.64 C 511.25 305.62 505.41 317.05 501.07 329.06 C 496.73 340.93 493.34 353.46 491.96 366.03 C 491.42 369.97 492.02 374.22 490.97 378.05 C 484.50 380.63 477.05 381.11 470.21 382.24 C 454.22 384.63 438.13 385.37 422.00 386.06 C 415.31 386.28 408.69 385.70 402.03 385.14 C 384.36 383.83 366.95 382.18 349.57 378.52 C 348.29 378.07 345.94 377.90 345.26 376.63 C 344.33 372.24 344.57 367.65 343.81 363.22 C 341.33 346.91 335.87 330.67 329.53 315.47 C 324.96 304.43 319.59 294.53 317.35 282.63 C 313.85 268.72 317.49 253.53 324.10 241.09 C 326.33 236.85 328.00 232.42 328.62 227.65 C 329.99 217.44 331.47 207.33 331.39 197.00 C 331.65 189.41 331.08 181.78 331.53 174.22 C 331.44 172.74 333.49 172.42 334.54 172.05 Z" fill="#b9ebe8"/>
<path d="M 341.48 394.45 C 347.16 394.51 352.84 396.66 358.46 397.46 C 370.25 399.31 382.13 400.66 394.00 401.89 C 409.21 403.62 424.71 403.42 439.96 402.14 C 453.67 401.22 467.45 399.31 481.00 397.01 C 485.57 396.29 490.07 394.69 494.68 394.37 C 496.57 397.95 497.66 401.92 499.44 405.57 C 504.46 415.89 508.70 426.39 512.93 437.06 C 517.08 447.56 521.40 458.21 525.11 468.88 C 533.14 492.73 538.29 516.99 543.40 541.58 C 545.14 550.36 546.20 559.24 547.93 568.02 C 552.51 591.82 555.67 615.84 560.31 639.64 C 563.74 657.68 566.66 675.99 571.24 693.78 C 574.08 705.43 576.31 717.21 579.08 728.88 C 582.00 742.04 586.02 754.90 588.90 768.08 C 591.79 781.57 595.51 794.60 599.14 807.86 C 605.61 831.71 612.42 855.43 620.05 878.94 C 629.22 905.73 636.70 933.03 646.31 959.68 C 652.25 977.50 658.97 995.02 667.08 1011.96 C 668.05 1014.14 669.31 1016.49 669.59 1018.88 C 667.99 1026.15 660.80 1029.34 654.38 1031.41 C 645.51 1034.24 636.24 1035.96 627.00 1037.01 C 614.51 1038.41 602.46 1037.48 590.00 1037.88 C 587.76 1037.92 585.54 1037.99 583.32 1037.73 C 581.93 1034.08 581.53 1029.95 580.87 1026.12 C 577.78 1007.40 574.24 988.74 570.95 970.05 C 557.09 891.75 543.65 813.38 531.19 734.84 C 527.19 710.71 523.66 686.51 519.62 662.39 C 514.89 632.24 510.22 602.06 505.02 571.99 C 504.19 567.18 503.77 561.72 501.72 557.26 C 500.08 553.83 497.04 550.71 493.00 550.67 C 489.95 550.64 487.55 552.88 486.67 555.68 C 486.08 557.74 486.37 560.17 486.64 562.27 C 489.65 582.06 494.18 601.60 496.60 621.44 C 500.45 646.40 504.53 671.33 508.66 696.25 C 512.02 718.69 516.00 741.01 519.63 763.41 C 523.02 782.75 525.99 802.16 529.46 821.49 C 541.36 895.05 553.83 968.54 567.12 1041.87 C 567.77 1045.88 569.04 1049.84 569.38 1053.89 C 567.65 1055.74 564.91 1056.79 562.54 1057.56 C 553.40 1060.28 544.29 1060.20 534.89 1059.29 C 523.11 1058.78 511.05 1058.75 499.36 1060.36 C 484.40 1061.94 470.36 1066.03 455.92 1069.90 C 438.96 1074.40 422.36 1074.34 404.97 1073.81 C 397.08 1073.47 389.29 1072.47 381.66 1070.35 C 368.07 1066.74 355.05 1062.61 340.97 1061.02 C 323.80 1058.87 305.63 1060.34 288.38 1059.65 C 281.49 1059.08 272.90 1057.97 267.30 1053.57 C 266.63 1050.81 267.33 1047.60 267.75 1044.84 C 271.04 1026.45 274.56 1008.11 277.71 989.70 C 282.47 961.95 288.05 934.33 292.47 906.52 C 295.51 889.16 298.70 871.81 301.43 854.39 C 304.40 837.34 307.50 820.32 310.16 803.22 C 312.47 790.02 314.07 776.72 316.44 763.53 C 322.40 725.17 328.47 686.74 334.34 648.38 C 336.84 632.96 338.42 617.41 341.01 602.00 C 344.91 580.98 348.37 559.87 351.73 538.76 C 352.13 534.98 352.90 530.07 349.90 527.11 C 347.52 524.65 344.02 524.24 341.18 526.19 C 337.19 528.87 336.33 533.13 335.60 537.56 C 333.12 555.72 329.66 573.75 326.83 591.86 C 314.02 672.38 302.17 753.01 288.35 833.37 C 279.26 886.76 270.47 940.33 260.54 993.56 C 258.83 1003.74 256.64 1013.82 255.01 1024.01 C 254.17 1028.50 253.74 1033.17 252.43 1037.55 C 249.06 1038.20 245.41 1037.93 241.99 1037.90 C 235.32 1037.72 228.65 1037.98 221.98 1037.84 C 207.79 1037.42 193.86 1035.43 180.49 1030.53 C 175.98 1028.82 171.21 1026.69 168.26 1022.70 C 167.19 1021.16 166.12 1019.46 166.69 1017.50 C 167.43 1014.61 168.87 1011.83 170.08 1009.10 C 182.96 980.94 192.24 952.38 202.11 923.11 C 208.28 904.67 213.34 885.91 219.47 867.47 C 221.39 861.64 223.20 855.78 224.89 849.89 C 232.59 823.38 240.75 796.88 246.95 769.98 C 249.31 758.99 252.43 748.23 255.35 737.39 C 259.12 721.61 262.80 705.78 265.87 689.85 C 272.29 663.15 276.72 635.66 281.40 608.46 C 282.94 597.77 284.70 587.14 286.43 576.49 C 288.88 558.32 292.09 540.27 296.48 522.46 C 300.91 504.86 304.95 486.76 310.66 469.65 C 319.78 444.22 329.79 418.80 341.48 394.45 Z" fill="#b9ebe8"/>
</svg>