<?xml version="1.0" encoding="UTF-8" standalone="no"?>
<!DOCTYPE svg PUBLIC "-//W3C//DTD SVG 1.1//EN" "http://www.w3.org/Graphics/SVG/1.1/DTD/svg11.dtd">
<svg xmlns="http://www.w3.org/2000/svg" version="1.1" viewBox="0 0 836 1254" width="836.0pt" height="1254.0pt">
<path d="M 348.72 161.25 C 352.63 164.12 353.15 168.24 353.45 172.76 C 354.06 184.99 352.71 198.20 357.12 209.87 C 361.72 222.56 371.43 232.56 383.35 238.64 C 396.25 245.14 411.21 248.51 425.63 246.62 C 440.80 244.56 455.37 239.33 466.57 228.57 C 474.08 221.41 478.85 211.90 480.73 201.74 C 482.63 191.54 481.40 180.36 482.46 170.23 C 482.85 166.39 484.46 162.92 487.74 160.74 C 492.46 157.28 498.05 157.98 503.55 158.34 C 511.02 159.10 519.54 159.95 526.06 163.96 C 528.34 165.38 530.76 167.20 530.87 170.14 C 531.18 175.59 529.38 181.25 528.70 186.67 C 525.44 209.92 526.38 234.80 533.87 257.19 C 535.40 261.95 537.60 266.78 538.31 271.67 C 539.05 276.49 538.51 281.05 537.90 285.84 C 535.64 303.60 529.83 321.66 524.93 338.89 C 520.03 355.79 515.43 372.95 512.22 390.25 C 511.28 395.45 510.47 400.45 511.40 405.73 C 512.49 411.50 515.92 417.22 518.57 422.43 C 525.85 436.14 532.62 449.79 537.44 464.59 C 545.44 488.27 550.31 512.52 553.69 537.25 C 557.94 575.28 557.59 614.76 559.73 653.04 C 560.94 673.38 562.58 693.69 564.08 714.01 C 566.72 740.74 569.98 767.40 574.05 793.96 C 579.31 824.53 585.03 855.14 592.79 885.19 C 599.00 910.08 603.90 934.42 612.19 958.80 C 619.93 982.79 626.30 1006.46 636.28 1029.78 C 637.93 1033.82 639.33 1037.68 638.22 1042.09 C 637.09 1047.17 633.59 1050.65 629.32 1053.33 C 620.08 1059.10 609.32 1062.87 598.91 1065.96 C 586.07 1069.90 572.26 1071.81 558.88 1073.88 C 541.17 1076.09 523.81 1079.69 507.12 1086.12 C 498.71 1089.43 490.17 1092.31 481.38 1094.41 C 461.35 1099.34 441.47 1099.39 421.00 1099.75 C 403.09 1099.73 384.53 1099.74 366.79 1097.28 C 351.71 1095.23 337.33 1090.05 323.11 1084.91 C 306.83 1079.04 290.52 1076.35 273.56 1073.43 C 258.55 1070.57 243.41 1067.67 228.76 1063.29 C 221.72 1061.01 213.70 1058.85 207.90 1054.12 C 203.33 1050.40 198.92 1045.12 197.66 1039.24 C 196.64 1034.92 198.74 1030.40 200.46 1026.53 C 210.10 1005.65 216.35 984.09 223.19 962.22 C 229.80 942.00 234.97 921.54 239.79 900.83 C 246.08 875.44 251.76 850.07 256.34 824.32 C 263.54 787.59 267.73 750.88 271.57 713.70 C 274.51 676.46 277.65 639.33 278.22 601.95 C 279.28 579.76 279.75 557.38 282.39 535.31 C 285.82 511.45 290.70 487.31 298.39 464.44 C 303.52 449.90 309.73 435.68 317.16 422.16 C 319.58 417.57 322.31 412.79 323.82 407.81 C 325.19 403.20 324.93 398.54 324.22 393.85 C 321.08 374.79 316.16 356.59 310.92 338.05 C 305.50 317.95 299.10 299.65 297.26 278.74 C 296.83 273.50 297.69 268.48 299.61 263.60 C 310.56 236.38 311.13 205.02 305.46 176.51 C 305.08 173.08 304.15 168.71 307.18 166.17 C 314.51 159.87 323.68 159.32 332.86 158.55 C 338.49 158.24 344.06 157.31 348.72 161.25 Z" fill="#faabaf" />
<path d="M 323.62 176.30 C 327.52 175.52 331.77 175.41 335.68 176.20 C 336.72 182.72 336.01 189.45 336.77 196.03 C 337.97 210.54 342.81 224.52 352.25 235.75 C 361.31 246.77 373.46 254.44 386.85 259.15 C 401.48 264.05 416.92 265.97 432.20 263.23 C 451.86 260.11 470.85 251.23 483.69 235.69 C 492.84 224.70 497.58 211.08 498.78 196.93 C 499.61 190.07 498.81 182.90 500.24 176.17 C 504.00 175.32 508.01 175.47 511.75 176.33 C 512.05 178.58 511.43 180.96 511.35 183.23 C 509.51 194.27 509.04 205.56 509.42 216.73 C 510.06 230.86 512.74 244.94 516.37 258.60 C 517.88 264.64 521.51 270.71 521.66 276.83 C 521.64 282.00 520.18 287.27 519.34 292.37 C 517.43 303.52 514.31 314.32 511.17 325.17 C 506.83 340.03 502.81 354.98 498.96 369.97 C 497.59 375.66 496.02 381.47 495.26 387.25 C 494.77 390.65 494.48 394.32 493.38 397.57 C 489.27 399.00 484.46 399.00 480.14 399.33 C 462.20 400.61 443.98 402.09 426.00 402.12 C 417.66 402.24 409.33 402.11 401.00 402.03 C 386.23 401.71 371.45 400.39 356.71 399.41 C 352.05 399.13 346.90 399.15 342.44 397.66 C 340.62 392.23 340.65 386.18 339.41 380.57 C 334.56 357.62 328.07 335.80 321.80 313.17 C 318.62 302.42 316.11 291.53 314.45 280.44 C 313.75 275.63 314.96 271.18 316.66 266.74 C 320.81 256.36 323.00 244.82 324.83 233.81 C 327.23 219.40 326.96 205.07 325.46 190.58 C 324.98 185.84 323.68 181.06 323.62 176.30 Z" fill="#ffdfdf" />
<path d="M 340.44 415.33 C 344.84 414.68 349.59 415.61 354.01 415.95 C 379.23 418.78 404.63 419.92 430.00 419.25 C 449.50 419.13 469.03 417.50 488.39 415.27 C 490.45 415.09 492.64 414.84 494.69 415.17 C 498.01 418.53 499.77 423.81 502.08 427.93 C 506.83 436.40 511.02 445.16 514.98 454.03 C 523.25 472.88 528.43 492.54 532.30 512.72 C 536.86 534.58 538.69 556.68 539.74 578.95 C 540.30 597.63 540.73 616.30 541.70 634.96 C 543.50 667.74 545.35 700.38 548.93 733.03 C 551.59 761.63 556.11 789.91 560.79 818.23 C 566.15 846.56 572.21 874.78 579.21 902.75 C 586.95 935.07 596.06 967.06 606.34 998.66 C 609.21 1007.32 612.17 1015.97 615.54 1024.45 C 617.10 1028.39 619.44 1032.44 620.07 1036.64 C 616.81 1040.89 612.32 1042.56 607.64 1044.70 C 594.96 1049.15 581.93 1052.56 568.66 1054.68 C 561.88 1055.79 555.08 1056.38 548.29 1057.31 C 535.57 1059.13 523.01 1061.79 510.81 1065.84 C 503.11 1068.26 495.84 1071.71 488.15 1074.16 C 475.75 1078.17 462.98 1080.17 450.00 1081.07 C 435.02 1082.34 420.03 1082.43 405.00 1082.21 C 385.69 1081.86 365.75 1080.48 347.18 1074.86 C 337.58 1072.09 328.59 1067.77 318.99 1065.00 C 303.21 1060.03 287.14 1057.55 270.83 1055.16 C 257.10 1053.14 243.61 1049.94 230.43 1045.58 C 225.52 1043.85 220.22 1041.21 216.88 1037.10 C 216.42 1036.42 215.59 1035.39 215.88 1034.53 C 216.77 1030.67 218.89 1027.03 220.38 1023.37 C 225.28 1011.51 229.39 999.47 233.25 987.25 C 239.94 966.87 246.07 946.30 251.57 925.57 C 259.82 892.82 267.41 859.87 273.73 826.70 C 276.27 813.27 278.02 799.70 280.21 786.21 C 284.00 761.18 286.49 736.16 288.96 710.99 C 292.50 673.80 294.23 636.38 295.74 599.05 C 296.53 570.04 297.90 539.60 304.17 511.21 C 306.51 499.60 309.12 487.90 312.57 476.56 C 317.54 459.96 324.59 444.12 332.96 428.97 C 335.50 424.57 337.11 419.16 340.44 415.33 Z" fill="#ffdfdf" />
</svg>