<?xml version="1.0" encoding="UTF-8" standalone="no"?>
<!DOCTYPE svg PUBLIC "-//W3C//DTD SVG 1.1//EN" "http://www.w3.org/Graphics/SVG/1.1/DTD/svg11.dtd">
<svg xmlns="http://www.w3.org/2000/svg" version="1.1" viewBox="0 0 836 1254" width="836.0pt" height="1254.0pt">
<path d="M 360.99 302.86 C 396.66 302.94 432.33 302.92 468.00 302.88 C 475.11 302.91 481.98 302.36 488.64 305.35 C 493.47 307.45 496.78 310.92 500.36 314.64 C 505.75 320.34 511.48 325.56 517.91 330.08 C 526.09 335.76 536.08 339.66 545.08 343.94 C 565.30 353.55 585.71 363.00 606.37 371.64 C 613.16 374.52 619.97 376.80 626.25 380.75 C 634.97 386.23 641.75 395.35 646.84 404.17 C 655.38 419.78 660.95 436.42 665.42 453.58 C 669.74 470.11 673.44 486.84 676.37 503.68 C 680.28 524.65 683.79 545.68 687.32 566.71 C 689.06 579.16 691.71 591.44 693.13 603.94 C 695.71 621.04 698.03 638.18 700.62 655.29 C 702.02 667.09 703.87 678.81 705.47 690.58 C 707.06 704.11 709.76 717.44 711.00 731.01 C 712.69 744.30 714.54 757.56 716.23 770.85 C 717.70 780.22 718.86 789.61 720.00 799.02 C 722.62 817.13 724.91 835.28 727.64 853.38 C 728.25 858.52 729.28 864.44 725.85 868.85 C 722.91 873.03 718.56 874.95 713.62 875.62 C 692.84 878.83 672.09 882.06 651.33 885.37 C 645.40 886.31 638.72 888.37 633.28 884.73 C 628.40 881.86 628.63 875.22 627.59 870.32 C 620.21 831.54 613.70 792.60 606.11 753.87 C 603.39 739.52 601.02 725.12 598.23 710.78 C 596.57 700.07 593.88 689.62 592.31 678.89 C 591.68 687.30 592.10 695.64 592.75 704.01 C 593.41 719.36 594.36 734.69 595.28 750.03 C 596.52 769.03 598.71 787.92 600.29 806.90 C 602.50 825.21 603.77 843.60 606.25 861.88 C 607.95 876.65 609.64 891.41 611.86 906.11 C 612.51 910.89 613.64 916.16 613.02 920.96 C 612.14 926.55 607.36 930.67 602.04 932.05 C 588.60 935.67 575.26 939.58 561.69 942.73 C 543.05 947.40 523.23 951.58 504.00 952.06 C 472.31 953.08 439.96 938.71 420.91 913.08 C 419.82 911.68 418.73 910.32 417.25 909.29 C 414.98 911.68 413.07 914.43 410.92 916.94 C 404.15 924.90 396.12 931.72 387.26 937.25 C 371.22 946.92 352.71 951.97 333.99 952.08 C 324.57 952.32 315.46 950.90 306.14 949.77 C 301.61 949.18 297.10 948.39 292.65 947.35 C 273.64 943.15 254.72 938.48 236.01 933.09 C 232.23 931.98 228.78 930.98 226.19 927.79 C 223.07 924.19 222.10 919.57 222.70 914.91 C 224.87 896.98 227.46 879.11 229.26 861.13 C 231.38 846.47 232.59 831.74 234.05 817.00 C 235.85 802.43 237.08 787.82 238.34 773.19 C 240.96 748.21 242.34 723.06 243.27 697.96 C 243.57 691.07 244.66 683.69 243.51 676.89 C 241.24 691.49 238.38 705.98 235.44 720.45 C 233.39 732.93 230.68 745.27 228.74 757.76 C 222.97 786.31 218.32 815.10 212.73 843.69 C 211.26 853.62 208.90 863.38 207.46 873.31 C 206.71 877.42 206.12 881.83 202.37 884.35 C 198.21 887.24 193.65 887.03 188.87 886.21 C 180.23 884.61 171.51 883.61 162.84 882.18 C 148.83 879.68 134.72 877.84 120.72 875.29 C 115.51 874.41 111.19 870.81 108.88 866.14 C 107.43 863.05 107.69 859.27 107.98 855.96 C 109.44 842.72 111.91 829.64 113.45 816.41 C 117.56 787.72 121.04 758.94 125.26 730.26 C 128.60 703.24 132.64 676.34 136.41 649.38 C 138.57 636.33 139.93 623.17 142.13 610.12 C 145.66 584.69 149.95 559.43 154.08 534.10 C 158.08 511.80 161.80 489.08 167.01 467.02 C 172.68 444.83 179.20 423.46 190.28 403.29 C 194.87 395.20 200.82 386.91 208.48 381.47 C 215.03 376.65 223.21 374.26 230.77 370.76 C 251.44 362.05 271.60 352.36 291.95 342.94 C 299.99 339.22 308.57 335.75 316.11 331.10 C 321.88 327.38 327.16 322.86 332.09 318.10 C 336.37 314.03 339.95 309.02 345.25 306.23 C 350.15 303.56 355.48 302.86 360.99 302.86 Z" fill="#7dbfe2" />
<path d="M 343.95 331.33 C 345.43 338.46 345.71 345.82 346.94 353.00 C 354.23 406.66 368.07 460.30 383.94 512.04 C 391.37 537.81 398.99 563.53 406.84 589.18 C 408.01 593.16 408.73 597.28 406.17 600.91 C 403.52 597.84 401.49 594.10 399.34 590.66 C 371.15 546.23 345.04 499.38 318.87 454.12 C 316.43 449.69 313.20 445.59 311.20 440.95 C 313.06 437.25 316.46 434.23 319.12 431.10 C 323.43 426.11 328.21 421.39 332.04 416.03 C 335.37 411.44 334.95 404.31 330.05 400.96 C 323.60 396.38 314.93 394.43 308.10 390.72 C 308.71 386.76 310.74 382.90 312.18 379.17 C 316.17 369.00 320.39 358.90 324.97 348.98 C 326.72 344.99 329.91 342.77 333.27 340.25 C 337.03 337.51 340.20 334.08 343.95 331.33 Z" fill="#caecf9" />
<path d="M 491.58 332.24 C 493.41 331.84 494.98 333.67 496.36 334.65 C 499.91 337.82 503.72 340.63 507.43 343.60 C 510.60 346.19 512.07 349.63 513.74 353.25 C 517.56 361.91 520.96 370.78 524.39 379.61 C 525.69 383.00 527.34 386.40 528.18 389.93 C 527.00 390.95 525.68 391.71 524.26 392.32 C 518.25 394.92 511.23 397.06 505.89 400.87 C 501.18 403.97 499.90 411.27 503.19 415.81 C 506.56 420.61 511.21 424.51 515.01 428.99 C 518.19 432.76 522.14 436.05 524.86 440.16 C 523.91 443.84 521.36 447.22 519.52 450.53 C 511.11 464.31 503.88 478.73 495.56 492.57 C 487.50 507.11 479.73 521.77 470.83 535.83 C 458.44 556.62 445.98 577.36 432.40 597.39 C 428.89 602.31 425.90 608.17 421.53 612.26 C 423.97 602.22 427.43 592.39 430.53 582.53 C 442.84 541.94 457.14 500.75 467.55 459.54 C 473.13 437.37 478.72 415.26 482.72 392.74 C 486.32 372.77 489.50 352.41 491.58 332.24 Z" fill="#caecf9" />
<path d="M 301.11 358.34 C 299.87 363.81 297.30 369.12 295.39 374.39 C 293.62 379.22 291.64 383.97 289.74 388.75 C 288.97 390.91 287.99 393.47 288.24 395.79 C 288.77 398.94 290.83 401.79 293.60 403.36 C 299.68 406.79 306.89 408.25 312.78 411.94 C 309.92 415.93 306.36 419.43 303.16 423.14 C 300.03 426.79 295.72 430.25 293.63 434.58 C 291.63 439.42 293.05 444.10 295.62 448.37 C 312.67 477.17 329.13 506.31 345.50 535.51 C 360.69 561.11 376.01 586.71 392.48 611.52 C 394.74 615.11 397.84 618.38 399.59 622.23 C 399.61 624.54 398.75 626.92 398.21 629.16 C 394.31 643.59 391.14 658.00 390.18 672.96 C 389.87 682.01 390.05 691.08 390.59 700.11 C 391.45 716.47 390.48 732.76 391.56 749.10 C 392.33 762.94 391.66 776.79 392.41 790.63 C 393.33 809.64 392.53 827.89 395.10 846.93 C 396.88 858.73 399.44 870.27 403.45 881.54 C 404.62 884.94 406.55 888.37 407.07 891.93 C 406.63 893.61 405.58 895.19 404.62 896.62 C 398.35 905.58 390.83 913.58 381.81 919.80 C 369.52 928.24 354.89 933.02 340.04 933.96 C 331.49 934.46 323.55 933.24 315.03 932.71 C 290.02 930.66 266.96 923.27 243.01 916.91 C 242.10 916.61 241.24 916.24 240.42 915.80 C 240.56 911.84 241.48 907.90 241.97 903.97 C 246.08 873.34 249.68 842.64 252.67 811.89 C 253.05 809.18 252.84 805.72 254.29 803.34 C 272.16 803.08 290.16 803.47 308.04 803.23 C 316.58 803.19 323.91 797.29 328.61 790.61 C 332.53 785.11 333.10 778.44 333.78 771.92 C 334.16 765.98 334.41 759.95 333.94 754.01 C 333.68 750.69 332.07 747.58 329.13 745.90 C 327.01 744.94 324.31 745.06 322.02 744.98 C 304.68 745.10 287.34 744.99 270.00 745.05 C 266.42 745.06 262.72 745.24 259.17 744.82 C 258.60 738.62 259.86 732.24 259.92 726.00 C 260.04 717.65 260.74 709.34 260.93 701.00 C 261.07 681.32 261.48 661.68 261.14 642.00 C 260.78 629.31 261.40 616.70 260.29 604.03 C 258.42 549.63 251.10 494.71 236.88 442.11 C 233.08 428.56 229.84 415.15 225.16 401.81 C 224.28 399.11 223.10 396.26 223.19 393.40 C 225.98 391.66 229.24 390.52 232.28 389.27 C 249.44 382.44 265.86 374.30 282.64 366.65 C 288.75 363.87 294.75 360.51 301.11 358.34 Z" fill="#caecf9" />
<path d="M 535.17 359.09 C 542.01 361.30 548.56 364.88 555.08 367.92 C 570.49 375.04 585.79 382.28 601.68 388.32 C 605.69 389.94 610.00 391.21 613.76 393.36 C 613.54 396.89 611.93 400.51 610.89 403.89 C 605.35 421.11 600.66 438.61 596.11 456.12 C 588.21 486.65 583.36 517.67 579.97 549.00 C 577.97 566.62 577.00 584.30 575.96 602.00 C 575.78 609.67 575.52 617.32 575.15 624.99 C 574.71 652.66 574.84 680.32 575.06 708.00 C 575.21 714.67 575.80 721.33 575.97 728.00 C 576.08 733.60 577.22 739.25 576.86 744.81 C 572.96 745.26 568.93 745.04 565.00 745.05 C 547.31 745.00 529.66 745.10 511.96 745.00 C 509.21 745.15 506.16 744.88 504.29 747.30 C 501.75 750.40 501.95 755.21 501.86 759.00 C 501.94 767.52 501.66 777.34 504.54 785.46 C 507.04 792.04 512.41 798.15 518.74 801.28 C 522.69 803.26 526.70 803.23 531.00 803.29 C 543.34 803.25 555.67 803.26 568.00 803.27 C 572.52 803.31 577.15 802.89 581.64 803.41 C 582.99 809.14 582.96 815.23 583.73 821.08 C 586.46 849.80 590.11 878.39 594.12 906.95 C 594.50 909.74 595.00 912.65 594.60 915.45 C 592.12 916.48 589.36 917.10 586.75 917.77 C 573.30 921.15 560.17 925.61 546.62 928.63 C 534.80 931.80 522.19 933.05 509.99 934.09 C 495.95 935.18 481.90 933.58 468.84 928.16 C 451.16 921.14 436.04 907.75 426.97 891.03 C 417.35 873.84 413.34 855.05 411.41 835.61 C 410.85 828.10 410.65 820.55 410.21 813.03 C 409.88 801.65 410.14 790.27 409.43 778.89 C 408.63 765.78 409.42 752.67 408.55 739.56 C 407.72 724.41 408.23 709.12 407.77 693.99 C 407.05 680.80 407.48 667.19 410.28 654.25 C 411.03 650.19 414.44 647.94 417.12 645.12 C 426.15 635.96 434.10 625.01 441.64 614.63 C 452.68 599.10 462.92 583.05 472.73 566.72 C 496.14 529.66 515.78 490.76 538.01 453.00 C 540.25 448.87 543.86 443.88 543.85 439.07 C 543.60 433.08 538.09 428.76 534.45 424.54 C 530.82 420.23 526.60 416.39 523.20 411.91 C 529.41 407.61 537.81 406.49 544.06 402.05 C 546.89 399.87 548.52 396.00 547.49 392.49 C 543.76 381.26 538.70 370.40 535.17 359.09 Z" fill="#caecf9" />
<path d="M 208.78 406.93 C 210.48 410.84 211.55 415.12 212.79 419.21 C 224.71 461.35 234.20 503.46 238.75 547.09 C 240.25 560.68 241.10 574.36 242.09 588.00 C 242.71 595.41 241.02 602.30 239.43 609.45 C 229.15 660.78 218.89 712.04 209.57 763.55 C 203.00 797.79 196.77 833.52 190.47 867.69 C 185.42 868.27 180.05 866.54 175.01 865.97 C 161.67 864.18 148.43 861.84 135.11 859.92 C 132.14 859.43 128.89 858.97 126.13 857.74 C 125.69 853.30 126.60 848.56 127.23 844.16 C 133.19 806.88 137.72 769.36 142.95 731.97 C 146.98 702.36 151.17 672.77 155.20 643.15 C 158.38 622.52 161.25 601.84 164.24 581.18 C 168.54 555.56 172.65 529.87 177.31 504.32 C 183.18 475.35 189.72 444.23 202.49 417.47 C 204.40 413.69 205.82 410.05 208.78 406.93 Z" fill="#caecf9" />
<path d="M 628.19 407.23 C 639.61 425.80 646.07 447.77 651.21 468.79 C 656.47 489.37 660.03 510.53 663.52 531.47 C 667.00 554.16 670.96 576.78 674.49 599.47 C 677.27 616.34 679.02 633.35 681.69 650.24 C 686.16 684.28 691.37 718.22 695.62 752.30 C 700.55 787.93 705.20 822.12 710.36 857.78 C 707.54 858.69 704.50 859.09 701.59 859.58 C 687.48 861.78 673.42 864.23 659.29 866.30 C 654.77 866.86 649.90 868.43 645.37 867.84 C 644.06 863.45 643.61 858.76 642.74 854.26 C 636.77 823.99 631.71 793.55 625.75 763.27 C 616.54 714.04 606.88 664.94 597.19 615.80 C 595.71 608.00 593.55 601.06 593.97 593.00 C 595.36 569.60 597.52 546.20 601.03 523.02 C 606.26 487.53 614.81 452.25 624.79 417.81 C 625.83 414.27 626.76 410.63 628.19 407.23 Z" fill="#caecf9" />
<path d="M 430.44 663.46 C 435.55 661.97 441.03 663.40 444.42 667.57 C 449.73 673.74 448.03 683.88 441.19 688.19 C 434.84 692.24 426.14 690.00 422.87 683.13 C 418.86 675.87 422.57 666.07 430.44 663.46 Z" fill="#7dbfe2" />
<path d="M 433.31 752.40 C 437.07 752.11 441.11 753.50 443.70 756.29 C 447.72 760.57 448.47 767.62 445.74 772.76 C 442.78 778.22 435.50 780.46 429.85 778.14 C 424.21 775.84 421.12 769.96 421.83 763.99 C 422.33 757.83 427.11 752.90 433.31 752.40 Z" fill="#7dbfe2" />
<path d="M 257.29 763.11 C 259.48 762.60 261.75 762.57 263.99 762.57 C 276.33 762.73 288.67 762.61 301.00 762.66 C 305.91 762.70 311.03 762.24 315.89 763.00 C 316.45 768.37 316.01 774.12 314.19 779.23 C 312.36 783.85 307.87 786.11 303.05 786.03 C 291.04 786.05 279.01 785.95 267.00 786.01 C 263.12 786.00 259.11 786.23 255.26 785.74 C 255.22 782.16 255.84 778.56 256.06 774.98 C 256.39 771.06 256.44 766.95 257.29 763.11 Z" fill="#caecf9" />
<path d="M 519.46 763.27 C 523.75 762.21 528.60 762.70 533.00 762.67 C 543.67 762.68 554.33 762.65 565.00 762.67 C 569.46 762.70 574.26 762.22 578.64 763.14 C 579.16 766.59 579.10 770.13 579.45 773.61 C 579.77 777.58 580.38 781.82 579.91 785.78 C 576.67 786.16 573.27 786.04 570.00 786.03 C 557.00 785.90 543.97 786.13 530.97 785.97 C 526.28 785.92 522.79 783.00 521.34 778.64 C 519.84 773.78 519.39 768.34 519.46 763.27 Z" fill="#caecf9" />
</svg>