<?xml version="1.0" encoding="UTF-8" standalone="no"?>
<!DOCTYPE svg PUBLIC "-//W3C//DTD SVG 1.1//EN" "http://www.w3.org/Graphics/SVG/1.1/DTD/svg11.dtd">
<svg xmlns="http://www.w3.org/2000/svg" version="1.1" viewBox="25.89 238.36 783.34 783.34" width="836.0pt" height="1254.0pt">
<path d="M 324.35 239.36 C 327.78 238.52 331.54 238.68 335.03 238.91 C 369.14 242.91 403.69 243.87 438.00 243.07 C 450.73 243.38 463.27 241.93 475.95 241.17 C 485.66 240.64 495.32 239.17 505.03 238.76 C 513.92 238.36 520.23 242.77 528.09 245.93 C 565.05 261.91 602.09 278.01 639.05 293.93 C 644.26 296.22 650.78 298.05 654.96 302.01 C 658.27 305.16 656.63 310.78 655.69 314.62 C 651.19 330.11 648.64 346.42 646.33 362.33 C 643.18 382.69 642.74 403.11 643.62 423.66 C 644.80 446.23 648.59 468.35 656.37 489.61 C 661.69 503.12 669.08 516.27 679.24 526.75 C 682.93 530.76 687.32 533.99 691.10 537.89 C 692.99 539.83 694.32 542.16 694.35 544.93 C 694.46 551.25 693.30 557.67 693.00 564.01 C 691.61 586.66 689.94 609.33 689.12 632.00 C 689.19 646.68 688.09 661.32 688.29 676.00 C 688.31 702.66 687.91 729.38 689.04 756.01 C 689.01 767.10 689.04 778.15 689.78 789.23 C 690.24 812.63 692.06 835.97 692.69 859.37 C 693.79 874.99 694.05 890.58 695.79 906.12 C 696.05 909.96 696.57 914.05 695.94 917.87 C 695.19 922.46 689.74 925.05 686.11 927.16 C 645.06 949.18 604.09 971.80 563.36 994.36 C 551.83 1000.43 540.68 1007.16 529.06 1013.07 C 524.08 1015.58 519.04 1019.26 513.63 1020.65 C 509.89 1021.70 506.82 1019.07 504.08 1016.92 C 478.00 994.37 452.40 971.24 426.38 948.64 C 423.31 945.99 420.41 942.64 416.86 940.65 C 412.39 943.13 408.72 947.52 404.92 950.92 C 380.78 973.16 356.28 994.99 331.56 1016.59 C 329.02 1018.60 325.84 1021.27 322.36 1020.63 C 316.89 1019.61 311.60 1015.90 306.73 1013.29 C 283.47 1000.56 260.23 987.84 237.06 974.96 C 210.56 960.40 183.96 946.06 157.43 931.57 C 152.79 928.98 147.63 926.79 143.40 923.57 C 141.79 922.27 139.91 920.62 139.62 918.45 C 138.55 911.65 140.21 904.23 140.43 897.29 C 141.83 881.77 142.30 866.21 143.39 850.67 C 144.26 825.77 145.83 800.88 146.18 775.97 C 147.25 753.27 146.84 730.74 147.25 708.00 C 147.24 686.34 146.99 664.67 146.90 643.00 C 146.73 630.32 145.67 617.69 145.27 605.00 C 144.26 586.08 143.04 567.15 141.53 548.26 C 141.37 544.90 141.55 541.56 143.97 538.96 C 148.38 534.04 153.86 530.21 158.18 525.16 C 173.65 508.07 183.02 484.84 187.45 462.44 C 192.32 438.65 193.52 414.56 192.44 390.33 C 191.20 368.33 187.87 346.38 183.13 324.87 C 181.91 318.80 179.13 312.39 179.27 306.20 C 179.31 303.20 181.31 301.25 183.67 299.74 C 187.54 297.40 192.02 295.90 196.19 294.16 C 223.91 282.23 251.74 270.45 279.42 258.40 C 289.11 253.96 298.97 249.92 308.77 245.74 C 314.02 243.56 318.82 240.85 324.35 239.36 Z" fill="#6cbec2"/>
<path d="M 349.98 259.17 C 371.92 260.98 393.98 262.25 416.00 262.05 C 429.17 261.98 442.17 262.26 455.28 261.45 C 466.53 260.69 477.69 260.14 488.90 258.88 C 493.69 258.30 498.70 257.20 503.51 257.44 C 504.33 261.50 504.19 265.87 504.20 270.00 C 504.42 301.44 497.51 333.81 488.96 363.96 C 478.09 400.32 463.09 435.38 444.39 468.41 C 438.14 479.15 432.04 489.95 425.51 500.52 C 423.56 504.23 421.01 507.50 418.34 510.70 C 415.60 507.41 413.39 503.51 411.13 499.88 C 405.15 490.43 399.48 480.78 393.93 471.08 C 382.62 450.73 371.43 429.73 362.99 408.02 C 349.08 373.35 338.19 336.82 333.47 299.70 C 331.99 288.75 332.03 278.01 332.00 266.99 C 332.05 263.94 332.03 260.71 332.77 257.73 C 338.83 257.06 344.00 258.73 349.98 259.17 Z" fill="#c3ede5"/>
<path d="M 312.69 264.97 C 313.30 271.28 312.90 277.68 313.26 284.02 C 313.99 299.11 315.95 313.99 319.24 328.74 C 326.42 362.26 336.88 395.03 350.54 426.46 C 364.04 457.90 381.09 486.14 398.61 515.39 C 400.73 518.94 403.31 522.24 405.25 525.89 C 405.74 527.02 406.48 528.00 405.83 529.24 C 403.92 533.36 400.35 536.98 397.62 540.63 C 391.28 549.10 384.41 556.81 381.14 567.12 C 377.15 578.93 378.06 590.74 377.99 603.00 C 377.72 633.00 377.70 663.00 377.89 693.00 C 378.13 751.33 377.90 809.67 378.08 868.00 C 378.20 875.83 377.71 883.79 378.49 891.58 C 379.43 900.49 383.40 908.22 388.74 915.27 C 392.31 920.43 397.47 923.92 401.50 928.76 C 396.83 933.96 391.02 938.12 386.05 943.06 C 368.47 958.82 351.07 974.72 333.44 990.42 C 330.04 993.42 326.76 997.32 322.70 999.40 C 319.05 999.03 315.45 996.50 312.29 994.74 C 265.32 968.92 218.46 943.33 171.48 917.51 C 167.32 915.12 162.28 913.42 158.68 910.24 C 157.72 905.42 158.58 899.92 158.95 895.02 C 160.81 866.39 162.20 837.73 163.32 809.05 C 164.13 794.37 164.02 779.69 164.90 765.00 C 165.22 707.37 166.72 650.59 162.95 592.98 C 162.30 580.55 161.52 568.10 160.23 555.72 C 160.10 553.42 159.88 550.80 160.60 548.57 C 162.95 544.90 167.14 542.31 170.15 539.14 C 184.82 523.84 194.43 504.83 200.76 484.74 C 212.39 445.66 213.69 402.87 208.40 362.62 C 206.92 352.23 205.36 341.82 203.56 331.47 C 202.53 325.29 200.36 319.91 200.41 313.54 C 204.43 310.64 209.64 309.19 214.14 307.13 C 239.55 295.69 265.29 284.99 290.80 273.79 C 298.27 270.93 304.89 266.91 312.69 264.97 Z" fill="#c3ede5"/>
<path d="M 523.43 265.26 C 530.40 267.08 537.05 270.69 543.81 273.21 C 569.96 284.17 595.84 295.79 621.79 307.22 C 626.31 309.27 631.50 310.72 635.58 313.56 C 635.65 318.47 634.17 323.40 633.17 328.17 C 629.48 348.72 626.02 369.05 625.05 389.96 C 623.40 418.58 625.78 447.57 632.57 475.44 C 637.89 495.86 645.92 515.21 659.26 531.75 C 662.62 536.05 666.20 540.09 670.46 543.54 C 672.54 545.52 675.58 547.57 675.60 550.74 C 675.71 554.74 675.03 558.84 674.66 562.82 C 673.02 583.53 671.72 604.24 671.02 625.00 C 671.05 634.36 670.31 643.67 670.05 653.01 C 669.82 690.32 669.95 727.70 671.01 765.00 C 670.73 776.37 671.68 787.66 671.92 799.01 C 672.06 814.34 673.29 829.63 673.79 844.96 C 674.76 864.98 676.01 885.01 677.54 904.99 C 677.48 907.13 677.83 909.41 675.90 910.85 C 671.92 914.01 666.84 915.91 662.42 918.42 C 627.97 937.28 593.56 956.22 559.14 975.14 C 548.42 981.10 537.70 987.08 526.87 992.86 C 522.58 995.15 518.00 998.65 513.22 999.64 C 509.83 998.24 507.05 995.09 504.34 992.69 C 488.33 978.00 471.91 963.74 455.62 949.35 C 443.58 938.67 431.39 928.20 418.65 918.34 C 411.56 912.69 404.09 907.33 400.12 898.88 C 396.20 891.03 396.83 881.56 396.75 873.00 C 396.71 780.66 397.07 688.33 397.01 596.00 C 397.04 588.49 396.54 579.97 398.75 572.74 C 400.86 565.63 406.45 559.70 410.94 553.93 C 421.88 539.85 432.94 525.25 441.77 509.77 C 452.21 491.78 462.77 473.79 472.28 455.29 C 482.99 434.15 492.48 412.42 499.89 389.90 C 506.29 371.49 511.63 352.73 515.61 333.64 C 519.06 317.09 522.26 299.93 523.00 283.02 C 523.32 277.12 522.76 271.12 523.43 265.26 Z" fill="#c3ede5"/>
<path d="M 427.48 582.57 C 432.40 581.14 437.98 581.89 442.26 584.74 C 447.68 588.35 450.70 594.45 450.08 600.97 C 449.47 610.07 440.97 617.18 432.01 616.96 C 423.36 616.85 415.59 609.58 415.06 600.91 C 414.33 592.86 419.76 584.89 427.48 582.57 Z" fill="#6cbec2"/>
<path d="M 428.34 684.39 C 432.83 683.36 437.63 683.96 441.56 686.42 C 447.22 689.94 450.69 696.26 450.10 702.98 C 449.63 711.87 441.82 719.02 432.99 719.14 C 423.48 719.72 415.01 711.40 414.96 701.98 C 414.69 693.91 420.49 686.27 428.34 684.39 Z" fill="#6cbec2"/>
<path d="M 428.43 785.47 C 439.44 782.48 450.75 791.69 450.26 803.00 C 450.28 811.97 442.97 819.76 434.02 820.26 C 424.13 821.29 414.90 812.91 414.96 802.99 C 414.78 794.91 420.63 787.41 428.43 785.47 Z" fill="#6cbec2"/>
<path d="M 210.00 789.95 C 225.35 790.12 240.64 791.26 256.00 791.11 C 272.65 791.79 289.30 792.03 305.95 792.67 C 310.40 792.79 315.18 792.60 319.53 793.63 C 322.83 794.30 324.77 797.51 325.43 800.58 C 326.38 805.18 323.26 810.67 318.38 811.24 C 312.71 812.05 306.72 811.00 300.99 811.00 C 286.96 811.35 273.02 809.87 259.00 810.00 C 249.32 809.98 239.69 809.01 230.00 808.98 C 220.64 809.05 211.25 808.93 201.90 808.40 C 198.29 807.95 193.71 807.79 191.82 804.09 C 189.14 799.79 190.67 793.62 195.03 791.08 C 199.46 789.22 205.27 789.90 210.00 789.95 Z" fill="#6cbec2"/>
<path d="M 616.94 790.24 C 624.57 790.21 632.95 788.96 640.40 790.72 C 647.29 792.72 648.25 802.65 642.70 806.66 C 639.62 808.35 635.37 808.25 631.94 808.46 C 623.95 808.56 615.99 809.07 608.00 809.02 C 596.32 808.96 584.69 810.11 573.00 810.02 C 560.32 810.33 547.69 811.19 535.00 810.98 C 528.61 810.88 521.51 812.34 515.28 810.78 C 508.67 808.56 508.10 798.36 513.61 794.63 C 515.69 793.32 518.54 793.09 520.93 792.91 C 536.18 792.42 551.42 791.99 566.68 791.70 C 583.43 790.77 600.19 791.16 616.94 790.24 Z" fill="#6cbec2"/>
</svg>