<?xml version="1.0" encoding="UTF-8" standalone="no"?>
<!DOCTYPE svg PUBLIC "-//W3C//DTD SVG 1.1//EN" "http://www.w3.org/Graphics/SVG/1.1/DTD/svg11.dtd">
<svg xmlns="http://www.w3.org/2000/svg" version="1.1" viewBox="0 0 836 1254" width="836.0pt" height="1254.0pt">
<path d="M 324.92 200.99 C 329.34 201.19 330.77 206.81 331.76 210.26 C 336.36 230.73 338.53 251.78 342.48 272.34 C 350.42 273.84 358.78 275.04 366.44 277.54 C 377.87 281.14 388.88 286.38 398.67 293.32 C 405.49 298.05 411.65 303.61 418.26 308.66 C 425.20 303.43 431.23 297.28 438.51 292.50 C 454.85 281.30 474.14 275.00 493.67 272.37 C 495.09 266.53 496.06 260.70 496.75 254.74 C 499.13 240.04 501.27 225.15 504.61 210.63 C 505.46 207.66 506.63 203.10 509.54 201.50 C 512.78 200.34 516.88 201.13 520.18 201.74 C 526.00 203.08 532.04 204.75 537.27 207.70 C 539.03 208.85 541.64 210.54 541.13 212.99 C 540.71 216.29 539.08 219.62 537.87 222.71 C 535.05 229.53 533.54 237.10 532.49 244.37 C 530.65 258.21 531.09 273.13 535.57 286.45 C 538.96 296.79 545.01 304.37 546.79 315.23 C 548.89 328.11 546.63 341.96 542.16 354.13 C 537.91 366.00 531.72 376.18 526.76 387.76 C 521.16 400.87 517.59 414.69 517.25 429.00 C 517.15 434.72 517.27 440.82 518.72 446.39 C 519.97 451.09 522.61 454.72 525.41 458.58 C 531.54 466.84 537.33 475.39 543.12 483.90 C 559.67 508.13 574.53 533.64 588.68 559.33 C 608.93 597.03 627.76 635.50 645.66 674.37 C 661.53 708.59 676.16 743.55 690.60 778.41 C 712.34 831.39 733.41 884.58 752.41 938.61 C 754.34 944.74 758.10 951.42 758.08 957.89 C 757.25 961.89 752.60 965.14 749.60 967.63 C 720.15 991.42 681.65 1003.78 644.00 1004.15 C 634.51 1004.39 625.24 1002.91 615.77 1002.56 C 614.04 1007.77 612.52 1013.50 608.50 1017.48 C 604.60 1021.29 599.86 1024.34 595.32 1027.33 C 571.18 1042.87 542.32 1051.76 513.92 1054.96 C 487.97 1058.03 461.32 1055.35 436.37 1047.65 C 427.21 1044.75 418.38 1040.63 409.92 1036.11 C 405.39 1033.74 401.29 1030.56 396.68 1028.40 C 393.42 1026.88 390.05 1027.01 386.58 1027.58 C 374.97 1029.64 365.29 1034.45 354.40 1038.41 C 340.36 1043.56 325.08 1047.73 310.05 1047.86 C 287.55 1048.44 264.71 1040.79 245.40 1029.60 C 239.47 1026.09 233.38 1022.38 228.30 1017.69 C 223.93 1013.59 222.38 1008.02 220.51 1002.52 C 210.92 1003.00 201.62 1004.44 192.00 1004.11 C 172.85 1003.68 153.20 1000.12 135.07 993.93 C 116.46 987.35 98.92 977.82 83.37 965.64 C 81.32 963.92 78.79 961.79 77.86 959.22 C 77.18 956.44 78.52 953.06 79.34 950.42 C 87.82 927.29 96.31 904.16 105.16 881.17 C 126.50 824.39 149.35 768.20 173.57 712.59 C 187.77 680.38 202.22 648.34 217.71 616.73 C 234.98 581.42 253.81 546.83 274.26 513.27 C 286.45 493.70 299.33 474.55 312.99 455.98 C 316.44 451.29 318.23 446.57 318.69 440.74 C 319.94 424.29 316.94 407.36 310.95 392.02 C 305.80 378.30 298.10 366.42 293.48 352.51 C 289.22 340.31 287.54 327.08 289.29 314.25 C 290.76 304.14 296.30 297.14 299.81 287.81 C 304.88 274.86 305.54 260.77 303.91 247.08 C 302.72 237.95 300.96 229.12 297.26 220.63 C 296.26 217.89 294.40 214.24 295.06 211.32 C 296.87 208.00 301.64 206.25 304.99 204.95 C 311.23 202.85 318.28 200.53 324.92 200.99 Z" fill="#ade9fb" />
<path d="M 314.16 218.30 C 315.26 218.28 316.35 218.30 317.45 218.37 C 321.31 234.17 323.04 250.59 325.32 266.68 C 326.14 272.00 326.42 277.76 328.24 282.84 C 329.01 284.87 330.15 286.05 332.25 286.70 C 337.57 288.24 343.39 288.08 348.85 289.15 C 369.17 293.01 388.03 302.78 403.23 316.77 C 407.20 320.23 411.11 324.82 415.87 327.14 C 418.68 328.57 421.05 326.89 423.32 325.33 C 427.81 321.91 431.61 317.58 435.91 313.90 C 453.37 298.51 475.76 289.64 498.87 287.72 C 501.93 287.23 506.18 286.94 507.62 283.68 C 509.67 279.04 509.75 273.31 510.40 268.32 C 512.41 251.59 515.03 234.95 518.45 218.45 C 519.66 218.36 520.87 218.28 522.09 218.20 C 521.06 224.29 519.53 230.26 518.35 236.31 C 516.73 245.94 515.82 255.83 516.43 265.59 C 517.10 275.76 518.13 285.59 521.83 295.17 C 524.92 303.50 529.67 310.15 531.11 318.95 C 532.91 329.79 530.28 341.18 526.24 351.25 C 520.27 366.18 510.72 381.51 506.41 397.37 C 505.22 401.46 504.76 406.15 502.77 409.93 C 501.47 411.33 499.33 411.98 497.67 412.89 C 496.21 409.07 494.83 404.13 491.69 401.33 C 487.52 397.76 481.61 396.45 476.25 397.28 C 470.72 398.13 465.20 400.82 460.12 403.10 C 451.71 406.90 443.60 411.26 435.43 415.53 C 429.64 418.67 424.91 415.63 418.84 415.48 C 413.96 415.12 408.85 417.52 404.10 416.64 C 399.17 415.18 394.68 412.12 390.01 409.99 C 382.26 406.35 374.55 402.35 366.48 399.49 C 359.55 397.04 351.89 397.49 345.80 401.80 C 342.10 404.43 340.71 408.79 338.99 412.79 C 337.06 411.91 333.68 411.42 332.97 409.17 C 331.37 405.43 330.78 401.19 329.67 397.27 C 324.29 377.68 312.55 361.07 306.88 342.10 C 303.91 331.97 302.88 320.89 306.91 310.90 C 310.13 303.05 314.55 296.08 316.70 287.74 C 321.39 269.89 320.90 250.84 317.11 232.86 C 316.11 228.09 314.53 223.14 314.16 218.30 Z" fill="#dbffff" />
<path d="M 481.67 414.28 C 483.20 417.76 482.77 422.29 482.73 426.01 C 482.09 438.34 481.94 450.69 481.31 463.02 C 481.00 465.78 480.94 469.87 478.61 471.80 C 473.52 472.23 467.93 469.70 463.38 467.64 C 456.32 464.25 449.36 460.82 443.03 456.17 C 444.45 451.72 446.23 446.70 446.14 442.00 C 445.97 437.39 444.43 432.60 443.18 428.17 C 448.14 425.34 453.15 422.75 458.32 420.33 C 463.99 417.67 469.77 414.40 475.84 412.83 C 477.95 412.42 480.51 411.93 481.67 414.28 Z" fill="#dbffff" />
<path d="M 360.50 413.49 C 366.63 414.82 372.55 418.16 378.25 420.75 C 383.21 422.99 388.03 425.46 392.78 428.12 C 391.52 432.56 389.95 437.37 389.80 442.00 C 389.78 446.91 391.55 452.11 392.91 456.81 C 385.01 461.94 376.51 466.20 367.85 469.90 C 364.71 471.05 359.90 472.91 356.70 471.44 C 354.90 469.42 354.96 465.58 354.66 463.01 C 354.10 450.68 353.84 438.34 353.50 426.01 C 353.54 422.41 353.31 418.12 354.80 414.78 C 355.70 412.74 358.74 413.19 360.50 413.49 Z" fill="#dbffff" />
<path d="M 335.21 427.75 C 336.40 428.30 337.59 428.85 338.76 429.44 C 339.54 434.34 339.28 439.10 338.99 444.02 C 337.70 443.60 336.41 443.19 335.12 442.77 C 334.81 437.76 334.77 432.77 335.21 427.75 Z" fill="#dbffff" />
<path d="M 500.80 427.23 C 501.62 432.41 501.44 437.50 500.87 442.69 C 499.60 443.06 498.34 443.44 497.07 443.82 C 496.99 439.66 496.57 435.22 497.32 431.12 C 497.44 429.23 499.47 428.28 500.80 427.23 Z" fill="#dbffff" />
<path d="M 414.47 430.47 C 422.00 428.68 430.74 433.97 431.20 442.03 C 431.81 449.54 425.52 456.25 417.99 456.19 C 411.19 456.40 405.49 451.11 404.60 444.48 C 403.71 438.06 408.17 431.85 414.47 430.47 Z" fill="#dbffff" />
<path d="M 332.00 458.80 C 334.51 458.49 337.18 458.95 339.70 459.16 C 340.15 464.54 340.34 470.17 341.63 475.43 C 342.89 480.46 346.64 484.72 351.60 486.36 C 356.73 488.04 362.78 487.34 367.89 485.88 C 377.03 483.34 384.37 478.14 393.23 474.87 C 391.56 479.12 389.64 483.23 386.97 486.96 C 380.99 495.48 374.05 503.35 366.76 510.77 C 363.94 513.72 360.31 516.86 358.61 520.62 C 356.52 525.30 360.73 531.03 365.86 530.09 C 369.68 529.10 372.98 525.42 375.71 522.71 C 387.01 511.08 397.61 499.86 405.56 485.55 C 408.10 480.69 410.34 475.67 412.50 470.63 C 416.19 470.57 419.87 470.55 423.56 470.57 C 425.50 475.47 427.55 480.37 429.89 485.10 C 438.09 500.72 450.25 513.10 462.70 525.33 C 465.31 527.72 468.98 530.96 472.81 530.07 C 477.62 528.93 479.53 523.15 476.84 519.13 C 473.55 514.06 468.39 510.13 464.36 505.63 C 455.74 496.31 446.37 486.07 441.92 474.03 C 453.68 479.71 465.43 487.62 479.04 487.21 C 485.97 487.12 492.03 482.83 494.25 476.26 C 495.85 470.90 496.01 464.99 496.55 459.44 C 499.31 459.12 502.26 458.46 505.03 458.77 C 507.89 460.24 509.82 463.80 511.71 466.32 C 554.85 526.72 590.15 591.36 621.43 658.57 C 638.89 695.34 655.27 732.59 670.77 770.23 C 692.95 822.95 713.61 876.29 732.84 930.16 C 735.65 938.44 739.24 946.34 741.33 954.85 C 734.08 961.15 725.90 965.97 717.43 970.43 C 690.72 984.15 660.10 990.35 630.15 988.61 C 623.83 988.48 617.90 987.76 611.72 986.43 C 600.07 942.95 588.86 899.30 577.22 855.80 C 559.03 788.55 540.47 721.09 519.29 654.71 C 510.24 625.58 500.84 596.46 490.14 567.89 C 488.56 563.81 487.31 558.83 484.44 555.47 C 481.92 552.71 477.24 555.52 477.65 558.98 C 478.02 563.81 480.29 568.64 481.73 573.25 C 490.78 600.59 499.20 628.11 507.22 655.77 C 524.20 712.52 539.28 769.31 554.53 826.51 C 568.75 880.42 582.46 934.47 596.66 988.39 C 597.81 992.68 599.36 997.50 599.11 1001.97 C 598.93 1005.50 595.71 1008.13 593.15 1010.16 C 586.91 1014.78 580.11 1018.69 573.17 1022.17 C 546.98 1035.07 517.18 1041.05 488.06 1040.62 C 461.81 1039.96 434.67 1033.48 411.89 1020.14 C 409.08 1018.40 405.26 1016.16 404.17 1012.85 C 402.90 1008.84 403.14 1004.18 403.08 1000.00 C 403.33 955.90 404.67 911.78 406.52 867.72 C 408.68 806.55 412.21 745.40 415.42 684.28 C 416.13 671.15 416.59 658.05 417.80 644.96 C 418.04 641.23 418.55 637.06 417.59 633.41 C 416.78 630.56 412.20 630.22 410.80 632.77 C 409.58 634.87 409.23 637.60 408.87 639.97 C 403.13 692.46 399.26 745.27 396.25 797.99 C 394.50 824.30 393.51 850.62 392.21 876.95 C 391.44 901.30 389.97 925.65 389.77 950.00 C 389.12 970.21 389.14 990.42 389.53 1010.64 C 381.85 1013.02 373.98 1014.65 366.50 1017.51 C 354.53 1021.98 343.30 1026.81 330.75 1029.74 C 320.40 1032.13 309.57 1033.34 298.97 1032.16 C 279.43 1030.18 260.30 1021.87 244.24 1010.77 C 241.10 1008.44 236.78 1005.35 236.79 1001.01 C 236.72 994.93 239.19 988.55 240.68 982.68 C 247.22 957.88 253.88 933.11 260.29 908.28 C 270.63 867.28 281.59 826.43 292.63 785.61 C 307.55 729.44 323.17 673.46 339.79 617.77 C 345.26 600.30 350.64 582.79 356.53 565.46 C 357.23 563.15 357.93 560.58 357.86 558.14 C 357.69 554.92 353.05 553.07 350.97 555.85 C 348.19 559.32 346.93 564.26 345.36 568.38 C 324.47 624.58 307.27 681.20 290.82 738.82 C 277.20 787.00 263.21 835.25 250.69 883.73 C 243.19 912.54 235.55 941.31 228.11 970.14 C 226.82 975.68 225.20 981.11 223.46 986.52 C 216.90 987.78 210.53 988.46 203.85 988.61 C 168.63 990.17 133.23 980.62 103.71 961.32 C 100.85 959.34 96.85 957.10 95.33 953.86 C 95.66 949.59 97.84 945.32 99.26 941.29 C 122.90 876.01 148.20 811.29 175.38 747.39 C 194.41 703.09 213.63 659.27 235.07 616.07 C 248.57 589.31 262.79 562.93 278.22 537.22 C 293.51 511.54 310.17 486.90 327.77 462.75 C 328.92 461.34 330.28 459.54 332.00 458.80 Z" fill="#dbffff" />
</svg>