<?xml version="1.0" encoding="UTF-8"?><svg id="a" xmlns="http://www.w3.org/2000/svg" viewBox="0 0 345.79 95.32"><defs><style>.b{fill:#3A161A;}</style></defs><path class="b" d="M.24.58C3.25-.25,6.73.03,9.84.11c.27,9.3.13,18.61.04,27.91,1.43-1.05,2.83-2.09,4.34-3.04,7.5-5.06,19.28-3.03,24.25,4.68,3.39,5.13,3.85,10.77,3.84,16.75-.09,9.58-.02,19.16-.02,28.74-3.2.02-6.41.03-9.61.05-.62-9.96-.08-19.86-.25-29.81-.13-3.85-.56-7.46-3.25-10.42-3.93-4.4-11.14-4.37-15.4-.47-2.67,2.29-3.7,5.45-3.78,8.89-.3,10.6.35,21.21-.3,31.82-3.2-.01-6.39-.03-9.59-.05-.02-20.24.01-40.48,0-60.72C.13,9.84-.21,5.16.24.58Z"/><path class="b" d="M165.72,22.33c5.91.34,9.66,3.73,14.01,7.26,2.97-2.37,6.08-5.12,9.73-6.37,8.02-2.52,17.6-.13,22.42,7.05,3.57,5.26,3.74,11.03,3.77,17.16-.1,9.27.07,18.53-.15,27.79-3.16-.01-6.32-.02-9.48-.03-.17-9.26-.03-18.51-.01-27.76-.12-4.55-.15-9.26-3.6-12.68-4.67-4.73-13.11-3.96-17.03,1.34-2.09,2.82-2.08,6.98-2.16,10.34.05,9.58.15,19.15.1,28.73-3.14.01-6.29.02-9.43.03-.47-8.92-.23-17.83-.1-26.76-.09-4.34.04-9.6-3.01-13.07-4.49-5.31-13.47-4.96-17.83.33-2.72,3.22-2.63,7.77-2.72,11.75.06,9.23.12,18.47.07,27.71-3.18,0-6.36.02-9.54.03-.56-8.27-.23-16.47-.28-24.74.05-9-.22-17.93.18-26.91,3.11.06,6.22.12,9.33.22.29,1.12.58,2.25.87,3.37,4.74-2.83,9.08-5.37,14.86-4.79Z"/><path class="b" d="M263.68,22.51c4.86.55,8.96,2.65,13.15,5-1.08,2.52-2.18,5.02-3.29,7.53-4.61-1.72-9.83-4.01-14.82-3.73-2.76.18-6.12,1.08-7.51,3.72-1.17,2.29-.6,4.91,1.63,6.3,6.24,3.91,16.47,4.39,22.33,9.65,5.34,4.84,5.22,13.32.8,18.71-3.59,4.26-8.8,5.92-14.21,6.21-8.93.51-17.76-2.2-24.45-8.22,1.79-2.39,3.59-4.77,5.41-7.13,5.48,3.19,10.39,6.3,16.99,6.41,3.34.06,7.99-.61,9.47-4.11.99-2.61-.42-4.88-2.69-6.17-6.4-3.71-15.95-4.18-21.52-9.5-5.53-5.16-5.03-14.16.02-19.45,4.74-4.91,12.19-6.07,18.69-5.22Z"/><path class="b" d="M294.32,23.69c3.43-.07,6.86-.1,10.28-.12,6.17,11.68,11.09,24.01,16.95,35.84,5.2-11.74,9.24-23.99,14.34-35.77,3.3-.02,6.6-.02,9.9,0-2.14,6.61-4.95,12.93-7.52,19.37-4.55,11.37-9.15,22.73-14.04,33.96-2.96,6.52-6.48,12.5-13,15.98-4.42,2.47-8.94,2.38-13.84,2.36.79-2.61.4-6.55,3.55-7.52,2.93-1.51,5.91-2.46,8.35-4.76,2.43-2.32,4.41-5.17,5.91-8.17.72-1.59,1.42-3.04.77-4.8-1.07-3.29-2.88-6.38-4.37-9.5-4.34-9-8.57-18.05-13.03-26.99-1.61-3.21-2.99-6.52-4.25-9.88Z"/><path class="b" d="M97.65,66.48c-6.04,1.17-12.89-.14-17.12-4.87-2.79-2.98-3.38-6.47-4.29-10.29,13.39-.65,26.84-.04,40.24-.29,0-6.95-.84-13.5-5.14-19.21-8.43-12.12-28.55-13.05-38.12-1.88-9.06,10.43-8.83,28.23.64,38.35,10.09,11,30.32,10.25,39.84-1.04-.42-2.73-2.51-5.34-3.99-7.63-3.71,2.79-7.38,5.92-12.06,6.86ZM80.99,34.73c5.65-5.52,15.84-5.6,21.54-.11,2.22,2.13,3.25,5.17,4.41,7.94-10.07.54-20.37.52-30.44.01,1.21-2.75,2.29-5.7,4.49-7.84Z"/></svg>