<?xml version="1.0" encoding="UTF-8" standalone="no"?>
<!DOCTYPE svg PUBLIC "-//W3C//DTD SVG 1.1//EN" "http://www.w3.org/Graphics/SVG/1.1/DTD/svg11.dtd">
<svg xmlns="http://www.w3.org/2000/svg" version="1.1" viewBox="80.09 286.39 676.67 676.67" width="836.0pt" height="1254.0pt">
<path d="M 326.00 288.78 C 331.51 288.16 334.83 291.15 339.32 293.63 C 349.28 298.66 360.19 301.80 370.94 304.26 C 374.05 305.16 377.94 304.87 381.00 306.01 C 384.09 306.17 386.80 307.27 390.00 307.05 C 393.63 308.51 397.89 307.22 401.42 308.54 C 412.81 308.90 424.18 308.82 435.56 308.54 C 438.08 307.27 441.38 308.37 444.10 307.37 C 446.47 306.67 449.71 307.33 452.07 306.32 C 460.38 304.98 467.41 304.24 475.45 301.46 C 484.55 299.06 492.94 296.05 501.00 290.97 C 505.02 288.19 510.86 288.17 515.00 290.71 C 526.06 296.37 538.44 300.17 550.00 304.62 C 564.36 309.72 578.65 315.08 593.00 320.16 C 598.55 322.35 604.02 323.86 609.43 326.55 C 613.28 327.50 616.77 330.00 620.63 331.43 C 629.73 336.11 639.84 341.56 646.81 349.19 C 657.46 359.26 664.79 370.70 673.72 382.22 C 700.00 417.35 726.29 452.43 752.36 487.69 C 755.04 490.72 756.76 494.88 755.71 498.95 C 755.13 500.05 754.95 501.36 754.54 502.54 C 751.19 506.52 746.48 509.24 742.36 512.39 C 711.09 535.41 679.67 558.21 648.86 581.83 C 646.06 583.93 643.76 586.32 640.56 587.56 C 636.49 588.72 632.34 587.59 629.29 584.71 C 627.32 582.45 624.47 578.03 622.36 576.32 C 621.67 581.64 622.20 587.57 622.18 593.00 C 623.77 628.32 622.12 664.39 623.76 699.00 C 624.02 711.73 623.39 725.63 624.58 738.00 C 624.32 752.36 625.53 766.64 625.42 781.00 C 626.84 786.17 625.44 792.62 626.58 798.00 C 627.36 805.52 626.53 812.80 627.61 820.12 C 628.34 824.65 627.31 829.66 628.58 834.00 C 628.47 843.03 629.65 851.97 629.42 861.00 C 630.95 865.50 629.52 871.29 630.87 876.00 C 631.16 881.09 630.88 885.99 631.92 891.00 C 631.58 896.78 632.91 902.28 632.82 908.00 C 632.93 909.41 632.73 911.24 633.54 912.44 C 633.32 920.34 634.66 928.09 634.26 936.00 C 634.32 939.21 632.54 941.30 630.31 943.34 C 627.67 945.62 624.14 945.67 621.00 946.86 C 618.14 946.77 615.79 948.00 613.00 947.97 C 610.11 949.40 606.32 948.04 603.56 949.54 C 601.35 949.64 599.19 949.43 597.00 949.92 C 593.85 950.48 591.03 949.84 588.00 950.89 C 584.93 951.22 581.99 950.87 579.00 951.90 C 574.48 951.76 570.57 953.13 566.00 952.93 C 562.64 953.97 559.45 953.37 556.00 953.89 C 552.80 954.46 549.66 954.22 546.42 954.46 C 544.19 955.35 541.37 955.02 539.00 955.13 C 535.58 956.02 531.54 955.97 528.00 956.05 C 525.26 956.08 522.76 957.05 520.00 956.90 C 515.25 956.69 510.72 957.92 506.00 957.74 C 501.30 957.64 496.70 958.53 492.00 958.42 C 489.96 958.49 487.99 958.20 486.00 958.77 C 480.34 959.30 474.68 959.12 469.00 959.25 C 458.51 960.68 447.57 959.55 437.00 960.69 C 418.92 961.28 401.99 960.68 384.00 960.12 C 375.64 960.02 367.33 960.14 359.00 959.28 C 349.63 959.39 340.37 958.29 331.00 958.58 C 326.69 956.91 321.19 958.46 317.00 957.09 C 310.65 957.12 305.32 955.80 299.00 955.95 C 290.70 954.95 282.30 954.41 274.00 953.63 C 271.51 953.41 269.10 954.06 267.00 952.92 C 264.80 952.70 262.01 953.10 259.92 952.34 C 257.26 951.59 253.62 952.38 250.94 951.33 C 248.91 950.70 246.52 951.51 244.56 950.46 C 240.13 950.32 235.87 949.43 231.44 949.54 C 229.38 948.18 226.11 949.23 223.93 948.32 C 219.32 947.53 214.03 946.92 209.60 945.45 C 204.82 943.87 201.41 939.06 201.74 934.00 C 201.55 927.64 202.69 921.37 202.42 915.00 C 203.64 910.62 202.83 906.71 203.46 902.31 C 204.17 898.52 204.00 894.81 204.10 891.00 C 205.50 885.91 204.38 880.01 205.58 875.00 C 206.12 870.61 205.30 865.95 206.57 862.00 C 206.33 853.96 207.44 846.04 207.42 838.00 C 208.58 831.28 207.60 824.70 208.88 818.00 C 209.18 812.25 208.64 805.61 209.78 800.00 C 210.00 793.97 209.76 788.01 210.60 782.00 C 210.78 776.33 210.68 770.67 211.13 765.00 C 211.72 757.60 210.98 750.24 211.84 743.00 C 212.46 729.40 211.90 715.30 212.58 702.00 C 213.71 663.53 212.26 621.13 213.86 583.00 C 213.75 580.47 214.19 577.70 213.70 575.24 C 212.59 575.08 211.76 577.33 211.01 578.00 C 208.76 580.42 207.38 583.80 204.72 585.67 C 202.48 586.99 199.66 588.33 197.00 587.77 C 191.44 586.22 186.86 581.13 182.00 577.85 C 153.39 556.30 126.68 536.34 97.74 515.28 C 93.28 511.82 88.14 508.79 84.00 505.00 C 80.24 501.27 80.09 496.31 81.46 491.45 C 112.18 449.66 145.41 405.16 176.58 363.60 C 182.40 356.02 188.17 348.66 196.00 342.99 C 202.38 338.00 209.81 333.90 217.00 330.31 C 222.80 327.74 227.97 326.04 233.46 323.46 C 237.59 321.75 242.12 320.96 246.46 318.46 C 251.80 317.23 256.02 314.92 261.00 313.37 C 265.93 312.11 270.52 309.28 275.54 308.54 C 277.78 307.21 280.58 306.32 283.00 305.31 C 287.78 304.56 292.87 300.98 297.54 300.54 C 298.48 298.86 300.03 299.46 301.67 298.64 C 305.93 296.48 310.13 295.62 314.24 293.33 C 318.63 291.86 321.49 288.75 326.00 288.78 Z" fill="#625345"/>
<path d="M 336.04 317.04 L 337.00 316.70 C 341.87 318.08 345.26 320.00 349.94 321.28 C 353.37 322.76 356.69 322.82 360.00 324.03 C 364.16 324.62 368.78 326.52 373.00 326.70 C 380.39 327.86 386.41 329.10 394.00 329.42 C 406.78 331.09 417.20 330.74 430.00 330.71 C 433.83 330.65 437.05 329.60 441.00 329.85 C 445.76 328.92 452.57 328.56 457.00 327.41 C 458.78 327.27 460.85 327.36 462.43 326.46 C 468.78 326.16 476.66 323.59 483.06 322.26 C 488.06 320.81 493.15 319.01 498.05 317.22 C 499.23 316.74 499.87 317.00 499.95 318.00 C 499.96 333.74 491.97 347.96 480.39 358.38 C 469.18 368.23 454.53 374.75 440.00 377.28 C 437.70 378.38 435.33 377.67 433.00 378.69 C 422.26 379.66 410.60 380.02 400.00 378.01 C 395.81 377.75 391.68 375.92 387.46 375.54 C 384.37 374.03 380.65 373.19 377.55 371.46 C 361.48 365.03 346.57 352.20 339.76 336.00 C 338.06 331.96 336.32 327.42 336.12 323.00 C 335.94 321.22 335.07 318.64 336.04 317.04 Z" fill="#ffffff"/>
<path d="M 312.61 319.32 C 313.04 325.39 313.58 329.81 315.45 335.57 C 317.65 341.83 320.52 349.48 324.17 355.00 C 335.94 373.77 354.22 387.63 375.04 394.76 C 386.27 398.99 397.23 400.34 409.00 401.76 C 414.67 401.80 420.33 401.77 426.00 401.76 C 436.43 401.24 443.37 399.31 453.00 397.62 C 459.33 395.47 467.07 393.03 473.00 389.96 C 474.11 389.84 474.93 389.34 475.46 388.46 C 477.81 387.87 479.86 386.11 482.00 384.99 C 495.42 376.85 507.05 365.02 514.30 351.08 C 518.54 343.31 521.34 333.66 522.57 325.00 C 522.83 323.20 521.61 318.70 525.00 320.01 C 530.30 322.43 534.90 323.21 540.38 325.58 C 550.68 328.87 563.21 333.83 573.04 336.80 C 578.33 339.44 583.12 340.07 588.45 342.54 C 595.12 345.03 603.58 348.03 609.88 351.28 C 617.12 354.78 625.20 359.35 630.92 365.14 C 636.84 370.38 641.01 376.60 646.02 383.00 C 652.13 391.29 659.09 400.42 665.32 408.71 C 686.97 437.06 706.13 463.19 727.21 491.95 C 728.39 493.56 728.42 494.60 726.43 495.43 C 698.42 516.03 670.63 536.92 643.00 558.02 C 641.72 558.52 640.69 560.59 639.25 559.76 C 633.89 552.57 627.20 544.04 622.16 537.00 C 621.50 527.20 621.16 516.83 621.18 507.00 C 621.05 501.49 615.56 496.43 610.00 496.89 C 604.32 496.64 598.55 502.25 599.13 508.00 C 599.19 519.00 599.07 530.00 599.23 541.00 C 599.89 545.92 599.42 550.78 599.61 556.00 C 600.22 578.00 599.88 600.00 600.21 622.00 C 601.48 647.79 600.44 675.34 601.40 701.00 C 602.30 715.35 601.16 731.65 602.58 746.00 C 602.44 755.38 602.70 764.64 603.21 774.00 C 603.01 783.72 604.38 793.27 604.17 803.00 C 605.48 811.01 604.44 819.01 605.80 827.00 C 605.70 834.71 606.75 842.28 606.42 850.00 C 607.82 854.27 607.11 859.92 607.46 864.57 C 608.86 868.20 607.46 872.75 608.54 876.43 C 608.81 879.29 609.11 882.11 609.02 885.00 C 608.96 890.20 610.13 893.96 609.94 899.00 C 610.65 907.27 611.36 915.70 611.42 924.00 C 611.66 926.35 610.00 925.69 608.56 926.54 C 604.14 926.65 599.88 927.55 595.44 927.46 C 593.92 928.38 591.73 928.07 590.00 928.20 C 584.27 928.91 576.62 929.96 571.00 930.08 C 567.74 931.39 563.64 930.00 560.56 931.54 C 554.13 931.37 547.86 932.42 541.44 932.46 C 539.01 933.65 535.67 932.65 533.08 933.35 C 528.63 934.51 524.23 933.41 520.00 934.59 C 515.35 935.26 511.51 934.32 507.00 935.58 C 502.64 935.73 498.33 935.52 494.00 936.03 C 488.37 936.78 482.64 935.89 477.00 936.81 C 470.05 937.40 463.04 936.88 456.12 937.39 C 446.33 938.25 435.87 937.95 426.00 938.05 C 420.00 938.00 414.00 938.30 408.00 938.11 C 395.07 937.84 383.06 938.39 370.00 937.18 C 364.55 936.94 358.23 937.62 353.00 936.42 C 343.95 936.68 335.04 935.52 326.00 935.58 C 321.85 934.38 318.25 935.23 314.00 934.61 C 309.57 933.36 304.62 934.56 299.94 933.32 C 297.68 932.66 294.63 933.66 292.56 932.46 C 286.45 932.48 280.55 931.36 274.44 931.54 C 271.69 930.13 267.83 931.30 264.94 930.30 C 262.50 929.53 259.68 930.34 257.19 929.61 C 254.76 928.56 251.50 929.43 249.07 928.68 C 246.56 927.66 243.08 928.71 240.58 927.46 C 238.02 927.37 235.52 927.40 233.00 926.84 C 230.70 926.64 226.16 926.64 224.60 925.00 C 224.50 920.96 224.57 917.02 225.02 913.00 C 225.47 909.26 224.94 905.60 225.69 902.00 C 226.48 896.93 225.61 890.92 226.91 886.00 C 227.08 881.93 226.79 878.02 227.76 874.00 C 227.97 869.61 227.70 865.34 228.61 861.00 C 228.59 854.09 229.46 847.25 229.46 840.33 C 230.54 834.93 229.67 829.34 230.58 824.00 C 231.41 816.10 230.60 808.28 231.91 800.00 C 231.91 795.24 231.90 790.54 232.54 785.75 C 232.97 780.17 232.58 774.59 233.04 769.00 C 233.54 762.33 233.42 755.68 233.43 749.00 C 234.47 739.28 234.13 728.81 234.24 719.00 C 235.62 691.52 234.62 666.78 235.42 640.00 C 236.48 610.58 235.52 580.14 236.42 550.00 C 236.69 534.95 236.95 522.26 236.84 507.00 C 236.35 500.78 230.29 495.59 224.00 496.93 C 218.80 497.35 214.28 502.82 214.60 508.00 C 214.02 517.28 214.08 526.69 213.94 536.00 C 213.27 538.14 211.20 540.05 210.07 542.00 C 205.45 547.99 201.57 553.56 196.75 559.73 C 195.24 560.40 194.25 558.44 193.00 557.86 C 164.84 536.54 137.54 515.83 109.00 494.90 C 107.52 494.12 108.28 492.94 109.16 492.05 C 133.54 458.16 158.64 425.13 183.70 391.79 C 190.57 383.09 196.62 374.06 204.24 365.25 C 207.98 361.00 212.49 358.23 217.00 354.95 C 220.32 352.89 224.17 351.51 227.46 349.46 C 231.09 348.66 234.57 346.68 238.00 345.35 C 244.34 343.43 249.56 341.03 256.00 338.93 C 266.48 334.74 279.29 330.74 288.96 326.87 C 295.82 324.83 298.74 323.26 306.00 321.01 C 307.94 320.51 310.69 318.58 312.61 319.32 Z" fill="#ffffff"/>
<path d="M 432.00 473.42 C 433.61 473.36 434.58 473.33 436.00 474.11 C 439.60 474.23 443.53 475.65 447.00 476.71 C 457.62 479.52 467.37 485.14 475.65 492.34 C 484.55 500.65 491.48 511.44 495.25 522.94 C 498.46 533.44 500.35 544.95 499.02 556.00 C 499.00 560.93 497.20 566.20 496.24 571.00 C 495.51 575.70 492.64 580.51 490.86 585.00 C 484.70 596.50 476.99 606.47 466.82 614.81 C 457.22 623.46 448.40 633.23 442.81 644.96 C 442.09 645.94 441.94 647.38 441.54 648.54 C 436.04 659.12 438.05 669.48 437.66 681.00 C 437.83 684.83 435.53 689.18 431.84 690.64 C 428.59 691.75 425.50 691.17 422.00 691.28 C 416.35 691.21 410.63 691.43 405.00 691.12 C 401.26 690.93 398.31 687.35 397.43 684.00 C 397.42 673.67 397.42 663.33 397.42 653.00 C 398.75 646.99 399.88 640.89 402.66 634.91 C 407.12 624.63 414.19 615.04 422.05 607.04 C 433.41 594.91 445.60 586.33 453.01 571.00 C 457.28 562.88 458.59 553.14 457.91 544.00 C 456.61 539.92 456.18 534.67 453.72 531.15 C 450.88 525.88 446.89 520.58 441.83 517.26 C 430.93 509.08 415.69 507.23 403.10 512.27 C 393.90 515.97 386.23 522.82 381.54 531.57 C 378.88 535.83 377.72 541.25 376.38 546.00 C 375.90 549.57 376.26 554.80 373.20 557.21 C 371.98 558.49 370.78 559.04 369.00 559.12 C 358.98 559.24 349.01 558.37 339.00 558.58 C 336.41 558.98 334.50 556.44 334.66 554.00 C 334.86 547.66 334.61 539.99 336.28 534.00 C 340.32 515.82 351.10 498.35 366.66 487.64 C 377.14 479.78 389.21 475.88 401.93 473.71 C 411.26 472.55 422.58 472.38 432.00 473.42 Z" fill="#625345"/>
<path d="M 410.45 724.46 C 415.50 723.24 420.79 723.27 425.87 724.33 C 428.00 725.73 430.88 725.70 432.67 727.39 C 443.70 734.02 449.33 748.80 444.98 761.00 C 439.93 775.73 422.60 783.76 407.96 779.23 C 398.99 776.02 392.57 769.15 389.79 760.04 C 388.44 754.13 388.16 746.54 391.00 741.00 C 394.64 732.78 401.94 727.00 410.45 724.46 Z" fill="#625345"/>
</svg>