<?xml version="1.0" encoding="UTF-8" standalone="no"?>
<!DOCTYPE svg PUBLIC "-//W3C//DTD SVG 1.1//EN" "http://www.w3.org/Graphics/SVG/1.1/DTD/svg11.dtd">
<svg xmlns="http://www.w3.org/2000/svg" version="1.1" viewBox="110.87 112.2 800.65 800.65" width="1024.0pt" height="1024.0pt">
<path d="M 478.70 211.49 C 506.18 214.27 532.73 223.75 559.44 231.53 C 585.96 239.56 612.32 248.10 638.82 256.19 C 658.04 261.71 677.15 267.69 696.19 273.82 C 739.37 287.90 782.91 301.35 825.88 316.11 C 841.50 321.98 858.52 328.81 871.49 339.51 C 882.36 348.36 891.10 359.10 897.37 371.65 C 903.17 382.80 906.11 394.80 907.68 407.20 C 909.52 423.32 910.65 439.70 907.82 455.78 C 906.57 463.88 903.52 471.46 899.63 478.64 C 897.50 482.60 894.68 485.71 893.19 489.81 C 895.40 493.89 898.36 497.41 900.40 501.59 C 904.18 509.20 906.44 517.70 908.06 526.01 C 909.78 535.94 911.13 545.90 911.08 556.00 C 911.52 573.95 911.10 592.64 904.75 609.69 C 900.41 621.73 893.20 632.25 884.86 641.87 C 875.86 651.62 864.85 659.69 853.52 666.53 C 824.83 684.19 796.23 702.03 767.31 719.32 C 732.64 739.69 698.05 760.01 663.38 780.39 C 649.44 788.72 635.62 796.80 620.25 802.28 C 601.73 809.18 582.89 813.97 563.00 813.99 C 552.92 814.25 542.90 813.82 532.95 812.12 C 521.17 810.25 510.43 806.50 499.10 802.91 C 482.02 796.95 465.07 790.53 448.33 783.67 C 424.32 774.13 400.43 764.25 376.49 754.52 C 346.95 742.49 317.62 729.99 288.09 717.93 C 268.46 709.28 248.27 702.09 228.71 693.29 C 215.81 687.84 202.84 682.53 189.95 677.04 C 179.00 672.39 168.06 668.05 157.51 662.51 C 150.30 658.70 142.95 654.68 137.19 648.82 C 128.30 639.67 121.05 629.15 117.04 616.95 C 110.87 598.97 112.18 579.12 114.38 560.53 C 115.94 546.72 120.02 533.53 128.15 522.15 C 130.86 518.31 134.38 515.34 137.32 511.72 C 135.68 508.44 133.42 505.59 131.56 502.44 C 124.62 490.27 119.95 477.03 117.73 463.19 C 115.17 450.76 115.52 438.12 117.59 425.66 C 120.77 404.57 130.67 385.53 144.33 369.34 C 151.47 361.17 159.63 353.80 168.32 347.31 C 186.90 333.57 206.65 324.42 227.21 314.20 C 285.30 286.37 343.14 257.97 401.30 230.29 C 411.27 225.57 421.63 220.18 432.19 217.13 C 440.52 214.66 449.30 212.56 457.99 211.96 C 464.98 211.46 471.69 210.80 478.70 211.49 Z" fill="#9394d7"/>
<path d="M 463.98 239.78 C 477.50 238.87 491.26 240.43 504.24 244.38 C 513.94 246.74 523.28 250.17 532.87 252.91 C 547.60 256.82 561.97 262.07 576.65 266.15 C 590.78 270.11 604.59 274.99 618.65 279.14 C 633.28 284.07 648.26 287.79 662.85 292.86 C 667.82 294.27 672.86 295.22 677.73 296.98 C 688.74 301.03 700.08 304.04 711.19 307.80 C 719.88 310.81 728.75 313.24 737.41 316.35 C 753.44 321.93 769.78 326.17 785.61 332.27 C 806.47 339.28 828.17 344.96 847.70 355.26 C 856.07 359.69 863.04 366.95 868.40 374.67 C 871.98 380.67 875.22 387.18 877.20 393.90 C 881.01 408.35 881.61 424.12 881.46 439.00 C 881.54 445.66 880.99 452.15 878.46 458.39 C 872.23 472.78 861.81 483.09 849.96 492.96 C 844.61 497.45 838.78 501.08 833.13 505.15 C 822.75 512.53 811.76 518.37 800.84 524.94 C 785.50 533.20 770.53 542.10 755.14 550.28 C 746.01 555.58 736.44 559.97 727.46 565.54 C 704.71 577.76 681.88 589.85 659.28 602.35 C 638.13 613.46 617.42 625.36 596.08 636.13 C 584.58 642.66 572.07 647.07 559.00 649.13 C 550.58 649.92 541.71 649.88 533.32 648.79 C 519.62 647.04 505.96 641.17 493.06 636.09 C 467.92 626.53 443.23 615.82 418.15 606.07 C 405.36 600.54 392.30 595.67 379.45 590.26 C 368.98 586.97 359.39 581.70 349.05 578.05 C 323.46 567.68 298.05 556.79 272.32 546.76 C 259.95 541.41 247.59 536.04 235.05 531.08 C 218.21 523.89 201.31 516.86 184.48 509.67 C 177.02 506.40 168.74 504.09 163.15 497.84 C 152.63 487.01 146.88 472.75 144.96 457.92 C 144.30 450.27 144.16 442.40 144.38 434.72 C 144.56 427.48 146.70 420.92 148.98 414.14 C 150.94 408.33 154.25 402.73 157.26 397.38 C 160.53 391.61 165.02 387.33 169.58 382.57 C 177.66 374.35 186.88 368.76 196.30 362.25 C 212.01 352.50 229.01 344.69 245.54 336.40 C 255.55 331.38 265.84 326.95 275.75 321.71 C 303.40 308.31 331.05 295.19 358.54 281.43 C 364.55 278.31 370.84 275.82 376.88 272.76 C 394.04 264.02 411.51 255.87 429.08 248.00 C 440.12 243.46 452.14 241.05 463.98 239.78 Z" fill="#e4ddff"/>
<path d="M 829.72 422.16 C 837.17 424.08 841.64 433.07 838.01 440.02 C 835.61 444.79 829.59 446.76 825.20 449.29 C 804.81 461.08 783.81 471.87 763.11 483.11 C 742.71 493.76 722.73 504.97 702.13 515.20 C 686.45 523.59 670.61 531.69 654.78 539.80 C 643.42 545.98 632.13 552.36 621.11 559.13 C 609.48 566.80 596.81 574.13 589.63 586.56 C 586.74 591.46 585.37 598.17 580.55 601.56 C 574.68 605.62 566.24 603.46 562.41 597.59 C 559.29 593.27 560.75 588.08 562.43 583.51 C 568.70 568.10 580.26 557.13 593.20 547.21 C 605.35 538.02 618.24 529.93 631.53 522.50 C 644.49 515.26 657.87 508.91 670.95 501.94 C 678.87 497.80 686.87 493.82 694.87 489.82 C 712.01 480.98 728.94 471.75 746.19 463.12 C 769.69 450.29 793.90 438.58 816.91 424.87 C 820.98 422.62 824.97 420.79 829.72 422.16 Z" fill="#9394d7"/>
<path d="M 873.90 513.09 C 881.14 522.22 882.85 535.74 883.53 547.01 C 884.17 555.85 884.62 564.64 883.77 573.49 C 883.19 582.82 883.18 591.48 879.43 600.26 C 876.53 606.84 872.97 613.73 867.94 618.94 C 862.59 624.58 856.90 629.96 850.77 634.76 C 846.12 638.15 841.29 641.33 836.54 644.59 C 817.57 655.92 798.70 667.43 779.74 678.79 C 769.88 684.59 760.38 690.94 750.40 696.54 C 732.11 707.54 713.87 718.63 695.56 729.58 C 688.16 734.34 680.34 738.33 672.85 742.93 C 659.15 750.86 645.51 758.88 631.89 766.93 C 623.98 771.63 615.73 774.01 607.17 777.17 C 598.32 780.03 590.15 783.59 580.93 785.15 C 571.80 787.05 563.22 786.24 554.00 786.43 C 547.97 786.51 541.97 786.28 536.03 785.18 C 529.22 784.02 523.07 781.76 516.52 779.67 C 504.14 775.69 492.32 770.08 479.92 766.18 C 470.33 762.44 460.80 758.59 451.20 754.88 C 441.98 750.86 432.39 747.88 423.23 743.71 C 405.20 737.06 387.52 729.44 369.63 722.40 C 351.17 714.39 332.36 707.25 313.89 699.26 C 306.81 696.29 299.78 693.22 292.62 690.44 C 286.56 687.73 280.52 685.15 274.29 682.84 C 248.30 671.78 222.09 661.28 196.23 649.84 C 189.30 646.69 182.18 644.15 175.40 640.66 C 169.46 637.71 163.68 634.81 158.69 630.33 C 152.78 625.10 146.78 619.20 144.37 611.47 C 142.69 606.16 141.09 600.61 140.71 595.03 C 140.14 583.01 140.91 571.13 142.08 559.18 C 143.77 550.25 148.59 541.42 154.97 534.97 C 156.17 533.93 157.91 531.89 159.67 532.39 C 162.88 533.03 165.98 534.64 168.98 535.91 C 176.00 539.09 183.21 541.75 190.39 544.50 C 201.52 548.98 212.50 553.84 223.69 558.18 C 234.85 562.47 245.62 567.65 256.75 572.04 C 273.66 578.69 290.28 586.08 307.24 592.60 C 318.66 597.75 330.26 602.41 341.93 606.95 C 357.19 613.47 372.68 619.42 387.96 625.89 C 402.30 632.13 417.00 637.44 431.46 643.41 C 440.31 646.74 448.77 651.01 457.71 654.11 C 465.46 656.82 472.78 660.54 480.53 663.27 C 487.87 665.85 494.85 669.27 502.29 671.59 C 513.71 676.02 525.88 678.81 538.10 679.73 C 542.32 680.19 546.54 680.48 550.78 680.14 C 557.06 679.63 563.58 679.56 569.69 678.32 C 582.54 675.76 595.04 670.65 606.55 664.45 C 616.37 659.40 626.58 654.66 636.06 648.99 C 641.17 645.96 646.51 643.46 651.72 640.60 C 663.73 634.31 675.30 627.26 687.50 621.33 C 709.06 609.11 731.16 597.80 752.80 585.69 C 766.44 577.92 780.36 570.66 794.03 562.95 C 800.43 559.29 807.11 556.29 813.30 552.25 C 819.86 548.01 826.83 544.50 833.42 540.31 C 842.72 534.42 851.90 529.28 860.45 522.40 C 864.67 519.18 869.02 515.16 873.90 513.09 Z" fill="#e4ddff"/>
<path d="M 848.72 580.27 C 851.54 585.11 851.19 591.45 848.13 596.10 C 845.73 599.74 841.57 602.54 838.12 605.15 C 797.66 634.57 754.33 660.75 711.42 686.44 C 686.42 701.19 661.57 716.07 636.16 730.21 C 617.92 740.57 598.99 749.26 578.67 754.67 C 574.42 755.76 569.99 755.25 566.44 752.57 C 560.24 748.17 559.58 737.44 565.71 732.71 C 569.25 729.95 574.55 729.00 578.79 727.71 C 601.75 721.04 622.54 707.96 643.32 696.30 C 690.49 668.57 738.38 641.22 783.94 610.93 C 796.85 602.27 810.06 593.85 822.34 584.32 C 825.25 581.93 827.77 579.06 830.75 576.77 C 836.25 572.55 845.13 574.37 848.72 580.27 Z" fill="#9394d7"/>
</svg>