<?xml version="1.0" encoding="UTF-8" standalone="no"?>
<!DOCTYPE svg PUBLIC "-//W3C//DTD SVG 1.1//EN" "http://www.w3.org/Graphics/SVG/1.1/DTD/svg11.dtd">
<svg xmlns="http://www.w3.org/2000/svg" version="1.1" viewBox="0 0 1024 1024" width="1024.0pt" height="1024.0pt">
<path d="M 416.00 150.01 C 424.01 150.59 431.91 155.68 439.27 158.72 C 462.11 169.62 486.05 171.58 511.00 171.99 C 529.22 171.60 548.56 170.30 566.09 165.07 C 577.09 161.85 586.81 156.67 597.26 152.23 C 602.32 150.06 607.07 149.55 612.51 150.46 C 623.05 152.24 633.45 155.31 643.74 158.22 C 665.46 164.30 687.63 171.21 708.00 180.99 C 727.85 190.70 742.72 204.56 759.43 218.59 C 785.56 240.82 811.34 263.28 837.16 285.86 C 839.71 288.36 841.76 291.14 841.60 294.89 C 841.32 299.66 837.90 304.45 835.43 308.40 C 827.24 321.34 817.97 333.47 808.39 345.39 C 791.90 365.78 774.66 385.59 756.44 404.46 C 752.86 408.15 749.05 413.20 744.26 415.26 C 740.41 416.90 736.76 415.66 733.36 413.66 C 723.73 407.78 715.53 399.52 706.46 393.07 C 716.74 495.58 727.10 598.10 737.43 700.62 C 741.97 742.26 746.43 783.93 751.48 825.52 C 752.14 831.52 753.50 837.90 752.90 843.93 C 752.61 847.04 750.71 849.52 748.02 851.01 C 744.06 853.23 738.95 853.89 734.51 854.52 C 682.48 861.05 630.48 867.80 578.48 874.54 C 572.62 875.26 566.05 876.71 560.19 875.79 C 556.15 875.11 552.97 872.37 551.38 868.64 C 549.22 863.63 548.50 857.81 547.52 852.46 C 543.86 829.94 539.43 807.67 533.31 785.67 C 530.18 774.97 526.44 763.92 520.69 754.32 C 518.46 750.70 515.69 747.77 511.07 748.07 C 506.29 748.26 503.95 752.06 501.74 755.74 C 496.14 765.81 492.47 777.24 489.32 788.29 C 483.54 809.56 479.28 830.95 475.71 852.69 C 474.73 858.01 474.04 863.88 471.79 868.82 C 470.12 872.47 466.90 875.21 462.86 875.81 C 457.20 876.64 450.94 875.42 445.28 874.72 C 393.33 867.82 341.36 861.18 289.37 854.62 C 284.30 853.86 277.51 853.04 273.69 849.31 C 270.14 845.89 270.72 840.46 270.98 835.98 C 276.71 787.82 282.33 739.62 287.38 691.38 C 295.66 613.13 303.70 534.85 311.49 456.54 C 313.50 435.42 315.94 414.28 317.82 393.16 C 307.93 399.45 299.52 408.41 289.25 414.25 C 286.22 415.83 283.01 416.73 279.72 415.30 C 275.36 413.36 271.88 408.79 268.58 405.43 C 255.55 392.09 243.19 378.10 231.03 363.98 C 214.73 344.62 198.20 324.52 185.16 302.83 C 182.94 298.91 181.35 294.81 183.33 290.41 C 185.48 285.90 190.49 282.48 194.13 279.15 C 218.73 257.39 243.32 235.63 268.26 214.26 C 278.28 205.72 288.72 196.84 299.89 189.89 C 315.25 180.06 332.39 174.45 349.52 168.52 C 364.47 163.45 379.42 157.84 394.64 153.63 C 401.48 151.89 408.90 149.74 416.00 150.01 Z" fill="#62b6d9" />
<path d="M 400.52 176.42 C 401.63 180.24 402.01 184.30 402.83 188.19 C 408.80 215.00 424.17 239.39 446.68 255.32 C 477.54 276.87 518.74 281.10 553.75 267.75 C 587.21 254.79 612.55 224.49 620.67 189.70 C 621.67 185.37 622.03 180.83 623.34 176.59 C 627.12 176.98 630.90 178.36 634.53 179.44 C 646.77 183.18 659.11 186.71 671.26 190.74 C 688.28 196.20 704.49 203.24 718.61 214.38 C 734.68 227.24 750.37 240.62 765.99 254.01 C 779.24 265.41 792.57 276.72 805.58 288.41 C 808.56 291.16 812.15 293.83 814.38 297.24 C 812.96 301.30 809.82 304.88 807.42 308.42 C 793.22 328.67 777.47 347.58 760.88 365.90 C 756.00 371.34 750.92 376.59 746.12 382.11 C 744.14 384.26 741.85 386.83 739.10 387.96 C 736.73 386.88 734.58 385.07 732.63 383.37 C 724.42 375.92 716.16 368.36 707.29 361.71 C 703.17 358.73 698.23 355.00 692.99 354.75 C 687.05 354.36 681.74 358.90 680.87 364.72 C 680.23 369.72 681.36 375.08 681.88 380.07 C 685.39 409.94 688.22 439.89 691.30 469.80 C 703.10 584.86 714.42 699.98 727.10 814.95 C 727.59 820.39 728.94 826.05 728.53 831.50 C 722.33 833.24 715.60 833.26 709.23 834.26 C 664.56 840.11 619.84 845.43 575.22 851.38 C 573.69 851.51 572.17 851.57 570.64 851.40 C 568.93 845.68 568.57 839.56 567.31 833.72 C 562.77 810.25 557.66 786.60 550.11 763.90 C 547.05 754.93 543.22 745.24 537.18 737.83 C 529.41 728.30 516.16 722.70 504.00 725.96 C 495.52 728.00 488.44 733.42 483.58 740.58 C 477.68 749.27 473.96 759.85 470.85 769.83 C 464.65 790.87 459.89 812.35 455.91 833.92 C 454.74 839.76 454.47 846.02 452.51 851.65 C 448.12 852.01 443.89 851.11 439.47 850.57 C 396.69 844.84 353.84 839.57 311.05 833.94 C 305.87 833.20 300.31 833.09 295.30 831.55 C 294.80 826.63 295.90 821.33 296.43 816.41 C 308.18 707.31 319.84 598.23 331.14 489.08 C 335.29 449.35 338.96 409.29 343.69 369.67 C 344.54 363.24 341.15 356.96 334.80 355.08 C 329.47 353.69 324.61 356.45 320.33 359.31 C 309.87 366.52 300.32 375.41 290.81 383.83 C 289.01 385.36 287.04 386.95 284.88 387.94 C 281.20 386.26 278.30 382.35 275.59 379.43 C 254.89 356.91 234.19 333.40 216.80 308.20 C 214.41 304.68 211.24 301.20 209.71 297.21 C 211.48 294.35 214.30 292.02 216.75 289.74 C 236.28 272.27 255.82 254.80 275.61 237.63 C 284.67 229.99 293.80 222.38 303.31 215.31 C 315.18 206.51 328.42 200.29 342.27 195.27 C 358.86 189.31 375.71 183.99 392.43 178.37 C 395.03 177.55 397.80 176.65 400.52 176.42 Z" fill="#b7edfb" />
<path d="M 423.94 177.45 C 428.96 179.60 433.63 182.39 438.82 184.18 C 459.92 191.89 483.67 194.36 506.01 195.01 C 530.81 195.15 556.27 192.55 579.99 185.00 C 586.84 182.94 593.08 179.52 599.73 176.98 C 595.75 202.51 580.26 226.62 558.04 240.05 C 544.41 248.45 527.93 252.37 512.00 252.16 C 502.15 252.34 492.43 251.05 483.07 247.94 C 452.26 238.40 428.66 209.06 423.94 177.45 Z" fill="#b7edfb" />
</svg>