<?xml version="1.0" encoding="UTF-8" standalone="no"?>
<!DOCTYPE svg PUBLIC "-//W3C//DTD SVG 1.1//EN" "http://www.w3.org/Graphics/SVG/1.1/DTD/svg11.dtd">
<svg xmlns="http://www.w3.org/2000/svg" version="1.1" viewBox="42.97 250.48 749.85 749.85" width="836.0pt" height="1254.0pt">
<path d="M 355.78 252.20 C 360.30 253.70 364.43 256.32 368.85 258.12 C 394.61 270.00 425.41 271.06 452.53 263.50 C 461.62 260.75 470.45 257.28 478.89 252.93 C 483.22 250.48 487.01 253.42 491.13 254.85 C 520.62 266.46 550.42 277.35 579.84 289.15 C 591.73 294.64 601.16 305.84 606.27 317.75 C 610.50 329.17 613.86 340.94 617.41 352.58 C 633.60 403.60 649.19 454.44 665.62 505.40 C 677.17 541.72 688.43 578.26 700.59 614.37 C 701.72 618.17 701.18 622.39 698.20 625.18 C 695.58 627.33 692.14 628.62 689.11 630.11 C 660.19 644.17 631.31 658.38 602.34 672.36 C 599.07 674.01 595.42 675.27 592.41 677.37 C 593.28 688.56 594.86 699.81 595.91 711.01 C 598.13 727.98 599.68 745.03 601.89 762.00 C 607.68 816.03 614.55 869.95 620.21 923.98 C 621.86 937.60 623.88 951.17 625.45 964.80 C 625.62 967.33 626.09 970.19 624.35 972.31 C 622.18 975.23 617.60 976.22 614.31 977.36 C 589.12 985.74 563.44 990.57 537.22 994.37 C 518.12 996.88 499.27 998.94 479.97 999.36 C 474.97 999.49 470.01 1000.09 465.00 1000.08 C 434.34 1000.14 403.65 1000.33 373.00 1000.03 C 365.99 999.66 359.02 999.23 352.00 999.15 C 327.23 997.97 302.49 995.10 278.04 990.96 C 270.97 990.01 264.03 988.54 257.08 986.94 C 245.32 984.56 233.76 981.56 222.42 977.62 C 219.14 976.46 215.24 975.63 212.43 973.55 C 209.83 971.27 209.84 968.27 210.18 965.08 C 210.87 959.20 211.58 953.31 212.46 947.45 C 215.46 928.86 217.32 910.08 219.41 891.37 C 220.89 875.85 223.14 860.43 224.76 844.93 C 227.46 824.32 229.46 803.63 231.98 783.00 C 233.76 765.31 236.10 747.69 237.77 729.99 C 239.77 712.97 241.76 694.50 243.55 677.32 C 240.96 675.52 237.89 674.34 235.06 672.95 C 203.73 658.06 172.67 642.59 141.35 627.66 C 138.59 626.30 136.20 624.78 135.40 621.59 C 134.06 616.87 137.12 611.01 138.42 606.45 C 168.26 512.83 198.38 419.22 227.29 325.31 C 231.98 309.13 244.04 292.95 260.47 287.46 C 274.22 282.30 287.81 276.72 301.54 271.51 C 316.84 265.41 332.33 259.80 347.55 253.51 C 350.10 252.58 353.06 251.30 355.78 252.20 Z" fill="#fadb59"/>
<path d="M 347.77 271.12 C 349.21 272.72 350.37 274.68 351.51 276.50 C 369.95 306.14 390.44 333.90 410.84 362.16 C 413.00 364.95 415.08 367.38 418.97 367.03 C 422.69 366.94 424.62 364.35 426.64 361.64 C 446.17 333.33 466.45 306.00 484.80 276.81 C 485.92 274.98 487.02 273.02 488.35 271.34 C 489.75 271.12 491.33 271.91 492.65 272.32 C 509.21 278.58 526.04 284.21 542.62 290.35 C 540.69 293.68 537.70 296.19 534.94 298.94 C 523.50 309.85 511.45 320.13 499.68 330.69 C 473.52 353.94 447.24 376.92 420.62 399.63 C 419.80 400.25 418.94 400.81 418.02 401.30 C 415.63 399.97 413.68 398.14 411.65 396.33 C 382.55 371.17 353.79 345.54 324.88 320.14 C 317.11 312.87 308.81 306.21 301.04 298.94 C 298.37 296.41 295.74 293.95 293.59 290.95 C 296.24 289.01 299.13 288.31 302.18 287.18 C 314.94 282.60 327.76 278.22 340.45 273.43 C 342.88 272.50 345.17 271.53 347.77 271.12 Z" fill="#fff6ae"/>
<path d="M 370.21 276.02 C 373.58 276.81 376.81 277.92 380.17 278.83 C 402.56 285.18 426.85 285.25 449.56 280.58 C 455.48 279.49 461.03 277.19 466.88 275.88 C 465.80 278.36 464.40 280.64 462.89 282.89 C 448.76 304.54 433.67 325.58 418.72 346.68 C 417.60 345.61 416.65 344.49 415.79 343.20 C 400.44 321.10 383.68 299.32 370.21 276.02 Z" fill="#fff6ae"/>
<path d="M 558.18 297.43 C 560.58 297.89 562.90 298.95 565.17 299.82 C 570.22 301.89 575.46 303.81 579.78 307.23 C 586.26 312.35 591.11 319.57 593.52 327.47 C 602.57 356.38 611.74 385.25 620.88 414.14 C 631.03 446.59 641.15 479.05 651.59 511.41 C 662.15 545.17 673.06 579.30 684.12 612.89 C 684.30 613.53 684.46 614.19 684.59 614.85 C 680.89 617.21 676.60 618.67 672.70 620.69 C 648.29 632.71 623.84 644.51 599.34 656.34 C 596.59 657.71 593.99 659.09 591.02 659.96 C 589.94 656.12 589.82 651.81 589.35 647.82 C 586.09 619.24 583.31 590.60 580.23 562.00 C 574.23 504.97 568.30 448.19 562.72 391.11 C 562.48 389.32 561.99 387.65 560.68 386.33 C 557.53 383.00 551.67 383.20 548.93 386.95 C 547.26 389.12 547.48 391.46 547.66 394.02 C 549.36 410.37 551.02 426.74 552.67 443.10 C 556.47 481.81 560.82 520.48 564.65 559.19 C 569.62 604.74 574.17 650.30 579.32 695.83 C 585.45 750.92 591.42 805.93 597.92 860.99 C 601.29 890.63 604.63 920.28 608.24 949.90 C 608.66 954.06 609.70 958.31 609.55 962.49 C 608.05 963.10 606.51 963.54 604.95 963.97 C 581.87 970.33 558.38 975.37 534.66 978.61 C 498.58 983.90 462.62 985.25 426.21 984.56 C 425.31 979.86 425.89 974.79 425.76 970.00 C 425.63 902.33 425.51 834.67 425.59 767.00 C 425.64 761.33 425.34 755.67 425.31 750.00 C 425.26 677.66 425.16 605.33 425.06 533.00 C 425.19 497.35 424.65 461.63 425.79 426.00 C 425.88 422.80 425.62 419.43 426.25 416.28 C 428.19 413.67 431.09 411.69 433.50 409.51 C 456.85 388.91 480.20 368.20 503.54 347.56 C 517.47 335.50 530.97 323.00 544.69 310.70 C 549.38 306.48 553.55 301.68 558.18 297.43 Z" fill="#fff6ae"/>
<path d="M 276.15 298.10 C 278.05 297.44 279.30 299.37 280.61 300.41 C 293.18 313.22 307.16 324.46 320.32 336.69 C 349.67 362.31 378.66 388.34 407.98 414.00 C 408.74 414.82 410.10 415.81 410.03 417.03 C 410.34 422.00 409.99 427.02 410.07 432.00 C 409.94 567.33 410.11 702.67 410.31 838.00 C 410.45 882.33 410.44 926.67 410.42 971.00 C 410.37 975.48 410.78 979.78 410.05 984.05 C 405.51 984.82 400.65 984.33 396.00 984.42 C 379.97 984.54 363.99 983.93 348.00 982.98 C 307.20 980.53 265.46 974.65 226.35 962.53 C 226.08 959.72 226.73 956.85 227.12 954.04 C 228.51 944.35 229.63 934.66 230.78 924.95 C 237.77 865.35 244.67 805.71 251.29 746.07 C 256.01 702.86 261.09 659.65 265.44 616.39 C 273.45 543.00 280.73 469.52 287.94 396.05 C 288.06 393.64 288.42 390.76 287.52 388.48 C 285.53 385.05 280.87 383.36 277.21 385.12 C 273.71 386.60 273.15 389.54 272.79 392.97 C 264.55 482.65 254.94 570.07 245.66 659.91 C 244.61 660.61 243.01 659.40 241.94 659.05 C 214.57 645.78 187.27 632.45 159.95 619.05 C 157.37 617.69 154.14 616.79 151.98 614.82 C 152.58 610.09 154.59 605.50 155.92 600.93 C 183.40 514.92 210.78 428.86 237.68 342.67 C 241.21 332.43 242.55 322.87 249.17 314.16 C 255.83 305.09 265.73 301.19 276.15 298.10 Z" fill="#fff6ae"/>
</svg>