<?xml version="1.0" encoding="UTF-8" standalone="no"?>
<!DOCTYPE svg PUBLIC "-//W3C//DTD SVG 1.1//EN" "http://www.w3.org/Graphics/SVG/1.1/DTD/svg11.dtd">
<svg xmlns="http://www.w3.org/2000/svg" version="1.1" viewBox="0 0 1024 1024" width="1024.0pt" height="1024.0pt">
<path d="M 431.19 146.28 C 439.38 145.22 448.16 146.27 456.25 147.72 C 467.64 149.47 478.54 151.63 490.04 152.18 C 497.73 152.84 505.28 153.13 513.00 153.00 C 531.82 153.36 551.11 150.87 569.63 147.61 C 577.66 146.03 586.45 145.07 594.55 146.52 C 603.10 148.62 608.45 157.41 612.42 164.60 C 616.12 171.26 619.66 178.01 623.29 184.71 C 624.96 188.39 629.44 188.78 632.78 190.26 C 647.81 196.27 662.65 202.81 677.31 209.67 C 688.52 214.74 699.51 220.48 709.86 227.13 C 723.81 236.22 735.84 247.98 745.35 261.64 C 751.07 269.98 756.56 278.49 761.98 287.03 C 763.76 289.89 765.86 292.96 766.83 296.20 C 767.96 300.13 767.08 304.27 764.33 307.31 C 761.18 311.10 755.80 311.92 751.34 313.40 C 745.31 315.39 739.19 317.13 733.20 319.26 C 734.86 324.32 737.18 329.12 738.83 334.19 C 754.83 380.97 770.45 427.98 786.14 474.88 C 794.35 498.73 802.28 522.67 810.48 546.53 C 820.49 576.43 831.03 606.17 840.87 636.13 C 851.03 665.81 860.82 695.62 870.59 725.43 C 872.05 730.01 874.35 735.18 874.29 740.02 C 874.32 743.77 871.59 746.83 868.34 748.32 C 865.79 749.27 862.69 749.11 860.00 749.13 C 845.12 748.86 830.89 748.08 815.99 749.94 C 800.65 751.83 785.96 756.07 771.53 761.52 C 756.07 767.31 740.93 774.05 725.91 780.89 C 723.91 781.79 722.08 782.96 720.26 784.17 C 721.93 800.93 724.96 817.56 726.66 834.32 C 727.15 839.17 725.06 843.37 721.06 846.07 C 715.81 849.48 709.49 851.47 703.64 853.64 C 674.41 863.78 642.63 869.08 612.02 873.05 C 597.46 875.20 583.05 876.08 568.38 877.50 C 560.90 878.23 553.50 878.02 546.00 878.23 C 542.52 878.26 538.80 878.34 535.39 877.55 C 531.07 876.47 527.54 873.14 526.05 868.96 C 523.67 862.37 523.14 854.77 522.25 847.85 C 520.43 832.28 516.58 817.16 514.42 801.63 C 514.01 798.40 513.32 795.35 512.10 792.33 C 510.24 797.41 509.78 802.60 508.88 807.89 C 507.05 819.59 504.13 831.04 502.73 842.82 C 501.40 851.20 500.76 860.05 498.11 868.13 C 496.43 873.30 492.30 877.03 486.88 877.83 C 480.01 878.73 472.90 878.09 466.00 878.01 C 444.73 876.74 423.50 874.61 402.41 871.58 C 376.94 867.56 351.12 863.06 326.41 855.61 C 320.43 853.77 314.49 851.73 308.75 849.25 C 304.53 847.36 300.61 844.66 298.72 840.28 C 297.43 837.08 298.09 832.93 298.47 829.57 C 300.43 816.00 301.89 802.35 303.74 788.77 C 303.89 787.08 304.17 785.12 303.63 783.49 C 298.85 780.36 293.22 778.47 288.11 775.90 C 262.67 764.50 236.98 753.31 209.07 749.81 C 201.58 748.72 193.78 748.96 186.17 748.60 C 177.18 748.26 168.05 749.65 159.11 748.85 C 154.53 748.40 151.56 744.21 151.11 739.89 C 151.02 737.95 151.52 735.91 152.02 734.05 C 157.27 716.82 163.21 699.86 168.73 682.73 C 191.99 613.43 215.24 544.11 238.98 474.98 C 254.62 427.73 270.31 380.45 286.31 333.32 C 287.83 328.57 290.04 324.26 290.98 319.33 C 282.69 316.38 274.13 314.14 265.88 311.09 C 260.92 309.39 257.18 304.28 257.09 299.06 C 257.63 294.55 261.04 290.18 263.35 286.37 C 270.09 276.17 276.65 265.78 284.06 256.06 C 293.88 243.03 306.93 232.24 320.88 223.87 C 345.22 209.49 371.96 198.72 398.07 188.00 C 401.02 186.90 402.22 183.19 403.64 180.62 C 407.81 172.59 411.81 164.35 416.79 156.79 C 420.29 151.59 424.79 147.32 431.19 146.28 Z" fill="#f0a4b1" />
<path d="M 577.90 170.49 C 572.68 187.47 567.22 205.11 558.79 220.78 C 550.29 237.84 539.65 253.85 527.69 268.67 C 522.84 274.30 517.90 280.07 512.17 284.84 C 506.54 279.84 501.47 274.15 496.50 268.50 C 485.86 255.42 476.35 241.27 468.84 226.15 C 463.14 214.75 456.95 203.08 453.04 190.96 C 451.00 184.27 448.21 177.75 446.87 170.93 C 449.18 170.98 451.47 171.04 453.77 171.29 C 466.62 172.94 479.49 174.47 492.40 175.55 C 500.99 176.31 509.35 175.90 518.00 176.04 C 526.61 176.17 535.23 175.20 543.87 174.67 C 555.23 173.60 566.51 171.37 577.90 170.49 Z" fill="#ffd8dc" />
<path d="M 426.89 186.05 C 429.42 192.14 430.89 198.56 433.31 204.69 C 437.31 215.11 441.63 225.44 446.62 235.43 C 447.46 237.20 448.19 239.05 448.91 240.88 C 444.82 244.28 440.27 246.90 435.90 249.90 C 431.69 252.67 427.87 255.82 423.33 258.08 C 421.79 244.06 420.75 229.98 419.15 215.96 C 418.71 212.03 417.90 207.96 418.05 204.02 C 418.17 201.52 419.66 199.01 420.81 196.84 C 422.84 193.23 424.69 189.54 426.89 186.05 Z" fill="#ffd8dc" />
<path d="M 597.23 186.07 C 599.72 189.15 601.57 192.98 603.57 196.43 C 604.72 198.56 606.17 200.89 606.60 203.28 C 606.91 205.80 606.38 208.51 606.06 211.02 C 604.61 220.69 604.13 230.31 602.94 239.98 C 602.17 245.96 602.11 251.93 600.96 257.86 C 596.27 255.39 592.12 252.22 587.74 249.26 C 583.59 246.35 579.29 243.68 575.18 240.71 C 576.45 236.98 578.25 233.53 580.04 230.04 C 585.16 219.45 589.67 208.53 593.36 197.36 C 594.62 193.61 595.70 189.70 597.23 186.07 Z" fill="#ffd8dc" />
<path d="M 395.81 214.39 C 397.22 225.21 398.03 236.14 399.00 247.01 C 399.68 254.79 400.84 262.52 401.57 270.30 C 401.98 273.95 402.25 277.98 403.57 281.43 C 405.62 287.00 412.52 290.25 418.10 288.12 C 423.74 286.15 428.96 282.19 433.98 278.99 C 443.14 273.15 452.10 267.06 461.08 260.96 C 463.59 263.48 465.80 266.22 467.95 269.05 C 476.03 279.22 484.62 289.02 493.62 298.40 C 497.08 302.05 500.67 306.37 504.94 309.07 C 509.42 311.95 515.42 311.71 519.86 308.88 C 523.96 306.33 527.39 302.21 530.79 298.80 C 542.57 286.91 552.59 273.80 563.15 260.98 C 568.03 263.62 572.22 267.12 576.85 270.15 C 584.66 275.36 592.39 280.78 600.48 285.53 C 605.02 287.98 609.58 290.13 614.66 287.68 C 619.26 285.71 621.17 281.58 621.81 276.85 C 623.26 265.75 624.63 254.62 625.49 243.46 C 626.42 233.91 627.54 224.39 628.38 214.84 C 631.01 215.31 633.38 216.05 635.80 217.15 C 645.80 221.56 655.96 225.58 665.91 230.09 C 681.65 237.72 698.31 245.88 711.51 257.49 C 717.97 262.92 722.91 269.33 727.96 276.04 C 732.02 281.57 735.96 286.91 739.05 293.06 C 734.53 294.90 729.82 295.78 725.17 297.15 C 708.54 301.67 691.79 305.58 674.87 308.85 C 670.84 309.79 664.97 310.79 662.95 314.92 C 660.63 320.29 661.35 327.27 660.85 333.03 C 658.95 355.03 655.54 376.55 652.41 398.36 C 647.22 432.92 644.72 468.46 637.62 502.51 C 629.76 502.90 621.87 502.56 614.00 502.69 C 538.16 502.66 461.89 502.71 386.20 502.66 C 384.71 497.13 384.13 491.49 383.18 485.86 C 379.10 460.10 376.23 434.20 372.60 408.38 C 370.76 393.58 369.07 378.75 367.02 363.98 C 365.39 352.67 364.39 341.27 363.33 329.89 C 362.86 325.24 363.28 319.25 360.89 315.11 C 358.35 310.68 352.65 309.88 348.13 308.83 C 330.77 305.50 313.61 301.23 296.61 296.38 C 292.99 295.46 289.38 294.62 285.93 293.15 C 289.49 286.58 293.94 280.40 298.42 274.43 C 305.28 265.14 313.65 256.72 323.16 250.16 C 345.94 234.44 370.41 224.92 395.81 214.39 Z" fill="#ffd8dc" />
<path d="M 314.41 327.35 C 319.73 326.39 325.76 328.16 331.06 328.90 C 334.00 329.54 337.90 329.77 340.30 331.69 C 340.90 334.05 340.97 336.60 341.15 339.02 C 341.52 345.98 342.36 352.86 343.29 359.76 C 346.53 383.55 349.27 407.40 352.79 431.15 C 356.00 454.04 358.27 476.92 362.39 499.66 C 363.34 504.52 363.44 509.26 362.08 514.04 C 354.18 544.31 346.87 574.73 338.99 604.99 C 333.99 629.66 328.42 654.16 323.92 678.93 C 320.97 695.07 317.33 711.11 314.18 727.19 C 312.12 737.69 310.93 748.37 308.64 758.82 C 304.47 757.81 300.77 755.85 296.88 754.12 C 277.19 745.81 258.31 736.86 237.44 731.57 C 218.71 726.40 198.54 725.18 179.19 724.96 C 182.38 713.02 186.82 701.39 190.62 689.63 C 196.80 670.30 203.63 651.19 209.90 631.89 C 230.28 571.28 251.36 511.10 271.33 450.32 C 274.41 441.36 277.55 432.43 280.39 423.39 C 287.09 402.26 294.57 381.39 301.27 360.27 C 303.93 351.86 307.61 343.91 310.59 335.61 C 311.66 332.85 312.67 329.76 314.41 327.35 Z" fill="#ffd8dc" />
<path d="M 709.72 327.21 C 712.71 330.35 713.68 335.59 715.52 339.48 C 720.22 350.17 723.90 361.20 727.81 372.19 C 731.56 382.33 734.38 392.76 738.09 402.91 C 742.72 415.79 746.60 428.91 751.18 441.81 C 756.66 457.78 761.40 474.03 767.06 489.94 C 781.22 531.18 794.98 572.56 809.21 613.78 C 821.78 650.80 834.44 687.78 846.59 724.94 C 828.13 725.08 809.08 726.61 791.14 731.15 C 770.23 736.07 749.50 745.44 729.68 753.68 C 725.20 755.50 721.16 757.85 716.38 758.87 C 713.89 748.90 712.92 738.16 710.95 728.06 C 706.73 706.60 701.93 685.29 698.26 663.73 C 694.44 644.98 690.08 626.36 686.43 607.57 C 678.25 575.78 670.54 543.84 661.80 512.21 C 659.94 505.53 661.99 499.54 662.85 492.88 C 664.67 480.01 666.63 467.16 668.33 454.28 C 670.50 438.56 671.80 422.82 674.18 407.15 C 676.80 389.02 680.12 370.92 681.64 352.76 C 682.52 346.24 682.78 339.71 683.37 333.17 C 683.22 330.29 686.76 330.32 688.75 329.69 C 695.52 328.70 702.90 326.34 709.72 327.21 Z" fill="#ffd8dc" />
<path d="M 516.18 336.86 C 519.60 338.35 522.63 341.13 525.24 343.76 C 531.59 350.35 536.92 358.14 543.00 365.01 C 548.61 371.38 554.94 377.10 560.72 383.31 C 564.15 387.02 566.34 391.63 565.73 396.79 C 565.15 401.58 561.83 406.30 559.46 410.43 C 553.78 420.59 546.19 429.87 538.85 438.88 C 533.59 444.85 528.45 451.19 522.39 456.38 C 518.50 459.70 513.34 461.77 508.33 459.75 C 503.45 457.74 499.44 452.92 495.78 449.22 C 484.63 437.13 473.43 424.06 465.17 409.81 C 462.34 404.90 458.47 399.96 458.76 393.99 C 458.87 388.52 462.29 384.59 465.73 380.73 C 473.53 372.17 481.66 363.98 488.88 354.90 C 493.69 349.29 497.93 342.11 504.22 338.21 C 507.76 335.86 512.21 335.21 516.18 336.86 Z" fill="#f0a4b1" />
<path d="M 511.74 364.07 C 518.34 371.54 524.60 379.27 531.71 386.30 C 535.04 389.75 538.59 392.75 541.12 396.89 C 536.28 405.15 530.40 412.96 524.49 420.49 C 520.50 424.96 516.87 429.99 512.27 433.82 C 501.25 422.31 491.65 409.40 483.10 395.98 C 490.54 387.19 498.99 379.19 506.09 370.08 C 507.78 367.89 509.54 365.78 511.74 364.07 Z" fill="#ffd8dc" />
<path d="M 385.65 527.05 C 393.68 526.49 401.94 526.77 410.00 526.71 C 480.00 526.74 550.00 526.71 620.00 526.72 C 626.12 526.60 632.22 526.81 638.33 526.94 C 640.31 531.76 641.81 536.78 642.82 541.89 C 642.52 543.23 642.18 544.57 641.85 545.90 C 636.90 546.56 631.97 546.32 627.00 546.29 C 549.01 546.33 470.98 546.26 393.00 546.31 C 388.91 546.05 383.98 547.54 380.91 544.12 C 382.40 538.43 383.69 532.59 385.65 527.05 Z" fill="#ffd8dc" />
<path d="M 375.95 570.96 C 462.87 571.08 550.05 570.96 637.00 571.01 C 642.54 571.06 647.99 570.68 653.50 571.43 C 657.27 584.03 659.96 597.00 663.27 609.73 C 666.42 621.90 668.64 634.26 671.47 646.52 C 678.48 679.60 684.29 712.65 690.18 745.83 C 693.07 761.68 696.33 777.44 698.60 793.40 C 700.27 804.99 702.36 816.76 702.48 828.48 C 698.21 831.15 693.57 832.29 688.85 833.86 C 666.89 840.88 644.90 844.65 622.18 848.23 C 601.27 851.50 580.15 853.53 559.03 854.89 C 555.08 855.18 551.14 855.10 547.19 854.78 C 545.41 847.02 544.24 839.13 542.67 831.32 C 539.20 810.54 534.60 789.94 531.89 769.08 C 529.86 755.48 527.71 741.90 525.66 728.30 C 524.78 723.47 523.78 717.53 519.63 714.35 C 513.75 709.76 504.73 711.56 501.13 718.13 C 498.26 723.68 498.06 730.82 496.88 736.90 C 493.38 757.63 491.44 778.59 487.15 799.16 C 483.85 817.71 480.61 836.33 476.78 854.79 C 470.46 855.46 464.30 854.70 458.00 854.23 C 437.83 852.92 417.70 850.51 397.74 847.31 C 379.31 844.41 360.86 840.92 342.79 836.21 C 336.08 834.36 329.58 832.65 323.35 829.58 C 321.88 818.66 324.10 806.59 325.64 795.73 C 327.06 785.38 328.54 775.06 330.86 764.87 C 336.69 735.47 341.73 705.93 347.51 676.52 C 349.99 662.88 353.15 649.40 355.80 635.80 C 357.92 624.93 361.14 614.40 363.56 603.58 C 365.48 594.92 367.54 586.29 369.64 577.67 C 370.17 575.66 370.73 573.53 371.66 571.66 C 372.96 571.06 374.54 571.03 375.95 570.96 Z" fill="#ffd8dc" />
</svg>