<?xml version="1.0" encoding="UTF-8" standalone="no"?>
<!DOCTYPE svg PUBLIC "-//W3C//DTD SVG 1.1//EN" "http://www.w3.org/Graphics/SVG/1.1/DTD/svg11.dtd">
<svg xmlns="http://www.w3.org/2000/svg" version="1.1" viewBox="0 0 836 1254" width="836.0pt" height="1254.0pt">
<path d="M 310.46 255.59 C 317.10 258.08 322.59 263.06 329.21 265.77 C 354.14 276.72 381.85 282.11 408.99 283.01 C 442.26 284.05 477.13 279.19 507.76 265.75 C 513.71 263.29 518.65 259.22 524.34 256.37 C 529.74 253.55 535.86 257.34 541.29 258.45 C 545.50 259.50 549.89 260.00 554.18 260.85 C 563.53 262.72 572.63 265.38 581.71 268.24 C 585.85 269.57 590.49 270.58 594.25 272.80 C 596.70 274.29 598.14 276.53 598.52 279.38 C 599.13 283.92 598.15 288.93 597.43 293.42 C 594.83 308.57 594.22 323.68 594.23 339.00 C 593.80 363.24 595.68 387.39 600.94 411.08 C 606.39 435.65 615.60 459.95 630.82 480.19 C 639.32 491.29 649.52 502.08 661.40 509.57 C 663.87 511.24 666.79 512.95 668.64 515.33 C 670.07 517.36 669.97 520.56 670.06 522.95 C 669.64 542.30 669.58 561.67 669.53 581.03 C 668.61 615.33 668.89 649.68 668.82 684.00 C 668.72 717.67 668.97 751.33 669.39 785.00 C 669.60 798.35 669.15 811.71 669.80 825.02 C 670.57 840.77 669.97 856.61 670.69 872.37 C 671.02 878.91 671.12 885.45 671.09 892.00 C 671.04 901.02 671.87 909.99 671.96 919.00 C 671.94 934.68 673.33 950.34 673.72 966.01 C 673.78 970.39 672.92 974.48 669.02 977.01 C 663.82 980.23 656.38 980.43 650.46 981.59 C 608.62 990.04 565.51 994.81 522.98 998.09 C 504.00 999.46 485.00 1000.08 466.00 1000.98 C 447.63 1000.93 429.34 1002.31 410.96 1001.81 C 396.64 1001.33 382.33 1001.11 368.01 1000.99 C 342.76 999.96 317.60 999.11 292.45 996.56 C 257.18 993.56 221.98 988.82 187.27 981.83 C 181.13 980.61 173.99 980.35 168.32 977.64 C 164.48 975.75 162.46 972.12 162.38 967.89 C 162.20 960.59 163.06 953.26 163.22 945.96 C 164.04 933.93 163.89 921.89 164.63 909.86 C 165.08 900.95 164.79 892.02 165.25 883.10 C 166.02 867.43 165.45 851.77 166.24 836.10 C 166.67 827.40 166.54 818.71 166.56 810.00 C 167.54 740.34 167.33 670.66 167.16 601.00 C 166.94 578.00 166.43 555.00 166.53 532.00 C 166.70 526.76 165.68 520.51 167.53 515.56 C 169.86 512.15 174.31 510.02 177.58 507.56 C 200.57 491.02 216.36 467.51 226.15 441.16 C 237.99 408.96 242.13 373.16 241.70 339.00 C 241.81 324.17 241.04 309.07 238.56 294.43 C 237.78 289.58 236.59 284.12 237.29 279.24 C 237.73 276.15 239.53 273.77 242.26 272.32 C 246.89 269.94 252.23 268.77 257.16 267.13 C 268.29 263.53 279.64 261.00 291.19 259.17 C 297.28 258.38 304.47 253.98 310.46 255.59 Z" fill="#78d1f1" />
<path d="M 293.49 276.23 C 292.46 290.99 293.86 305.47 295.90 320.08 C 299.92 344.81 307.95 369.60 320.81 391.19 C 332.85 411.21 349.12 428.23 370.09 438.91 C 403.17 455.67 445.07 453.60 476.01 433.00 C 499.05 417.66 515.32 394.19 525.96 368.96 C 538.19 339.64 543.47 307.85 542.31 276.12 C 549.07 277.22 555.68 278.91 562.28 280.70 C 568.10 282.09 573.87 283.49 579.39 285.86 C 576.69 301.48 575.13 317.15 574.84 333.00 C 573.86 372.12 577.66 412.47 591.77 449.25 C 602.98 478.34 620.97 505.27 647.21 522.77 C 648.38 523.73 650.14 524.84 650.58 526.34 C 651.23 529.12 651.06 532.17 651.03 535.01 C 650.33 555.67 650.00 576.33 650.00 597.00 C 650.03 609.01 649.23 620.99 649.41 633.00 C 649.12 673.98 649.10 714.95 649.54 755.93 C 650.37 779.75 649.68 803.58 650.53 827.41 C 651.10 849.27 650.94 871.14 651.82 892.99 C 651.83 902.92 652.74 912.87 652.05 922.75 C 588.07 933.99 522.91 940.11 458.00 941.99 C 450.00 942.05 442.00 942.09 434.00 942.28 C 413.00 942.71 392.02 942.13 370.98 941.91 C 351.65 941.07 332.26 940.36 312.98 938.84 C 269.89 935.38 226.58 930.60 184.04 922.80 C 183.49 912.94 184.17 903.07 184.35 893.12 C 185.01 876.40 184.94 859.68 185.28 842.95 C 185.97 823.64 186.00 804.32 186.00 785.00 C 185.88 770.32 186.85 755.68 186.56 741.00 C 186.81 702.98 186.72 664.97 186.51 626.95 C 186.25 617.63 185.96 608.32 186.01 599.00 C 186.06 578.65 185.79 558.34 185.13 538.00 C 185.05 534.43 184.78 530.70 185.34 527.16 C 185.51 525.04 187.96 523.66 189.48 522.45 C 201.30 514.66 211.57 504.36 220.15 493.15 C 239.35 467.55 249.97 437.95 255.65 406.68 C 261.32 374.69 262.33 341.79 259.51 309.44 C 258.87 301.39 257.23 293.48 256.46 285.44 C 268.69 281.97 281.02 278.68 293.49 276.23 Z" fill="#cafaff" />
<path d="M 312.55 280.30 C 317.30 281.17 321.83 283.96 326.32 285.72 C 340.61 291.48 355.70 295.47 370.82 298.29 C 392.09 302.45 414.42 303.07 436.02 301.91 C 458.80 300.24 481.80 296.12 503.35 288.42 C 510.12 286.06 516.44 282.85 523.03 280.08 C 523.99 288.00 523.57 295.75 522.50 303.63 C 518.36 305.57 514.14 307.33 509.80 308.77 C 500.88 311.75 492.30 314.86 483.13 317.11 C 464.04 321.71 444.66 323.92 425.04 324.55 C 394.34 324.78 364.39 321.76 335.22 311.72 C 327.84 309.04 320.40 306.64 313.13 303.66 C 312.24 295.98 311.62 287.99 312.55 280.30 Z" fill="#cafaff" />
<path d="M 315.34 320.74 C 330.69 327.16 346.67 331.98 363.01 335.19 C 381.20 338.54 399.53 339.89 418.00 340.29 C 434.65 340.12 451.46 338.69 467.91 336.10 C 485.97 333.00 503.53 327.91 520.47 320.93 C 517.70 334.12 514.28 347.65 508.93 360.05 C 503.51 372.44 497.30 384.34 489.12 395.15 C 477.48 410.14 462.01 421.92 443.80 427.67 C 431.00 432.18 417.26 432.99 403.89 430.98 C 385.66 427.64 368.40 418.86 355.39 405.61 C 347.40 397.40 340.66 387.94 335.25 377.86 C 325.76 360.05 318.84 340.62 315.34 320.74 Z" fill="#cafaff" />
<path d="M 335.03 532.16 C 341.30 531.53 347.70 532.13 354.00 532.00 C 359.90 532.08 366.00 531.48 371.86 532.28 C 374.95 532.68 377.45 534.52 378.32 537.58 C 379.62 542.79 378.93 548.65 379.02 554.00 C 378.97 598.33 379.02 642.67 379.00 687.00 C 378.95 693.30 378.91 699.59 379.14 705.89 C 384.88 706.16 390.94 705.43 396.57 706.52 C 399.84 707.43 400.38 711.15 400.64 714.02 C 400.99 721.00 400.65 728.01 400.85 735.00 C 400.84 740.83 400.90 748.40 397.33 753.32 C 395.38 756.10 392.12 756.02 389.06 756.23 C 361.37 756.10 333.63 756.10 305.94 756.23 C 303.92 756.13 301.60 756.07 299.73 755.22 C 298.25 754.43 297.82 752.26 297.57 750.74 C 296.96 745.90 297.34 740.88 297.34 736.00 C 297.46 729.65 297.11 723.29 297.26 716.95 C 297.40 714.18 297.59 710.66 299.31 708.35 C 300.85 706.32 303.61 706.16 305.94 706.00 C 311.31 705.83 316.69 706.08 322.07 705.89 C 322.51 699.26 322.42 692.64 322.35 686.00 C 322.39 666.00 322.37 646.00 322.36 626.00 C 322.45 619.35 322.55 612.72 322.11 606.08 C 316.05 605.77 310.01 605.97 303.95 605.96 C 300.88 605.87 296.78 605.76 294.31 603.70 C 291.39 601.21 290.54 596.55 290.00 592.95 C 289.34 587.32 288.69 581.28 289.74 575.68 C 290.87 570.01 296.15 565.95 300.09 562.10 C 308.39 554.05 317.04 546.39 325.11 538.11 C 328.05 535.29 330.75 532.58 335.03 532.16 Z" fill="#78d1f1" />
<path d="M 466.00 531.97 C 476.68 532.06 487.36 531.90 498.03 531.94 C 513.65 531.94 529.08 540.36 537.41 553.60 C 543.69 563.47 547.00 575.29 547.04 586.98 C 546.98 625.66 546.98 664.34 547.05 703.02 C 547.09 715.82 542.80 728.77 534.77 738.78 C 528.69 746.42 519.81 751.83 510.48 754.51 C 502.70 756.77 494.05 756.14 486.00 756.16 C 475.32 756.01 464.65 756.34 453.97 756.19 C 444.69 756.11 435.90 752.87 428.22 747.78 C 419.81 742.18 413.70 733.08 410.35 723.66 C 406.76 713.45 406.09 701.74 406.08 691.00 C 406.10 657.66 406.08 624.32 406.10 590.99 C 406.10 577.58 408.88 563.77 416.55 552.56 C 423.19 542.76 433.50 535.77 444.96 532.97 C 451.62 531.42 459.17 532.01 466.00 531.97 Z" fill="#78d1f1" />
<path d="M 344.50 547.57 C 350.90 547.73 357.31 547.79 363.70 548.08 C 363.93 557.39 363.69 566.69 363.75 576.00 C 363.71 620.98 363.86 666.09 363.68 711.05 C 363.80 713.32 363.91 716.00 364.99 718.04 C 366.05 719.95 367.95 720.71 370.03 720.96 C 375.14 721.53 380.37 721.19 385.50 721.31 C 385.76 727.68 385.74 734.04 385.37 740.40 C 375.57 740.86 365.81 740.46 356.00 740.58 C 341.50 740.50 326.99 740.73 312.49 740.60 C 312.30 734.16 312.30 727.74 312.49 721.31 C 318.67 721.03 324.87 721.50 331.05 721.16 C 333.03 720.91 335.81 720.72 336.51 718.45 C 337.99 713.64 337.33 707.99 337.40 703.00 C 337.29 673.67 337.37 644.33 337.33 615.00 C 337.24 608.84 337.88 602.34 336.76 596.28 C 336.16 593.54 335.06 591.31 331.94 591.10 C 323.43 590.29 314.80 591.41 306.24 590.75 C 306.02 586.95 305.54 582.86 306.19 579.09 C 306.73 576.38 309.32 574.08 311.25 572.24 C 317.93 566.26 324.56 560.25 330.94 553.95 C 332.80 552.18 334.70 550.26 336.86 548.88 C 339.06 547.42 341.96 547.58 344.50 547.57 Z" fill="#cafaff" />
<path d="M 460.00 547.02 C 470.33 547.08 480.66 547.10 491.00 547.01 C 495.60 547.01 500.46 547.00 504.95 548.16 C 512.99 550.33 520.24 555.10 524.77 562.18 C 529.79 570.10 531.77 579.68 531.81 588.97 C 531.76 623.31 531.76 657.66 531.80 692.00 C 531.82 702.44 531.77 712.59 527.21 722.24 C 523.39 730.80 515.33 736.73 506.57 739.52 C 499.55 741.60 491.28 740.83 484.00 740.90 C 476.00 740.84 468.00 740.90 460.00 740.89 C 454.02 740.82 448.28 740.70 442.72 738.20 C 435.54 734.84 429.28 729.31 426.12 721.92 C 422.47 713.61 421.60 703.69 421.45 694.69 C 421.14 662.47 421.40 630.23 421.25 598.01 C 421.19 587.78 421.83 577.14 425.62 567.52 C 429.09 558.68 436.72 551.90 445.57 548.69 C 450.22 547.04 455.12 547.05 460.00 547.02 Z" fill="#cafaff" />
<path d="M 471.00 573.86 C 477.86 574.06 484.89 573.45 491.69 574.36 C 497.46 575.18 502.68 578.89 504.23 584.68 C 505.50 590.22 504.86 596.34 504.93 602.00 C 504.90 630.00 504.92 658.00 504.95 686.00 C 504.94 691.26 505.36 696.68 504.74 701.90 C 504.09 708.11 498.90 713.58 492.94 715.09 C 487.86 716.32 482.20 715.90 477.00 715.98 C 471.38 715.88 465.35 716.41 459.85 715.21 C 454.59 714.03 450.61 709.71 449.59 704.47 C 448.47 698.49 449.11 692.06 449.05 686.00 C 449.07 654.65 449.09 623.30 449.06 591.95 C 449.21 586.84 449.72 581.41 453.78 577.78 C 458.52 573.57 465.08 573.91 471.00 573.86 Z" fill="#78d1f1" />
<path d="M 489.08 589.16 C 490.05 595.09 489.95 601.02 489.76 607.00 C 489.76 631.67 489.77 656.33 489.76 681.00 C 489.71 686.27 490.19 691.66 489.62 696.90 C 489.44 698.08 489.09 700.27 487.55 700.31 C 480.00 701.14 472.22 700.55 464.64 700.35 C 464.29 693.90 464.35 687.45 464.44 681.00 C 464.43 657.00 464.43 633.00 464.44 609.00 C 464.44 602.58 464.11 595.99 464.71 589.60 C 472.59 588.51 481.09 589.11 489.08 589.16 Z" fill="#cafaff" />
<path d="M 183.16 938.42 C 189.08 938.51 195.02 940.24 200.87 941.13 C 246.93 948.97 293.40 953.64 340.05 956.16 C 377.06 958.25 413.95 958.27 451.00 957.88 C 511.27 956.48 571.30 951.55 630.81 941.82 C 638.42 940.59 645.95 939.03 653.61 938.13 C 654.13 945.73 654.26 953.26 653.93 960.88 C 585.67 974.13 515.39 979.91 445.93 981.49 C 422.97 982.11 399.98 981.93 377.03 981.18 C 344.59 980.54 312.28 978.15 280.00 975.06 C 253.87 972.24 227.66 969.01 201.81 964.21 C 195.26 963.11 188.69 962.17 182.19 960.77 C 181.96 953.48 181.39 945.55 183.16 938.42 Z" fill="#cafaff" />
</svg>