<?xml version="1.0" encoding="UTF-8" standalone="no"?>
<!DOCTYPE svg PUBLIC "-//W3C//DTD SVG 1.1//EN" "http://www.w3.org/Graphics/SVG/1.1/DTD/svg11.dtd">
<svg xmlns="http://www.w3.org/2000/svg" version="1.1" viewBox="142.05 138.71 740.87 740.87" width="1024.0pt" height="1024.0pt">
<path d="M 442.00 145.18 C 489.00 144.95 536.00 144.96 583.00 145.06 C 589.00 145.17 595.62 144.92 601.43 146.57 C 606.05 147.89 609.54 150.81 612.74 154.26 C 621.65 164.06 630.19 174.24 638.36 184.65 C 641.16 188.16 643.40 192.26 646.55 195.45 C 649.51 198.07 654.34 198.80 658.04 199.98 C 685.57 208.28 712.55 218.06 739.25 228.71 C 744.61 230.85 749.78 233.15 754.57 236.42 C 762.56 241.83 769.31 249.38 774.58 257.42 C 779.36 264.69 783.95 272.08 788.48 279.52 C 802.19 301.49 815.79 323.52 829.53 345.47 C 845.65 371.10 861.36 396.98 877.33 422.70 C 880.43 427.73 882.92 432.65 881.81 438.76 C 880.75 445.20 875.12 449.44 870.80 453.80 C 852.86 472.05 832.77 488.23 811.64 502.64 C 796.34 512.73 780.76 522.03 763.67 528.71 C 758.92 530.54 753.99 531.06 748.95 531.38 C 750.42 546.08 750.03 560.87 751.50 575.58 C 754.61 649.69 759.67 723.97 764.14 798.04 C 764.34 804.44 766.56 813.28 762.98 818.96 C 759.32 825.30 750.76 827.73 744.38 830.39 C 722.33 839.37 699.72 846.83 676.62 852.64 C 640.40 862.12 603.34 868.34 565.97 870.82 C 552.72 872.22 539.47 871.96 526.19 872.63 C 513.71 873.37 501.49 872.32 489.00 872.22 C 471.38 872.09 453.61 870.41 436.05 868.86 C 395.98 864.75 356.32 856.41 317.98 844.06 C 301.89 839.03 286.10 833.13 270.67 826.35 C 266.27 824.29 261.95 821.47 260.47 816.57 C 259.15 811.66 259.78 805.99 260.06 800.96 C 262.09 771.90 263.63 742.81 265.60 713.75 C 267.37 680.15 269.39 646.57 271.08 612.97 C 272.59 585.74 273.75 558.48 275.46 531.26 C 270.58 531.09 265.81 530.61 261.22 528.84 C 251.15 524.89 241.79 519.96 232.46 514.53 C 209.24 501.36 187.67 484.99 167.81 467.19 C 162.24 462.10 157.05 456.63 151.36 451.68 C 147.35 448.02 143.59 444.69 142.97 438.94 C 142.05 431.91 144.91 426.26 148.48 420.50 C 153.92 411.85 158.87 402.91 164.16 394.16 C 189.71 352.74 215.47 311.47 241.06 270.07 C 247.37 259.92 253.20 250.27 262.21 242.21 C 267.98 236.88 274.60 232.83 281.86 229.85 C 296.64 223.68 311.76 218.27 326.81 212.79 C 338.19 208.59 349.74 204.93 361.31 201.29 C 365.93 199.81 370.81 198.97 375.31 197.18 C 378.26 195.98 379.98 193.19 381.75 190.71 C 389.60 178.94 399.43 168.10 408.43 157.44 C 412.40 152.81 416.41 148.23 422.53 146.57 C 428.73 144.98 435.64 145.35 442.00 145.18 Z" fill="#9093d0"/>
<path d="M 477.31 170.59 C 498.49 169.86 519.80 170.01 541.00 170.15 C 552.01 170.21 563.01 170.61 573.99 170.38 C 578.64 170.33 583.25 170.63 587.89 170.83 C 582.68 182.97 576.66 194.73 570.25 206.28 C 556.26 230.82 540.62 255.64 521.78 276.77 C 518.89 280.12 515.47 282.58 512.14 285.46 C 501.10 277.39 494.10 266.99 485.59 256.41 C 471.50 237.27 459.18 216.78 448.36 195.63 C 444.31 187.49 440.08 179.48 436.78 171.00 C 450.29 170.58 463.79 171.02 477.31 170.59 Z" fill="#d3d0f7"/>
<path d="M 417.39 186.32 C 419.85 192.20 422.22 198.09 425.33 203.67 C 433.43 219.24 442.69 234.09 452.14 248.87 C 458.47 258.94 465.41 268.35 473.31 277.25 C 463.58 282.04 453.54 286.13 443.71 290.72 C 432.76 295.53 422.18 301.06 411.33 306.07 C 409.78 293.47 408.66 280.93 406.59 268.43 C 405.01 258.79 403.43 249.12 401.49 239.54 C 399.92 231.19 397.65 222.90 396.49 214.49 C 395.88 210.41 398.59 207.86 400.91 204.93 C 406.52 198.70 411.22 192.03 417.39 186.32 Z" fill="#d3d0f7"/>
<path d="M 607.15 186.84 C 611.76 191.30 615.54 196.42 619.90 201.08 C 622.48 203.96 625.95 206.89 627.52 210.46 C 628.41 213.69 627.43 217.59 626.89 220.84 C 623.19 239.20 619.44 257.49 617.10 276.10 C 615.87 285.84 614.85 295.61 613.60 305.36 C 604.96 301.89 596.81 297.44 588.28 293.73 C 576.10 288.32 563.98 282.75 551.84 277.25 C 563.05 264.13 571.91 249.63 581.13 235.12 C 586.41 226.63 591.32 217.92 596.20 209.20 C 600.35 201.98 603.57 194.35 607.15 186.84 Z" fill="#d3d0f7"/>
<path d="M 374.37 221.89 C 379.15 252.67 385.08 283.17 388.73 314.24 C 389.26 318.39 389.61 323.00 391.19 326.89 C 393.22 331.76 398.72 334.67 403.90 333.93 C 409.91 333.13 415.81 329.76 421.37 327.40 C 443.58 317.53 465.13 306.35 487.07 295.94 C 491.18 298.75 495.74 301.33 498.46 305.66 C 500.80 312.79 500.37 319.63 500.27 327.00 C 500.32 489.66 500.26 652.34 500.27 815.00 C 500.19 825.96 500.41 836.92 500.14 847.88 C 496.67 848.19 493.21 848.63 489.74 848.86 C 481.56 849.15 473.14 848.27 464.96 847.88 C 456.18 847.47 447.57 846.09 438.82 845.30 C 422.34 843.78 405.96 841.35 389.69 838.31 C 378.52 836.25 367.46 833.33 356.44 830.57 C 332.04 824.04 307.30 816.70 284.09 806.67 C 284.07 802.44 283.84 798.18 284.02 793.97 C 285.01 780.65 285.24 767.29 286.22 753.97 C 287.32 735.74 288.00 717.49 289.45 699.28 C 291.10 669.61 292.83 639.94 294.40 610.27 C 294.97 599.50 295.96 588.78 296.08 577.99 C 297.14 555.99 298.65 533.99 299.17 511.96 C 299.84 496.99 301.21 481.99 301.02 467.01 C 301.20 457.97 302.03 449.02 301.55 439.97 C 300.89 427.99 301.25 416.01 300.21 404.04 C 298.31 369.56 293.70 335.57 289.62 301.32 C 287.44 286.36 284.99 271.43 283.00 256.45 C 291.35 252.98 299.72 249.58 308.04 246.03 C 324.56 239.19 341.46 233.41 358.19 227.20 C 363.46 225.05 368.92 223.52 374.37 221.89 Z" fill="#d3d0f7"/>
<path d="M 650.35 222.26 C 655.12 222.95 659.85 225.01 664.39 226.60 C 690.41 236.05 716.52 244.94 741.82 256.27 C 740.89 262.16 740.06 268.05 738.91 273.90 C 736.04 291.10 734.24 308.49 731.69 325.76 C 729.31 341.51 728.05 357.33 726.25 373.17 C 724.39 390.17 724.23 407.19 723.14 424.22 C 723.11 420.43 722.82 416.65 722.55 412.87 C 722.05 426.59 722.41 440.27 722.28 454.00 C 722.32 463.40 722.00 472.77 722.61 482.16 C 722.78 479.38 723.04 476.59 723.25 473.81 C 726.14 521.42 727.00 569.73 730.57 617.32 C 730.98 623.54 730.96 629.77 731.29 636.00 C 734.22 692.70 738.08 749.29 740.65 806.02 C 736.06 808.02 731.61 810.26 726.86 811.87 C 700.88 821.95 673.87 829.46 646.73 835.72 C 629.63 839.01 612.46 842.34 595.13 844.16 C 582.87 845.46 570.58 847.15 558.26 847.55 C 552.81 847.43 547.46 846.96 542.02 847.52 C 536.65 848.14 531.29 848.11 525.90 848.22 C 525.46 831.82 525.81 815.41 525.67 799.00 C 525.68 710.00 525.74 621.00 525.68 532.00 C 525.82 524.61 525.68 517.28 525.40 509.90 L 525.40 509.05 C 526.06 484.72 525.52 460.34 525.67 436.00 C 525.64 393.74 525.83 351.28 525.62 309.05 C 526.97 303.51 533.73 299.42 537.94 296.04 C 552.75 302.73 567.18 310.23 581.89 317.13 C 590.12 320.86 598.32 324.61 606.44 328.58 C 610.51 330.50 614.88 332.82 619.31 333.68 C 625.89 335.03 633.19 330.23 634.50 323.63 C 635.76 318.11 635.90 312.33 636.74 306.73 C 638.98 291.06 641.08 275.35 643.78 259.75 C 645.24 251.17 646.92 242.70 648.06 234.07 C 648.63 230.16 649.06 226.00 650.35 222.26 Z" fill="#d3d0f7"/>
<path d="M 264.25 280.54 C 265.96 289.37 266.49 298.31 267.74 307.21 C 269.65 325.08 272.05 342.93 273.35 360.85 C 275.11 381.58 277.69 402.15 278.83 422.96 C 279.03 429.06 279.12 435.16 279.54 441.25 C 280.14 449.93 279.06 458.34 278.95 467.01 C 278.89 472.30 278.44 477.57 277.89 482.83 C 246.88 464.71 217.19 443.48 186.95 424.08 C 184.15 422.19 181.46 420.14 178.68 418.22 C 195.59 391.14 211.83 363.72 228.44 336.44 C 237.97 320.44 248.15 304.87 258.15 289.16 C 260.05 286.20 262.11 283.34 264.25 280.54 Z" fill="#d3d0f7"/>
<path d="M 760.48 281.78 C 763.02 285.19 765.60 288.53 767.89 292.12 C 774.50 302.57 781.47 312.58 787.82 323.17 C 793.71 332.92 799.85 342.51 805.74 352.25 C 818.96 374.43 833.20 396.00 846.29 418.25 C 841.77 421.44 837.36 424.75 832.57 427.56 C 808.32 443.33 784.20 459.29 759.78 474.79 C 755.74 477.45 751.49 479.69 747.27 482.05 C 746.38 467.36 745.55 452.73 745.94 438.00 C 745.63 410.36 748.93 382.52 752.18 355.16 C 754.64 330.66 756.96 306.16 760.48 281.78 Z" fill="#d3d0f7"/>
<path d="M 580.00 382.82 C 611.00 382.80 642.01 382.91 673.01 382.62 C 676.06 382.68 679.40 382.78 682.32 383.74 C 686.48 385.18 690.03 388.71 690.85 393.13 C 691.93 398.90 691.35 405.13 691.39 411.00 C 691.24 435.00 691.53 459.00 691.42 483.00 C 691.30 490.92 692.11 499.59 690.28 507.31 C 687.89 516.77 679.85 524.47 670.96 528.02 C 664.32 530.73 657.00 530.00 650.00 530.02 C 632.33 529.99 614.67 529.99 597.00 530.02 C 589.73 529.99 582.09 530.72 575.23 527.79 C 567.10 524.33 559.91 517.49 556.87 509.11 C 554.93 503.85 554.92 498.52 554.90 492.99 C 555.00 463.33 554.87 433.67 554.88 404.00 C 554.89 399.82 554.62 395.40 555.41 391.28 C 556.25 386.84 560.32 383.41 564.72 382.81 C 569.72 382.13 574.96 382.84 580.00 382.82 Z" fill="#9093d0"/>
<path d="M 352.00 382.65 C 379.67 382.97 407.33 382.65 435.00 382.88 C 441.01 382.96 447.01 382.72 453.01 382.64 C 456.99 382.69 461.40 382.72 464.67 385.32 C 467.65 387.61 469.07 391.85 470.15 395.31 C 469.95 430.12 470.29 464.98 469.98 499.80 C 469.10 505.54 467.60 511.45 464.34 516.32 C 460.33 522.50 453.84 526.77 446.85 528.85 C 440.98 530.54 434.08 529.99 428.00 530.01 C 409.67 530.00 391.33 529.98 373.00 530.02 C 367.01 530.01 360.08 530.58 354.35 528.66 C 343.32 524.85 334.53 514.54 333.28 502.82 C 332.64 496.61 333.08 490.25 333.00 484.00 C 332.94 455.66 333.15 427.31 332.84 398.97 C 332.94 394.35 333.14 390.10 336.76 386.76 C 340.98 382.61 346.47 382.75 352.00 382.65 Z" fill="#9093d0"/>
<path d="M 357.90 406.86 C 377.92 406.39 397.97 406.85 418.00 406.67 C 427.28 406.69 436.53 406.47 445.80 406.99 C 446.02 412.05 446.69 417.63 445.47 422.57 C 444.29 424.54 441.41 425.56 439.38 426.38 C 432.15 428.86 424.55 430.39 417.10 432.05 C 409.19 433.67 401.92 435.81 393.77 434.31 C 386.18 432.85 378.76 430.54 371.23 428.81 C 366.39 427.77 361.91 425.85 357.42 423.85 L 357.41 423.03 C 357.48 417.64 357.83 412.26 357.90 406.86 Z" fill="#d3d0f7"/>
<path d="M 579.84 406.84 C 584.56 406.78 589.28 406.59 594.00 406.63 C 618.04 406.93 642.09 406.40 666.12 406.83 C 666.34 413.46 667.64 419.42 663.95 425.39 C 659.01 428.04 653.00 429.24 647.58 430.59 C 641.29 431.98 635.02 433.68 628.64 434.61 C 620.53 435.76 613.10 433.45 605.28 431.68 C 596.26 429.40 587.67 428.03 579.54 423.19 C 579.53 417.74 579.81 412.30 579.84 406.84 Z" fill="#d3d0f7"/>
<path d="M 844.05 447.88 C 841.16 450.73 838.25 453.54 835.05 456.06 C 821.11 467.22 806.76 478.08 791.71 487.71 C 783.29 493.17 774.99 498.57 765.98 503.05 C 763.39 504.31 760.43 504.64 757.68 505.56 C 760.04 503.58 762.37 501.61 764.97 499.95 C 787.30 485.74 809.55 471.46 831.20 456.21 C 835.33 453.11 839.54 450.38 844.05 447.88 Z" fill="#d3d0f7"/>
<path d="M 181.93 448.93 C 187.19 451.56 191.89 454.98 196.71 458.31 C 217.87 472.50 238.93 487.04 260.71 500.27 C 263.15 501.85 265.20 504.06 267.44 505.93 C 264.56 505.07 261.73 504.32 259.01 503.02 C 235.35 490.81 214.76 475.43 193.79 459.21 C 189.57 456.08 185.54 452.76 181.93 448.93 Z" fill="#d3d0f7"/>
<path d="M 359.45 448.84 C 371.70 451.66 383.79 455.23 396.03 458.06 C 402.75 459.58 408.68 457.88 415.13 456.16 C 425.35 453.54 435.49 450.70 445.88 448.84 C 446.15 462.56 445.89 476.28 446.07 490.00 C 446.03 493.58 446.14 497.59 444.99 501.02 C 444.01 503.88 441.52 505.91 438.56 506.43 C 435.03 507.05 431.19 506.64 427.62 506.40 C 419.71 505.72 411.92 506.05 404.00 506.00 C 395.66 506.07 387.30 505.83 378.97 506.14 C 373.91 506.29 368.45 507.24 363.45 506.41 C 360.23 505.81 357.82 503.30 357.54 500.02 C 357.81 485.66 357.81 471.31 357.57 456.95 C 357.42 454.01 358.44 451.52 359.45 448.84 Z" fill="#d3d0f7"/>
<path d="M 578.18 448.77 C 587.83 450.35 597.27 452.79 606.72 455.25 C 611.48 456.48 616.43 458.17 621.33 458.62 C 626.84 459.13 632.47 457.17 637.75 455.79 C 647.12 453.34 656.45 450.85 665.98 449.10 C 666.84 466.09 665.94 483.12 666.54 500.12 C 666.20 503.43 663.96 506.02 660.63 506.56 C 655.58 507.29 650.13 506.22 645.02 506.09 C 637.02 505.84 629.01 506.07 621.00 506.00 C 612.99 506.08 605.02 505.66 597.16 506.39 C 593.61 506.66 589.79 507.20 586.26 506.70 C 583.04 506.20 580.34 503.72 579.55 500.56 C 578.44 496.04 578.74 491.05 578.60 486.41 C 578.26 473.87 578.06 461.32 578.18 448.77 Z" fill="#d3d0f7"/>
</svg>