<?xml version="1.0" encoding="UTF-8" standalone="no"?>
<!DOCTYPE svg PUBLIC "-//W3C//DTD SVG 1.1//EN" "http://www.w3.org/Graphics/SVG/1.1/DTD/svg11.dtd">
<svg xmlns="http://www.w3.org/2000/svg" version="1.1" viewBox="0 0 1024 1024" width="1024.0pt" height="1024.0pt">
<path d="M 419.04 147.98 C 425.26 146.98 431.41 150.05 437.35 151.63 C 456.42 156.80 475.79 159.31 495.49 160.33 C 526.68 161.37 557.15 160.09 587.28 151.25 C 593.16 149.54 598.62 146.92 604.90 148.07 C 615.11 150.02 622.23 156.36 631.15 160.83 C 649.80 169.99 668.76 177.91 687.85 186.14 C 707.80 194.29 726.61 201.64 743.57 215.43 C 752.01 222.56 759.87 230.87 765.70 240.30 C 771.41 249.29 775.46 258.79 779.30 268.69 C 787.64 290.93 793.83 314.45 799.48 337.52 C 803.78 356.53 808.52 375.45 812.49 394.52 C 819.25 427.25 826.23 459.83 832.34 492.68 C 846.95 567.80 860.76 643.14 872.28 718.79 C 873.86 727.68 873.53 736.62 874.53 745.54 C 876.24 757.36 878.41 769.12 880.17 780.93 C 880.99 787.07 881.08 793.19 877.58 798.59 C 873.05 805.44 865.70 808.86 858.04 811.06 C 841.84 815.60 825.43 819.46 808.99 823.01 C 801.80 824.43 793.85 826.26 786.52 825.50 C 779.70 824.84 773.33 821.21 769.48 815.52 C 764.97 808.40 763.37 799.15 760.82 791.16 C 757.13 779.63 755.70 768.61 750.13 757.87 C 744.72 746.90 743.16 735.14 739.18 723.80 C 738.04 731.86 738.05 740.02 737.37 748.15 C 736.55 764.77 735.36 781.38 734.73 798.01 C 733.90 807.35 734.12 816.70 733.35 826.03 C 732.83 834.19 733.02 843.57 728.91 850.91 C 725.67 856.77 718.46 858.86 712.40 860.39 C 699.24 863.38 685.42 864.44 671.97 865.22 C 655.66 866.32 639.35 867.14 623.00 867.04 C 577.99 867.37 533.01 866.96 488.00 867.01 C 461.68 867.37 435.34 867.16 409.00 867.04 C 383.04 867.08 357.05 866.15 331.20 863.69 C 323.78 862.98 316.35 861.74 309.12 859.89 C 304.73 858.71 300.39 857.18 297.09 853.91 C 293.70 850.56 292.25 846.17 291.51 841.56 C 289.84 829.28 290.25 817.25 289.30 804.98 C 288.48 784.66 287.41 764.34 286.14 744.04 C 285.78 737.27 285.75 730.52 284.79 723.79 C 282.20 730.88 280.87 738.31 278.50 745.49 C 276.93 750.94 274.58 756.03 272.10 761.11 C 268.68 768.17 267.55 775.43 265.24 783.23 C 262.68 791.97 260.72 800.99 257.55 809.53 C 255.43 815.32 251.66 820.31 246.04 823.05 C 238.92 826.49 230.93 826.10 223.35 824.67 C 207.25 821.53 191.26 817.74 175.37 813.65 C 169.33 812.01 162.83 810.55 157.21 807.79 C 151.56 805.03 146.84 800.30 144.71 794.33 C 143.26 790.17 143.58 785.40 144.09 781.09 C 145.80 768.41 148.75 755.84 150.22 743.13 C 151.08 736.00 150.64 728.90 151.65 721.78 C 165.04 632.97 181.78 545.01 198.85 456.86 C 204.78 428.16 210.32 399.43 216.85 370.87 C 222.11 348.23 227.15 325.01 233.59 302.59 C 238.51 285.72 243.89 268.40 251.57 252.57 C 260.81 233.58 275.24 217.30 293.36 206.36 C 309.67 195.89 326.67 190.27 344.44 182.42 C 361.64 174.87 379.23 167.71 395.75 158.74 C 403.18 154.73 410.51 149.25 419.04 147.98 Z" fill="#ddb180" />
<path d="M 426.96 171.45 C 430.26 172.14 433.49 173.34 436.74 174.26 C 452.35 178.74 467.66 179.95 483.72 181.45 C 491.83 182.18 499.99 182.06 508.14 182.46 C 518.17 182.92 527.98 182.20 538.04 181.90 C 557.85 180.64 577.32 178.05 596.13 171.44 C 596.35 179.89 595.47 188.52 594.74 196.95 C 590.15 250.09 570.75 302.34 542.26 347.25 C 533.22 362.00 522.64 375.56 512.74 389.76 C 510.50 387.10 508.45 384.36 506.52 381.47 C 501.33 374.01 496.04 366.62 490.79 359.20 C 473.70 334.61 458.84 308.70 448.49 280.51 C 437.33 250.47 430.26 218.95 427.76 186.99 C 427.35 181.87 426.69 176.59 426.96 171.45 Z" fill="#f9dcb8" />
<path d="M 404.67 180.29 C 405.86 187.21 405.90 194.19 406.76 201.15 C 410.70 233.82 419.61 265.68 431.77 296.22 C 444.41 327.05 461.50 355.11 480.90 382.10 C 490.64 396.00 500.97 408.77 509.30 423.69 C 515.69 434.50 520.67 446.36 523.38 458.63 C 526.06 470.47 525.06 482.91 525.07 495.00 C 525.10 585.67 525.09 676.33 525.08 767.00 C 525.08 772.95 525.39 778.86 524.87 784.80 C 516.40 785.17 507.73 785.20 499.26 784.77 C 499.00 780.84 498.92 776.94 499.02 773.00 C 499.10 746.04 498.98 719.08 499.10 692.12 C 502.21 695.14 505.01 698.75 509.59 699.37 C 516.67 700.41 523.74 695.33 524.01 687.95 C 524.78 679.83 517.26 673.23 509.36 674.36 C 504.76 675.09 502.07 678.50 499.00 681.62 C 499.12 651.50 498.98 621.38 499.10 591.26 C 502.65 594.86 505.41 598.96 511.01 598.99 C 518.41 599.35 524.21 593.27 524.10 585.99 C 524.55 578.04 516.48 572.20 509.01 573.73 C 504.54 574.39 502.05 577.86 499.06 580.85 C 499.06 555.24 499.08 529.61 499.03 504.00 C 498.94 499.95 498.88 495.94 499.47 491.93 C 502.82 494.62 505.38 497.97 510.04 498.04 C 516.45 498.53 522.47 494.04 523.66 487.70 C 525.01 480.08 518.88 472.46 511.00 472.70 C 505.69 472.35 502.89 475.94 499.15 478.97 C 499.24 467.11 498.74 455.74 494.50 444.52 C 490.22 433.11 482.07 423.83 474.55 414.45 C 464.56 401.88 454.66 389.68 445.44 376.57 C 427.32 351.14 411.10 323.51 399.55 294.45 C 391.07 273.66 384.76 251.93 380.00 230.00 C 377.84 220.15 374.98 209.96 373.77 200.00 C 373.63 198.33 373.37 196.34 373.93 194.73 C 377.16 192.55 381.09 191.30 384.61 189.62 C 391.41 186.68 397.73 182.81 404.67 180.29 Z" fill="#f9dcb8" />
<path d="M 619.13 180.90 C 624.79 182.57 629.70 185.54 635.02 187.99 C 640.09 190.41 645.35 192.19 650.17 195.13 C 649.91 205.79 647.29 216.55 644.93 226.92 C 639.60 251.72 632.34 276.21 622.67 299.67 C 611.77 325.52 597.80 349.84 581.92 372.93 C 571.03 388.56 559.16 403.40 547.28 418.28 C 543.34 423.12 539.79 428.25 535.73 432.99 C 533.15 427.42 531.72 421.54 528.84 416.13 C 527.69 413.78 526.20 411.40 525.54 408.86 C 526.44 405.41 529.46 402.37 531.49 399.49 C 545.99 380.12 560.06 360.01 571.87 338.88 C 579.57 324.61 586.96 310.06 592.99 295.00 C 601.39 273.55 608.38 251.40 612.74 228.76 C 615.38 215.72 617.48 202.40 618.25 189.11 C 618.43 186.36 618.77 183.63 619.13 180.90 Z" fill="#f9dcb8" />
<path d="M 350.88 204.43 C 352.80 210.39 353.74 216.68 355.21 222.77 C 359.62 243.47 365.18 263.90 372.08 283.91 C 379.24 305.18 388.93 325.52 399.93 345.06 C 413.85 369.17 429.62 392.25 447.06 413.95 C 454.19 423.13 461.72 432.04 468.63 441.37 C 472.07 446.01 474.85 451.06 476.32 456.68 C 478.57 464.76 477.96 472.69 478.00 481.00 C 477.99 577.00 478.00 673.00 478.00 769.00 C 478.03 774.28 478.20 779.54 477.80 784.82 C 471.52 785.30 465.28 784.95 459.00 785.00 C 426.58 784.97 394.24 785.32 361.86 783.43 C 344.36 782.60 326.73 781.84 309.34 779.68 C 308.32 769.33 308.17 758.88 307.43 748.51 C 306.53 734.46 305.10 720.57 305.42 706.47 C 305.37 693.31 306.07 680.17 306.06 667.00 C 306.86 648.34 307.65 629.69 308.83 611.04 C 308.95 601.00 309.96 591.03 310.08 580.99 C 310.19 575.32 310.82 569.67 310.94 564.00 C 310.97 551.63 312.18 539.34 312.18 526.96 C 313.24 515.13 312.74 503.30 313.54 491.46 C 314.30 480.59 313.87 469.90 314.05 459.00 C 314.64 434.01 314.62 408.99 313.98 383.99 C 313.63 373.98 312.71 363.97 311.92 353.98 C 308.76 321.37 304.06 290.11 291.34 259.67 C 289.05 253.69 285.61 248.30 283.51 242.27 C 291.73 234.11 301.02 226.69 311.32 221.32 C 320.02 216.76 329.29 213.05 338.43 209.44 C 342.67 207.78 346.59 205.85 350.88 204.43 Z" fill="#f9dcb8" />
<path d="M 673.00 204.30 C 675.85 205.11 678.62 206.45 681.34 207.63 C 688.58 210.87 696.06 213.39 703.26 216.72 C 715.44 222.32 727.40 229.60 737.19 238.82 C 738.40 240.15 740.44 242.01 740.53 243.90 C 739.70 247.74 737.45 251.33 735.99 254.97 C 729.21 271.18 723.28 287.86 720.11 305.18 C 715.53 326.30 713.58 347.44 712.19 368.97 C 711.97 376.32 711.58 383.62 711.11 390.96 C 710.61 418.31 711.01 445.64 711.02 473.00 C 711.23 484.34 712.16 495.64 711.99 507.00 C 711.77 518.36 713.20 529.64 712.98 541.00 C 712.76 551.37 714.21 561.63 713.99 572.00 C 713.84 581.36 715.07 590.64 714.99 600.00 C 714.91 607.36 715.75 614.65 715.94 622.00 C 716.05 634.35 717.06 646.65 717.13 659.01 C 718.34 678.02 717.90 696.96 718.01 716.00 C 718.24 727.68 716.94 739.39 716.31 751.11 C 715.77 760.66 715.55 770.24 714.69 779.76 C 710.47 780.43 706.25 780.81 702.00 781.08 C 684.03 782.63 666.01 783.63 647.99 784.20 C 622.04 785.30 595.98 784.89 570.00 785.00 C 562.10 784.86 554.16 785.38 546.29 784.72 C 545.74 778.13 546.12 771.60 546.07 765.00 C 546.09 670.33 546.08 575.67 546.08 481.00 C 546.14 474.68 545.74 468.03 546.81 461.79 C 547.94 455.34 550.94 449.90 554.53 444.53 C 560.19 436.15 566.93 428.07 573.14 420.14 C 582.93 407.48 592.62 394.94 601.66 381.66 C 618.50 356.80 633.94 330.14 645.29 302.30 C 649.95 291.19 653.70 279.80 657.28 268.28 C 662.35 251.28 666.93 234.44 669.95 216.93 C 670.72 212.75 671.34 208.22 673.00 204.30 Z" fill="#f9dcb8" />
<path d="M 269.75 268.03 C 273.55 275.96 276.37 284.40 279.30 292.69 C 290.10 324.71 292.32 357.50 293.96 391.00 C 294.12 415.00 294.01 439.00 293.93 463.00 C 293.98 473.69 292.88 484.31 292.97 495.00 C 293.03 503.69 291.97 512.31 292.01 521.00 C 292.07 530.36 290.88 539.65 290.92 549.01 C 289.57 574.66 288.61 600.43 286.87 626.04 C 286.56 631.27 285.64 636.41 284.39 641.49 C 281.50 653.28 278.96 665.15 275.90 676.91 C 270.94 695.42 265.78 713.90 260.20 732.23 C 258.77 737.16 257.56 742.11 255.61 746.87 C 252.79 746.75 250.02 746.47 247.28 745.79 C 228.76 741.55 210.15 737.71 191.68 733.30 C 185.43 731.77 179.17 730.78 173.07 728.71 C 173.21 722.50 174.69 716.60 175.50 710.48 C 176.38 704.13 177.43 697.80 178.52 691.48 C 186.97 640.09 195.84 588.79 205.61 537.63 C 214.59 489.12 224.35 440.74 234.49 392.46 C 242.85 354.82 251.52 316.04 264.88 279.88 C 266.29 275.83 267.74 271.83 269.75 268.03 Z" fill="#f9dcb8" />
<path d="M 754.26 267.96 C 757.10 272.85 758.62 278.16 760.48 283.48 C 774.27 322.91 782.89 362.52 791.76 403.24 C 795.89 421.09 799.10 439.12 802.97 457.03 C 810.19 491.82 816.66 526.74 823.35 561.64 C 827.51 581.86 830.59 602.28 834.45 622.56 C 836.80 636.82 839.36 651.05 841.72 665.31 C 845.06 686.40 849.08 707.51 851.59 728.71 C 846.69 730.54 841.61 731.41 836.53 732.54 C 820.75 736.22 804.90 739.61 789.06 743.03 C 782.37 744.29 775.94 746.28 769.18 747.08 C 766.70 741.97 765.54 736.54 763.84 731.16 C 755.75 704.83 748.54 678.25 742.62 651.35 C 740.84 643.57 738.89 635.95 738.17 627.97 C 737.26 618.35 736.88 608.68 736.23 599.04 C 736.00 588.67 734.96 578.36 734.93 567.98 C 734.66 560.31 733.82 552.70 733.99 545.01 C 734.01 535.98 732.88 527.03 733.01 518.00 C 733.18 506.31 731.76 494.70 732.00 483.00 C 732.26 470.97 731.13 459.02 731.13 447.00 C 731.04 431.34 730.93 415.67 731.08 400.00 C 731.96 376.59 732.95 353.79 736.57 330.55 C 738.97 313.77 743.55 297.20 749.23 281.25 C 750.78 276.83 752.25 272.17 754.26 267.96 Z" fill="#f9dcb8" />
<path d="M 595.99 617.88 C 606.00 618.06 615.98 618.25 625.98 618.83 C 638.98 619.18 652.00 618.92 665.00 619.00 C 671.31 619.10 677.71 618.44 683.99 619.03 C 690.58 619.65 696.32 624.76 697.84 631.18 C 699.14 636.50 698.58 642.54 698.59 648.00 C 698.60 666.67 698.78 685.33 698.88 704.00 C 698.78 711.89 699.26 720.25 696.80 727.79 C 694.09 736.28 689.40 743.92 681.62 748.61 C 674.69 752.89 667.02 753.96 659.01 754.01 C 643.67 754.07 628.33 754.21 612.99 754.06 C 604.90 753.96 597.14 752.95 589.89 749.13 C 583.00 745.57 577.53 739.65 574.51 732.51 C 571.64 725.60 570.90 718.42 570.95 711.00 C 571.07 685.02 570.95 658.92 571.00 632.95 C 571.05 626.86 573.38 620.79 579.31 618.29 C 584.41 616.60 590.69 617.85 595.99 617.88 Z" fill="#ddb180" />
<path d="M 426.32 618.46 C 431.47 618.29 436.81 617.58 441.93 618.14 C 445.92 618.56 449.23 621.58 450.90 625.09 C 452.55 628.66 452.73 633.08 452.81 636.96 C 452.84 659.97 452.76 682.99 452.86 706.00 C 452.80 714.25 452.84 723.14 450.00 730.99 C 447.22 738.79 441.60 745.45 434.19 749.21 C 425.89 753.51 417.19 754.19 408.00 754.17 C 396.66 754.14 385.33 754.20 374.00 754.09 C 367.90 754.00 361.54 754.37 355.51 753.47 C 348.18 752.30 340.73 748.85 335.81 743.17 C 331.93 738.68 329.12 733.20 327.47 727.51 C 325.46 720.65 326.03 713.11 325.99 706.00 C 326.00 685.33 326.01 664.67 326.02 644.00 C 326.07 638.59 326.13 632.39 328.42 627.38 C 330.77 622.40 335.26 618.88 340.94 618.99 C 369.39 618.90 397.88 619.31 426.32 618.46 Z" fill="#ddb180" />
<path d="M 431.86 639.17 C 432.16 642.78 432.31 646.38 432.21 650.00 C 432.03 671.35 432.20 692.69 432.12 714.03 C 432.05 719.13 431.42 723.90 427.71 727.71 C 423.47 732.12 417.90 733.01 412.03 733.05 C 397.68 733.00 383.34 732.98 368.99 733.05 C 364.06 732.99 359.06 732.78 354.64 730.35 C 351.40 728.58 348.97 725.72 347.85 722.19 C 346.23 717.15 346.31 711.25 346.30 706.00 C 346.49 686.98 346.46 667.96 346.37 648.95 C 346.37 646.35 346.72 643.79 347.11 641.23 C 349.74 641.09 352.36 640.95 355.00 640.99 C 369.33 641.30 383.67 640.91 398.00 641.01 C 409.37 641.26 420.54 639.58 431.86 639.17 Z" fill="#f9dcb8" />
<path d="M 591.56 639.32 C 597.00 638.93 602.59 639.90 608.04 640.17 C 624.41 641.55 640.50 640.84 657.00 641.02 C 663.96 641.14 670.86 640.61 677.81 641.06 C 678.24 647.05 677.97 653.01 678.00 659.00 C 678.01 676.34 677.98 693.68 678.03 711.03 C 677.94 716.59 677.42 723.22 673.59 727.60 C 669.48 732.08 663.85 733.04 658.03 733.06 C 642.00 732.93 625.98 733.05 609.95 733.02 C 604.06 733.00 598.44 730.99 594.79 726.20 C 591.38 721.76 591.40 716.36 591.35 711.03 C 591.48 691.69 591.33 672.34 591.42 653.00 C 591.47 648.46 591.11 643.84 591.56 639.32 Z" fill="#f9dcb8" />
<path d="M 170.60 750.27 C 172.20 750.17 173.78 750.32 175.35 750.63 C 193.32 754.98 211.19 759.76 229.25 763.74 C 235.29 765.16 241.35 766.12 247.22 768.21 C 246.48 774.30 244.14 779.81 242.71 785.73 C 241.50 790.29 240.56 795.28 238.50 799.54 C 237.53 801.41 236.11 803.54 233.80 803.71 C 231.03 803.91 228.10 803.22 225.40 802.65 C 209.75 798.96 194.03 795.63 178.48 791.50 C 173.85 790.22 169.38 789.39 165.26 786.77 C 165.63 779.45 167.25 772.48 168.24 765.20 C 169.08 760.24 169.41 755.15 170.60 750.27 Z" fill="#f9dcb8" />
<path d="M 853.52 750.28 C 855.44 757.26 855.91 764.69 857.18 771.84 C 857.86 776.68 859.22 781.83 858.86 786.72 C 856.95 788.94 853.17 789.66 850.47 790.52 C 833.83 794.79 817.04 798.48 800.30 802.31 C 797.15 802.96 793.65 803.85 790.42 803.48 C 787.79 803.12 786.25 801.10 785.17 798.86 C 783.20 794.51 782.32 789.53 781.09 784.92 C 779.72 779.20 777.62 773.70 776.22 767.98 C 779.78 766.65 783.41 765.78 787.15 765.10 C 806.14 760.99 825.03 756.47 843.88 751.79 C 847.15 750.99 850.10 750.00 853.52 750.28 Z" fill="#f9dcb8" />
<path d="M 310.23 801.17 C 316.55 800.61 323.21 802.05 329.55 802.51 C 345.69 803.84 361.79 805.23 378.00 805.14 C 403.36 806.36 428.61 805.87 454.00 805.96 C 461.94 806.08 469.89 805.53 477.79 806.14 C 478.29 812.77 477.93 819.36 477.99 826.00 C 477.94 832.58 478.31 839.10 477.74 845.67 C 473.49 845.90 469.25 845.87 465.00 845.76 C 452.75 845.66 440.35 845.84 428.03 845.37 C 419.69 845.07 411.35 844.98 403.00 845.00 C 392.31 845.06 381.69 843.90 370.99 843.92 C 355.56 842.97 340.20 842.86 324.82 841.25 C 321.13 840.75 316.98 840.17 313.69 838.35 C 311.94 837.51 312.06 835.82 311.66 834.16 C 310.95 829.18 311.11 824.05 310.75 819.03 C 310.44 813.20 309.47 806.95 310.23 801.17 Z" fill="#f9dcb8" />
<path d="M 713.88 801.08 C 713.76 807.07 713.10 813.02 712.96 819.01 C 712.70 824.61 712.63 830.32 711.69 835.85 C 711.49 839.22 707.12 839.81 704.55 840.51 C 689.32 843.20 673.56 843.82 658.12 844.46 C 645.42 845.29 632.75 844.92 620.01 845.23 C 600.02 845.78 580.00 845.77 560.00 845.74 C 555.45 845.81 550.92 845.86 546.37 845.54 C 545.70 839.01 546.09 832.55 546.06 826.00 C 546.13 819.37 545.78 812.79 546.27 806.17 C 552.52 805.61 558.74 805.97 565.00 805.94 C 586.00 805.95 607.01 805.88 628.01 805.70 C 649.59 805.12 671.23 804.33 692.77 802.64 C 699.88 802.15 706.72 800.76 713.88 801.08 Z" fill="#f9dcb8" />
<path d="M 499.34 806.28 C 507.75 805.47 516.44 805.87 524.89 806.11 C 525.38 812.75 524.99 819.35 525.07 826.00 C 525.04 832.59 525.48 839.10 524.87 845.68 C 516.40 845.87 507.83 845.99 499.37 845.56 C 498.82 840.04 499.01 834.54 499.04 829.00 C 499.27 821.46 498.55 813.78 499.34 806.28 Z" fill="#f9dcb8" />
</svg>