<?xml version="1.0" encoding="UTF-8" standalone="no"?>
<!DOCTYPE svg PUBLIC "-//W3C//DTD SVG 1.1//EN" "http://www.w3.org/Graphics/SVG/1.1/DTD/svg11.dtd">
<svg xmlns="http://www.w3.org/2000/svg" version="1.1" viewBox="135.39 134.78 753.73 753.73" width="1024.0pt" height="1024.0pt">
<path d="M 497.00 153.95 C 526.39 153.81 554.97 153.07 584.08 156.85 C 590.92 157.72 597.54 159.12 603.75 162.24 C 611.79 166.18 617.64 171.93 624.48 177.51 C 631.38 183.26 638.65 188.66 645.27 194.73 C 648.43 197.60 651.09 200.94 654.15 203.89 C 656.99 206.63 660.47 207.66 664.09 208.97 C 671.84 211.61 679.39 214.81 687.04 217.96 C 702.89 224.58 718.91 231.67 733.87 240.13 C 743.09 245.40 751.92 250.94 758.95 259.04 C 765.35 266.32 769.61 274.67 773.55 283.45 C 785.66 309.82 792.75 336.63 800.53 364.46 C 809.18 395.83 816.95 427.44 823.74 459.27 C 832.23 497.69 840.90 536.18 848.14 574.86 C 855.99 616.48 862.68 658.28 870.04 699.98 C 874.97 727.05 880.82 754.01 885.97 781.03 C 887.00 786.75 888.10 792.48 888.70 798.26 C 889.12 802.95 889.08 807.43 886.60 811.59 C 883.10 817.54 876.45 820.84 870.25 823.26 C 850.11 830.81 828.50 836.14 807.72 841.78 C 803.01 843.04 798.11 844.52 793.19 843.83 C 786.24 842.82 780.25 838.19 776.92 832.09 C 773.90 826.49 772.04 820.20 769.71 814.29 C 761.68 793.32 754.54 772.06 747.11 750.87 C 745.01 744.90 743.41 738.80 741.19 732.87 C 739.24 744.33 740.46 755.09 739.74 766.79 C 739.05 779.21 739.12 791.62 738.86 804.04 C 737.91 817.30 738.16 830.14 736.31 843.28 C 735.67 847.70 734.25 851.80 730.78 854.79 C 724.85 860.12 717.07 861.29 709.48 862.50 C 683.73 866.29 657.41 867.39 631.42 868.48 C 621.27 869.33 611.14 868.80 600.98 869.32 C 591.99 869.81 583.00 869.99 574.00 870.00 C 537.00 870.03 500.00 870.08 463.00 870.01 C 452.32 870.22 441.67 869.49 431.00 869.31 C 418.32 868.91 405.68 869.29 393.02 868.26 C 375.17 867.96 357.43 866.73 339.62 865.44 C 327.31 864.35 314.06 863.49 302.22 859.78 C 297.40 858.16 291.63 855.51 289.48 850.55 C 287.26 845.26 287.14 838.78 286.63 833.11 C 285.65 822.06 286.24 811.00 285.54 799.93 C 284.75 786.91 285.38 773.89 284.36 760.88 C 283.63 750.61 284.31 740.28 283.20 730.08 C 280.73 735.75 279.55 741.66 277.52 747.49 C 273.03 760.66 268.50 773.81 263.98 786.97 C 258.67 802.30 253.53 817.96 246.69 832.68 C 244.35 837.85 240.75 841.46 235.39 843.43 C 227.96 846.46 220.50 843.78 213.18 841.85 C 192.79 835.99 170.51 831.56 151.45 822.58 C 146.89 820.39 141.49 817.71 138.36 813.62 C 135.39 809.77 135.60 804.56 135.85 799.95 C 137.00 786.61 140.11 772.91 142.90 759.91 C 147.13 739.32 151.47 718.76 155.03 698.03 C 160.11 670.51 164.47 642.85 169.28 615.28 C 174.33 586.96 179.44 558.60 185.45 530.47 C 195.27 484.99 205.22 439.58 216.40 394.41 C 222.84 369.58 229.36 344.59 237.15 320.15 C 243.76 300.31 250.33 281.58 262.00 263.99 C 265.35 259.03 269.41 254.80 274.22 251.23 C 283.07 244.60 293.43 239.30 303.26 234.25 C 320.36 225.56 337.95 217.80 355.80 210.79 C 360.14 209.03 364.71 207.81 368.99 205.90 C 372.31 204.41 374.50 201.53 376.90 198.91 C 382.58 192.40 388.98 187.26 395.20 181.21 C 402.97 173.64 411.96 166.47 421.79 161.80 C 431.49 157.19 442.44 156.87 452.96 156.07 C 467.61 155.29 482.33 153.80 497.00 153.95 Z" fill="#68d1b9"/>
<path d="M 498.00 181.62 C 522.02 181.35 546.03 181.73 570.04 182.20 C 574.66 182.47 579.89 182.25 584.26 183.88 C 586.00 185.55 585.41 188.89 585.20 191.03 C 584.07 198.10 582.97 205.03 580.96 211.91 C 570.96 211.72 561.02 210.71 551.00 211.00 C 527.33 210.67 503.67 211.06 480.00 211.03 C 467.51 211.35 455.04 212.25 442.54 212.27 C 441.16 205.85 440.11 199.39 438.96 192.93 C 438.64 190.71 438.12 188.05 438.81 185.87 C 439.70 184.15 442.49 183.65 444.23 183.36 C 462.21 181.76 479.99 182.04 498.00 181.62 Z" fill="#b7f4df"/>
<path d="M 417.13 194.36 C 420.85 203.29 421.68 213.70 423.78 223.24 C 426.54 237.60 432.38 250.22 438.75 263.24 C 455.69 297.50 476.14 330.49 495.69 363.33 C 497.23 366.08 498.25 369.02 499.17 372.02 C 495.86 370.36 492.76 368.46 489.87 366.15 C 480.09 358.46 470.12 351.04 459.61 344.39 C 448.98 337.29 437.72 331.10 427.31 323.69 C 429.29 316.60 433.01 310.35 435.51 303.49 C 436.86 299.52 437.77 294.77 434.69 291.34 C 431.99 288.52 426.74 288.46 423.10 288.44 C 410.66 288.84 398.24 290.12 385.94 291.93 C 380.30 292.90 374.71 293.91 368.99 294.17 C 369.95 284.63 372.31 275.74 374.36 266.36 C 377.73 251.00 383.18 236.09 389.91 221.90 C 395.81 210.24 404.23 198.69 417.13 194.36 Z" fill="#b7f4df"/>
<path d="M 606.60 195.22 C 609.43 195.24 611.87 196.31 614.30 197.65 C 620.56 201.18 626.15 205.75 630.52 211.48 C 634.44 216.58 637.15 222.47 639.64 228.37 C 646.49 244.37 649.85 262.71 653.27 279.76 C 654.35 284.83 654.93 289.79 655.06 294.99 C 636.26 292.45 617.95 289.01 598.84 288.56 C 595.94 288.64 592.07 288.84 589.77 290.80 C 586.73 293.65 586.92 298.32 587.97 302.02 C 590.08 309.23 594.43 315.95 597.63 322.77 C 594.92 324.71 592.20 326.63 589.34 328.34 C 578.27 334.84 566.98 341.14 556.38 348.38 C 548.07 354.30 540.09 360.72 532.30 367.32 C 530.02 369.23 527.49 370.77 524.89 372.19 C 526.03 368.73 527.43 365.43 529.24 362.27 C 533.98 353.92 538.12 345.25 542.91 336.91 C 550.08 324.45 557.53 312.15 564.70 299.70 C 573.93 282.98 583.27 267.22 590.65 249.65 C 594.37 240.71 596.64 231.61 599.38 222.36 C 601.15 216.32 603.06 210.53 604.38 204.45 C 605.07 201.39 605.61 198.19 606.60 195.22 Z" fill="#b7f4df"/>
<path d="M 540.00 231.97 C 551.65 231.92 563.23 232.92 574.85 233.50 C 570.87 245.27 565.07 256.50 559.59 267.63 C 550.83 283.93 540.93 299.67 531.66 315.69 C 524.92 327.26 518.67 339.06 512.63 351.01 C 510.14 347.52 507.88 343.96 505.82 340.20 C 498.08 326.38 489.45 313.11 481.74 299.28 C 473.52 284.61 464.62 270.80 457.56 255.51 C 454.29 248.28 450.51 241.44 447.88 233.94 C 464.93 232.05 481.84 232.22 498.91 231.70 C 512.63 231.00 526.29 231.69 540.00 231.97 Z" fill="#b7f4df"/>
<path d="M 362.82 231.87 C 359.75 244.91 355.42 257.61 352.76 270.78 C 351.04 279.43 348.62 288.92 349.32 297.75 C 349.88 303.44 351.43 309.21 356.37 312.65 C 361.28 316.14 366.83 316.27 372.62 315.65 C 385.08 314.13 397.46 311.31 410.03 310.16 C 408.14 314.52 405.74 318.70 404.14 323.17 C 402.83 327.01 402.76 331.22 405.56 334.44 C 409.04 338.23 414.48 340.51 418.84 343.18 C 436.62 353.80 454.05 365.12 471.00 377.00 C 476.87 381.11 481.54 386.46 487.09 390.90 C 490.77 393.91 495.66 395.66 498.94 399.05 C 502.37 402.94 501.84 409.03 501.90 413.85 C 483.93 414.43 465.94 414.31 447.96 414.49 C 438.64 414.81 429.33 415.11 420.00 415.00 C 405.65 414.85 391.35 415.98 377.00 415.98 C 362.33 416.00 347.67 416.20 333.00 416.19 C 324.67 416.13 316.38 416.47 308.06 415.93 C 307.46 412.09 306.92 408.25 306.53 404.38 C 304.34 382.24 299.98 360.09 295.88 338.11 C 292.11 319.42 287.98 300.69 282.44 282.43 C 281.90 280.06 281.20 277.92 282.60 275.68 C 286.45 269.42 293.01 264.81 299.38 261.39 C 315.34 252.58 331.30 244.17 348.17 237.16 C 352.95 235.07 357.79 233.27 362.82 231.87 Z" fill="#b7f4df"/>
<path d="M 663.22 233.03 C 668.83 234.44 674.22 237.22 679.58 239.42 C 696.66 246.57 713.23 254.78 729.63 263.36 C 735.10 266.22 739.78 270.35 741.75 276.36 C 742.68 280.67 740.13 285.84 739.06 290.03 C 733.84 308.85 729.59 327.97 726.19 347.21 C 723.38 362.26 720.55 377.41 718.57 392.60 C 717.52 400.37 717.05 408.19 715.85 415.94 C 699.27 416.71 682.60 416.05 666.00 416.06 C 652.78 415.91 639.63 416.19 626.42 415.51 C 609.59 414.63 592.80 415.30 575.96 414.70 C 558.03 414.08 540.09 414.42 522.17 413.90 C 522.17 409.86 521.63 404.96 523.22 401.18 C 524.86 397.69 529.37 395.48 532.45 393.40 C 539.99 388.83 544.79 381.99 551.89 376.91 C 558.20 372.55 564.42 368.06 570.78 363.78 C 584.69 354.99 598.55 346.03 612.85 337.88 C 616.01 335.91 619.58 334.04 620.11 329.94 C 621.14 323.41 616.42 316.13 614.16 310.10 C 626.44 311.26 638.20 314.11 650.43 315.62 C 655.33 316.15 660.65 316.42 665.21 314.23 C 669.99 311.98 673.18 307.47 674.34 302.39 C 675.50 297.29 675.12 291.67 674.52 286.51 C 672.88 273.90 670.06 261.22 667.15 248.84 C 665.93 243.56 664.11 238.36 663.22 233.03 Z" fill="#b7f4df"/>
<path d="M 757.29 301.24 C 759.40 305.45 760.96 310.01 762.56 314.44 C 772.06 340.91 778.85 368.01 785.77 395.23 C 790.69 415.67 795.59 436.11 800.42 456.57 C 811.42 505.47 822.24 554.22 831.47 603.52 C 835.75 625.41 839.86 647.33 843.72 669.29 C 848.17 692.59 851.93 716.07 856.78 739.28 C 857.26 741.96 857.55 744.66 857.80 747.37 C 838.33 753.81 818.84 761.01 798.94 765.95 C 791.92 767.78 785.06 770.03 777.93 771.44 C 775.72 766.95 773.97 762.31 772.43 757.55 C 762.50 729.29 753.23 700.78 743.54 672.44 C 741.92 667.36 741.87 662.27 741.89 656.99 C 741.99 645.98 740.95 635.02 741.01 624.00 C 741.06 616.66 740.48 609.36 740.16 602.03 C 739.29 575.62 737.58 549.25 736.42 522.85 C 735.71 510.71 736.24 498.56 735.55 486.42 C 734.89 457.59 734.40 427.92 738.39 399.32 C 740.62 381.47 743.23 363.61 747.00 346.00 C 749.94 331.07 752.66 315.76 757.29 301.24 Z" fill="#b7f4df"/>
<path d="M 267.10 302.39 C 270.51 312.48 272.16 323.21 274.40 333.61 C 279.64 358.32 283.57 383.31 286.55 408.39 C 288.60 424.88 288.81 441.41 288.68 458.00 C 288.57 468.00 288.70 477.98 288.21 487.97 C 287.75 499.18 288.34 510.36 287.50 521.57 C 286.31 548.64 284.69 575.67 283.57 602.74 C 282.75 612.73 283.20 622.74 282.60 632.74 C 281.95 642.17 282.02 651.59 282.02 661.04 C 282.00 669.76 278.50 676.73 275.88 684.88 C 268.82 706.07 261.41 727.14 254.30 748.32 C 252.18 754.12 250.58 760.29 247.79 765.80 C 246.68 767.76 245.02 770.44 242.78 771.20 C 240.32 771.25 237.76 770.32 235.41 769.66 C 225.19 766.39 214.86 763.53 204.62 760.37 C 195.55 757.59 186.71 754.22 177.67 751.37 C 173.90 750.19 170.26 748.68 166.68 747.02 C 167.56 740.09 169.15 733.32 170.50 726.48 C 177.69 688.81 184.35 651.02 191.31 613.31 C 198.82 573.97 207.07 534.77 215.65 495.65 C 223.14 461.84 230.87 428.05 239.50 394.52 C 245.22 371.13 251.24 347.61 258.73 324.73 C 261.21 317.24 263.62 309.43 267.10 302.39 Z" fill="#b7f4df"/>
<path d="M 309.41 436.51 C 315.19 435.76 321.17 436.31 327.00 436.19 C 375.67 435.94 424.33 435.98 473.00 436.02 C 482.57 436.13 492.14 435.99 501.70 436.33 C 501.90 442.22 501.90 448.11 501.85 454.00 C 501.86 559.33 501.86 664.67 501.85 770.00 C 501.91 776.21 501.95 782.42 501.71 788.63 C 497.06 788.65 492.42 788.58 487.78 788.40 C 468.10 787.72 448.39 788.42 428.73 787.45 C 418.06 786.82 407.40 787.23 396.74 786.42 C 387.17 785.99 377.60 785.80 368.04 785.16 C 351.25 784.88 334.96 782.68 318.31 780.67 C 314.19 780.20 310.20 779.15 306.26 777.87 C 305.24 768.25 305.11 758.62 304.83 748.96 C 303.88 734.65 303.93 720.32 303.13 706.00 C 303.01 683.03 302.55 659.98 303.83 637.03 C 304.09 629.76 303.94 622.50 304.41 615.23 C 305.02 606.11 304.97 596.97 305.58 587.86 C 306.15 579.09 305.82 570.32 306.49 561.56 C 307.20 551.90 306.83 542.22 307.51 532.56 C 308.17 523.17 307.85 513.77 308.40 504.38 C 309.38 488.31 308.86 472.12 309.04 456.00 C 309.19 449.55 308.47 442.89 309.41 436.51 Z" fill="#b7f4df"/>
<path d="M 522.58 436.51 C 526.63 435.84 530.90 436.09 535.00 436.06 C 594.94 435.89 654.87 436.01 714.80 436.33 C 715.27 455.87 714.75 475.45 715.12 495.00 C 715.31 503.01 715.93 510.99 715.97 519.00 C 715.94 531.03 717.11 542.99 717.10 555.02 C 717.94 568.33 718.01 581.65 718.83 594.97 C 718.98 609.00 720.16 622.96 720.16 637.00 C 721.34 659.01 720.94 680.97 720.98 703.00 C 720.99 711.35 720.85 719.70 720.37 728.04 C 719.82 737.31 720.23 746.59 719.61 755.85 C 719.02 763.55 719.53 771.05 717.88 778.66 C 692.56 783.03 667.62 784.30 642.04 785.77 C 628.67 786.28 615.34 787.08 601.96 787.25 C 587.63 788.20 573.33 787.90 558.99 788.10 C 546.80 788.63 534.60 788.66 522.40 788.59 C 522.40 690.37 522.29 592.23 522.34 494.00 C 522.25 476.99 522.49 459.98 522.23 442.97 C 522.23 440.84 522.25 438.62 522.58 436.51 Z" fill="#b7f4df"/>
<path d="M 362.00 608.96 C 387.33 609.05 412.67 608.98 438.00 608.99 C 443.76 609.04 449.82 608.57 455.51 609.55 C 460.18 610.38 464.42 613.01 466.89 617.12 C 469.48 621.38 469.69 626.12 469.79 630.96 C 469.78 662.31 469.84 693.68 469.78 725.04 C 469.67 731.56 469.40 738.02 465.65 743.63 C 461.30 750.27 454.54 753.92 447.10 756.13 C 439.46 758.43 431.89 757.88 424.00 757.93 C 404.00 758.00 383.98 757.98 363.97 757.93 C 355.30 757.52 344.21 757.65 337.22 751.78 C 329.79 745.67 327.93 735.12 327.91 726.01 C 327.92 717.73 327.83 709.41 328.34 701.14 C 330.06 676.45 331.22 652.11 334.56 627.54 C 335.43 622.23 336.69 616.65 341.35 613.35 C 347.11 609.36 355.23 608.96 362.00 608.96 Z" fill="#68d1b9"/>
<path d="M 585.00 608.97 C 612.01 609.03 639.02 608.99 666.03 608.99 C 672.29 609.09 679.13 609.69 684.16 613.83 C 687.93 616.94 688.98 621.66 689.76 626.24 C 690.97 634.38 691.50 642.64 692.33 650.84 C 693.64 664.08 694.74 677.32 695.51 690.60 C 696.55 703.46 697.55 716.02 696.75 728.94 C 696.28 735.41 694.72 742.56 690.91 747.93 C 687.03 753.35 680.44 756.17 673.97 756.93 C 665.05 757.93 655.97 757.90 647.00 757.93 C 629.33 757.96 611.67 757.89 594.00 757.89 C 585.88 757.95 577.86 756.74 570.33 753.64 C 564.93 751.40 560.27 747.68 557.56 742.43 C 553.84 735.34 553.97 727.78 553.98 720.00 C 554.03 692.66 554.01 665.33 553.98 638.00 C 554.03 631.97 553.40 624.57 555.96 618.98 C 557.94 614.51 561.97 611.95 566.45 610.42 C 572.14 608.48 579.03 608.99 585.00 608.97 Z" fill="#68d1b9"/>
<path d="M 354.55 630.60 C 359.56 629.70 364.92 630.29 370.00 630.25 C 396.33 630.37 422.67 630.22 449.00 630.35 C 450.52 639.35 449.76 647.89 449.96 657.00 C 450.12 680.03 449.49 703.04 449.08 726.06 C 448.86 729.11 448.69 732.10 446.31 734.32 C 443.44 737.13 438.76 737.04 435.02 737.19 C 411.01 737.18 387.01 737.28 363.00 737.31 C 359.32 737.25 355.17 737.48 351.64 736.29 C 349.11 735.31 348.51 732.31 348.19 729.92 C 347.63 723.65 347.99 717.26 348.13 710.97 C 349.31 688.26 350.69 665.56 352.73 642.91 C 353.14 638.86 353.31 634.49 354.55 630.60 Z" fill="#b7f4df"/>
<path d="M 574.44 631.18 C 579.42 630.07 584.92 630.57 590.00 630.54 C 610.33 630.59 630.67 630.54 651.00 630.57 C 657.31 630.48 663.60 630.37 669.90 630.91 C 671.49 639.23 672.01 647.62 672.78 656.04 C 674.29 674.93 676.18 694.02 676.17 713.00 C 676.15 718.89 676.51 724.96 675.67 730.80 C 675.23 733.13 674.47 736.19 671.74 736.69 C 667.64 737.57 663.18 737.25 659.00 737.28 C 635.66 737.22 612.31 737.35 588.97 737.12 C 585.91 737.01 582.24 736.95 579.47 735.53 C 576.89 734.22 575.47 731.78 574.98 728.99 C 573.96 723.14 574.51 716.93 574.36 711.00 C 573.94 689.33 574.13 667.67 574.07 646.00 C 574.10 641.11 573.72 636.03 574.44 631.18 Z" fill="#b7f4df"/>
<path d="M 163.21 768.99 C 167.89 769.65 172.48 771.63 177.02 772.96 C 193.49 777.82 209.78 783.14 226.37 787.61 C 230.32 788.66 234.18 789.96 238.02 791.34 C 237.30 799.28 234.67 806.47 231.88 813.87 C 230.74 816.52 229.17 820.14 226.50 821.55 C 223.93 822.12 220.93 821.24 218.41 820.67 C 201.11 815.95 183.76 811.46 166.52 806.50 C 163.53 805.56 159.98 804.50 157.61 802.37 C 156.24 801.27 156.66 799.35 156.71 797.82 C 157.32 792.71 158.67 787.68 159.63 782.62 C 160.60 778.13 161.28 773.18 163.21 768.99 Z" fill="#b7f4df"/>
<path d="M 860.71 769.13 C 863.02 773.00 863.38 778.19 864.44 782.55 C 865.94 788.98 867.26 795.31 867.21 801.97 C 859.36 805.63 851.18 807.55 842.88 809.90 C 830.99 813.18 818.87 815.55 807.12 819.21 C 803.82 820.13 799.78 821.49 796.36 820.78 C 794.17 819.43 793.12 816.07 792.15 813.80 C 790.12 808.07 787.85 802.30 786.59 796.35 C 786.36 794.61 785.66 791.64 787.52 790.56 C 791.23 788.21 796.21 787.57 800.40 786.37 C 815.22 782.40 829.94 778.04 844.63 773.62 C 849.86 772.09 855.29 769.63 860.71 769.13 Z" fill="#b7f4df"/>
<path d="M 309.25 801.19 C 314.86 800.89 320.69 802.09 326.29 802.62 C 346.67 804.72 367.25 805.60 387.72 806.43 C 399.62 807.39 411.52 806.62 423.42 807.54 C 439.30 808.35 455.23 807.85 471.13 808.59 C 481.33 809.07 491.54 808.76 501.74 809.22 C 501.91 822.35 501.93 835.55 501.67 848.68 C 477.43 849.06 453.23 847.82 429.00 848.00 C 414.66 848.02 400.35 846.92 386.01 846.96 C 364.10 846.02 342.45 845.19 320.67 842.38 C 317.78 841.97 314.91 841.42 312.04 840.87 C 310.28 832.33 310.41 823.79 309.58 815.16 C 309.23 810.61 308.66 805.72 309.25 801.19 Z" fill="#b7f4df"/>
<path d="M 714.01 800.97 C 714.57 810.01 714.22 818.99 714.05 828.04 C 713.97 832.23 713.31 836.33 712.47 840.43 C 709.07 841.16 705.67 841.86 702.22 842.31 C 675.68 845.66 648.69 846.72 621.96 847.31 C 607.97 848.13 594.00 847.95 580.00 848.06 C 560.82 848.44 541.57 849.14 522.38 848.69 C 522.35 835.56 522.37 822.43 522.41 809.30 C 531.61 808.74 540.79 809.13 550.00 808.93 C 557.34 808.85 564.66 808.32 572.00 808.16 C 582.93 807.89 593.81 808.22 604.73 807.53 C 614.87 806.84 625.01 807.23 635.14 806.41 C 652.77 805.57 670.37 804.38 687.97 803.18 C 696.69 802.65 705.27 801.19 714.01 800.97 Z" fill="#b7f4df"/>
</svg>