<?xml version="1.0" encoding="UTF-8" standalone="no"?>
<!DOCTYPE svg PUBLIC "-//W3C//DTD SVG 1.1//EN" "http://www.w3.org/Graphics/SVG/1.1/DTD/svg11.dtd">
<svg xmlns="http://www.w3.org/2000/svg" version="1.1" viewBox="0 0 836 1254" width="836.0pt" height="1254.0pt">
<path d="M 320.05 207.93 C 323.19 210.15 324.28 213.47 324.88 217.11 C 327.64 235.54 328.57 254.23 331.33 272.64 C 333.84 289.16 340.48 304.82 351.70 317.32 C 362.78 329.93 379.23 337.78 395.67 340.30 C 412.33 343.00 429.74 342.73 446.26 339.25 C 459.51 336.31 472.38 329.67 481.81 319.81 C 493.67 307.95 501.24 291.68 504.30 275.31 C 507.76 256.17 508.27 236.70 511.35 217.42 C 512.04 213.75 512.93 210.39 516.15 208.14 C 519.25 205.78 522.62 206.28 526.23 206.72 C 534.26 207.99 542.21 209.60 550.29 210.52 C 554.04 211.12 557.90 211.33 560.44 214.54 C 562.86 217.39 562.64 220.62 562.21 224.09 C 560.16 239.33 559.36 254.69 560.64 270.04 C 561.06 280.97 562.39 291.81 564.49 302.53 C 567.02 313.84 569.31 324.94 573.13 335.91 C 578.11 350.38 584.83 364.43 594.98 376.02 C 597.11 378.62 600.29 381.70 600.88 385.11 C 601.46 390.12 600.26 395.51 599.60 400.49 C 597.81 413.90 594.08 427.29 590.34 440.28 C 585.96 456.02 581.80 471.83 577.65 487.63 C 573.31 505.25 569.64 523.03 565.77 540.75 C 564.53 546.00 563.11 550.83 563.60 556.30 C 564.35 564.12 565.37 571.92 566.30 579.72 C 566.77 583.78 567.72 587.72 569.60 591.38 C 576.99 605.74 583.45 620.61 589.34 635.65 C 608.18 682.48 620.94 730.63 631.07 780.00 C 635.38 799.81 638.61 819.95 642.07 839.91 C 647.93 877.12 653.35 914.29 658.45 951.61 C 660.44 963.72 661.74 975.89 664.14 987.93 C 664.64 991.24 665.55 995.56 663.56 998.54 C 661.85 1001.24 659.14 1002.26 656.26 1003.26 C 629.84 1011.44 603.29 1018.36 576.01 1023.03 C 564.45 1025.32 552.80 1026.61 541.13 1028.21 C 527.09 1030.08 513.10 1030.77 498.99 1031.73 C 490.36 1032.31 481.65 1031.91 473.00 1032.02 C 464.65 1032.15 456.31 1031.92 448.00 1031.16 C 445.49 1030.84 443.12 1030.62 441.13 1028.89 C 438.53 1026.76 437.82 1023.84 437.32 1020.67 C 432.57 980.44 427.14 940.38 421.68 900.23 C 420.37 892.22 419.56 884.20 418.72 876.13 C 418.24 877.02 417.95 877.95 417.85 878.90 C 416.85 888.29 415.48 897.64 413.96 906.96 C 409.13 940.53 404.51 974.12 399.66 1007.69 C 398.75 1013.42 398.68 1019.51 397.01 1025.06 C 395.88 1028.40 393.35 1030.34 389.86 1030.78 C 380.41 1032.18 370.54 1032.06 361.00 1032.02 C 351.93 1032.04 342.91 1032.19 333.86 1031.44 C 283.89 1029.09 235.43 1019.44 187.47 1005.54 C 183.94 1004.46 180.23 1003.62 176.83 1002.15 C 173.28 1000.64 170.84 996.98 171.18 993.07 C 171.53 987.93 172.98 982.85 173.71 977.74 C 175.91 962.90 178.38 948.11 180.28 933.23 C 182.61 918.12 184.33 902.93 186.82 887.85 C 190.88 857.98 195.91 828.15 201.50 798.54 C 211.61 747.40 223.32 697.48 241.49 648.51 C 248.50 629.85 256.13 611.04 265.43 593.41 C 267.16 590.10 268.38 586.61 268.81 582.89 C 269.97 572.95 271.19 563.02 272.26 553.07 C 272.70 549.26 272.16 545.53 271.13 541.86 C 268.94 534.16 267.43 526.31 265.46 518.55 C 258.82 490.08 250.66 462.07 243.19 433.83 C 239.53 419.02 235.67 403.20 234.84 387.96 C 234.40 381.72 239.21 378.15 242.67 373.67 C 249.85 365.43 254.63 355.91 258.91 345.94 C 272.71 312.66 277.64 276.16 275.55 240.30 C 275.19 233.50 273.85 226.74 273.68 219.94 C 273.60 216.25 276.09 212.82 279.59 211.69 C 282.34 210.82 285.38 210.56 288.24 210.20 C 295.81 209.33 303.32 207.80 310.85 206.70 C 314.03 206.34 317.29 205.91 320.05 207.93 Z" fill="#89d5f2" />
<path d="M 308.95 224.96 C 310.29 229.07 310.45 233.63 311.09 237.90 C 313.14 252.90 314.08 268.23 316.99 283.00 C 321.62 306.05 334.77 327.35 354.17 340.83 C 370.82 352.58 390.71 358.41 410.99 359.04 C 420.06 359.27 428.93 359.39 437.90 357.98 C 454.02 355.74 469.87 349.66 483.04 340.05 C 499.09 328.31 510.85 310.67 516.74 291.77 C 520.85 278.89 521.82 264.81 523.48 251.43 C 524.44 243.73 525.30 236.01 526.40 228.33 C 527.01 226.05 526.72 223.41 529.88 223.52 C 534.58 223.76 540.44 224.03 544.52 226.52 C 545.29 230.55 544.54 235.01 544.34 239.10 C 543.21 259.93 544.03 280.71 547.76 301.26 C 550.94 320.73 556.92 339.30 564.57 357.44 C 568.66 366.68 573.34 375.41 579.79 383.24 C 582.10 386.34 584.77 388.74 584.18 392.99 C 582.91 405.38 579.88 417.78 576.85 429.85 C 574.07 441.01 571.38 452.16 568.18 463.20 C 561.53 486.89 556.35 510.88 550.96 534.88 C 550.35 537.45 549.75 540.25 548.54 542.61 C 545.23 543.60 541.48 543.63 538.05 543.72 C 500.36 544.10 462.68 544.06 425.00 544.11 C 385.33 544.10 345.67 544.22 306.00 543.95 C 300.78 543.83 295.40 544.34 290.23 543.64 C 287.24 543.54 287.02 539.86 286.26 537.69 C 280.20 511.00 272.95 484.64 265.75 458.24 C 260.41 437.25 254.98 416.51 251.77 395.04 C 251.57 393.24 251.30 391.24 251.67 389.45 C 252.30 387.49 253.91 385.76 255.18 384.18 C 264.54 373.49 270.52 360.75 275.60 347.61 C 285.96 321.38 291.43 293.18 292.05 265.00 C 292.07 256.99 292.21 248.96 291.81 240.96 C 291.60 236.18 290.75 231.12 291.32 226.37 C 295.37 224.38 300.36 224.06 304.79 223.57 C 306.21 223.59 308.47 223.12 308.95 224.96 Z" fill="#c7f7ff" />
<path d="M 300.01 558.85 C 325.66 559.28 351.34 559.21 377.00 559.31 C 428.00 559.21 479.00 559.46 530.00 558.94 C 534.23 558.94 538.43 558.67 542.65 558.47 C 544.39 558.48 546.20 558.26 547.71 559.28 C 548.53 564.71 548.98 571.27 548.88 576.77 C 544.94 578.84 539.34 577.67 534.97 578.12 C 522.67 579.07 510.36 579.01 498.04 579.75 C 473.02 580.31 448.03 581.03 423.00 580.80 C 405.02 580.82 387.02 580.92 369.05 580.38 C 353.03 580.09 337.01 579.98 321.00 579.16 C 312.30 579.12 303.68 578.02 294.98 578.03 C 292.30 577.93 289.51 578.02 287.04 576.81 C 286.69 571.31 287.20 564.75 288.24 559.32 C 291.45 557.55 296.44 559.00 300.01 558.85 Z" fill="#c7f7ff" />
<path d="M 552.28 592.95 C 554.80 595.78 556.19 599.78 557.86 603.15 C 572.10 633.14 584.03 664.03 594.53 695.51 C 600.71 713.72 604.92 732.26 608.96 751.04 C 619.93 799.36 628.05 848.82 635.17 897.84 C 639.11 923.99 642.90 950.17 646.63 976.36 C 647.13 980.01 647.92 983.91 647.65 987.60 C 645.25 989.40 641.94 990.27 639.11 991.16 C 622.13 996.20 604.92 1001.17 587.53 1004.54 C 561.19 1010.40 534.26 1013.49 507.36 1015.44 C 491.26 1016.36 475.06 1016.53 458.94 1016.05 C 457.29 1015.84 454.49 1015.98 453.32 1014.64 C 451.66 1010.79 451.71 1006.08 451.05 1001.96 C 442.37 939.47 433.54 877.43 425.30 814.82 C 424.94 812.72 424.65 810.29 423.55 808.43 C 421.55 805.41 416.76 805.13 413.88 806.91 C 411.61 808.30 411.37 811.62 410.91 813.98 C 401.99 880.46 392.63 945.61 382.99 1011.95 C 382.54 1013.39 382.41 1015.28 380.61 1015.58 C 376.22 1016.50 371.48 1016.12 367.00 1016.27 C 334.27 1016.83 301.85 1013.69 269.57 1008.44 C 245.57 1004.53 222.80 998.14 199.46 991.56 C 195.76 990.47 191.51 989.70 188.19 987.69 C 187.86 982.15 189.24 976.39 189.89 970.88 C 192.04 956.36 194.03 941.81 196.36 927.31 C 201.65 892.44 206.74 857.60 212.86 822.86 C 219.19 788.99 225.57 755.43 233.98 721.98 C 241.48 691.33 252.45 662.48 264.32 633.33 C 268.46 623.30 272.87 613.38 277.63 603.63 C 279.38 600.15 280.78 596.09 283.28 593.09 C 289.66 592.06 296.51 593.61 302.97 593.73 C 315.32 594.12 327.64 595.11 340.00 595.09 C 348.01 595.17 355.98 596.03 364.00 595.95 C 400.00 596.00 436.01 596.10 472.01 595.86 C 497.03 594.83 522.00 594.43 547.07 592.63 C 548.73 592.59 550.68 592.38 552.28 592.95 Z" fill="#c7f7ff" />
</svg>