<?xml version="1.0" encoding="UTF-8" standalone="no"?>
<!DOCTYPE svg PUBLIC "-//W3C//DTD SVG 1.1//EN" "http://www.w3.org/Graphics/SVG/1.1/DTD/svg11.dtd">
<svg xmlns="http://www.w3.org/2000/svg" version="1.1" viewBox="-5.26 188.05 846.39 846.39" width="836.0pt" height="1254.0pt">
<path d="M 432.05 188.40 C 441.33 188.64 450.64 189.84 459.82 191.15 C 469.25 192.60 478.29 194.40 486.53 199.47 C 493.36 203.73 499.57 209.11 505.76 214.24 C 515.80 222.81 525.94 231.40 535.26 240.76 C 539.70 245.09 544.93 246.95 550.40 249.60 C 568.16 258.04 585.82 265.36 603.02 274.97 C 606.57 276.98 609.72 279.55 612.20 282.80 C 617.28 289.44 621.23 297.06 624.07 304.92 C 632.30 327.86 638.33 351.13 644.31 374.72 C 650.48 399.10 656.49 423.54 661.96 448.10 C 680.52 527.59 696.80 608.98 716.59 688.46 C 717.99 694.08 720.45 701.10 718.93 706.83 C 717.59 711.67 713.12 713.97 708.93 715.99 C 690.49 724.42 670.51 729.66 650.49 732.62 C 644.05 733.31 635.42 734.91 629.54 731.46 C 624.48 728.57 622.96 721.71 621.42 716.53 C 611.23 680.51 602.55 644.13 593.07 607.92 C 589.82 595.22 586.99 582.35 583.00 569.86 C 583.19 577.61 584.54 585.14 585.31 592.83 C 586.54 604.56 588.13 616.25 590.16 627.87 C 601.45 687.02 612.80 745.99 622.62 805.41 C 630.03 846.52 636.19 887.93 642.84 929.17 C 645.05 945.90 648.16 963.24 649.23 979.99 C 649.28 983.86 649.56 988.53 646.32 991.31 C 641.71 995.24 635.10 997.17 629.60 999.61 C 609.38 1008.17 588.32 1014.30 566.87 1018.88 C 528.23 1027.19 489.40 1031.09 449.98 1033.10 C 425.37 1034.44 400.63 1034.04 376.02 1032.75 C 357.83 1031.41 339.38 1030.53 321.35 1027.71 C 312.88 1026.47 304.40 1025.67 295.99 1024.02 C 286.50 1022.13 276.95 1020.78 267.55 1018.49 C 242.35 1013.11 217.84 1005.63 194.61 994.38 C 191.54 992.72 187.90 990.54 187.20 986.82 C 186.50 982.62 187.18 978.07 187.55 973.85 C 188.81 959.56 191.36 945.47 193.26 931.25 C 195.63 917.77 197.31 904.20 199.71 890.74 C 201.16 881.82 202.27 872.87 203.99 864.00 C 210.05 826.93 216.15 789.81 222.82 752.86 C 228.09 720.76 234.59 688.77 240.81 656.84 C 244.26 636.90 248.70 616.89 250.65 596.74 C 251.62 587.40 253.04 578.36 252.89 568.95 C 240.86 617.28 228.60 665.57 215.64 713.66 C 214.30 718.47 213.08 724.06 210.21 728.21 C 207.85 731.62 204.12 733.12 200.06 733.26 C 187.48 733.73 174.36 730.75 162.20 727.80 C 149.81 724.67 137.47 720.56 125.89 715.13 C 122.35 713.36 118.83 711.50 117.30 707.60 C 115.41 703.03 116.88 697.58 117.97 692.97 C 136.88 619.43 152.15 546.16 168.61 471.63 C 172.57 452.89 177.08 434.26 181.63 415.66 C 189.18 383.85 197.35 352.12 206.85 320.83 C 210.88 308.19 215.31 294.10 223.48 283.49 C 228.09 277.35 234.49 274.55 241.08 271.06 C 257.49 262.59 274.26 254.88 290.95 246.96 C 296.62 244.42 300.55 240.15 304.83 235.83 C 313.67 227.39 323.45 219.63 332.87 211.84 C 340.61 205.47 348.89 198.72 358.47 195.42 C 367.90 191.94 377.97 191.27 387.98 189.93 C 402.65 188.05 417.30 188.05 432.05 188.40 Z" fill="#77d1c4"/>
<path d="M 448.25 207.77 C 455.94 208.96 463.88 209.80 471.40 211.76 C 472.92 216.08 472.26 221.46 472.17 225.97 C 471.95 235.18 470.44 244.16 469.17 253.25 C 468.52 257.73 467.63 262.17 466.55 266.57 C 459.55 296.41 450.86 325.87 440.82 354.82 C 434.86 372.12 429.02 389.48 422.56 406.59 C 421.05 410.64 419.85 414.80 418.36 418.85 C 415.27 413.26 413.71 407.47 411.50 401.54 C 403.63 380.16 396.26 358.59 389.02 336.99 C 380.70 311.00 372.13 284.37 367.51 257.45 C 365.84 246.11 363.92 234.44 363.75 223.00 C 363.71 219.31 363.52 215.30 364.47 211.71 C 391.61 205.93 420.64 205.39 448.25 207.77 Z" fill="#c5f2e5"/>
<path d="M 489.08 222.16 C 499.53 230.12 509.26 239.16 518.52 248.48 C 528.74 259.29 538.86 271.15 545.47 284.56 C 547.78 289.25 550.52 294.25 549.95 299.67 C 546.29 301.09 542.13 301.62 538.28 302.32 C 526.19 304.50 514.11 306.56 502.08 309.05 C 498.69 309.82 494.70 310.74 491.91 312.91 C 488.58 315.51 487.22 320.14 488.90 324.08 C 490.89 328.96 495.63 333.04 499.45 336.56 C 506.02 342.31 512.01 348.65 518.59 354.38 C 521.31 356.86 524.40 359.33 526.55 362.34 C 524.13 367.41 519.26 371.40 515.79 375.81 C 491.06 403.53 466.88 431.69 443.81 460.82 C 440.89 464.55 438.12 468.59 434.87 472.03 C 432.82 466.19 431.76 460.06 429.80 454.18 C 428.55 449.85 426.68 445.82 428.22 441.31 C 444.09 396.50 460.68 352.38 473.56 306.54 C 477.92 291.88 481.94 277.25 485.36 262.34 C 488.14 249.11 489.22 235.66 489.08 222.16 Z" fill="#c5f2e5"/>
<path d="M 345.90 223.12 C 345.97 224.39 346.00 225.66 346.00 226.94 C 345.57 246.35 350.61 266.69 355.65 285.36 C 361.75 308.75 369.15 331.52 376.50 354.51 C 385.81 382.53 396.54 410.00 406.07 437.93 C 411.30 452.53 416.15 467.23 419.66 482.36 C 421.45 490.30 423.55 498.38 424.41 506.47 C 420.52 501.49 417.68 496.08 414.14 490.87 C 394.81 461.80 371.18 435.02 348.55 408.46 C 338.10 396.27 327.18 384.45 316.71 372.29 C 314.13 369.24 311.09 366.28 309.05 362.84 C 310.75 359.63 314.10 357.12 316.82 354.79 C 323.59 349.19 329.48 342.88 335.96 336.95 C 339.88 333.23 344.90 328.99 346.95 323.89 C 348.29 320.63 347.82 317.14 345.67 314.35 C 343.08 310.93 338.05 309.81 334.09 308.89 C 320.03 306.04 305.66 303.97 291.51 301.62 C 289.76 301.31 288.02 300.96 286.33 300.41 C 285.43 296.56 286.70 292.67 288.09 289.10 C 293.43 276.38 301.35 265.70 310.48 255.48 C 317.32 247.61 325.00 240.65 332.90 233.88 C 337.16 230.27 341.28 226.25 345.90 223.12 Z" fill="#c5f2e5"/>
<path d="M 277.63 272.12 C 273.77 281.32 269.39 289.30 268.50 299.56 C 268.12 304.20 269.44 308.89 272.71 312.29 C 275.40 315.12 278.86 316.41 282.56 317.38 C 296.58 320.61 310.77 322.87 325.08 324.42 C 321.87 327.84 318.19 330.62 314.68 333.70 C 308.26 339.59 301.82 345.53 295.87 351.89 C 292.74 355.37 289.49 359.78 290.25 364.73 C 291.12 370.07 295.57 375.02 298.99 379.01 C 309.57 390.78 320.00 402.68 330.31 414.68 C 347.29 434.11 364.09 453.68 380.02 473.98 C 397.61 495.43 411.95 519.19 423.80 544.23 C 426.07 549.09 425.68 553.80 425.67 559.01 C 425.68 705.99 425.70 853.02 425.65 1000.00 C 425.67 1003.85 425.92 1007.83 425.43 1011.66 C 419.48 1012.79 413.05 1012.07 407.00 1012.10 C 399.00 1012.09 391.03 1011.64 383.04 1011.19 C 366.07 1010.59 349.01 1008.47 332.08 1006.82 C 310.61 1004.13 289.26 1000.67 268.16 995.83 C 250.55 992.19 233.23 987.07 216.49 980.53 C 212.94 979.09 208.88 977.93 205.79 975.63 C 205.57 974.44 205.56 973.24 205.59 972.02 C 206.58 953.59 209.85 935.78 212.64 917.59 C 218.46 881.91 223.83 846.15 229.48 810.45 C 233.38 786.79 237.29 763.13 241.52 739.52 C 245.29 716.45 249.80 693.50 253.43 670.41 C 260.62 628.32 267.34 586.74 269.06 544.00 C 269.34 534.66 270.06 525.36 270.01 516.00 C 270.02 499.67 270.14 483.32 269.87 466.99 C 268.94 450.79 269.02 434.58 267.56 418.40 C 265.69 397.58 263.14 376.79 259.88 356.13 C 256.44 336.59 253.28 317.36 247.73 298.26 C 246.77 294.94 245.33 291.65 244.80 288.24 C 247.13 286.34 250.09 285.09 252.76 283.75 C 260.95 279.83 269.11 275.24 277.63 272.12 Z" fill="#c5f2e5"/>
<path d="M 558.25 272.11 C 565.99 274.78 573.31 278.81 580.72 282.27 C 584.30 284.08 588.34 285.64 591.47 288.17 C 590.96 291.37 589.62 294.50 588.63 297.58 C 585.41 307.23 583.41 317.37 581.35 327.32 C 579.45 337.14 577.33 346.96 575.83 356.84 C 572.78 376.88 569.72 397.32 568.48 417.55 C 567.77 428.71 567.04 439.87 566.78 451.05 C 565.35 474.97 566.10 499.04 566.02 522.99 C 566.83 542.29 567.41 561.25 569.50 580.42 C 572.58 617.30 579.55 654.54 586.01 691.00 C 588.16 701.98 589.73 713.06 591.96 724.04 C 605.18 796.01 616.44 868.52 627.10 940.92 C 628.40 949.24 629.30 957.61 630.10 965.99 C 630.38 969.09 630.85 972.38 630.49 975.47 C 629.29 976.37 627.96 977.02 626.59 977.62 C 576.13 998.41 520.81 1006.32 466.72 1010.60 C 458.62 1010.86 450.43 1012.06 442.34 1011.69 C 441.67 1006.54 442.09 1001.19 442.04 996.00 C 442.01 853.00 442.06 710.00 442.03 567.00 C 441.91 545.52 442.51 524.51 440.60 503.08 C 440.43 500.57 440.06 497.87 440.50 495.39 C 441.08 493.36 442.53 491.48 443.74 489.78 C 472.06 452.47 503.44 416.60 534.36 381.38 C 538.38 376.73 544.02 371.29 545.26 365.10 C 546.32 360.12 543.69 356.04 540.59 352.43 C 535.85 347.18 530.75 342.23 525.64 337.35 C 521.19 333.09 516.18 329.40 511.94 324.95 C 518.07 323.41 524.53 322.91 530.77 321.77 C 537.48 320.57 544.16 319.22 550.83 317.87 C 554.98 316.95 559.68 315.88 562.83 312.84 C 566.77 309.06 568.02 303.16 567.27 297.89 C 565.92 288.36 561.69 280.79 558.25 272.11 Z" fill="#c5f2e5"/>
<path d="M 233.40 302.08 C 236.86 314.28 239.46 326.76 241.78 339.23 C 247.86 373.11 251.46 407.48 253.37 441.85 C 253.75 446.89 254.03 451.94 254.02 457.00 C 253.96 467.88 254.91 478.50 254.51 489.43 C 254.14 496.18 252.04 503.01 250.54 509.59 C 245.75 528.45 240.66 547.23 236.14 566.16 C 224.10 613.48 212.39 660.94 198.97 707.89 C 198.27 710.40 197.63 713.04 196.54 715.41 C 192.40 715.63 188.12 714.63 184.04 714.01 C 171.30 711.97 158.83 708.63 146.68 704.30 C 142.64 702.81 138.29 701.59 134.56 699.42 C 134.51 694.82 136.44 689.98 137.56 685.54 C 144.95 657.79 150.97 629.72 157.80 601.82 C 170.48 545.19 182.54 488.43 195.96 431.95 C 203.29 399.87 211.13 367.87 220.24 336.24 C 222.91 326.91 226.04 317.73 229.65 308.73 C 230.66 306.38 231.94 304.18 233.40 302.08 Z" fill="#c5f2e5"/>
<path d="M 603.72 302.78 C 610.29 314.56 613.69 328.63 617.55 341.50 C 629.44 384.49 639.27 428.14 649.42 471.57 C 653.02 485.91 655.80 500.42 659.17 514.81 C 671.73 573.09 683.75 630.35 699.13 687.87 C 700.13 691.63 701.51 695.65 701.58 699.56 C 699.50 700.92 697.01 701.85 694.69 702.71 C 678.97 708.43 662.57 712.84 645.98 715.09 C 643.87 715.35 641.65 715.62 639.53 715.37 C 638.55 713.25 637.94 710.86 637.33 708.60 C 627.60 672.33 617.65 636.12 608.22 599.78 C 600.82 570.17 593.83 540.46 586.06 510.95 C 584.11 503.19 581.79 496.11 581.70 488.01 C 581.61 478.01 582.04 468.01 581.98 458.00 C 583.90 407.78 588.85 358.19 601.38 309.39 C 602.02 307.14 602.79 304.93 603.72 302.78 Z" fill="#c5f2e5"/>
<path d="M 295.15 627.09 C 300.55 626.64 306.38 628.83 311.43 630.59 C 315.61 632.19 321.06 634.90 322.60 639.43 C 323.82 644.08 321.54 649.83 320.36 654.36 C 315.35 672.64 310.55 690.97 305.13 709.13 C 301.35 721.53 298.01 734.05 294.52 746.54 C 293.13 751.34 292.29 756.62 290.07 761.11 C 288.28 764.51 285.03 766.26 281.18 765.77 C 275.50 765.03 269.88 763.27 264.42 761.57 C 260.28 760.21 256.54 757.63 256.24 752.90 C 256.28 748.36 258.18 743.69 259.29 739.30 C 264.56 720.10 268.80 700.77 274.83 681.81 C 279.50 665.92 284.23 650.05 289.20 634.25 C 290.32 631.32 291.49 627.49 295.15 627.09 Z" fill="#77d1c4"/>
<path d="M 538.07 627.06 C 540.89 626.73 543.31 627.70 544.72 630.23 C 547.08 634.54 548.10 639.69 549.67 644.35 C 553.08 654.74 555.91 665.30 559.28 675.70 C 562.84 686.70 566.00 697.82 569.05 708.97 C 571.84 719.09 573.96 729.35 576.52 739.52 C 577.55 744.06 579.67 748.96 579.46 753.64 C 578.73 758.52 574.38 760.73 570.15 762.14 C 564.92 763.72 559.46 765.55 553.99 765.86 C 549.81 766.00 547.00 763.11 545.62 759.43 C 543.12 752.56 541.84 745.27 539.69 738.28 C 531.49 710.90 523.57 683.42 516.13 655.83 C 514.95 651.23 512.76 646.00 513.19 641.22 C 513.91 636.37 518.44 633.41 522.59 631.62 C 527.53 629.63 532.76 627.70 538.07 627.06 Z" fill="#77d1c4"/>
<path d="M 302.34 645.03 C 303.74 645.20 305.09 645.52 306.43 645.98 C 305.61 650.88 303.74 655.63 302.40 660.40 C 297.63 676.14 293.08 691.90 288.76 707.77 C 285.84 718.16 282.64 728.43 279.96 738.91 C 279.27 741.53 278.61 744.31 277.50 746.78 C 276.08 746.96 274.66 746.98 273.23 746.91 C 273.62 742.80 274.91 739.02 276.07 735.08 C 283.20 710.48 289.89 685.76 297.25 661.23 C 298.96 655.89 299.91 650.08 302.34 645.03 Z" fill="#c5f2e5"/>
<path d="M 533.64 645.09 C 535.64 649.47 536.61 654.41 538.01 659.02 C 541.09 669.31 543.94 679.65 547.09 689.92 C 551.97 706.49 556.32 723.22 561.30 739.76 C 561.97 742.12 562.51 744.50 562.72 746.94 C 561.32 746.98 559.92 746.94 558.54 746.73 C 557.21 743.77 556.51 740.44 555.63 737.32 C 547.92 710.09 540.38 682.82 532.26 655.71 C 531.31 652.55 530.33 649.36 529.98 646.07 C 531.17 645.61 532.38 645.28 533.64 645.09 Z" fill="#c5f2e5"/>
</svg>