<?xml version="1.0" encoding="UTF-8" standalone="no"?>
<!DOCTYPE svg PUBLIC "-//W3C//DTD SVG 1.1//EN" "http://www.w3.org/Graphics/SVG/1.1/DTD/svg11.dtd">
<svg xmlns="http://www.w3.org/2000/svg" version="1.1" viewBox="-17.51 188.21 871.25 871.25" width="836.0pt" height="1254.0pt">
<path d="M 343.30 190.71 C 344.71 193.03 344.77 196.31 344.99 198.95 C 346.55 230.97 348.97 262.94 350.36 294.97 C 353.57 295.28 356.78 295.50 360.01 295.43 C 370.34 295.20 380.67 295.37 391.00 295.10 C 422.21 294.34 453.46 295.02 484.67 294.59 C 485.04 291.65 485.42 288.71 485.58 285.75 C 487.05 256.77 490.03 227.95 491.71 198.99 C 492.09 195.73 492.00 192.11 495.10 190.14 C 498.39 188.21 503.34 188.87 507.00 189.10 C 516.73 190.15 526.54 191.94 535.81 195.15 C 538.63 196.22 541.43 197.27 542.98 200.05 C 545.28 203.94 544.79 209.05 544.45 213.37 C 542.00 237.56 540.72 261.78 539.01 286.02 C 538.64 292.88 536.70 300.29 539.20 306.81 C 541.93 314.38 545.32 321.31 546.66 329.35 C 550.58 352.35 553.33 375.89 558.33 398.71 C 560.51 409.89 563.84 420.62 567.67 431.33 C 572.13 443.89 576.68 455.93 583.65 467.36 C 586.86 472.58 590.07 477.20 590.48 483.55 C 591.45 497.01 590.67 510.50 591.83 523.96 C 591.94 538.66 593.00 553.30 593.12 568.00 C 593.36 585.69 594.46 603.33 595.07 621.00 C 595.15 631.69 596.16 642.32 596.13 653.02 C 596.91 665.33 597.06 677.64 597.76 689.96 C 598.31 701.63 598.23 713.31 599.03 724.97 C 599.34 734.99 600.05 744.99 600.14 755.02 C 601.43 777.68 602.21 800.32 603.13 823.00 C 603.41 841.04 604.75 859.00 605.28 877.03 C 606.06 887.33 606.10 897.65 606.72 907.95 C 607.40 928.65 608.59 949.33 609.26 970.02 C 610.56 990.34 611.28 1010.67 612.23 1031.00 C 612.33 1035.89 612.86 1041.06 611.98 1045.89 C 611.36 1049.10 608.62 1050.87 605.58 1051.42 C 600.84 1052.22 595.91 1052.08 591.11 1052.40 C 567.02 1053.41 543.09 1056.16 519.00 1057.06 C 505.33 1057.31 491.65 1057.96 478.03 1059.02 C 474.40 1059.15 469.72 1059.46 466.49 1057.53 C 463.24 1055.58 462.09 1052.20 461.30 1048.70 C 460.10 1042.93 459.65 1036.99 458.78 1031.16 C 455.56 1009.77 452.10 988.41 448.99 967.00 C 447.46 957.99 446.19 948.99 445.09 939.92 C 441.36 912.97 438.10 885.92 433.96 859.02 C 430.89 835.87 427.35 812.78 424.43 789.60 C 422.63 774.31 420.17 759.12 418.54 743.80 C 416.92 749.70 416.53 755.68 415.65 761.71 C 411.48 788.72 409.26 816.02 405.04 843.03 C 403.49 854.12 402.16 865.22 400.30 876.26 C 397.27 897.47 394.19 918.66 390.82 939.81 C 385.74 975.57 379.98 1010.99 375.90 1046.90 C 375.43 1050.08 374.93 1054.21 372.68 1056.68 C 370.65 1058.92 367.88 1059.05 365.05 1059.22 C 356.12 1059.44 346.88 1058.53 337.97 1057.93 C 327.65 1057.21 317.31 1056.95 306.98 1056.32 C 284.27 1055.42 261.66 1052.98 238.95 1051.87 C 234.98 1051.57 230.46 1051.70 226.71 1050.26 C 223.36 1048.86 223.78 1043.99 223.63 1041.01 C 224.08 1021.67 225.23 1002.32 226.03 982.99 C 227.14 965.02 227.51 947.02 228.53 929.04 C 228.95 905.99 230.59 882.99 231.21 859.96 C 231.92 850.78 231.85 841.59 232.44 832.41 C 233.90 791.65 235.92 750.81 237.60 710.01 C 237.77 694.98 238.80 679.99 239.22 664.96 C 240.06 654.94 239.85 644.91 240.60 634.89 C 241.14 619.91 241.75 604.94 242.32 589.97 C 243.06 577.64 242.76 565.29 243.64 552.98 C 244.22 544.02 243.77 535.07 244.39 526.11 C 245.23 514.73 244.73 503.35 245.27 491.95 C 245.56 486.14 245.19 479.38 248.22 474.23 C 250.50 470.20 253.21 466.45 255.32 462.32 C 261.06 451.28 265.62 439.39 269.69 427.66 C 273.12 418.36 276.24 408.98 278.26 399.25 C 282.24 380.91 285.08 362.28 287.67 343.70 C 288.86 336.46 289.49 328.79 291.95 321.96 C 293.70 316.83 296.12 311.81 297.47 306.56 C 298.92 300.85 297.24 294.18 296.60 288.39 C 294.80 272.46 295.18 255.91 294.12 240.03 C 293.78 233.21 294.04 226.39 293.46 219.57 C 293.15 214.27 292.36 208.52 293.34 203.28 C 294.01 200.03 296.31 197.66 299.19 196.18 C 303.41 194.01 308.66 193.19 313.28 192.23 C 321.34 190.63 329.26 188.54 337.60 188.46 C 339.79 188.52 341.98 188.70 343.30 190.71 Z" fill="#fede7e"/>
<path d="M 328.79 204.37 C 329.62 209.90 329.85 215.45 330.08 221.02 C 330.81 233.98 331.61 246.92 332.37 259.87 C 333.45 278.49 335.24 297.10 335.86 315.73 C 333.22 315.77 330.59 315.82 327.96 315.97 C 323.38 316.18 318.89 317.90 314.33 319.04 C 314.00 313.95 313.86 308.85 313.43 303.76 C 312.72 294.46 311.22 285.32 310.93 275.99 C 310.07 260.04 309.23 244.08 308.61 228.11 C 308.30 221.42 307.51 214.82 307.88 208.11 C 314.75 206.42 321.78 205.31 328.79 204.37 Z" fill="#fff8c9"/>
<path d="M 507.49 205.28 C 515.00 205.45 522.64 207.36 529.89 209.28 C 529.86 215.61 528.76 221.79 528.24 228.08 C 526.48 247.69 525.78 267.39 524.04 287.00 C 523.00 297.62 522.37 308.28 521.50 318.92 C 518.76 318.25 516.05 317.50 513.32 316.78 C 509.05 315.66 504.43 315.83 499.98 315.72 C 499.81 312.13 499.75 308.56 500.03 304.97 C 502.18 275.50 504.15 246.02 506.52 216.56 C 506.82 212.82 506.86 208.98 507.49 205.28 Z" fill="#fff8c9"/>
<path d="M 454.00 309.24 C 463.94 309.27 473.91 308.60 483.84 309.07 C 483.97 313.06 484.50 317.67 483.29 321.51 C 481.66 325.23 478.46 328.06 477.05 332.02 C 474.13 340.18 474.72 349.49 478.84 357.14 C 482.46 363.82 488.85 368.79 496.14 370.88 C 508.19 374.24 521.70 370.43 528.82 359.82 C 532.26 355.15 532.34 350.21 533.61 344.78 C 535.96 362.89 537.26 380.60 541.44 398.58 C 545.43 415.80 551.64 431.63 557.89 448.09 C 561.02 456.32 564.73 464.34 568.93 472.07 C 571.61 477.08 574.87 480.99 575.06 486.95 C 575.44 500.96 575.70 515.00 576.27 529.00 C 576.36 531.61 576.21 534.20 576.08 536.80 C 569.03 536.89 562.04 536.20 555.00 536.05 C 539.36 535.69 523.67 536.03 508.05 535.31 C 498.61 534.88 489.18 535.05 479.76 534.41 C 470.83 533.82 461.94 534.05 453.00 533.97 C 424.33 533.80 395.67 533.92 367.00 534.00 C 358.32 534.02 349.68 534.85 341.00 534.97 C 329.33 535.15 317.67 535.71 306.00 535.83 C 294.96 536.04 283.87 535.84 272.91 536.70 C 268.65 537.06 264.40 537.02 260.13 536.77 C 259.82 531.54 260.03 526.34 260.38 521.11 C 261.02 510.94 260.97 500.76 261.48 490.59 C 261.76 485.47 261.52 480.87 264.32 476.34 C 271.37 464.76 277.08 452.39 281.60 439.61 C 286.37 426.22 291.44 412.70 294.91 398.91 C 297.69 387.10 299.27 374.90 300.86 362.88 C 301.69 357.16 302.06 351.46 303.51 345.84 C 304.25 349.43 304.71 353.45 306.18 356.81 C 308.38 361.62 312.01 365.75 316.63 368.37 C 327.51 374.65 342.16 372.82 351.40 364.39 C 360.17 356.62 363.48 343.73 359.28 332.74 C 357.81 328.37 354.45 325.55 352.42 321.61 C 351.05 318.14 351.28 313.80 351.17 310.12 C 358.13 309.48 365.03 309.92 372.00 309.88 C 399.35 309.92 426.66 310.18 454.00 309.24 Z" fill="#fff8c9"/>
<path d="M 502.44 332.41 C 507.45 331.58 513.36 333.38 515.95 338.02 C 519.19 343.91 516.54 351.73 510.41 354.47 C 503.56 357.60 494.65 353.24 493.23 345.74 C 491.91 339.47 496.08 333.35 502.44 332.41 Z" fill="#fff8c9"/>
<path d="M 325.44 333.44 C 329.19 332.11 334.20 332.08 337.54 334.47 C 342.32 337.85 343.41 344.77 340.76 349.80 C 337.88 355.12 329.98 357.22 324.76 354.26 C 319.98 351.64 318.03 346.25 318.85 341.02 C 319.34 337.34 322.11 334.74 325.44 333.44 Z" fill="#fff8c9"/>
<path d="M 354.96 388.23 C 393.64 388.43 432.32 388.04 471.00 388.16 C 476.48 388.23 482.15 387.75 487.58 388.53 C 491.09 389.04 494.20 390.90 496.12 393.90 C 498.11 396.87 498.02 400.56 498.08 403.99 C 498.02 410.99 497.89 417.99 498.08 425.00 C 498.75 438.34 498.98 451.64 498.91 465.00 C 498.85 474.83 499.51 485.84 496.24 495.23 C 493.79 502.45 488.36 508.28 481.44 511.44 C 474.34 514.69 465.69 515.07 458.00 515.06 C 428.99 515.00 399.98 515.14 370.97 515.05 C 364.76 514.92 358.63 514.02 353.19 510.82 C 345.48 506.15 340.29 497.81 339.25 488.88 C 337.96 478.13 338.09 466.82 338.02 456.00 C 337.93 439.32 338.13 422.66 337.85 405.99 C 337.84 401.04 338.12 396.49 341.72 392.73 C 345.27 388.78 349.93 388.25 354.96 388.23 Z" fill="#fede7e"/>
<path d="M 366.00 402.84 C 399.69 403.40 433.32 402.99 467.00 403.09 C 472.32 403.04 477.62 402.95 482.93 403.22 C 483.19 407.49 483.25 411.72 483.13 416.00 C 482.97 430.34 483.53 444.66 483.18 459.00 C 482.95 467.20 483.21 475.70 481.77 483.79 C 480.69 489.71 477.37 495.13 471.94 497.94 C 467.58 500.21 461.80 500.04 457.00 500.13 C 437.31 500.06 417.67 499.79 397.98 500.23 C 389.31 500.44 380.61 501.21 371.95 501.04 C 368.08 501.00 364.61 499.89 361.73 497.28 C 356.83 493.09 355.15 486.94 354.36 480.79 C 352.32 461.16 353.34 442.39 352.47 422.76 C 352.36 416.15 351.56 409.17 352.52 402.71 C 357.08 402.38 361.43 402.71 366.00 402.84 Z" fill="#fff8c9"/>
<path d="M 383.00 549.06 C 404.00 549.15 425.00 549.04 446.00 549.24 C 467.33 549.57 488.68 549.38 510.01 549.40 C 514.35 549.29 518.49 549.52 522.78 550.13 C 523.23 552.04 523.75 553.93 524.17 555.85 C 526.87 570.64 533.73 584.98 543.87 596.11 C 553.73 606.41 565.95 614.02 579.39 618.71 C 580.32 625.15 579.90 631.56 580.30 638.03 C 581.03 648.69 580.90 659.36 581.30 670.03 C 581.99 680.34 581.91 690.67 582.75 700.98 C 585.61 769.28 588.43 837.59 591.35 905.89 C 592.52 927.92 593.47 949.98 594.29 972.03 C 594.69 980.74 595.47 989.07 594.92 997.77 C 585.63 998.36 576.32 998.10 567.03 998.71 C 539.65 999.48 512.33 1001.23 484.97 1002.64 C 480.06 1003.03 475.21 1003.15 470.28 1002.78 C 465.67 976.19 461.72 949.45 458.39 922.67 C 452.07 882.56 446.34 842.35 440.88 802.12 C 436.90 774.34 433.14 746.54 429.35 718.74 C 428.53 712.71 428.24 706.32 426.51 700.48 C 425.64 697.57 424.03 695.04 421.12 693.84 C 416.78 691.97 411.50 694.53 410.00 698.96 C 407.66 705.81 407.68 713.57 406.61 720.71 C 400.72 765.76 394.32 810.84 387.79 855.80 C 381.22 898.61 374.80 941.38 368.15 984.16 C 367.17 990.37 366.88 996.65 365.77 1002.85 C 362.18 1003.14 358.60 1003.31 355.00 1003.11 C 323.62 1001.45 292.37 998.94 260.96 997.83 C 254.30 997.50 247.72 997.28 241.17 995.92 C 241.74 981.29 242.09 966.65 242.83 952.02 C 243.25 934.33 244.58 916.66 245.12 898.98 C 246.65 870.01 247.66 840.98 248.94 811.99 C 248.89 802.97 249.94 794.02 250.05 785.00 C 251.56 749.34 252.73 713.69 254.77 678.04 C 255.16 667.04 255.18 656.04 255.76 645.04 C 256.26 636.16 255.77 627.08 257.20 618.35 C 262.50 616.03 267.52 614.36 272.36 611.38 C 281.01 606.13 288.81 600.04 294.74 591.75 C 299.66 584.81 304.49 577.40 307.36 569.37 C 309.68 563.15 310.51 556.67 312.40 550.30 C 314.25 550.09 316.10 549.83 317.96 549.71 C 339.65 548.99 361.30 549.06 383.00 549.06 Z" fill="#fff8c9"/>
<path d="M 296.60 550.29 C 295.69 564.96 287.46 579.13 277.95 589.99 C 272.49 596.20 264.87 600.19 257.12 602.82 C 256.89 596.52 257.60 590.30 257.86 584.02 C 258.15 573.35 258.86 562.70 259.21 552.03 C 266.20 550.38 272.88 551.28 279.98 550.69 C 285.53 550.28 291.03 549.81 296.60 550.29 Z" fill="#fff8c9"/>
<path d="M 538.90 550.13 C 551.43 549.47 564.07 550.93 576.62 551.35 C 577.59 558.54 577.85 565.76 578.01 573.00 C 578.16 583.02 579.47 592.86 578.95 602.90 C 571.81 600.82 565.06 597.56 559.85 592.14 C 549.19 580.40 539.58 566.53 538.90 550.13 Z" fill="#fff8c9"/>
<path d="M 241.25 1011.34 C 245.74 1010.86 250.46 1011.50 254.97 1011.72 C 281.97 1013.26 308.95 1015.35 335.95 1016.74 C 345.21 1017.31 354.47 1016.86 363.72 1017.32 C 363.04 1025.51 362.12 1033.77 360.72 1041.87 C 353.02 1042.76 345.70 1041.57 338.03 1041.19 C 330.28 1040.75 322.72 1041.11 314.99 1040.93 C 290.11 1039.78 265.25 1038.31 240.40 1036.54 C 239.60 1028.38 239.82 1019.41 241.25 1011.34 Z" fill="#fff8c9"/>
<path d="M 595.44 1011.55 C 596.54 1019.79 596.87 1028.44 596.87 1036.76 C 589.27 1037.56 581.64 1037.74 574.02 1038.28 C 559.66 1039.16 545.34 1040.71 530.96 1041.17 C 523.97 1041.53 517.01 1042.06 510.00 1042.11 C 498.55 1042.27 487.01 1043.14 475.57 1042.45 C 473.98 1034.16 473.03 1025.65 472.20 1017.25 C 483.08 1016.26 494.07 1016.34 505.00 1015.94 C 530.67 1014.69 556.31 1013.08 582.00 1011.96 C 586.49 1011.78 591.00 1011.39 595.44 1011.55 Z" fill="#fff8c9"/>
</svg>