<?xml version="1.0" encoding="UTF-8" standalone="no"?>
<!DOCTYPE svg PUBLIC "-//W3C//DTD SVG 1.1//EN" "http://www.w3.org/Graphics/SVG/1.1/DTD/svg11.dtd">
<svg xmlns="http://www.w3.org/2000/svg" version="1.1" viewBox="0 0 836 1254" width="836.0pt" height="1254.0pt">
<path d="M 395.47 286.66 C 405.96 286.11 416.49 286.15 426.99 286.23 C 447.86 286.42 468.74 290.07 488.61 296.38 C 500.45 299.69 511.31 305.17 519.84 314.17 C 524.04 318.73 525.70 325.05 527.09 330.93 C 529.47 342.06 531.09 353.61 530.99 365.00 C 531.09 373.01 530.00 380.72 529.39 388.70 C 540.94 391.96 552.72 394.16 564.16 397.86 C 578.90 402.64 593.47 409.05 606.46 417.55 C 613.81 422.47 620.58 427.91 626.25 434.75 C 637.09 447.79 646.21 462.08 653.78 477.24 C 663.89 496.85 670.46 518.23 672.75 540.18 C 673.64 546.43 673.20 554.06 676.41 559.57 C 678.43 563.24 680.67 566.76 682.42 570.58 C 691.29 589.92 697.40 610.47 700.44 631.53 C 701.45 639.94 702.23 648.54 701.80 657.02 C 701.61 661.33 700.87 665.60 700.74 669.91 C 700.46 674.31 703.52 678.76 705.27 682.69 C 718.93 712.58 726.00 745.09 723.93 778.02 C 723.61 782.43 722.55 786.79 722.37 791.20 C 722.24 794.79 723.45 798.00 724.62 801.33 C 730.09 816.34 733.14 832.06 734.17 847.99 C 735.52 861.36 734.63 874.65 733.04 887.95 C 732.38 892.49 731.50 897.91 728.59 901.60 C 725.66 905.31 720.57 907.53 716.29 909.29 C 701.57 915.04 686.15 919.27 670.75 922.76 C 663.51 924.19 655.82 925.91 648.42 925.44 C 642.63 925.02 639.41 921.08 636.29 916.70 C 627.41 903.54 621.51 889.12 617.06 873.94 C 611.94 857.49 608.31 840.66 603.66 824.09 C 601.96 828.20 599.77 832.70 599.35 837.16 C 599.10 841.34 601.00 845.87 602.04 849.89 C 605.72 863.86 607.99 878.14 608.55 892.58 C 609.51 904.47 608.48 916.18 607.88 928.05 C 607.29 937.36 606.45 947.00 604.13 956.07 C 603.05 959.98 601.83 963.89 598.66 966.65 C 594.79 969.97 589.84 972.22 585.17 974.18 C 571.64 979.64 556.61 982.61 542.28 985.28 C 527.27 987.44 512.11 988.80 497.00 990.07 C 477.41 991.38 457.63 993.38 438.00 993.13 C 420.33 993.14 402.67 993.16 385.00 993.08 C 375.94 993.05 367.04 992.27 357.99 991.77 C 344.41 991.00 331.04 989.70 317.62 987.44 C 295.84 984.68 275.06 982.11 254.11 974.90 C 249.00 972.97 243.58 971.02 239.03 967.96 C 235.57 965.63 233.88 962.10 232.77 958.21 C 228.27 941.49 227.72 925.18 227.07 908.00 C 227.16 887.97 228.45 868.31 234.03 848.96 C 235.02 845.27 236.71 841.08 236.44 837.23 C 235.95 832.74 233.99 828.29 232.48 824.05 C 230.96 828.23 229.71 832.43 228.73 836.77 C 224.79 853.26 220.77 870.01 214.92 885.93 C 210.94 896.39 206.05 906.59 200.07 916.05 C 196.92 920.74 193.65 925.01 187.53 925.39 C 177.51 925.85 166.96 923.08 157.26 920.78 C 144.08 917.60 130.92 913.80 118.36 908.66 C 113.09 906.38 108.12 903.88 105.63 898.38 C 102.79 891.91 102.56 883.97 101.96 877.00 C 100.09 854.59 101.90 831.59 107.88 809.89 C 109.15 805.08 111.36 800.67 112.91 795.98 C 114.41 791.43 113.39 786.64 112.88 782.02 C 111.68 773.14 111.60 764.17 112.30 755.25 C 113.65 731.69 119.86 709.31 128.41 687.44 C 130.05 683.22 132.35 679.31 134.04 675.12 C 135.61 671.26 134.97 667.30 134.64 663.27 C 133.31 651.58 134.28 639.47 135.81 627.84 C 139.27 606.69 145.80 585.74 155.73 566.71 C 157.85 562.64 161.05 558.44 161.91 553.93 C 162.83 549.17 162.84 544.23 163.46 539.41 C 166.13 515.11 175.12 491.07 186.58 469.59 C 194.57 455.22 203.97 441.27 215.34 429.35 C 223.41 420.80 234.12 414.78 244.51 409.48 C 260.65 401.02 278.67 395.43 296.40 391.42 C 299.80 390.60 303.15 389.66 306.52 388.73 C 305.98 380.73 304.97 372.97 304.96 365.00 C 304.80 353.52 306.31 341.99 308.78 330.79 C 310.22 324.85 311.80 318.70 316.12 314.12 C 321.44 308.57 327.95 304.08 334.97 300.95 C 354.28 292.42 374.53 288.42 395.47 286.66 Z" fill="#f9b179" />
<path d="M 438.02 302.94 C 454.03 303.65 469.98 306.82 485.19 311.80 C 494.14 314.74 502.50 318.78 508.98 325.79 C 501.94 334.58 492.92 341.81 482.88 346.90 C 471.62 352.65 459.68 356.93 447.22 359.20 C 425.92 363.06 403.99 362.92 382.84 358.15 C 371.55 355.53 360.66 351.09 350.54 345.48 C 341.67 340.45 333.01 333.74 327.20 325.27 C 332.83 319.79 339.11 316.14 346.47 313.46 C 360.58 308.37 375.45 304.90 390.38 303.43 C 406.41 302.03 421.98 302.53 438.02 302.94 Z" fill="#ffe1bb" />
<path d="M 322.26 345.36 C 326.06 347.95 329.39 351.19 333.16 353.84 C 340.42 359.00 348.60 362.98 356.94 366.06 C 369.19 370.51 381.26 374.25 394.29 375.59 C 399.48 376.07 404.67 376.51 409.84 377.15 C 410.33 385.78 409.94 394.37 410.04 403.00 C 409.97 412.00 410.27 420.99 409.88 429.99 C 399.47 430.36 389.38 428.88 379.21 426.79 C 363.79 423.35 348.45 416.84 336.06 406.92 C 332.48 403.98 328.75 400.76 326.10 396.91 C 323.61 393.27 322.99 388.77 322.47 384.49 C 321.11 371.50 321.20 358.36 322.26 345.36 Z" fill="#ffe1bb" />
<path d="M 513.20 345.63 C 515.16 356.54 514.68 368.00 513.94 379.02 C 513.31 385.75 512.96 393.01 508.49 398.48 C 499.80 408.89 488.55 415.96 476.10 421.08 C 460.43 427.32 442.99 430.31 426.15 429.96 C 425.78 420.64 426.08 411.33 426.00 402.00 C 426.06 393.71 425.76 385.45 426.19 377.16 C 436.95 375.92 447.47 375.95 458.01 372.99 C 471.69 369.18 485.68 364.25 497.87 356.87 C 503.40 353.60 507.99 349.32 513.20 345.63 Z" fill="#ffe1bb" />
<path d="M 311.47 405.51 C 313.60 406.91 315.30 409.12 317.01 410.99 C 321.51 416.24 326.99 420.43 332.68 424.32 C 350.33 435.97 370.76 442.87 391.71 445.34 C 397.73 445.93 403.77 446.25 409.77 447.05 C 410.25 456.71 409.83 466.33 409.94 476.00 C 409.82 502.04 410.05 528.08 409.78 554.11 C 405.85 554.35 401.93 554.56 398.00 554.51 C 351.01 554.12 303.98 555.02 257.01 553.73 C 255.57 546.12 255.43 538.42 254.28 530.78 C 252.85 520.73 251.26 510.69 249.27 500.73 C 246.58 487.64 244.98 474.56 241.37 461.65 C 238.93 452.04 235.62 442.84 233.86 433.10 C 242.60 426.74 253.59 422.68 263.54 418.53 C 276.52 413.04 289.74 409.68 303.36 406.29 C 305.90 405.77 308.90 404.94 311.47 405.51 Z" fill="#ffe1bb" />
<path d="M 524.55 405.53 C 527.64 404.94 531.19 406.07 534.22 406.71 C 547.70 410.15 560.73 413.15 573.70 418.29 C 583.47 422.14 593.68 426.36 601.84 433.06 C 600.80 437.81 599.62 442.51 598.22 447.17 C 590.11 478.00 583.92 509.24 581.13 541.03 C 580.79 545.22 580.23 549.38 579.63 553.54 C 569.45 554.22 559.21 554.12 549.00 554.33 C 513.67 554.54 478.33 554.36 443.00 554.45 C 437.36 554.59 431.77 554.51 426.14 554.12 C 425.92 548.08 425.92 542.04 426.00 536.00 C 426.00 514.67 426.00 493.33 426.00 472.00 C 426.06 463.69 425.76 455.40 426.18 447.09 C 430.45 446.67 434.72 446.31 439.00 446.03 C 452.80 445.10 466.36 442.09 479.35 437.34 C 492.58 432.56 505.19 425.12 515.33 415.33 C 518.59 412.28 521.03 408.23 524.55 405.53 Z" fill="#ffe1bb" />
<path d="M 220.65 447.34 C 222.43 454.54 224.01 461.79 226.10 468.92 C 229.59 480.87 231.62 492.91 233.85 505.14 C 237.86 527.94 241.44 549.94 239.75 573.21 C 231.06 571.90 223.09 568.81 214.73 566.25 C 202.42 562.22 189.90 558.18 178.19 552.60 C 178.35 548.14 178.58 543.70 179.35 539.30 C 182.22 522.62 187.56 506.72 194.18 491.18 C 198.25 481.07 203.81 471.84 209.75 462.74 C 213.17 457.54 216.67 452.12 220.65 447.34 Z" fill="#ffe1bb" />
<path d="M 615.18 447.97 C 618.74 451.28 621.68 455.59 624.39 459.61 C 630.56 468.73 635.86 478.49 640.56 488.44 C 644.88 497.91 648.87 507.29 651.66 517.34 C 654.87 528.75 657.52 540.80 657.86 552.67 C 650.44 556.40 642.64 559.05 634.84 561.83 C 622.39 566.24 609.71 569.99 596.98 573.49 C 594.70 559.40 596.94 546.34 598.31 532.26 C 600.89 511.28 604.32 490.11 609.66 469.67 C 611.61 462.48 612.77 455.01 615.18 447.97 Z" fill="#ffe1bb" />
<path d="M 173.32 568.25 C 175.99 568.61 178.66 569.77 181.13 570.81 C 194.94 576.93 209.30 581.89 223.75 586.25 C 228.95 587.64 234.09 589.09 239.13 590.99 C 239.19 606.66 238.82 622.33 239.02 638.00 C 239.01 651.03 238.82 664.01 240.12 677.00 C 240.69 685.14 242.99 692.87 244.00 700.95 C 239.12 700.46 234.31 699.70 229.56 698.46 C 212.75 694.46 195.76 689.70 179.68 683.34 C 172.33 680.54 165.30 677.13 158.08 673.99 C 156.07 672.98 153.33 671.92 152.04 669.98 C 150.79 667.56 150.48 664.54 150.20 661.85 C 149.39 651.45 150.08 641.08 151.80 630.80 C 154.72 611.97 160.50 593.76 168.44 576.45 C 169.78 573.64 171.22 570.57 173.32 568.25 Z" fill="#ffe1bb" />
<path d="M 257.39 568.44 C 263.03 567.37 269.16 568.12 274.87 568.36 C 284.82 569.05 294.78 568.97 304.74 569.44 C 321.45 570.23 338.15 569.79 354.87 570.42 C 373.17 571.04 391.52 570.29 409.82 571.03 C 409.97 576.36 410.01 581.67 409.91 587.00 C 409.82 623.94 410.03 660.91 409.75 697.84 C 401.16 698.26 392.59 697.93 384.00 698.01 C 364.33 698.03 344.67 698.00 325.00 698.03 C 317.99 698.06 311.03 697.46 304.03 697.14 C 293.58 696.74 283.11 696.25 272.68 695.44 C 269.00 695.07 265.01 694.77 261.55 693.42 C 259.31 692.84 258.85 689.58 258.32 687.68 C 256.08 675.72 255.92 663.18 255.22 651.04 C 254.50 629.74 254.89 608.26 255.79 587.01 C 256.13 580.94 255.69 574.30 257.39 568.44 Z" fill="#ffe1bb" />
<path d="M 579.73 568.16 C 581.17 579.63 580.82 591.06 581.44 602.58 C 582.48 623.37 581.92 644.11 580.68 664.87 C 580.03 674.39 579.67 683.70 576.87 692.89 C 572.68 693.98 568.51 694.99 564.18 695.33 C 551.31 696.45 538.31 696.63 525.42 697.49 C 520.29 697.84 515.15 698.05 510.00 698.02 C 488.33 697.97 466.67 698.02 445.00 698.01 C 438.71 698.09 432.44 698.13 426.16 697.87 C 425.78 689.24 426.06 680.63 426.00 672.00 C 426.00 646.67 426.00 621.33 426.00 596.00 C 426.05 587.67 425.79 579.35 426.15 571.01 C 431.77 570.71 437.37 570.63 443.00 570.74 C 458.67 570.75 474.34 570.76 490.00 570.24 C 499.34 569.91 508.67 570.01 518.00 569.92 C 528.01 569.84 537.99 569.14 548.00 569.04 C 558.63 568.95 569.07 567.43 579.73 568.16 Z" fill="#ffe1bb" />
<path d="M 662.89 568.23 C 667.13 574.96 670.02 582.62 673.03 589.97 C 679.56 607.65 684.23 626.29 685.74 645.12 C 686.20 652.09 686.33 659.26 685.25 666.18 C 684.84 668.10 684.50 670.54 682.74 671.72 C 678.88 674.39 674.16 675.93 669.91 677.92 C 648.67 687.53 626.70 693.75 604.06 699.06 C 600.12 699.97 596.12 700.50 592.11 700.97 C 593.31 693.23 595.37 685.81 596.03 677.99 C 597.94 658.41 597.81 638.55 597.76 619.00 C 597.88 609.71 596.83 600.48 597.18 591.18 C 600.67 589.93 604.16 588.68 607.73 587.67 C 620.92 583.98 633.92 579.63 646.70 574.70 C 652.12 572.62 657.41 569.95 662.89 568.23 Z" fill="#ffe1bb" />
<path d="M 147.02 687.08 C 150.07 688.23 152.96 689.64 155.89 691.09 C 165.02 695.74 174.95 699.08 184.64 702.36 C 202.05 708.20 219.89 712.18 237.93 715.44 C 237.05 723.18 234.37 730.41 233.04 738.05 C 231.13 747.96 230.25 757.98 229.82 768.05 C 229.21 779.84 226.02 791.59 223.00 802.96 C 221.67 807.15 220.54 812.38 217.58 815.73 C 213.20 816.71 208.03 815.27 203.70 814.35 C 179.96 809.08 156.81 801.60 134.81 791.19 C 132.19 789.87 130.24 788.40 129.72 785.34 C 126.67 769.67 128.16 752.37 130.70 736.70 C 132.42 725.80 135.87 715.66 139.21 705.20 C 141.32 698.81 143.23 692.72 147.02 687.08 Z" fill="#ffe1bb" />
<path d="M 688.94 687.58 C 696.76 699.70 700.51 715.27 703.82 729.17 C 707.42 743.85 708.88 758.94 708.21 774.04 C 707.95 778.12 707.66 782.48 706.33 786.38 C 705.42 789.62 701.21 791.15 698.48 792.53 C 675.96 802.57 652.21 810.02 628.12 815.17 C 625.27 815.73 622.14 816.34 619.24 815.97 C 617.02 814.54 615.88 811.36 614.98 809.00 C 612.22 801.01 610.37 792.67 608.50 784.43 C 606.45 775.55 606.83 767.00 605.93 758.02 C 604.93 747.42 603.29 736.77 600.44 726.50 C 599.44 722.88 598.71 719.19 598.06 715.49 C 615.12 712.67 631.99 709.05 648.34 703.34 C 662.10 698.62 675.71 693.64 688.94 687.58 Z" fill="#ffe1bb" />
<path d="M 257.48 708.56 C 260.19 708.31 263.05 708.81 265.74 709.16 C 273.57 710.36 281.39 711.00 289.28 711.60 C 325.37 713.74 361.10 713.94 397.13 714.48 C 401.39 714.52 405.63 714.76 409.87 715.03 C 410.14 720.35 410.29 725.67 410.22 731.00 C 410.34 764.33 410.39 797.67 410.39 831.00 C 410.36 834.30 410.19 837.60 410.01 840.89 C 400.67 841.34 391.35 840.96 382.00 841.01 C 370.65 841.04 359.38 840.80 348.04 840.22 C 319.62 839.81 290.71 838.31 262.69 833.31 C 259.53 832.70 256.13 832.13 253.20 830.75 C 250.88 829.81 250.19 826.60 249.53 824.45 C 246.90 813.61 246.19 801.96 245.34 790.85 C 244.41 778.68 245.52 766.91 246.70 754.82 C 247.99 741.92 251.04 729.78 254.22 717.26 C 255.03 714.35 255.85 711.13 257.48 708.56 Z" fill="#ffe1bb" />
<path d="M 578.83 708.26 C 581.78 713.44 582.93 718.94 584.28 724.67 C 591.60 754.98 593.31 786.37 588.21 817.19 C 587.49 821.09 586.78 825.39 584.91 828.92 C 583.65 831.47 580.25 832.14 577.76 832.81 C 554.79 837.56 532.36 838.70 509.02 839.91 C 481.33 840.13 453.91 841.65 426.14 840.89 C 425.86 834.26 425.94 827.63 426.00 821.00 C 425.97 794.33 426.01 767.67 425.97 741.00 C 426.06 732.35 425.71 723.73 426.12 715.08 C 435.41 714.34 444.68 714.35 454.00 714.19 C 472.00 714.09 489.99 713.90 507.98 713.25 C 524.96 712.90 541.79 712.47 558.70 710.63 C 565.43 710.01 572.09 708.70 578.83 708.26 Z" fill="#ffe1bb" />
<path d="M 127.16 806.18 C 132.81 807.41 138.09 810.52 143.52 812.50 C 166.08 821.20 189.26 828.34 213.12 832.45 C 212.49 837.97 211.18 843.25 209.54 848.55 C 204.76 866.14 198.57 883.29 190.80 899.78 C 189.16 902.97 187.17 907.09 184.03 909.03 C 180.93 910.45 176.54 909.31 173.29 908.78 C 157.72 905.48 142.16 901.44 127.25 895.81 C 124.22 894.45 120.13 893.37 119.41 889.60 C 117.73 882.63 117.79 875.16 117.29 868.02 C 116.28 849.37 118.68 830.86 123.94 812.97 C 124.71 810.61 125.66 808.18 127.16 806.18 Z" fill="#ffe1bb" />
<path d="M 708.64 806.08 C 710.52 809.87 711.96 813.86 713.03 817.96 C 717.76 836.24 719.76 855.18 718.32 874.04 C 717.89 879.19 717.94 884.66 716.61 889.68 C 715.93 892.90 712.03 894.20 709.37 895.38 C 694.24 901.07 678.18 904.82 662.45 908.48 C 659.21 909.06 655.02 910.26 651.83 909.13 C 648.03 907.02 645.70 901.93 643.82 898.18 C 636.38 882.25 630.80 865.61 626.39 848.60 C 625.14 843.60 623.28 838.43 622.95 833.27 C 624.96 831.85 627.86 831.57 630.23 831.08 C 638.90 829.66 647.39 827.31 655.92 824.92 C 671.10 820.50 686.48 815.45 700.83 808.79 C 703.36 807.68 705.96 806.76 708.64 806.08 Z" fill="#ffe1bb" />
<path d="M 252.29 847.43 C 254.71 847.37 257.21 847.88 259.58 848.31 C 273.25 851.12 287.53 852.34 301.43 853.54 C 321.91 855.16 342.46 855.91 362.98 856.67 C 378.64 857.28 394.37 857.13 410.01 858.16 C 410.21 860.46 410.42 862.75 410.53 865.06 C 410.77 902.32 410.79 939.50 410.55 976.77 C 407.03 976.91 403.52 977.05 399.99 977.04 C 367.13 976.68 334.42 974.92 301.88 970.15 C 285.40 967.58 269.46 964.40 253.95 958.07 C 251.73 957.01 249.39 956.06 248.50 953.55 C 246.84 949.07 246.40 944.04 245.68 939.33 C 243.72 926.09 243.77 912.58 243.69 899.00 C 243.62 884.74 245.24 870.52 248.59 856.66 C 249.41 853.57 250.33 850.00 252.29 847.43 Z" fill="#ffe1bb" />
<path d="M 583.96 847.13 C 587.37 855.72 588.90 864.50 590.40 873.57 C 593.16 891.23 592.45 908.21 591.79 926.01 C 591.06 934.68 590.50 943.73 588.09 952.12 C 586.94 956.42 582.74 957.57 579.12 959.17 C 565.32 964.36 550.95 968.39 536.32 970.35 C 512.68 973.75 488.81 975.59 464.95 976.32 C 452.04 976.81 439.08 977.25 426.16 976.82 C 425.91 970.88 425.89 964.95 425.99 959.00 C 426.01 934.00 425.97 909.00 425.99 884.00 C 426.07 875.36 425.75 866.74 426.13 858.10 C 441.08 857.22 456.08 857.27 471.05 856.76 C 501.19 855.48 532.14 854.71 562.00 851.04 C 569.39 850.16 576.60 848.38 583.96 847.13 Z" fill="#ffe1bb" />
</svg>