<?xml version="1.0" encoding="UTF-8" standalone="no"?>
<!DOCTYPE svg PUBLIC "-//W3C//DTD SVG 1.1//EN" "http://www.w3.org/Graphics/SVG/1.1/DTD/svg11.dtd">
<svg xmlns="http://www.w3.org/2000/svg" version="1.1" viewBox="0 0 836 1254" width="836.0pt" height="1254.0pt">
<path d="M 379.00 469.05 C 403.67 468.32 428.33 468.60 453.00 468.98 C 474.63 469.47 496.39 471.17 517.98 472.82 C 543.37 475.27 568.66 478.68 593.75 483.26 C 616.66 487.71 640.11 492.95 662.06 500.96 C 675.24 505.88 688.42 511.68 699.50 520.51 C 706.58 526.11 712.30 533.59 714.73 542.36 C 716.58 548.84 715.98 556.29 716.02 563.00 C 716.01 596.34 715.99 629.69 716.03 663.03 C 715.88 672.31 714.20 681.86 708.33 689.33 C 702.98 696.26 695.03 700.03 687.04 703.06 C 673.50 708.06 659.54 710.94 645.34 713.28 C 637.15 714.50 631.56 719.25 623.91 721.94 C 610.62 727.06 597.11 728.09 583.00 728.43 C 579.55 728.45 576.17 728.91 572.80 729.59 C 570.86 733.73 569.34 738.74 565.17 741.18 C 559.50 744.88 551.49 744.01 545.00 744.15 C 538.53 744.00 530.46 744.91 524.83 741.19 C 520.63 738.70 519.17 733.70 517.26 729.50 C 510.02 728.58 502.65 728.56 495.36 728.42 C 494.32 736.00 494.38 743.05 492.51 750.46 C 490.42 759.02 485.54 767.12 478.45 772.45 C 473.63 776.07 468.03 778.68 462.23 780.26 C 455.14 782.22 447.34 781.72 440.00 781.76 C 398.00 781.73 356.00 781.77 314.00 781.75 C 305.88 781.70 297.64 782.15 289.70 780.30 C 275.04 777.11 261.97 768.47 255.20 754.82 C 249.87 744.61 249.47 734.22 247.62 723.16 C 241.45 721.61 235.28 721.65 229.00 720.97 C 215.27 719.56 201.59 718.45 187.97 716.05 C 174.80 714.06 162.14 711.48 149.84 706.19 C 140.27 702.01 131.22 696.49 125.53 687.46 C 120.83 680.00 119.92 671.63 119.93 663.00 C 120.02 629.00 119.96 595.00 119.98 561.00 C 120.09 552.19 118.95 543.91 122.61 535.62 C 126.91 525.56 135.38 519.00 144.47 513.46 C 164.07 501.72 187.33 494.78 209.41 489.39 C 242.22 481.22 275.38 476.49 308.98 473.13 C 332.32 471.42 355.59 469.44 379.00 469.05 Z" fill="#fdbd66" />
<path d="M 441.00 486.03 C 490.20 487.07 539.49 491.52 587.97 500.05 C 605.55 503.01 623.10 506.63 640.16 511.84 C 654.30 516.06 668.60 521.10 681.37 528.62 C 687.18 532.10 693.22 536.34 696.76 542.25 C 698.15 544.70 699.43 547.42 698.24 550.22 C 696.11 555.46 690.77 559.41 685.82 561.83 C 675.89 566.59 665.77 567.19 654.96 567.39 C 634.31 568.15 613.63 567.82 592.97 568.31 C 586.08 568.47 579.57 569.62 572.68 568.56 C 571.52 565.72 570.44 562.74 568.85 560.11 C 566.55 556.46 562.16 554.46 557.99 553.97 C 552.06 553.28 545.97 553.69 540.00 553.61 C 534.03 553.71 528.41 553.55 523.56 557.57 C 519.77 560.57 519.38 565.28 516.70 568.80 C 515.02 569.63 513.04 569.96 511.21 570.31 C 505.69 571.20 500.21 572.23 494.63 572.70 C 494.03 567.09 493.95 561.22 492.06 555.95 C 489.84 549.57 486.13 543.46 481.06 538.94 C 474.15 532.80 465.18 528.94 455.95 528.28 C 450.67 527.89 445.30 528.12 440.00 528.10 C 397.00 528.08 354.00 528.13 311.00 528.08 C 302.35 528.08 294.33 527.61 285.86 529.88 C 273.34 533.04 260.95 541.19 254.77 552.76 C 249.34 562.61 248.61 572.68 246.76 583.48 C 242.82 583.17 238.95 582.65 235.06 581.96 C 214.48 578.70 191.56 577.87 171.87 571.13 C 163.17 568.21 154.35 564.46 146.82 559.17 C 143.11 556.51 139.05 552.87 137.46 548.48 C 136.24 545.18 137.62 542.19 139.45 539.46 C 143.47 533.69 150.02 529.45 156.09 526.10 C 169.10 519.03 183.70 514.04 197.88 509.92 C 228.95 501.37 260.46 496.36 292.41 492.45 C 315.89 489.90 339.40 487.80 363.02 486.96 C 388.95 485.50 415.03 486.08 441.00 486.03 Z" fill="#ffe5a7" />
<path d="M 313.00 544.90 C 359.29 544.91 405.75 544.95 452.03 544.86 C 458.64 544.84 465.00 546.50 469.97 551.04 C 476.67 556.97 478.86 566.96 478.72 575.56 C 472.77 576.97 466.70 577.60 460.71 578.80 C 457.76 579.37 454.79 579.58 451.79 579.68 C 450.78 576.38 450.03 572.73 448.29 569.72 C 446.42 566.78 443.19 566.75 440.05 566.53 C 401.52 566.60 362.56 566.58 324.00 566.56 C 316.55 566.63 308.24 565.57 301.57 569.56 C 294.45 573.57 290.23 580.70 288.65 588.58 C 286.32 600.27 287.40 613.18 287.29 625.06 C 287.23 626.55 287.15 628.14 286.78 629.59 C 284.18 632.21 279.77 633.37 277.67 636.64 C 274.35 641.65 273.29 648.15 273.73 654.05 C 274.06 658.47 275.36 663.35 278.19 666.84 C 280.47 669.31 283.82 670.92 286.70 672.61 C 287.80 679.14 287.09 685.42 287.17 692.00 C 287.20 701.84 286.95 712.82 289.68 722.34 C 291.80 729.94 297.01 736.51 304.28 739.73 C 310.75 742.65 319.03 741.88 326.00 741.94 C 363.67 741.92 401.39 741.87 439.06 741.98 C 442.03 741.81 445.28 741.86 447.42 739.45 C 450.73 735.97 450.92 729.64 451.86 725.09 C 460.84 724.55 469.92 725.97 478.89 726.47 C 479.18 733.91 478.39 741.74 475.75 748.74 C 473.26 755.20 468.09 760.15 461.68 762.67 C 454.51 765.66 446.59 764.99 439.00 765.02 C 397.33 764.98 355.67 765.01 314.00 765.00 C 305.07 764.94 296.94 765.79 288.35 762.66 C 279.45 759.66 271.96 753.32 268.59 744.41 C 261.17 724.82 263.44 705.41 263.07 685.00 C 263.25 667.32 262.46 649.67 262.69 631.99 C 262.66 614.01 260.73 594.54 263.86 576.88 C 264.95 570.55 266.46 564.53 270.21 559.20 C 275.15 552.05 283.28 547.54 291.64 545.70 C 298.49 544.33 306.02 544.96 313.00 544.90 Z" fill="#ffe5a7" />
<path d="M 555.70 571.21 C 558.39 578.51 557.53 585.39 557.62 593.00 C 557.65 633.01 557.56 673.04 557.66 713.04 C 557.51 717.19 557.37 722.44 555.04 726.01 C 549.71 728.29 542.83 727.90 537.25 726.77 C 534.30 726.26 534.31 723.60 533.70 721.23 C 532.69 714.61 533.14 707.68 533.07 701.00 C 533.07 661.66 533.15 622.31 533.05 582.97 C 533.08 578.85 533.36 574.89 535.24 571.15 C 541.87 569.40 549.08 569.45 555.70 571.21 Z" fill="#ffe5a7" />
<path d="M 136.12 572.15 C 141.21 574.44 145.76 577.79 150.79 580.22 C 165.95 588.04 182.05 591.77 198.84 594.16 C 211.57 595.86 224.32 597.44 237.10 598.78 C 240.26 599.11 243.36 599.75 246.44 600.48 C 247.15 608.63 246.68 616.82 246.98 625.00 C 246.89 640.00 247.17 655.00 247.22 670.00 C 247.27 679.03 247.05 688.00 247.51 697.02 C 247.69 699.91 247.45 702.75 246.97 705.59 C 239.05 705.23 231.18 704.17 223.28 703.56 C 206.82 701.80 189.83 700.10 173.70 696.33 C 164.32 694.14 155.18 691.28 147.05 685.95 C 143.20 683.41 139.93 680.22 138.00 675.97 C 136.11 671.88 135.95 667.44 135.87 663.01 C 135.99 638.67 135.89 614.34 135.94 590.00 C 135.99 584.07 135.65 578.07 136.12 572.15 Z" fill="#ffe5a7" />
<path d="M 699.85 572.41 C 699.96 601.60 699.72 630.84 699.89 660.03 C 699.85 665.16 699.64 670.72 697.42 675.44 C 695.39 679.75 691.79 682.48 687.73 684.73 C 681.28 688.22 674.32 690.70 667.12 692.13 C 668.64 689.99 670.20 687.90 671.82 685.83 C 677.87 678.22 682.54 669.19 684.67 659.67 C 686.69 650.84 684.46 642.07 681.12 633.88 C 674.19 617.27 662.24 603.70 647.72 593.28 C 643.21 590.09 638.28 587.57 633.79 584.34 C 645.13 583.71 656.23 584.76 667.60 583.53 C 674.22 582.77 680.90 581.48 687.16 579.17 C 691.79 577.47 695.59 574.79 699.85 572.41 Z" fill="#ffe5a7" />
<path d="M 325.00 581.86 C 355.66 581.96 386.34 581.84 417.00 581.89 C 424.02 581.92 430.99 581.54 438.00 582.16 C 437.72 582.90 437.43 583.63 437.15 584.37 C 424.11 585.61 410.95 585.74 397.87 586.65 C 374.48 587.99 351.43 587.58 328.00 587.70 C 320.84 587.64 313.79 588.11 306.65 587.64 C 307.67 585.88 308.43 583.27 310.57 582.63 C 315.08 581.31 320.32 581.92 325.00 581.86 Z" fill="#ffe5a7" />
<path d="M 517.63 585.46 C 517.71 623.24 517.62 661.20 517.65 699.00 C 517.74 703.64 517.77 708.28 517.56 712.92 C 514.37 713.17 511.19 713.36 507.99 713.16 C 497.21 712.46 486.44 711.49 475.68 710.48 C 459.74 709.34 443.77 708.55 427.83 707.35 C 420.53 706.79 413.30 707.02 406.00 707.00 C 378.33 707.00 350.67 707.00 323.00 707.00 C 316.47 706.96 310.00 707.30 303.48 706.71 C 303.11 699.47 303.59 692.24 303.41 685.00 C 303.30 680.75 303.29 676.52 303.45 672.27 C 311.29 671.63 319.11 672.11 327.00 672.01 C 332.47 671.92 338.26 672.53 343.65 671.53 C 348.17 670.55 351.06 666.74 352.63 662.63 C 355.45 654.90 355.25 645.84 351.59 638.41 C 349.91 635.11 347.46 632.23 343.74 631.28 C 338.39 630.06 332.47 630.62 327.00 630.55 C 319.16 630.47 311.31 630.84 303.48 630.50 C 303.27 621.16 303.29 611.70 303.48 602.36 C 310.67 601.78 317.80 602.22 325.00 602.15 C 344.33 602.08 363.67 602.28 383.00 602.04 C 410.83 602.02 438.78 598.94 466.18 594.19 C 483.36 591.51 500.42 587.93 517.63 585.46 Z" fill="#ffe5a7" />
<path d="M 573.49 586.41 C 579.13 585.71 585.08 586.55 590.68 587.35 C 614.59 591.00 637.09 602.68 653.21 620.80 C 660.24 628.66 665.82 638.35 668.35 648.63 C 669.84 654.88 666.94 660.76 664.21 666.21 C 654.52 684.73 636.68 699.02 617.23 706.24 C 605.94 710.51 594.89 710.96 583.03 712.04 C 579.83 712.32 576.63 712.40 573.42 712.42 C 573.06 707.28 573.13 702.15 573.21 697.00 C 573.23 665.33 573.20 633.67 573.23 602.00 C 573.28 596.84 572.83 591.53 573.49 586.41 Z" fill="#ffe5a7" />
<path d="M 441.42 629.48 C 446.78 628.27 452.76 628.77 457.67 631.31 C 465.98 635.59 471.04 644.54 469.84 653.91 C 468.81 665.09 459.74 674.08 448.43 674.53 C 436.13 675.57 425.34 666.00 424.27 653.85 C 423.11 642.72 430.50 632.05 441.42 629.48 Z" fill="#fdbd66" />
<path d="M 611.41 629.44 C 618.08 627.88 625.16 629.19 630.64 633.35 C 638.56 639.05 641.87 650.29 638.43 659.40 C 635.32 667.96 627.59 674.03 618.41 674.50 C 605.94 675.71 594.80 665.19 594.23 652.89 C 593.48 642.11 600.87 631.91 611.41 629.44 Z" fill="#fdbd66" />
<path d="M 616.31 645.52 C 620.62 645.16 624.32 649.44 622.83 653.68 C 621.47 658.31 615.21 659.59 612.18 655.81 C 608.99 651.89 611.41 646.22 616.31 645.52 Z" fill="#ffe5a7" />
<path d="M 444.47 646.36 C 448.25 644.80 452.27 646.50 453.30 650.54 C 454.35 655.64 448.49 660.04 443.95 657.08 C 439.86 654.49 439.97 648.43 444.47 646.36 Z" fill="#ffe5a7" />
<path d="M 290.23 647.18 C 296.37 646.27 302.80 646.92 309.00 646.80 C 318.60 647.03 328.28 646.26 337.83 647.17 C 338.04 650.12 338.07 652.99 337.94 655.93 C 330.27 656.61 322.69 656.11 315.00 656.22 C 306.67 656.09 298.39 656.66 290.13 655.92 C 289.98 652.99 289.68 650.09 290.23 647.18 Z" fill="#ffe5a7" />
<path d="M 307.73 722.58 C 313.50 722.16 319.23 722.42 325.00 722.42 C 355.67 722.43 386.33 722.42 417.00 722.43 C 423.74 722.46 430.34 721.97 437.04 723.09 C 436.90 724.24 436.88 725.38 436.98 726.51 C 397.01 726.72 356.92 726.42 316.94 726.66 C 315.04 726.57 312.87 726.53 311.10 725.77 C 309.81 724.96 308.77 723.67 307.73 722.58 Z" fill="#ffe5a7" />
</svg>