<?xml version="1.0" encoding="UTF-8" standalone="no"?>
<!DOCTYPE svg PUBLIC "-//W3C//DTD SVG 1.1//EN" "http://www.w3.org/Graphics/SVG/1.1/DTD/svg11.dtd">
<svg xmlns="http://www.w3.org/2000/svg" version="1.1" viewBox="0 0 1024 1024" width="1024.0pt" height="1024.0pt">
<path d="M 259.03 300.91 C 273.44 303.21 287.47 307.62 301.02 312.97 C 309.49 316.18 317.69 320.03 325.67 324.31 C 338.67 331.30 351.67 338.09 364.34 345.66 C 379.25 354.69 394.14 363.24 407.46 374.54 C 418.30 382.97 428.82 391.78 438.86 401.15 C 440.60 402.67 442.52 404.70 444.77 405.40 C 447.29 404.15 449.51 402.35 452.00 401.01 C 457.23 398.18 463.05 396.94 468.98 396.88 C 494.65 396.51 520.32 397.00 546.00 396.89 C 555.17 397.07 565.55 397.39 573.52 402.48 C 575.45 403.48 577.60 405.32 579.78 405.54 C 581.81 404.50 583.58 402.79 585.27 401.27 C 595.32 391.90 605.92 383.14 616.95 374.94 C 628.74 365.98 640.81 357.03 653.71 349.71 C 673.85 337.92 694.26 326.18 715.52 316.51 C 726.47 311.49 737.74 307.66 749.30 304.31 C 760.10 301.37 770.74 299.45 781.93 301.11 C 793.72 302.64 804.29 309.13 811.64 318.37 C 816.57 324.63 821.14 331.55 823.91 339.06 C 828.97 354.07 831.55 368.94 834.58 384.40 C 836.64 395.48 838.77 406.52 840.41 417.68 C 841.82 427.39 843.77 436.62 844.64 446.35 C 845.71 461.86 846.78 477.46 847.38 493.00 C 847.37 506.85 847.91 520.85 846.65 534.65 C 845.72 547.69 845.18 560.80 843.70 573.79 C 839.27 606.16 833.61 638.40 826.24 670.23 C 823.64 682.36 818.20 693.87 810.77 703.77 C 803.34 713.53 792.93 720.85 780.58 722.51 C 765.67 724.36 752.33 719.98 738.32 715.66 C 729.28 712.55 720.04 709.56 711.29 705.70 C 701.31 701.25 691.52 696.40 682.04 690.94 C 673.87 686.11 665.46 681.70 657.47 676.54 C 645.08 669.09 634.08 660.16 622.72 651.27 C 615.56 645.47 608.43 639.58 601.70 633.29 C 595.56 627.10 589.38 620.95 583.17 614.82 C 581.04 612.77 578.72 610.27 575.99 609.07 C 572.86 610.01 570.00 611.77 566.92 612.89 C 561.15 615.05 555.08 615.17 549.00 615.24 C 527.00 615.35 505.00 615.12 483.00 615.11 C 474.61 615.12 465.55 614.92 457.44 612.54 C 453.92 611.54 450.76 609.52 447.24 608.57 C 444.19 610.56 441.74 613.60 439.14 616.14 C 432.67 622.63 426.32 629.35 419.41 635.38 C 410.86 642.55 402.22 649.63 393.25 656.26 C 385.30 662.28 377.38 668.56 369.06 674.06 C 361.46 678.90 353.45 683.11 345.71 687.71 C 339.40 691.47 333.23 695.34 326.66 698.66 C 306.90 708.45 287.41 717.05 265.75 721.80 C 256.05 723.77 246.30 724.25 236.72 721.34 C 226.82 718.81 218.59 712.60 212.37 704.62 C 206.03 696.47 201.07 687.37 198.73 677.24 C 190.49 644.27 185.06 610.50 180.08 576.90 C 178.91 569.38 178.63 561.61 177.98 554.01 C 175.83 531.50 175.51 508.58 175.95 485.99 C 176.94 468.32 177.75 450.78 180.22 433.23 C 183.46 412.09 186.71 390.98 190.99 370.03 C 193.81 354.27 197.39 336.33 207.35 323.35 C 213.42 315.21 220.79 307.22 230.45 303.45 C 239.47 300.02 249.54 299.20 259.03 300.91 Z" fill="#a38ed7" />
<path d="M 271.12 331.75 C 285.40 335.94 298.65 342.25 311.80 349.14 C 324.71 355.32 337.01 362.46 349.40 369.59 C 359.45 375.35 369.25 381.53 378.61 388.35 C 392.21 398.19 405.57 408.63 417.52 420.46 C 420.17 423.06 423.31 425.58 425.37 428.69 C 426.66 430.33 425.53 433.12 425.29 435.00 C 421.65 449.79 424.13 467.11 422.95 482.01 C 418.10 482.83 412.92 482.36 408.00 482.42 C 392.63 482.47 377.26 482.28 361.89 482.63 C 356.09 482.81 349.46 482.27 343.91 483.98 C 338.92 485.49 334.07 489.34 332.63 494.50 C 331.12 500.13 335.21 506.19 339.65 509.28 C 344.41 512.03 350.57 512.78 355.98 512.87 C 374.31 512.84 392.66 512.92 411.00 512.88 C 414.93 512.88 419.02 512.66 422.92 513.18 C 423.89 518.28 423.29 523.81 423.36 529.00 C 423.43 541.01 423.32 553.02 423.32 565.03 C 423.26 571.23 424.53 577.17 426.12 583.13 C 426.36 584.67 427.26 586.89 426.20 588.25 C 423.49 592.04 419.64 595.06 416.45 598.45 C 412.21 602.91 407.66 607.00 403.01 611.03 C 384.55 627.82 364.73 643.34 343.51 656.51 C 334.89 662.11 326.05 667.35 316.81 671.88 C 303.18 679.26 289.05 685.27 274.54 690.70 C 270.41 692.26 266.13 693.22 261.79 694.02 C 256.34 695.03 251.32 696.01 245.87 694.26 C 238.92 692.35 233.68 686.67 230.55 680.39 C 227.69 674.36 225.73 667.85 224.47 661.31 C 221.81 647.99 218.51 634.86 216.29 621.47 C 214.19 609.24 211.75 597.06 210.01 584.77 C 207.20 564.89 204.81 545.06 203.68 525.00 C 203.57 514.00 203.59 503.00 203.67 492.00 C 204.56 467.94 207.00 443.97 211.02 420.23 C 213.39 403.49 216.66 386.88 220.06 370.33 C 222.31 360.39 224.54 349.34 229.21 340.22 C 232.42 334.11 238.24 329.92 245.06 328.81 C 253.85 327.53 262.80 328.66 271.12 331.75 Z" fill="#e4daff" />
<path d="M 762.18 329.11 C 769.21 328.05 778.03 327.77 784.28 331.69 C 788.81 334.22 792.43 337.90 794.40 342.74 C 801.17 358.77 803.53 377.11 807.23 393.97 C 809.53 404.75 811.21 415.64 812.78 426.55 C 814.16 435.20 815.64 443.82 816.71 452.52 C 817.59 460.20 818.01 467.98 818.65 475.70 C 819.58 486.39 819.47 497.42 819.79 508.17 C 819.93 512.53 819.64 516.87 819.55 521.22 C 819.49 537.41 817.10 554.19 815.42 570.27 C 813.01 588.86 809.63 607.41 806.02 625.80 C 803.96 638.03 801.29 650.05 798.27 662.07 C 796.10 672.89 792.54 683.49 783.89 690.89 C 778.90 695.34 771.20 694.68 765.00 694.20 C 751.78 692.43 738.73 686.66 726.54 681.51 C 701.60 670.21 676.99 657.59 655.29 640.72 C 642.34 631.16 630.11 620.68 618.43 609.60 C 613.29 605.00 608.49 600.23 603.93 595.04 C 601.58 592.28 598.46 589.93 596.56 586.85 C 596.74 584.34 597.56 581.84 598.06 579.38 C 600.31 568.93 599.92 558.60 599.85 548.00 C 599.68 539.33 599.90 530.67 599.77 522.00 C 599.76 519.10 599.74 516.09 600.21 513.23 C 605.41 512.60 610.77 513.02 616.00 512.94 C 635.03 512.91 654.02 512.91 673.04 512.90 C 678.24 512.88 683.18 511.73 686.96 507.96 C 690.12 504.86 690.36 499.66 689.24 495.63 C 687.84 491.44 683.93 487.99 680.23 485.79 C 674.31 482.22 665.69 483.16 659.00 482.98 C 644.99 482.60 631.01 483.12 617.00 482.98 C 611.41 482.90 605.69 483.45 600.15 482.79 C 599.24 476.97 599.77 470.88 599.63 465.00 C 599.45 454.27 600.14 443.66 598.71 432.98 C 598.11 429.40 600.07 427.63 602.42 425.38 C 607.17 421.14 611.55 416.50 616.37 412.34 C 629.06 401.52 641.86 391.07 655.59 381.58 C 672.74 369.98 691.26 359.89 709.87 350.85 C 719.67 345.72 729.85 341.50 739.88 336.88 C 746.97 333.51 754.54 330.88 762.18 329.11 Z" fill="#e4daff" />
<path d="M 477.00 424.57 C 494.34 424.62 511.66 424.58 529.00 424.59 C 536.82 424.63 544.00 424.02 551.65 426.18 C 556.98 427.61 563.19 429.82 566.28 434.72 C 569.39 439.88 569.42 447.15 569.42 453.00 C 569.36 486.00 569.42 519.00 569.40 552.00 C 569.45 558.45 569.72 564.65 568.32 571.00 C 567.48 574.67 566.63 579.10 563.59 581.61 C 559.14 585.36 553.70 586.43 548.01 586.43 C 525.68 586.31 503.34 586.52 481.00 586.29 C 474.85 586.22 467.81 586.20 461.99 584.03 C 458.55 582.78 456.97 579.10 456.05 575.84 C 454.25 568.78 453.77 561.26 453.79 554.00 C 453.80 523.66 453.90 493.33 453.75 463.00 C 453.66 455.67 454.08 448.32 455.03 441.06 C 455.64 436.45 457.61 431.30 461.22 428.22 C 465.41 425.03 471.92 424.65 477.00 424.57 Z" fill="#e4daff" />
</svg>