<?xml version="1.0" encoding="UTF-8" standalone="no"?>
<!DOCTYPE svg PUBLIC "-//W3C//DTD SVG 1.1//EN" "http://www.w3.org/Graphics/SVG/1.1/DTD/svg11.dtd">
<svg xmlns="http://www.w3.org/2000/svg" version="1.1" viewBox="0 0 1024 1024" width="1024.0pt" height="1024.0pt">
<path d="M 270.97 148.01 C 282.60 147.42 294.53 150.78 303.15 158.84 C 310.43 166.28 315.39 174.89 320.10 184.06 C 322.63 178.62 324.64 173.31 328.77 168.80 C 336.57 159.74 348.20 155.46 360.01 155.76 C 370.97 155.67 381.70 159.69 389.20 167.81 C 396.21 175.61 400.21 185.81 403.32 195.67 C 405.93 204.31 408.49 212.87 410.33 221.71 C 420.02 266.64 429.79 312.26 439.08 357.23 C 440.86 351.47 441.84 345.54 443.83 339.84 C 447.33 329.49 451.83 319.12 458.22 310.22 C 464.58 301.52 472.81 293.79 483.10 290.08 C 494.96 285.36 509.88 285.07 520.93 292.07 C 526.18 295.17 530.47 299.40 533.03 304.99 C 536.06 310.56 536.67 316.51 538.44 322.47 C 542.62 324.83 546.92 326.34 550.82 329.17 C 559.49 335.35 566.07 343.81 570.63 353.38 C 573.97 360.43 576.50 367.89 578.62 375.39 C 580.08 380.32 580.55 385.29 582.51 390.07 C 584.31 382.30 585.66 374.45 587.72 366.72 C 592.40 347.26 596.51 327.65 601.15 308.17 C 606.37 286.04 610.97 263.76 616.77 241.78 C 619.39 231.74 622.29 221.26 626.95 211.95 C 632.06 202.02 640.05 193.31 651.02 190.03 C 667.20 184.74 686.89 189.96 696.93 204.08 C 700.50 208.67 701.96 213.85 703.92 219.20 C 706.45 214.31 708.66 209.33 711.73 204.74 C 716.54 197.42 722.03 190.01 730.09 186.08 C 739.28 181.69 750.18 180.32 760.08 182.90 C 768.64 185.18 776.17 190.44 781.69 197.31 C 786.38 203.12 788.99 210.72 789.85 218.07 C 790.60 224.45 789.66 230.44 789.01 236.76 C 793.32 234.20 797.11 231.47 802.00 230.02 C 810.61 227.44 820.28 226.86 828.78 230.19 C 837.41 233.52 845.23 238.93 849.93 247.07 C 855.71 256.40 857.14 267.45 855.27 278.17 C 853.36 292.49 848.99 306.06 845.28 319.95 C 850.78 316.60 856.28 313.66 862.75 312.69 C 879.87 309.63 897.54 320.05 904.05 335.97 C 908.48 345.54 907.78 356.98 904.89 366.88 C 901.35 378.87 897.50 390.77 893.67 402.67 C 883.96 433.29 874.23 463.92 864.59 494.56 C 855.90 521.83 848.58 550.05 838.89 576.89 C 833.67 589.65 828.68 602.51 823.15 615.15 C 819.69 623.45 815.96 631.62 811.39 639.38 C 801.27 656.66 789.18 673.14 777.12 689.12 C 773.46 694.06 769.37 699.06 766.58 704.56 C 762.65 712.32 761.82 722.14 760.61 730.68 C 756.37 764.58 752.40 798.91 749.84 832.98 C 749.41 839.63 745.83 845.75 739.85 848.86 C 733.99 851.95 727.14 851.12 720.82 850.36 C 698.12 847.34 675.59 842.85 653.29 837.71 C 639.76 834.90 626.44 831.33 613.04 827.97 C 576.33 818.34 538.78 807.71 503.60 793.40 C 498.07 791.14 492.21 789.02 487.12 785.87 C 483.56 783.71 481.39 780.20 478.69 777.04 C 472.69 777.83 466.90 780.43 461.00 782.00 C 438.16 788.34 415.62 794.53 392.42 799.45 C 383.71 801.37 375.05 803.53 366.30 805.30 C 338.07 810.98 309.22 817.23 280.59 819.60 C 277.12 819.82 273.77 819.73 270.46 818.58 C 265.34 816.82 261.12 812.70 259.48 807.51 C 258.15 803.29 258.20 798.37 257.92 793.97 C 256.34 765.20 252.50 736.74 251.04 708.00 C 250.55 699.66 252.23 690.59 249.16 682.87 C 244.94 671.52 237.04 660.80 229.94 651.06 C 221.98 639.84 214.34 628.21 208.00 616.00 C 201.48 602.41 196.73 587.89 191.06 573.93 C 186.15 561.83 182.15 549.19 178.30 536.71 C 171.01 513.72 165.17 490.23 159.10 466.89 C 155.65 454.46 151.73 442.17 148.24 429.75 C 144.01 414.83 139.10 400.13 134.71 385.26 C 129.79 369.27 124.48 353.38 119.66 337.36 C 116.63 327.21 115.50 316.13 118.89 305.92 C 121.64 297.15 128.09 289.58 136.01 285.01 C 144.88 279.98 155.20 279.71 164.93 282.03 C 169.68 283.19 173.52 285.62 177.74 287.94 C 175.35 277.66 172.39 267.58 170.87 257.10 C 169.21 246.47 167.44 234.00 170.51 223.54 C 173.19 213.97 179.59 206.27 187.57 200.56 C 196.64 194.65 207.98 192.90 218.47 195.56 C 224.65 196.72 229.59 199.90 234.98 202.88 C 234.41 194.95 233.59 187.34 235.54 179.49 C 237.71 169.64 243.64 159.72 252.38 154.38 C 258.00 150.81 264.28 148.42 270.97 148.01 Z" fill="#a9a0cf" />
<path d="M 286.69 173.31 C 293.94 178.94 298.22 187.14 301.48 195.53 C 308.32 212.73 313.53 230.79 318.31 248.66 C 320.86 257.65 323.09 266.71 325.23 275.81 C 330.44 295.78 335.29 315.85 340.08 335.93 C 344.25 351.18 347.53 366.59 350.98 382.01 C 351.76 385.09 352.57 388.86 354.66 391.34 C 359.74 396.88 370.18 394.97 373.12 388.12 C 374.69 384.71 373.77 380.52 373.08 376.99 C 367.92 353.12 362.88 329.22 357.60 305.38 C 351.17 275.02 343.96 244.40 340.48 213.55 C 339.55 204.18 338.62 193.20 343.88 184.87 C 348.44 177.27 358.93 174.22 366.83 178.20 C 372.67 181.19 376.25 186.36 378.74 192.27 C 383.54 203.67 386.69 215.88 389.02 228.00 C 395.28 258.55 402.35 288.95 408.47 319.54 C 412.28 337.30 416.33 355.00 420.23 372.74 C 423.73 389.37 427.49 405.96 431.54 422.46 C 432.49 426.29 433.22 430.49 435.00 434.02 C 436.94 438.01 442.63 439.16 446.42 437.43 C 447.86 435.98 448.34 433.75 448.71 431.81 C 449.48 427.30 449.77 422.70 450.32 418.16 C 452.95 395.98 456.43 373.26 462.82 351.82 C 466.56 340.28 471.10 327.38 479.09 318.07 C 484.72 311.26 493.18 307.08 502.00 306.73 C 504.86 306.71 507.80 306.90 509.74 309.27 C 512.66 312.96 514.11 318.08 514.95 322.64 C 510.18 323.11 505.95 322.84 501.92 325.86 C 495.45 330.61 490.40 338.16 489.29 346.19 C 487.06 365.89 489.04 384.31 489.09 404.00 C 490.18 428.34 489.93 452.64 490.04 477.00 C 490.12 501.47 489.54 524.78 491.96 549.00 C 492.36 553.15 493.28 557.25 493.53 561.40 C 493.68 564.35 492.73 566.96 491.75 569.69 C 484.96 587.79 478.19 605.78 472.11 624.14 C 471.24 627.00 470.14 630.19 470.78 633.20 C 471.75 637.71 473.94 642.06 475.65 646.35 C 481.73 661.32 488.03 676.20 493.64 691.36 C 495.17 695.75 497.71 700.33 498.10 704.97 C 497.54 709.07 495.30 713.01 493.90 716.89 C 490.81 725.12 487.68 733.33 484.50 741.51 C 482.97 745.30 482.10 749.56 480.04 753.07 C 476.55 755.25 471.91 755.80 468.01 757.01 C 452.15 761.56 436.37 766.36 420.35 770.35 C 407.24 773.64 394.05 776.56 380.98 779.98 C 369.31 783.07 357.49 785.13 345.72 787.72 C 331.38 790.73 316.71 792.83 302.25 795.25 C 295.25 796.23 288.19 797.44 281.12 797.60 C 279.72 792.18 279.82 786.71 279.32 780.92 C 278.14 761.70 276.46 742.51 274.58 723.35 C 273.78 712.23 273.22 701.12 272.85 689.98 C 272.49 681.99 269.31 675.06 266.10 667.89 C 261.08 656.80 253.24 646.87 246.19 636.80 C 236.65 624.17 228.62 610.32 222.06 595.92 C 218.78 588.79 216.75 581.45 213.85 574.14 C 209.63 563.57 205.58 552.91 201.89 542.13 C 196.13 524.03 190.57 505.98 186.60 487.38 C 179.78 456.61 169.77 427.16 161.09 396.91 C 155.24 376.08 148.57 355.58 141.97 335.03 C 139.89 328.14 137.60 320.29 140.18 313.24 C 142.94 304.93 153.09 300.66 161.09 303.95 C 169.83 307.36 175.46 315.37 179.59 323.41 C 184.24 332.97 188.75 342.70 192.27 352.73 C 196.09 363.57 200.39 374.21 203.86 385.16 C 209.30 402.09 215.04 418.98 219.95 436.06 C 220.95 439.16 222.00 442.30 224.80 444.22 C 229.64 447.33 236.94 445.93 239.65 440.63 C 242.00 436.44 240.64 431.89 239.42 427.60 C 231.22 400.91 222.76 374.24 215.79 347.20 C 209.25 324.39 203.26 301.43 197.62 278.38 C 195.18 269.10 193.28 259.70 191.73 250.24 C 190.89 244.33 190.26 238.02 191.23 232.11 C 192.33 225.68 196.51 219.99 202.62 217.53 C 207.69 215.37 213.43 216.47 218.24 218.76 C 224.04 221.54 228.20 227.25 231.25 232.74 C 235.67 240.97 239.06 250.00 242.22 258.78 C 250.19 280.51 256.22 303.08 262.65 325.33 C 269.96 351.33 276.55 377.55 283.25 403.72 C 284.43 407.64 285.47 412.64 288.32 415.70 C 293.20 420.26 301.49 418.36 304.77 412.80 C 307.02 409.21 305.76 405.06 304.80 401.27 C 302.62 393.90 300.99 386.41 299.03 378.99 C 293.17 357.60 288.29 335.96 282.48 314.55 C 276.62 291.34 270.51 268.16 265.17 244.82 C 261.65 230.60 258.39 216.23 256.41 201.71 C 255.45 192.67 254.87 183.46 261.02 176.02 C 267.15 168.12 278.94 167.58 286.69 173.31 Z" fill="#e2d7f8" />
<path d="M 756.18 203.87 C 762.65 206.12 767.33 212.80 768.54 219.37 C 769.49 224.98 768.53 231.18 767.70 236.77 C 765.23 252.13 761.45 267.37 757.34 282.36 C 752.41 300.70 747.46 319.03 742.34 337.32 C 737.57 354.23 733.16 371.26 728.10 388.07 C 724.54 400.87 721.15 413.70 717.39 426.44 C 716.41 430.23 715.01 434.96 716.09 438.82 C 718.56 446.50 731.76 447.79 735.30 440.35 C 737.67 435.35 738.72 429.68 740.39 424.41 C 745.17 406.43 750.98 388.76 755.81 370.80 C 762.18 348.73 768.57 326.72 775.99 304.97 C 780.47 292.49 784.45 280.38 790.54 268.52 C 794.83 260.51 800.10 253.31 808.91 249.98 C 814.39 248.08 822.45 249.34 827.10 252.88 C 831.93 256.44 834.04 262.09 834.18 267.95 C 834.45 278.19 831.23 288.89 828.76 298.75 C 826.16 309.47 822.86 320.16 819.78 330.79 C 816.81 341.15 814.12 351.56 810.85 361.83 C 804.99 381.08 799.48 400.44 793.68 419.71 C 789.36 433.15 785.45 446.71 781.10 460.14 C 779.90 464.28 778.50 468.22 780.61 472.35 C 783.33 477.72 790.31 479.41 795.44 476.46 C 799.11 474.37 800.69 469.79 802.11 466.06 C 806.57 453.44 810.50 440.64 815.06 428.06 C 820.19 413.88 824.94 399.53 830.49 385.51 C 835.22 372.67 840.50 359.46 847.86 347.86 C 851.76 341.76 858.11 335.91 865.36 334.37 C 872.87 332.63 880.93 337.31 883.61 344.43 C 885.82 350.03 884.55 356.60 883.23 362.27 C 880.92 371.61 878.00 380.74 874.86 389.82 C 870.06 404.42 865.22 419.01 860.69 433.69 C 855.56 450.76 849.92 467.66 844.69 484.70 C 837.00 507.22 832.29 531.01 824.59 553.57 C 817.94 573.54 809.91 593.10 801.29 612.28 C 795.68 623.42 789.37 634.26 782.93 644.93 C 772.07 662.78 756.54 678.94 746.35 697.36 C 743.47 702.49 742.39 708.07 741.74 713.84 C 739.77 730.68 737.46 747.48 735.36 764.31 C 732.99 781.04 731.56 797.84 729.58 814.61 C 729.05 819.40 728.68 824.17 727.67 828.89 C 723.93 829.56 720.55 828.78 716.86 828.24 C 686.71 822.98 656.80 817.54 627.14 809.87 C 603.80 804.18 580.77 797.13 557.76 790.22 C 536.99 783.62 516.70 776.97 497.44 766.56 C 498.68 761.36 501.08 757.00 503.03 752.02 C 506.93 742.22 510.81 732.42 514.53 722.54 C 521.70 703.68 530.31 685.53 539.65 667.65 C 541.78 663.10 545.01 658.41 543.89 653.14 C 542.23 644.41 538.86 635.79 535.33 627.66 C 530.58 616.16 526.71 604.12 522.63 592.38 C 520.23 585.77 518.57 579.15 517.78 572.14 C 516.76 563.30 513.96 554.88 512.86 546.06 C 512.32 542.05 512.04 538.04 511.84 534.00 C 510.14 490.99 511.40 447.94 510.05 405.00 C 509.78 387.96 509.04 371.06 510.23 354.02 C 510.62 349.55 511.86 345.39 515.51 342.52 C 517.85 340.71 521.40 338.75 524.42 339.76 C 527.91 340.77 531.32 342.08 534.72 343.35 C 540.76 345.53 545.21 351.42 548.09 356.92 C 556.41 373.28 560.38 390.39 563.72 408.29 C 566.39 421.67 568.48 435.39 569.22 449.04 C 569.48 452.73 569.36 456.90 570.65 460.40 C 573.67 466.84 585.59 467.34 588.57 460.62 C 590.30 456.32 590.78 451.47 591.97 446.98 C 599.15 418.94 604.64 390.52 611.32 362.34 C 618.29 332.23 625.50 302.16 631.92 271.93 C 635.25 257.92 638.20 243.45 642.85 229.84 C 645.06 223.65 648.17 216.63 653.57 212.59 C 658.11 209.08 663.98 208.37 669.48 209.61 C 674.92 211.00 679.26 215.55 681.37 220.64 C 683.76 226.35 683.84 232.81 683.62 238.91 C 683.25 248.50 681.32 257.40 679.83 266.84 C 675.67 290.40 670.20 313.59 664.91 336.91 C 659.28 359.93 654.54 383.15 649.20 406.25 C 648.26 410.67 646.46 416.04 647.50 420.53 C 649.79 427.88 659.78 430.20 665.64 425.67 C 668.74 423.34 669.72 419.22 670.71 415.67 C 673.95 402.51 676.91 389.27 680.12 376.10 C 683.55 362.56 687.41 349.15 690.55 335.54 C 697.08 309.73 704.12 283.97 712.76 258.78 C 717.62 244.24 721.29 230.49 729.12 217.11 C 731.68 212.97 734.94 208.75 739.04 206.05 C 743.85 202.95 750.77 202.12 756.18 203.87 Z" fill="#e2d7f8" />
<path d="M 430.56 647.41 C 434.37 648.55 435.57 653.27 433.59 656.49 C 431.76 659.44 427.99 661.39 425.03 663.06 C 401.60 675.47 376.45 682.06 350.43 686.39 C 337.12 688.28 323.41 690.08 309.96 689.88 C 306.55 689.77 302.29 689.59 299.39 687.61 C 296.42 685.53 295.14 680.73 297.91 677.95 C 300.16 675.57 304.33 674.97 307.41 674.40 C 333.80 670.53 360.29 665.94 386.08 659.08 C 397.34 655.82 408.42 651.95 419.66 648.63 C 423.00 647.74 427.13 646.54 430.56 647.41 Z" fill="#a9a0cf" />
<path d="M 573.25 666.29 C 576.91 665.94 580.93 667.48 584.36 668.65 C 591.87 671.47 599.40 674.21 606.87 677.13 C 617.69 681.35 628.86 684.72 639.98 688.03 C 648.45 690.26 656.92 692.54 665.44 694.55 C 680.41 697.70 695.44 700.67 710.48 703.51 C 713.18 704.16 717.06 704.92 718.60 707.49 C 720.74 710.94 719.25 715.93 715.26 717.21 C 710.25 718.77 704.52 718.57 699.29 718.50 C 672.57 717.58 647.13 711.61 621.89 703.12 C 607.00 698.11 592.59 691.88 578.97 684.03 C 575.48 681.88 571.35 679.46 568.96 676.05 C 566.53 672.40 568.83 666.89 573.25 666.29 Z" fill="#a9a0cf" />
</svg>