<?xml version="1.0" encoding="UTF-8" standalone="no"?>
<!DOCTYPE svg PUBLIC "-//W3C//DTD SVG 1.1//EN" "http://www.w3.org/Graphics/SVG/1.1/DTD/svg11.dtd">
<svg xmlns="http://www.w3.org/2000/svg" version="1.1" viewBox="146.58 127.67 730.23 730.23" width="1024.0pt" height="1024.0pt">
<path d="M 398.05 295.18 C 404.70 294.76 411.39 294.86 418.04 295.11 C 439.68 296.32 460.58 302.28 481.57 304.43 C 506.75 307.26 532.39 306.42 557.38 302.33 C 571.66 299.96 585.85 296.94 600.46 295.44 C 606.94 294.84 613.50 294.90 620.01 294.94 C 630.37 294.94 640.97 297.13 650.30 301.71 C 663.84 308.10 673.76 318.96 681.40 331.61 C 695.30 354.49 703.16 381.23 710.15 406.85 C 717.04 432.86 723.50 459.04 728.45 485.49 C 729.13 488.62 729.62 492.06 731.05 494.94 C 734.96 496.77 739.63 497.22 743.83 498.16 C 765.36 502.73 786.48 509.03 806.98 517.02 C 824.07 523.95 840.23 531.71 854.78 543.21 C 863.56 549.91 871.09 558.97 874.40 569.63 C 876.81 577.20 876.56 585.38 873.82 592.83 C 870.78 601.40 865.39 608.62 858.84 614.83 C 845.93 627.34 829.01 636.43 812.70 643.69 C 782.11 657.12 750.36 665.22 717.70 671.73 C 664.41 682.10 610.23 688.04 555.99 690.01 C 534.65 690.12 513.39 690.80 492.00 690.21 C 481.46 689.85 470.96 690.34 460.43 689.50 C 416.18 687.44 372.26 682.43 328.52 675.49 C 301.23 671.02 274.31 665.33 247.90 657.09 C 230.38 651.33 212.93 645.07 196.64 636.36 C 185.03 630.33 174.22 623.33 164.71 614.29 C 157.22 606.93 151.18 598.36 148.98 587.93 C 146.58 577.13 149.77 565.90 155.91 556.92 C 162.08 547.49 172.19 540.54 181.57 534.58 C 210.86 516.58 245.81 505.84 279.11 498.10 C 284.03 496.80 289.60 496.42 294.18 494.20 C 295.59 491.66 296.14 488.53 296.74 485.71 C 301.16 461.86 306.66 438.19 312.67 414.69 C 316.49 399.80 320.53 385.02 325.44 370.45 C 331.40 352.57 339.56 334.21 351.49 319.48 C 362.63 305.34 380.21 296.57 398.05 295.18 Z" fill="#f9c776"/>
<path d="M 411.04 317.01 C 435.82 318.00 458.11 326.60 482.62 328.45 C 495.86 329.46 508.72 330.49 522.01 329.71 C 531.16 329.18 540.44 328.79 549.51 327.49 C 567.20 325.16 584.18 319.81 601.97 317.88 C 612.56 316.73 624.54 315.99 634.83 319.17 C 645.24 322.36 653.15 329.98 659.32 338.68 C 668.76 351.85 673.97 366.56 679.29 381.72 C 689.97 413.30 697.19 445.26 704.31 477.77 C 704.63 479.61 704.78 481.48 704.58 483.35 C 700.55 485.33 695.95 486.30 691.67 487.65 C 662.28 496.46 632.39 501.68 602.09 506.10 C 582.50 508.74 562.74 510.21 542.99 511.00 C 528.68 511.03 514.33 511.89 500.03 511.29 C 443.72 510.60 387.41 502.41 333.32 486.68 C 329.01 485.41 324.34 484.48 320.32 482.45 C 319.91 477.38 322.06 471.97 322.99 466.97 C 327.64 444.62 333.22 422.50 339.59 400.58 C 344.79 382.69 350.52 363.91 359.54 347.53 C 364.98 337.92 371.97 328.34 381.63 322.63 C 390.74 317.36 400.73 316.58 411.04 317.01 Z" fill="#ffe6b5"/>
<path d="M 315.49 503.63 C 318.72 503.89 321.92 505.04 325.00 505.97 C 345.44 512.31 366.12 517.69 387.11 521.89 C 413.50 526.80 440.17 530.12 466.96 531.82 C 477.00 532.29 486.94 533.16 497.00 533.04 C 510.33 533.14 523.66 533.19 536.99 533.01 C 569.47 531.86 601.82 528.76 633.77 522.79 C 653.60 519.04 673.10 513.99 692.51 508.49 C 697.84 506.99 703.27 504.65 708.78 504.04 C 710.43 507.81 711.07 512.26 711.76 516.31 C 712.88 523.51 714.25 530.73 715.02 537.98 C 715.22 540.50 715.49 543.27 714.89 545.75 C 713.82 547.56 711.49 548.73 709.68 549.71 C 696.68 556.00 683.04 560.48 669.07 564.06 C 626.29 575.13 582.22 581.92 538.03 583.31 C 519.41 584.44 500.65 584.25 482.04 583.17 C 463.85 582.47 445.69 580.72 427.66 578.32 C 404.15 574.87 380.82 570.02 357.79 564.19 C 343.76 560.64 329.78 556.28 316.48 550.56 C 313.87 549.38 310.83 548.02 308.95 545.82 C 308.17 539.07 310.14 531.82 311.11 525.13 C 312.58 518.00 313.38 510.59 315.49 503.63 Z" fill="#ffe6b5"/>
<path d="M 290.04 517.40 C 289.72 527.77 286.43 538.55 286.90 549.05 C 287.05 553.49 290.69 556.55 293.83 559.18 C 303.62 566.90 315.70 572.31 327.30 576.71 C 357.50 587.93 389.80 594.60 421.59 599.39 C 446.55 602.74 471.80 605.14 497.00 605.13 C 519.82 605.55 542.64 605.20 565.41 603.49 C 594.63 601.09 623.77 596.87 652.36 590.33 C 674.34 585.09 695.62 579.25 715.79 568.80 C 722.04 565.45 728.53 561.60 733.56 556.56 C 735.94 554.16 737.69 551.44 737.66 547.95 C 737.84 537.81 734.94 527.66 734.91 517.55 C 739.79 518.04 744.63 519.50 749.40 520.61 C 770.78 525.75 791.57 532.29 811.62 541.37 C 822.33 546.30 833.00 552.35 842.08 559.91 C 846.53 563.70 851.13 568.46 852.88 574.16 C 854.61 579.74 853.31 585.48 850.42 590.41 C 846.68 596.81 840.29 602.02 834.43 606.44 C 818.14 618.47 798.64 626.87 779.64 633.63 C 759.23 640.73 738.20 646.11 716.94 649.94 C 697.60 653.26 678.15 655.72 658.79 658.76 C 626.52 663.60 593.89 666.18 561.29 667.42 C 550.52 668.33 539.79 667.90 529.00 668.02 C 513.66 668.23 498.33 667.97 483.00 668.02 C 475.32 668.03 467.69 667.27 460.01 667.03 C 440.65 666.05 421.35 665.09 402.09 662.86 C 380.00 660.26 358.00 656.77 335.92 654.11 C 295.00 648.66 254.50 639.52 216.89 622.09 C 204.96 616.41 193.63 610.06 183.45 601.56 C 179.35 598.08 175.31 593.94 172.90 589.08 C 169.77 582.78 169.84 574.75 173.83 568.84 C 177.29 563.58 182.50 559.22 187.57 555.56 C 201.61 545.51 218.17 538.25 234.32 532.30 C 248.24 527.38 262.43 523.06 276.86 519.88 C 281.18 518.93 285.62 517.73 290.04 517.40 Z" fill="#ffe6b5"/>
</svg>