<?xml version="1.0" encoding="UTF-8" standalone="no"?>
<!DOCTYPE svg PUBLIC "-//W3C//DTD SVG 1.1//EN" "http://www.w3.org/Graphics/SVG/1.1/DTD/svg11.dtd">
<svg xmlns="http://www.w3.org/2000/svg" version="1.1" viewBox="180.96 159.56 664.59 664.59" width="1024.0pt" height="1024.0pt">
<path d="M 505.00 159.96 C 534.11 159.56 563.94 162.74 591.90 171.10 C 604.06 174.43 615.85 179.46 627.32 184.67 C 646.21 193.67 663.67 205.78 678.96 220.05 C 688.94 228.98 697.09 239.46 704.26 250.73 C 709.70 259.68 713.76 269.74 717.51 279.51 C 725.47 299.60 729.71 321.41 730.08 343.00 C 729.75 370.34 722.62 397.76 709.97 421.98 C 699.06 443.34 681.41 461.73 664.25 478.25 C 659.10 483.34 653.23 487.62 648.15 492.75 C 656.10 499.86 664.48 506.39 671.83 514.17 C 686.17 528.02 698.86 543.46 710.05 559.95 C 719.52 574.00 728.46 588.06 735.54 603.49 C 746.11 626.60 756.24 649.10 763.47 673.53 C 770.22 697.99 775.83 722.80 781.55 747.51 C 782.62 752.72 784.06 759.21 782.33 764.36 C 780.31 769.64 774.51 771.92 769.35 769.78 C 763.87 767.55 762.01 761.69 760.45 756.51 C 756.11 741.25 753.75 725.48 749.52 710.19 C 744.07 710.63 739.60 712.87 734.43 714.43 C 730.89 715.52 727.44 716.70 724.06 718.25 C 724.30 720.20 724.50 722.17 724.86 724.09 C 727.63 737.59 730.55 751.06 733.46 764.53 C 734.56 770.16 736.55 778.25 733.48 783.47 C 730.83 787.91 724.43 789.37 719.97 787.01 C 716.42 784.99 714.66 780.23 713.43 776.55 C 711.27 769.47 709.76 762.19 707.99 755.01 C 705.70 745.47 704.16 735.62 701.04 726.31 C 691.78 729.66 682.41 732.82 673.26 736.45 C 673.55 741.52 674.81 746.38 675.70 751.36 C 677.50 761.19 679.39 771.01 681.22 780.83 C 682.24 786.27 683.73 792.45 682.98 797.96 C 682.16 804.03 675.53 808.78 669.58 806.42 C 664.79 804.32 662.82 799.98 661.79 795.14 C 658.35 778.48 654.73 761.88 651.47 745.19 C 647.02 745.10 643.07 746.56 638.90 747.91 C 632.72 750.07 626.51 752.19 620.38 754.50 C 623.03 772.97 628.24 792.32 628.98 811.01 C 629.14 815.54 627.71 820.24 623.38 822.36 C 619.60 824.15 613.52 823.66 610.82 820.18 C 609.00 816.93 608.64 812.73 607.85 809.13 C 603.33 786.47 598.70 763.84 593.66 741.30 C 588.31 718.76 581.66 696.50 574.49 674.49 C 571.55 665.47 567.18 657.51 562.89 649.09 C 552.41 629.48 540.34 609.23 525.09 592.93 C 522.04 589.53 518.89 586.33 514.99 583.91 C 511.06 586.26 507.76 589.31 504.41 592.39 C 482.66 612.43 466.28 636.56 452.68 662.67 C 442.94 680.79 433.86 699.27 424.67 717.67 C 416.24 734.89 409.16 753.06 401.75 770.73 C 400.07 774.66 397.94 778.12 393.86 779.91 C 388.83 782.43 382.61 779.02 381.07 773.85 C 379.21 768.48 381.11 763.04 382.92 757.95 C 386.09 749.63 389.49 741.36 393.32 733.31 C 396.63 726.66 399.81 719.99 402.23 712.95 C 400.05 711.65 397.85 710.41 395.48 709.49 C 388.95 706.86 382.71 703.96 375.98 701.91 C 375.37 702.99 374.75 704.07 374.20 705.18 C 369.01 717.95 363.80 730.75 358.43 743.45 C 355.90 748.72 353.41 756.12 347.81 758.81 C 342.85 761.33 336.62 760.18 334.06 754.93 C 331.63 749.97 334.38 742.97 336.10 738.10 C 340.17 727.52 344.47 717.03 348.39 706.39 C 350.26 701.29 352.52 696.39 353.97 691.13 C 350.64 689.64 347.19 688.51 343.77 687.24 C 339.06 685.49 335.29 682.67 330.25 681.83 C 327.33 686.71 325.45 691.99 323.16 697.16 C 317.80 709.50 312.95 721.88 306.91 733.92 C 305.16 737.27 302.89 740.70 299.34 742.33 C 294.49 744.46 288.11 741.57 286.35 736.61 C 285.07 733.21 286.13 729.52 287.11 726.18 C 291.18 713.04 296.50 700.28 301.46 687.45 C 303.35 682.32 306.09 677.61 307.72 672.38 C 300.24 669.35 292.75 666.30 285.21 663.42 C 284.35 665.21 283.49 666.94 282.74 668.75 C 277.38 682.08 272.12 695.44 266.78 708.78 C 265.15 712.61 263.66 716.83 261.22 720.23 C 258.68 723.86 253.57 725.06 249.55 723.45 C 244.98 721.18 242.44 716.02 242.89 711.00 C 243.29 705.52 245.99 699.99 247.83 694.83 C 254.63 677.48 261.24 659.97 269.04 643.04 C 278.28 624.23 287.54 605.83 299.65 588.64 C 305.29 580.69 310.63 572.33 316.82 564.84 C 325.72 554.10 335.21 543.93 344.84 533.84 C 352.91 526.23 360.82 518.47 369.24 511.24 C 373.80 507.00 378.92 503.46 383.28 499.02 C 381.24 497.28 379.18 495.57 377.01 493.98 C 369.33 488.30 362.31 481.21 355.61 474.40 C 350.12 468.68 344.62 463.49 339.60 457.41 C 328.93 444.40 319.06 431.49 311.78 416.21 C 302.98 397.55 296.93 377.61 295.11 357.01 C 293.87 339.48 294.64 321.89 298.76 304.75 C 301.58 292.11 306.24 280.17 311.28 268.28 C 315.74 257.43 321.60 247.08 328.82 237.82 C 342.90 220.38 360.78 205.65 379.67 193.67 C 417.22 170.93 461.35 160.55 505.00 159.96 Z" fill="#f4b09a"/>
<path d="M 519.23 182.61 C 540.11 183.38 560.44 185.43 580.53 191.48 C 600.07 197.02 618.63 205.49 635.94 216.07 C 644.71 221.48 653.02 228.91 657.91 238.10 C 662.87 247.07 662.90 258.90 661.73 268.81 C 659.50 283.11 653.82 297.34 644.88 308.78 C 640.67 305.45 636.96 301.61 632.85 298.17 C 618.17 285.18 599.48 276.75 580.86 271.14 C 563.22 265.47 544.48 262.70 526.00 262.02 C 506.24 261.76 487.00 261.59 467.52 265.49 C 435.03 271.25 403.64 285.87 378.89 307.78 C 372.20 298.31 367.15 287.76 364.61 276.42 C 362.18 266.02 360.41 253.43 364.20 243.19 C 368.29 232.33 377.07 223.04 386.48 216.49 C 402.08 206.38 419.26 198.60 436.96 192.96 C 450.88 188.46 465.47 185.78 479.96 183.89 C 493.02 182.47 506.10 181.75 519.23 182.61 Z" fill="#ffe2c5"/>
<path d="M 341.63 261.20 C 341.84 265.19 341.70 269.05 342.05 273.01 C 343.53 287.87 348.59 302.09 356.02 314.99 C 364.50 328.93 375.06 341.93 386.14 353.88 C 403.01 371.95 422.24 386.61 442.82 400.17 C 474.44 420.12 507.25 438.09 541.13 453.90 C 562.55 463.89 583.18 475.36 603.37 487.62 C 618.71 496.81 633.35 507.38 646.67 519.32 C 658.01 530.01 668.86 541.21 678.49 553.50 C 690.72 568.31 700.52 584.64 709.36 601.64 C 713.76 609.48 717.30 617.71 721.15 625.83 C 729.36 644.07 737.16 662.46 743.65 681.40 C 744.18 683.13 744.52 684.93 744.89 686.71 C 732.03 691.44 718.68 694.79 705.95 699.97 C 693.54 705.13 680.89 709.63 668.28 714.27 C 655.76 718.84 643.13 721.96 630.74 726.74 C 624.92 728.89 619.04 731.12 613.06 732.75 C 611.16 726.01 610.39 719.06 608.75 712.24 C 604.52 694.23 600.52 676.73 593.35 659.64 C 589.21 650.27 584.97 640.95 580.04 631.96 C 570.65 614.18 558.71 598.58 545.51 583.48 C 538.12 575.19 530.19 567.44 521.55 560.43 C 511.57 551.63 500.50 544.87 489.45 537.56 C 484.20 534.11 478.86 530.80 473.57 527.42 C 453.84 514.93 433.13 504.03 413.33 491.67 C 387.90 475.84 365.80 455.06 348.01 430.99 C 338.65 418.55 330.51 405.56 325.14 390.87 C 317.35 370.84 315.57 348.12 317.63 326.86 C 319.17 309.96 324.32 294.34 330.76 278.75 C 333.69 272.71 336.77 265.94 341.63 261.20 Z" fill="#ffe2c5"/>
<path d="M 683.76 261.70 C 686.67 264.80 688.01 268.39 689.88 272.12 C 693.77 280.02 697.66 288.29 700.29 296.70 C 707.55 321.18 709.76 346.88 705.09 372.07 C 701.66 390.54 693.92 407.85 683.26 423.25 C 672.07 439.72 657.48 454.43 642.76 467.75 C 638.55 471.36 634.84 475.06 630.10 477.94 C 625.13 475.30 620.50 472.12 615.52 469.48 C 601.11 461.58 586.89 453.34 572.40 445.60 C 564.65 441.44 557.25 436.69 549.54 432.47 C 547.09 431.15 544.78 429.62 542.51 428.03 C 548.30 423.88 554.62 420.54 560.52 416.53 C 581.99 402.37 602.51 387.88 621.41 370.38 C 635.45 358.21 647.92 343.89 659.04 329.03 C 669.50 314.47 678.16 299.51 681.69 281.71 C 683.18 275.07 683.05 268.40 683.76 261.70 Z" fill="#ffe2c5"/>
<path d="M 404.25 511.65 C 405.94 512.04 407.56 513.05 409.05 513.91 C 419.33 520.35 429.73 526.60 440.09 532.91 C 459.59 544.55 478.83 553.81 497.00 567.86 C 475.43 588.60 457.28 612.00 441.16 637.15 C 430.52 652.95 424.03 669.93 416.12 687.08 C 415.33 688.90 414.25 690.53 413.04 692.09 C 409.92 690.89 406.83 689.65 403.83 688.18 C 391.56 682.65 379.21 677.26 366.71 672.29 C 355.93 667.80 345.31 662.81 334.42 658.58 C 325.32 655.15 316.48 651.13 307.43 647.57 C 302.62 645.61 297.61 644.35 292.95 642.02 C 294.64 637.84 296.78 633.91 299.00 629.99 C 309.32 611.86 321.05 594.55 334.85 578.88 C 347.13 563.42 361.16 550.00 375.26 536.26 C 381.12 530.79 387.27 525.63 393.12 520.14 C 396.52 517.17 400.07 513.47 404.25 511.65 Z" fill="#ffe2c5"/>
</svg>