<?xml version="1.0" encoding="UTF-8" standalone="no"?>
<!DOCTYPE svg PUBLIC "-//W3C//DTD SVG 1.1//EN" "http://www.w3.org/Graphics/SVG/1.1/DTD/svg11.dtd">
<svg xmlns="http://www.w3.org/2000/svg" version="1.1" viewBox="132.08 131.17 759.91 759.91" width="1024.0pt" height="1024.0pt">
<path d="M 428.00 131.98 C 483.00 132.03 538.00 131.98 593.00 132.00 C 599.77 132.07 606.82 131.51 613.52 132.54 C 625.27 134.34 634.70 146.61 632.54 158.49 C 630.46 170.98 624.38 183.59 618.98 194.97 C 610.76 212.07 602.72 229.27 594.26 246.25 C 591.29 252.00 588.36 258.16 583.77 262.78 C 581.76 264.97 579.17 266.96 577.63 269.51 C 576.90 274.08 578.61 279.23 579.19 283.80 C 588.83 345.33 598.15 406.96 607.50 468.53 C 620.36 553.34 633.40 638.12 646.05 722.97 C 647.19 730.59 649.08 738.71 647.39 746.36 C 645.88 753.17 641.90 758.29 637.51 763.50 C 629.97 772.29 622.15 780.82 614.38 789.40 C 589.21 816.90 564.20 844.57 539.29 872.30 C 534.28 877.80 530.01 883.87 523.14 887.16 C 515.45 891.08 506.12 890.66 498.73 886.27 C 493.39 883.12 488.98 877.70 484.85 873.13 C 464.76 850.58 444.19 828.46 424.04 805.96 C 412.82 793.83 401.73 781.58 390.76 769.23 C 385.51 763.11 379.48 756.66 377.22 748.75 C 374.99 741.24 376.25 734.01 377.43 726.47 C 384.08 681.94 391.14 637.46 397.94 592.95 C 406.97 532.41 416.04 471.88 425.36 411.38 C 431.59 368.78 438.26 326.24 444.61 283.65 C 445.15 279.14 446.81 274.07 446.10 269.57 C 444.49 267.11 441.87 265.25 439.87 263.11 C 435.56 258.84 433.06 252.99 430.37 247.63 C 422.53 231.44 414.54 215.33 406.97 199.03 C 402.61 189.70 397.95 180.06 394.72 170.29 C 393.02 165.02 391.56 159.57 391.85 153.98 C 392.20 145.34 397.98 137.21 405.96 133.93 C 412.50 131.17 421.00 132.05 428.00 131.98 Z" fill="#e29f86"/>
<path d="M 417.25 158.51 C 422.74 157.81 428.46 158.23 434.00 158.21 C 486.34 158.28 538.66 158.34 591.00 158.22 C 596.41 157.90 601.76 158.26 607.13 158.79 C 605.52 163.20 603.93 167.61 601.88 171.85 C 592.98 191.63 583.17 211.03 573.42 230.40 C 570.45 236.36 567.92 243.33 562.07 247.09 C 556.66 250.72 549.23 250.13 543.00 250.16 C 520.33 250.06 497.65 250.05 474.98 250.18 C 470.58 250.09 466.32 249.89 462.45 247.56 C 457.95 244.88 455.36 240.50 452.99 235.99 C 441.53 213.19 429.98 190.55 419.81 167.12 C 418.66 164.31 417.66 161.54 417.25 158.51 Z" fill="#fed1c7"/>
<path d="M 487.00 276.34 C 508.86 276.51 530.75 276.13 552.60 276.43 C 556.08 299.69 559.53 322.77 562.97 346.04 C 568.81 383.06 574.09 420.17 579.81 457.22 C 586.20 500.07 592.85 542.88 599.24 585.73 C 606.56 631.70 612.90 677.83 620.24 723.79 C 621.13 729.80 622.55 736.32 620.15 742.15 C 617.89 747.68 612.75 752.41 608.83 756.85 C 580.18 788.84 551.42 820.74 522.62 852.59 C 519.25 856.74 515.64 860.57 511.83 864.32 C 509.56 862.19 507.27 860.11 505.17 857.81 C 495.39 846.04 484.88 834.74 474.67 823.35 C 453.76 800.26 432.95 777.07 412.06 753.95 C 408.09 749.54 403.31 744.83 402.32 738.72 C 401.31 732.25 403.46 724.91 404.42 718.46 C 409.13 688.68 413.33 658.81 418.03 629.03 C 422.11 601.51 426.53 574.04 430.55 546.51 C 432.76 531.77 435.28 517.08 437.31 502.32 C 448.24 432.01 458.33 361.55 469.20 291.24 C 469.87 286.37 470.59 281.44 471.67 276.65 C 476.76 276.18 481.88 276.19 487.00 276.34 Z" fill="#fed1c7"/>
</svg>