<?xml version="1.0" encoding="UTF-8" standalone="no"?>
<!DOCTYPE svg PUBLIC "-//W3C//DTD SVG 1.1//EN" "http://www.w3.org/Graphics/SVG/1.1/DTD/svg11.dtd">
<svg xmlns="http://www.w3.org/2000/svg" version="1.1" viewBox="0 0 836 1254" width="836.0pt" height="1254.0pt">
<path d="M 266.01 188.38 C 318.00 188.63 370.00 187.91 422.01 188.08 C 430.01 188.30 437.99 188.69 446.00 188.56 C 472.34 188.38 498.66 189.11 525.00 189.24 C 541.68 189.23 558.32 190.24 575.00 189.97 C 579.04 190.08 584.40 189.80 587.89 192.11 C 591.60 194.61 592.34 198.95 592.67 203.10 C 593.65 226.40 594.16 249.70 595.04 273.00 C 595.02 284.02 596.03 294.99 596.00 306.00 C 595.95 317.35 597.20 328.63 597.03 340.00 C 597.86 359.66 597.55 379.32 597.79 399.00 C 597.78 420.69 598.52 442.36 598.47 464.05 C 598.94 473.62 599.22 483.16 599.46 492.74 C 600.26 503.21 599.76 513.69 600.60 524.15 C 601.13 531.39 600.92 538.63 601.37 545.88 C 602.69 570.24 602.94 594.63 604.03 619.00 C 604.10 629.70 605.12 640.33 605.13 651.02 C 606.92 683.69 607.39 716.32 608.94 748.99 C 609.06 755.09 609.09 761.18 609.55 767.26 C 610.12 775.09 609.92 782.92 610.41 790.74 C 611.37 806.49 611.18 822.26 612.16 838.00 C 612.23 849.35 613.11 860.65 613.12 872.00 C 613.22 880.34 614.12 888.64 614.02 897.00 C 613.92 905.69 614.73 914.32 614.94 923.00 C 615.21 939.68 616.27 956.32 616.39 973.00 C 616.41 980.68 617.14 988.32 617.17 996.00 C 617.17 1005.35 618.16 1014.64 618.04 1023.99 C 617.92 1030.64 619.02 1037.26 618.71 1043.88 C 618.43 1048.52 616.06 1052.91 611.46 1054.47 C 606.68 1056.02 601.24 1055.98 596.26 1056.44 C 565.58 1059.15 534.76 1060.12 504.03 1062.35 C 500.16 1062.62 496.07 1063.16 492.20 1062.70 C 487.93 1062.17 484.42 1059.08 482.90 1055.12 C 480.88 1049.45 480.95 1042.86 480.16 1036.91 C 478.36 1022.52 477.00 1008.08 475.35 993.67 C 473.15 976.91 471.88 960.06 469.65 943.30 C 467.50 921.63 464.67 900.05 462.55 878.38 C 459.99 857.97 458.26 837.49 455.79 817.08 C 454.47 802.68 452.63 788.35 451.08 773.98 C 449.59 757.97 447.35 742.04 445.87 726.02 C 444.73 714.33 443.06 702.70 441.98 691.00 C 440.29 673.85 437.99 656.77 436.40 639.61 C 432.24 605.19 428.80 570.69 424.68 536.27 C 423.51 525.22 422.32 514.19 420.77 503.18 C 419.63 495.21 419.67 487.62 417.67 479.80 C 416.02 492.57 414.87 505.40 413.30 518.17 C 411.37 538.68 408.53 559.07 406.54 579.56 C 394.60 681.74 383.61 783.91 372.37 886.16 C 370.91 901.51 368.70 916.78 367.28 932.14 C 363.18 967.80 359.45 1003.51 355.30 1039.17 C 354.75 1043.91 354.62 1048.90 353.42 1053.52 C 352.32 1057.60 349.28 1061.32 344.93 1062.00 C 339.12 1062.82 332.97 1061.98 327.12 1061.69 C 297.73 1060.07 268.34 1058.68 238.95 1056.86 C 232.95 1056.41 225.43 1056.97 221.30 1051.69 C 217.15 1046.77 218.53 1039.93 218.63 1034.04 C 218.80 1023.68 219.67 1013.36 219.63 1003.00 C 219.89 984.65 220.87 966.33 221.26 947.98 C 222.15 935.69 221.77 923.40 222.38 911.11 C 223.03 901.74 222.83 892.38 223.00 883.00 C 223.67 864.34 224.01 845.66 224.39 826.99 C 224.94 806.98 225.82 787.00 226.25 766.98 C 227.27 755.36 226.70 743.75 227.40 732.12 C 227.95 722.31 227.71 712.49 228.38 702.69 C 228.99 675.12 229.80 647.54 230.95 620.00 C 230.79 608.97 231.90 598.02 231.89 587.00 C 233.18 550.01 234.05 513.00 235.84 476.01 C 236.09 455.67 237.62 435.34 237.76 415.00 C 238.17 403.11 238.24 391.21 238.61 379.32 C 239.23 368.02 238.78 356.72 239.53 345.43 C 240.24 335.15 239.70 324.86 240.49 314.58 C 241.71 278.37 242.62 242.13 244.64 205.95 C 245.15 200.74 244.97 195.05 249.48 191.49 C 254.06 187.53 260.42 188.47 266.01 188.38 Z" fill="#85c0e1" />
<path d="M 263.42 206.37 C 266.21 205.89 269.17 205.94 272.00 205.95 C 285.33 206.18 298.67 205.94 312.00 206.11 C 318.67 206.21 325.33 206.62 332.01 206.59 C 352.73 206.50 373.47 206.68 394.19 207.04 C 394.60 216.32 394.59 225.66 394.18 234.95 C 350.12 234.97 306.05 235.13 261.98 235.59 C 261.94 225.88 262.63 216.04 263.42 206.37 Z" fill="#d7f4fe" />
<path d="M 411.33 207.38 C 416.13 206.69 421.15 207.08 426.00 207.05 C 475.27 207.12 524.54 207.11 573.80 207.21 C 574.38 216.47 575.21 225.64 575.01 234.92 C 547.01 235.24 518.98 234.64 491.00 234.71 C 474.67 234.81 458.33 234.81 442.00 234.97 C 431.71 234.96 421.46 234.92 411.19 235.70 C 410.98 226.32 410.47 216.72 411.33 207.38 Z" fill="#d7f4fe" />
<path d="M 522.94 252.57 C 524.34 258.18 525.02 263.95 526.41 269.56 C 530.48 286.52 537.12 303.00 545.97 318.02 C 554.30 332.01 564.07 344.86 576.19 355.78 C 578.75 358.17 581.05 360.08 580.89 363.93 C 581.23 387.92 580.89 411.97 581.62 435.95 C 581.79 447.30 582.07 458.65 582.00 470.00 C 581.92 479.36 582.87 488.65 582.94 498.00 C 582.91 510.69 584.17 523.30 584.09 536.00 C 584.98 553.32 584.97 570.66 585.90 587.99 C 585.89 601.03 587.21 613.97 587.10 627.01 C 588.01 641.34 588.10 655.67 588.86 670.00 C 588.97 686.01 589.98 701.99 590.06 718.00 C 590.16 727.68 591.12 737.31 591.00 747.00 C 590.91 759.02 592.27 770.97 592.05 783.00 C 592.82 801.66 593.20 820.33 593.90 839.00 C 593.87 852.02 595.06 864.98 595.02 878.00 C 595.05 886.69 596.10 895.30 596.00 904.00 C 595.89 916.35 597.20 928.64 597.08 940.99 C 597.91 960.00 598.16 979.00 598.94 998.01 C 598.79 1011.41 600.56 1024.64 599.91 1038.05 C 566.13 1040.78 532.22 1042.42 498.41 1044.87 C 493.91 1000.90 488.80 956.99 483.86 913.06 C 472.53 809.27 461.28 705.51 449.28 601.80 C 443.17 549.00 437.51 496.14 430.60 443.43 C 430.06 439.77 429.60 435.50 427.77 432.22 C 425.71 428.53 420.95 427.06 416.98 426.94 C 413.59 426.82 410.83 428.10 408.76 430.76 C 405.52 434.86 404.84 441.11 404.16 446.15 C 399.05 491.62 393.58 537.07 388.53 582.55 C 382.83 632.21 377.07 681.88 371.53 731.56 C 365.70 784.03 359.99 836.57 354.16 889.05 C 353.12 899.95 351.90 910.82 350.62 921.69 C 347.55 950.51 344.49 979.33 341.22 1008.13 C 339.81 1020.27 338.93 1032.52 337.01 1044.59 C 303.04 1042.47 269.02 1040.70 235.10 1038.10 C 234.59 1028.02 235.69 1018.06 235.95 1008.00 C 235.88 995.64 237.21 983.37 237.07 971.00 C 237.80 951.67 238.11 932.33 238.93 912.99 C 238.74 901.29 240.13 889.69 240.00 878.00 C 239.80 867.97 240.88 858.02 240.97 848.00 C 240.81 836.64 241.60 825.34 241.88 813.99 C 241.94 796.65 242.91 779.34 243.06 762.00 C 242.99 750.64 244.14 739.35 244.00 728.00 C 243.90 718.64 245.05 709.36 244.99 700.00 C 244.90 688.65 246.12 677.36 246.08 666.00 C 246.79 644.98 247.55 624.04 248.30 603.02 C 249.19 591.37 248.87 579.70 249.81 568.04 C 249.96 553.34 250.98 538.69 251.17 523.99 C 252.01 508.00 251.98 492.00 252.90 476.01 C 252.93 465.96 253.17 456.06 253.85 446.03 C 253.89 432.65 255.09 419.36 255.18 405.99 C 255.85 393.08 256.04 380.18 256.40 367.27 C 256.56 364.00 256.48 360.49 257.39 357.34 C 258.16 355.68 259.78 354.33 261.09 353.10 C 268.07 347.10 274.45 340.37 280.18 333.17 C 298.66 310.16 309.41 282.29 313.34 253.17 C 321.90 252.85 330.44 253.09 339.00 253.04 C 357.33 253.12 375.65 252.96 393.98 253.13 C 394.20 294.75 394.52 336.40 394.40 378.01 C 394.55 382.82 394.85 387.88 398.69 391.31 C 403.18 395.50 410.63 394.64 416.03 393.00 C 425.46 389.83 435.28 384.40 441.10 376.09 C 446.55 368.43 448.72 358.08 449.72 348.88 C 450.40 337.96 449.80 326.93 449.78 315.99 C 448.81 295.08 448.87 274.13 449.16 253.21 C 473.78 252.74 498.34 253.39 522.94 252.57 Z" fill="#d7f4fe" />
<path d="M 261.33 253.26 C 264.16 252.75 267.14 252.84 270.00 252.83 C 278.33 253.04 286.65 252.73 294.98 253.08 C 293.35 265.24 290.02 277.20 285.65 288.65 C 280.90 300.46 274.41 311.60 266.76 321.76 C 264.18 325.21 261.25 328.32 258.09 331.24 C 257.92 323.46 258.92 315.77 259.00 308.00 C 259.09 302.91 259.29 297.83 259.57 292.74 C 260.24 279.63 260.07 266.32 261.33 253.26 Z" fill="#d7f4fe" />
<path d="M 432.95 253.34 C 433.71 264.91 433.22 276.42 433.16 288.00 C 433.10 307.33 433.41 326.69 433.15 346.02 C 432.95 354.50 431.02 363.54 424.35 369.35 C 420.73 372.79 416.26 374.22 411.47 375.18 C 411.47 337.79 411.25 300.40 410.99 263.00 C 411.01 259.84 411.07 256.66 411.43 253.52 C 418.59 253.20 425.78 253.46 432.95 253.34 Z" fill="#d7f4fe" />
<path d="M 541.83 252.93 C 553.16 252.53 564.58 252.58 575.92 252.82 C 576.76 268.21 577.08 283.60 577.93 298.99 C 577.80 310.75 579.46 322.37 578.92 334.12 C 567.77 322.79 558.30 309.29 552.57 294.41 C 547.24 281.13 543.55 267.14 541.83 252.93 Z" fill="#d7f4fe" />
</svg>