<?xml version="1.0" encoding="UTF-8" standalone="no"?>
<!DOCTYPE svg PUBLIC "-//W3C//DTD SVG 1.1//EN" "http://www.w3.org/Graphics/SVG/1.1/DTD/svg11.dtd">
<svg xmlns="http://www.w3.org/2000/svg" version="1.1" viewBox="0 0 836 1254" width="836.0pt" height="1254.0pt">
<path d="M 243.01 206.50 C 257.34 206.78 271.67 206.76 286.00 206.98 C 306.99 207.24 327.97 206.88 348.96 207.43 C 389.99 207.66 431.01 207.73 472.04 207.44 C 484.70 207.12 497.34 207.04 510.00 207.07 C 535.33 206.78 560.67 206.60 586.00 206.51 C 591.82 206.55 598.10 205.91 603.81 207.16 C 607.59 208.03 610.35 210.78 611.36 214.51 C 612.79 220.17 612.33 226.46 612.62 232.29 C 613.67 260.86 614.95 289.43 616.01 318.01 C 616.84 346.69 618.25 375.35 619.28 404.03 C 620.86 437.36 621.63 470.72 623.19 504.05 C 624.73 535.01 625.39 566.00 626.78 596.97 C 627.31 614.32 628.35 631.66 629.03 649.01 C 629.75 676.34 631.26 703.66 632.32 730.98 C 633.70 758.31 634.42 785.65 635.78 812.98 C 636.67 837.32 638.20 861.65 638.92 886.00 C 639.90 909.66 640.97 933.31 642.18 956.96 C 642.96 976.11 643.57 995.29 644.56 1014.44 C 644.87 1020.86 645.63 1027.55 644.86 1033.94 C 644.42 1037.75 642.31 1041.12 638.70 1042.63 C 634.25 1044.42 628.72 1044.16 623.99 1044.22 C 611.66 1043.99 599.35 1044.40 587.03 1044.90 C 572.34 1045.14 557.66 1044.88 542.98 1045.54 C 527.99 1046.28 512.99 1045.81 498.00 1046.48 C 493.50 1046.59 488.60 1046.92 484.20 1045.87 C 481.28 1045.17 478.77 1043.35 477.48 1040.60 C 475.71 1036.78 475.46 1032.04 475.02 1027.89 C 472.50 998.96 469.44 970.07 466.77 941.15 C 464.75 922.63 463.41 904.05 461.47 885.53 C 460.04 871.83 459.05 858.10 457.60 844.40 C 455.41 824.66 454.09 804.84 451.88 785.10 C 449.69 759.77 446.91 734.51 444.73 709.19 C 442.77 691.53 441.46 673.83 439.78 656.15 C 438.42 643.40 437.38 630.62 436.17 617.86 C 432.77 586.37 429.56 554.87 425.60 523.43 C 423.84 508.98 422.97 493.23 417.70 479.62 C 412.80 492.83 412.27 508.50 410.40 522.46 C 408.22 538.07 406.24 553.71 404.40 569.36 C 403.01 582.66 401.81 595.97 400.30 609.25 C 393.45 682.57 386.29 755.91 379.22 829.20 C 376.88 849.82 375.58 870.53 373.24 891.15 C 371.42 914.08 368.59 936.89 366.75 959.82 C 364.55 981.02 362.69 1002.25 360.55 1023.46 C 360.04 1028.42 360.00 1033.80 358.54 1038.58 C 357.59 1041.67 355.51 1044.27 352.42 1045.39 C 348.60 1046.78 344.01 1046.65 339.99 1046.64 C 324.33 1046.29 308.67 1046.03 293.00 1046.00 C 277.33 1045.84 261.69 1044.83 246.00 1045.02 C 233.99 1045.21 222.02 1044.24 210.01 1044.39 C 205.78 1044.32 200.93 1044.48 196.94 1042.98 C 193.09 1041.46 190.81 1037.86 190.24 1033.86 C 189.39 1027.73 190.38 1021.15 190.67 1014.97 C 192.20 983.00 193.23 951.01 194.77 919.04 C 195.83 894.57 196.91 870.11 197.73 845.63 C 199.13 818.74 200.28 791.86 201.45 764.96 C 202.12 740.74 203.34 716.51 204.42 692.30 C 205.75 662.18 206.89 632.08 208.08 601.97 C 210.12 559.55 211.34 517.10 213.52 474.69 C 214.69 449.14 215.56 423.58 216.72 398.03 C 217.93 370.36 219.22 342.69 220.08 315.01 C 221.16 287.58 222.45 260.14 223.47 232.70 C 223.71 227.04 223.41 221.02 224.65 215.48 C 225.43 212.12 227.57 209.20 230.81 207.89 C 234.52 206.43 239.07 206.52 243.01 206.50 Z" fill="#83bfde" />
<path d="M 507.87 224.37 C 508.21 231.91 508.27 239.45 508.18 247.00 C 508.26 255.51 508.47 264.02 508.39 272.53 C 496.92 273.01 485.48 272.63 474.00 272.78 C 450.40 272.77 426.80 273.07 403.20 272.79 C 403.00 267.53 402.95 262.26 402.90 257.00 C 403.03 246.33 402.41 235.70 402.85 225.02 C 437.85 224.44 472.87 224.76 507.87 224.37 Z" fill="#d9f6ff" />
<path d="M 525.48 224.56 C 528.89 223.89 532.54 223.99 536.00 224.01 C 555.71 224.35 575.44 223.76 595.15 224.09 C 596.08 232.08 596.00 240.02 596.17 248.05 C 596.61 256.01 597.11 263.96 596.95 271.95 C 584.64 272.37 572.32 272.11 560.00 272.28 C 548.32 272.22 536.78 272.81 525.10 272.18 C 524.84 260.12 525.14 248.06 524.90 236.01 C 524.89 232.26 524.71 228.23 525.48 224.56 Z" fill="#d9f6ff" />
<path d="M 241.48 225.31 C 246.08 224.13 251.27 224.53 256.00 224.55 C 274.48 224.88 292.96 224.57 311.43 224.93 C 310.90 240.89 311.21 256.85 310.89 272.81 C 286.97 272.89 263.04 272.55 239.11 272.56 C 239.16 262.02 240.13 251.52 240.11 240.97 C 240.28 235.84 240.11 230.27 241.48 225.31 Z" fill="#d9f6ff" />
<path d="M 328.51 225.39 C 333.15 224.35 338.26 224.71 343.00 224.72 C 357.28 225.02 371.56 224.53 385.82 225.08 C 386.05 240.98 386.13 256.92 385.91 272.82 C 375.95 273.02 365.96 272.90 356.00 272.86 C 346.52 272.88 336.88 273.03 327.40 272.65 C 327.43 261.10 328.07 249.55 327.89 238.00 C 327.91 233.88 327.69 229.44 328.51 225.39 Z" fill="#d9f6ff" />
<path d="M 429.24 234.53 C 437.89 234.11 445.47 241.25 445.20 250.00 C 445.32 258.33 438.31 265.26 430.00 265.15 C 421.63 265.32 414.56 258.42 414.76 250.00 C 414.53 241.77 421.14 235.02 429.24 234.53 Z" fill="#83bfde" />
<path d="M 238.68 290.54 C 242.64 289.67 246.97 289.92 251.01 289.93 C 268.71 290.26 286.44 289.72 304.13 290.33 C 300.84 307.89 290.51 323.82 275.22 333.22 C 263.44 340.46 250.10 342.71 236.43 342.19 C 236.83 330.13 237.40 318.08 237.80 306.02 C 238.00 300.93 237.65 295.54 238.68 290.54 Z" fill="#d9f6ff" />
<path d="M 321.64 290.65 C 325.26 289.72 329.30 289.97 333.01 289.98 C 350.85 290.37 368.71 289.86 386.55 290.25 C 386.52 309.50 386.95 328.75 387.00 348.00 C 387.01 367.04 386.88 386.04 387.64 405.08 C 388.05 420.36 388.42 435.28 390.51 450.48 C 391.34 456.19 392.40 461.60 395.48 466.58 C 396.95 469.32 399.61 472.36 399.86 475.53 C 399.79 480.17 398.18 484.84 397.43 489.42 C 394.69 505.02 392.84 521.11 390.76 536.77 C 379.95 628.87 372.23 721.78 363.14 814.07 C 356.58 885.75 349.47 957.41 342.66 1029.06 C 333.39 1029.47 324.19 1029.09 315.00 1028.96 C 296.99 1029.02 279.00 1028.35 261.00 1028.04 C 243.28 1028.06 225.61 1027.66 207.91 1026.88 C 207.82 1022.25 207.88 1017.61 208.03 1012.98 C 210.19 970.18 211.64 927.37 213.51 884.56 C 215.51 841.38 217.04 798.19 219.00 755.00 C 220.94 703.05 223.52 651.14 225.44 599.19 C 228.55 527.86 231.60 456.51 234.44 385.18 C 234.88 376.27 234.80 367.08 235.87 358.21 C 240.58 358.12 245.28 358.14 249.99 357.80 C 265.61 356.85 280.85 350.87 292.93 340.93 C 303.52 332.22 311.93 320.55 316.66 307.67 C 318.78 302.17 319.12 295.94 321.64 290.65 Z" fill="#d9f6ff" />
<path d="M 403.59 290.56 C 413.16 289.26 423.10 290.27 432.75 290.18 C 433.05 319.45 432.87 348.73 433.17 378.00 C 433.14 388.14 431.87 398.71 423.76 405.77 C 418.46 410.65 412.05 411.69 405.13 412.33 C 404.21 390.90 403.89 369.45 404.00 348.00 C 404.06 335.33 403.38 322.67 403.37 310.00 C 403.43 303.59 402.58 296.89 403.59 290.56 Z" fill="#d9f6ff" />
<path d="M 450.39 290.48 C 454.47 289.69 458.86 289.93 463.00 289.95 C 480.26 290.25 497.53 289.69 514.78 290.17 C 516.64 297.87 518.11 305.30 521.37 312.61 C 530.64 332.81 548.88 348.67 570.32 354.69 C 580.08 357.69 589.75 357.94 599.85 358.25 C 601.09 370.21 600.91 382.17 601.60 394.17 C 603.51 449.13 605.92 504.04 607.94 559.00 C 610.38 614.31 612.19 669.65 614.85 724.96 C 616.65 772.65 618.92 820.32 620.93 868.00 C 623.27 920.97 625.53 973.93 627.97 1026.89 C 617.55 1027.12 607.14 1027.01 596.71 1027.52 C 582.14 1028.18 567.58 1027.87 553.01 1028.15 C 533.01 1028.70 512.98 1029.21 492.98 1029.03 C 492.04 1022.41 491.42 1015.74 490.84 1009.07 C 480.88 907.29 471.50 805.34 461.50 703.55 C 458.26 667.97 454.78 632.42 451.22 596.88 C 448.07 562.29 444.15 527.83 438.42 493.57 C 437.21 486.85 435.90 479.92 433.46 473.53 C 432.12 470.15 430.02 466.15 426.83 464.20 C 422.63 462.16 416.84 464.06 412.59 462.34 C 409.53 460.41 408.27 455.82 407.59 452.48 C 406.15 444.85 405.86 436.97 405.36 429.23 C 412.62 428.06 419.37 427.40 426.09 424.10 C 436.14 419.01 443.60 409.82 447.20 399.20 C 449.74 391.98 450.20 384.59 450.15 377.00 C 449.92 354.00 450.07 331.00 449.93 308.00 C 449.96 302.25 449.30 296.13 450.39 290.48 Z" fill="#d9f6ff" />
<path d="M 532.30 290.38 C 539.43 289.43 546.82 290.13 554.00 289.98 C 568.58 290.09 583.17 289.61 597.74 290.05 C 598.18 307.43 598.94 324.79 599.46 342.16 C 590.78 342.21 582.27 341.73 573.96 339.02 C 558.31 334.25 545.11 322.71 537.98 308.02 C 535.36 302.57 532.77 296.46 532.30 290.38 Z" fill="#d9f6ff" />
</svg>