<?xml version="1.0" encoding="UTF-8" standalone="no"?>
<!DOCTYPE svg PUBLIC "-//W3C//DTD SVG 1.1//EN" "http://www.w3.org/Graphics/SVG/1.1/DTD/svg11.dtd">
<svg xmlns="http://www.w3.org/2000/svg" version="1.1" viewBox="0 0 836 1254" width="836.0pt" height="1254.0pt">
<path d="M 200.57 348.63 C 206.34 346.97 213.03 347.91 219.00 347.77 C 351.00 347.80 483.00 347.74 615.00 347.79 C 621.22 347.89 627.71 347.19 633.86 348.19 C 637.33 348.74 639.42 351.39 640.23 354.65 C 641.46 359.81 641.08 365.47 641.31 370.76 C 641.96 389.49 642.24 408.24 642.86 426.97 C 643.11 436.68 644.80 446.13 646.29 455.70 C 649.40 478.18 652.66 500.65 655.81 523.13 C 661.69 567.56 666.86 612.08 671.41 656.66 C 675.22 689.98 677.64 723.45 681.24 756.79 C 683.68 781.89 686.57 806.95 688.90 832.06 C 690.28 844.69 691.65 857.31 692.43 870.00 C 692.62 874.54 692.70 879.54 690.71 883.73 C 689.06 887.26 686.11 889.96 682.55 891.48 C 677.60 893.58 672.11 894.61 666.91 895.90 C 621.15 907.08 574.10 914.13 527.02 915.98 C 508.67 915.97 490.28 916.38 471.95 915.48 C 466.50 915.16 461.49 914.64 457.52 910.49 C 451.71 904.78 451.33 895.55 449.93 887.98 C 439.81 831.59 429.72 775.21 420.39 718.67 C 419.62 713.67 418.73 708.71 417.65 703.77 C 411.68 742.21 404.36 780.46 397.78 818.80 C 393.71 840.77 389.80 862.76 385.82 884.74 C 384.50 891.69 384.04 899.63 381.01 906.05 C 378.39 911.30 373.85 914.43 367.98 914.99 C 354.75 916.21 341.28 916.02 328.00 916.03 C 302.85 916.33 277.62 914.78 252.71 911.30 C 224.35 907.88 196.09 902.44 168.35 895.64 C 162.98 894.27 157.13 893.26 152.14 890.81 C 147.53 888.51 144.50 884.08 143.80 879.00 C 142.95 872.87 143.86 866.32 144.29 860.16 C 145.21 847.74 146.86 835.41 147.97 823.01 C 149.57 804.72 151.68 786.48 153.32 768.20 C 156.88 734.84 159.72 701.42 163.05 668.04 C 166.67 634.73 169.97 601.37 174.10 568.12 C 177.09 540.72 181.39 513.44 185.15 486.13 C 187.42 471.93 189.11 457.66 191.51 443.48 C 193.68 430.23 193.09 417.68 193.65 404.34 C 194.27 389.55 194.49 374.73 195.04 359.94 C 195.34 355.79 196.09 350.32 200.57 348.63 Z" fill="#66aed8" />
<path d="M 215.48 369.45 C 218.89 368.78 222.54 368.92 226.00 368.93 C 243.56 369.18 261.12 368.75 278.67 369.16 C 278.69 385.95 278.82 402.76 278.64 419.55 C 256.82 419.66 234.99 419.50 213.18 418.87 C 213.74 406.93 214.20 394.98 214.62 383.03 C 214.79 378.56 214.58 373.85 215.48 369.45 Z" fill="#cef1fb" />
<path d="M 299.68 369.50 C 302.68 368.86 305.93 368.92 308.99 368.92 C 332.28 369.18 355.58 368.79 378.87 369.12 C 379.20 379.42 378.93 389.70 379.00 400.00 C 379.13 406.53 379.01 413.06 378.79 419.58 C 363.53 419.85 348.26 419.58 333.00 419.66 C 321.84 419.50 310.70 419.90 299.54 419.47 C 299.09 406.31 299.63 393.16 299.28 380.00 C 299.24 376.54 299.10 372.93 299.68 369.50 Z" fill="#cef1fb" />
<path d="M 400.30 369.41 C 404.10 368.75 408.15 368.95 412.00 368.96 C 453.27 369.15 494.56 368.79 535.82 369.14 C 536.18 379.76 535.77 390.38 535.94 401.00 C 536.09 407.19 535.93 413.36 535.74 419.54 C 490.53 419.68 445.30 419.75 400.09 419.60 C 399.40 408.06 400.03 396.55 399.77 385.00 C 399.78 379.90 399.31 374.43 400.30 369.41 Z" fill="#cef1fb" />
<path d="M 557.17 369.41 C 560.37 368.84 563.77 368.92 567.00 368.93 C 584.96 369.17 602.92 368.78 620.87 369.12 C 621.26 376.06 621.67 383.00 621.82 389.96 C 622.07 399.62 622.96 409.24 622.98 418.92 C 617.32 419.10 611.67 419.26 606.00 419.22 C 589.62 419.12 573.19 419.93 556.82 419.19 C 556.16 407.46 556.79 395.74 556.51 384.00 C 556.51 379.24 556.15 374.08 557.17 369.41 Z" fill="#cef1fb" />
<path d="M 426.42 382.37 C 431.16 381.44 436.22 382.96 439.74 386.26 C 444.89 390.93 445.70 399.46 442.35 405.38 C 439.35 410.58 433.19 413.27 427.30 412.65 C 420.23 411.95 414.52 405.98 414.04 398.91 C 413.32 391.16 418.75 383.82 426.42 382.37 Z" fill="#66aed8" />
<path d="M 212.52 440.54 C 216.07 439.88 219.90 440.16 223.49 440.28 C 237.99 440.98 252.34 440.74 266.82 441.08 C 264.06 452.59 260.34 464.29 254.76 474.77 C 248.05 487.21 239.41 498.45 228.61 507.62 C 220.39 514.67 211.24 519.87 200.79 522.82 C 201.13 517.66 201.60 512.52 202.34 507.40 C 204.79 490.51 207.22 473.61 209.73 456.72 C 210.58 451.41 210.69 445.61 212.52 440.54 Z" fill="#cef1fb" />
<path d="M 623.84 440.19 C 627.07 463.55 630.53 486.86 633.81 510.23 C 634.36 514.24 634.68 518.27 634.97 522.31 C 622.14 519.12 611.26 511.17 601.83 502.17 C 584.81 485.58 574.30 464.13 569.14 441.08 C 581.78 440.74 594.41 440.93 607.04 440.48 C 612.64 440.23 618.24 440.20 623.84 440.19 Z" fill="#cef1fb" />
<path d="M 287.85 441.70 C 292.27 440.37 297.42 440.94 302.00 440.91 C 331.20 441.18 360.41 441.16 389.61 441.41 C 389.76 483.59 389.58 525.81 389.69 568.00 C 389.80 574.95 389.12 582.08 389.98 588.98 C 390.58 594.04 393.84 598.55 398.74 600.18 C 402.83 601.47 407.61 601.14 411.83 600.78 C 422.65 599.57 433.41 596.96 442.17 590.16 C 452.25 582.29 459.30 570.48 461.99 558.02 C 463.77 549.81 463.86 541.36 463.91 533.00 C 463.92 508.66 463.89 484.33 463.82 460.00 C 463.68 453.76 463.84 447.53 464.10 441.30 C 469.73 441.20 475.36 441.09 481.00 441.13 C 503.54 441.35 526.11 440.60 548.64 441.19 C 549.52 445.01 550.50 448.81 551.43 452.62 C 555.14 467.68 561.40 482.18 569.78 495.22 C 582.54 514.95 600.23 531.03 622.22 539.76 C 627.68 541.74 633.22 543.49 638.73 545.33 C 641.43 563.70 643.09 582.22 645.35 600.64 C 653.02 670.52 659.90 740.47 666.50 810.46 C 667.34 819.86 668.84 829.14 668.93 838.61 C 652.56 842.27 635.92 844.84 619.35 847.40 C 579.36 853.61 539.40 857.35 499.06 860.25 C 488.04 860.86 477.14 862.21 466.08 862.07 C 463.97 853.15 462.56 844.12 460.92 835.11 C 450.65 778.28 440.94 721.34 430.53 664.53 C 429.64 660.11 428.87 654.57 426.06 650.93 C 421.74 645.49 412.54 645.86 408.80 651.78 C 405.66 656.97 405.16 664.07 403.94 669.95 C 397.24 705.56 391.57 741.34 384.97 776.97 C 380.02 805.33 374.82 833.64 369.64 861.96 C 358.54 862.45 347.66 860.99 336.60 860.45 C 301.62 857.96 266.79 854.87 232.05 849.96 C 210.37 846.69 188.45 843.64 167.10 838.60 C 167.31 828.89 168.83 819.36 169.65 809.71 C 172.97 773.46 176.76 737.27 180.07 701.02 C 184.09 659.36 188.55 617.74 193.17 576.14 C 194.48 565.83 195.26 555.50 197.11 545.26 C 204.81 542.86 212.91 540.69 220.18 537.19 C 227.00 533.93 233.46 530.08 239.39 525.39 C 260.77 508.44 276.08 483.60 283.47 457.47 C 285.04 452.30 285.62 446.61 287.85 441.70 Z" fill="#cef1fb" />
<path d="M 409.85 441.81 C 421.19 441.33 432.56 441.31 443.90 441.81 C 444.17 465.20 443.92 488.61 444.00 512.00 C 443.91 523.32 444.28 534.78 443.23 546.06 C 442.38 556.05 438.31 566.92 430.68 573.71 C 424.63 578.84 417.42 578.94 409.91 579.42 C 409.48 569.61 409.82 559.81 409.76 550.00 C 409.69 520.00 409.71 490.00 409.56 460.00 C 409.45 453.93 409.61 447.87 409.85 441.81 Z" fill="#cef1fb" />
<path d="M 165.41 857.62 C 169.10 857.69 172.88 858.70 176.49 859.45 C 239.05 871.96 302.06 878.02 365.76 880.44 C 365.25 885.21 364.47 889.94 363.45 894.64 C 359.65 895.06 355.87 895.53 352.04 895.64 C 322.70 895.85 293.76 896.15 264.58 892.41 C 230.87 888.37 197.26 882.27 164.48 873.40 C 164.54 868.27 164.17 862.62 165.41 857.62 Z" fill="#cef1fb" />
<path d="M 670.86 857.23 C 671.64 862.67 671.89 868.09 671.78 873.58 C 661.34 876.51 650.78 878.89 640.19 881.20 C 618.36 885.71 596.23 889.87 574.04 892.08 C 554.68 894.14 535.49 895.77 516.00 895.71 C 501.37 895.69 486.66 895.89 472.06 894.85 C 470.90 890.22 469.98 885.55 469.36 880.83 C 478.22 879.88 487.11 879.91 495.98 879.23 C 538.33 876.40 580.77 872.50 622.67 865.69 C 638.81 863.27 654.81 860.13 670.86 857.23 Z" fill="#cef1fb" />
</svg>