<?xml version="1.0" encoding="UTF-8" standalone="no"?>
<!DOCTYPE svg PUBLIC "-//W3C//DTD SVG 1.1//EN" "http://www.w3.org/Graphics/SVG/1.1/DTD/svg11.dtd">
<svg xmlns="http://www.w3.org/2000/svg" version="1.1" viewBox="0 0 836 1254" width="836.0pt" height="1254.0pt">
<path d="M 272.00 282.25 C 369.00 282.28 466.00 282.25 563.00 282.27 C 568.52 282.29 574.24 281.80 579.70 282.58 C 584.15 283.26 587.82 286.56 588.99 290.89 C 589.89 294.44 589.75 298.36 589.76 302.00 C 589.56 312.33 589.77 322.67 589.66 333.00 C 589.65 338.45 589.75 343.71 591.04 349.04 C 605.54 400.25 617.34 452.37 627.41 504.62 C 635.50 543.99 641.34 583.57 647.84 623.21 C 653.28 657.88 657.77 692.70 662.51 727.48 C 664.23 738.64 665.69 749.81 666.94 761.04 C 669.95 784.94 672.98 808.83 675.29 832.80 C 678.40 858.51 681.40 884.25 684.02 910.02 C 684.49 915.10 685.48 920.70 684.69 925.75 C 684.05 929.73 681.63 933.06 678.48 935.47 C 674.31 938.59 668.70 940.27 663.79 941.85 C 649.71 946.12 635.94 950.37 621.56 953.53 C 605.60 957.11 589.50 959.92 573.33 962.32 C 542.67 966.03 511.91 968.69 481.07 970.33 C 470.03 971.27 459.01 970.74 447.95 971.15 C 430.67 971.98 413.33 971.88 396.05 971.29 C 384.71 971.06 373.39 971.33 362.06 970.71 C 341.15 969.54 320.13 968.35 299.35 965.63 C 258.88 960.95 218.02 954.26 178.76 943.27 C 173.03 941.64 166.88 940.14 161.56 937.43 C 156.89 934.97 153.01 931.28 152.07 925.88 C 151.07 919.77 152.15 913.06 152.68 906.92 C 153.96 892.67 156.20 878.54 157.36 864.28 C 158.48 850.13 160.60 836.10 161.82 821.96 C 163.96 800.81 166.53 779.69 169.59 758.66 C 170.94 747.42 172.32 736.22 174.01 725.03 C 177.46 697.35 181.65 669.76 185.07 642.08 C 187.78 623.26 190.89 604.51 193.75 585.71 C 195.83 573.43 197.53 561.10 199.83 548.86 C 203.59 525.30 208.68 501.95 213.58 478.61 C 221.88 438.46 231.54 398.65 242.06 359.03 C 243.32 354.38 244.92 349.57 245.55 344.79 C 246.01 341.26 245.99 337.56 245.99 333.99 C 245.93 324.32 246.64 314.68 246.40 305.00 C 246.38 300.55 246.05 295.89 246.79 291.49 C 247.52 287.40 250.72 283.96 254.72 282.88 C 260.25 281.64 266.35 282.33 272.00 282.25 Z" fill="#87bedb" />
<path d="M 282.00 300.38 C 373.33 300.37 464.67 300.39 556.00 300.37 C 561.31 300.29 566.93 299.96 572.18 300.84 C 573.33 307.94 572.38 315.70 572.57 323.00 C 572.51 328.86 573.11 334.88 572.39 340.70 C 566.49 341.96 560.02 341.30 554.00 341.34 C 463.00 341.34 372.00 341.34 281.00 341.34 C 275.30 341.27 269.17 341.91 263.59 340.63 C 262.93 334.50 263.78 328.17 263.76 322.00 C 264.02 315.10 263.09 307.53 264.68 300.80 C 270.32 299.85 276.29 300.42 282.00 300.38 Z" fill="#daf5fd" />
<path d="M 260.60 359.42 C 265.99 357.81 272.39 358.72 278.00 358.62 C 371.33 358.66 464.67 358.66 558.00 358.67 C 563.65 358.75 569.95 357.92 575.42 359.43 C 577.07 362.06 577.87 365.38 578.72 368.35 C 582.31 381.77 585.99 395.17 589.33 408.66 C 598.77 448.09 607.27 487.77 614.26 527.71 C 618.14 549.34 622.22 570.91 625.35 592.67 C 631.31 627.86 636.93 663.02 641.53 698.42 C 644.58 724.21 648.59 749.89 651.39 775.71 C 652.61 788.54 654.46 801.29 655.71 814.12 C 656.92 826.44 658.70 838.69 659.96 851.01 C 661.78 868.46 663.98 885.85 665.66 903.31 C 666.13 909.07 667.86 915.37 666.97 921.10 C 664.31 923.26 660.60 924.40 657.37 925.41 C 614.31 938.61 569.53 946.42 524.62 949.55 C 493.44 952.08 462.30 953.95 431.00 954.00 C 413.31 953.99 395.65 954.16 377.98 953.26 C 330.51 952.48 284.01 946.80 237.29 938.68 C 216.88 934.80 196.66 930.05 176.67 924.39 C 174.25 923.65 171.60 922.81 169.49 921.38 C 168.65 915.07 170.43 908.31 170.86 901.96 C 172.19 885.60 174.55 869.36 175.99 853.01 C 178.10 830.99 180.49 809.00 183.04 787.03 C 184.37 773.91 185.98 760.87 187.83 747.82 C 190.78 724.93 193.67 702.01 197.20 679.20 C 207.55 606.12 218.98 532.04 234.99 459.98 C 241.28 430.04 248.52 400.27 256.77 370.80 C 257.85 367.03 258.66 362.85 260.60 359.42 Z" fill="#daf5fd" />
</svg>