<?xml version="1.0" encoding="UTF-8" standalone="no"?>
<!DOCTYPE svg PUBLIC "-//W3C//DTD SVG 1.1//EN" "http://www.w3.org/Graphics/SVG/1.1/DTD/svg11.dtd">
<svg xmlns="http://www.w3.org/2000/svg" version="1.1" viewBox="95.2 312.77 644.41 644.41" width="836.0pt" height="1254.0pt">
<path d="M 321.48 321.64 C 337.65 321.28 353.83 321.39 370.00 321.22 C 384.00 320.65 397.99 321.00 412.00 320.82 C 433.33 320.97 454.67 320.68 476.00 321.12 C 495.71 321.43 515.34 321.11 535.00 322.12 C 541.37 322.48 548.19 322.19 554.41 323.72 C 558.31 324.47 559.08 328.98 559.85 332.22 C 562.06 344.82 561.83 358.26 562.60 371.03 C 562.94 376.04 562.60 381.49 563.96 386.34 C 565.69 390.38 569.11 393.80 571.57 397.44 C 580.24 410.04 588.02 423.28 595.25 436.77 C 614.79 473.22 630.82 511.89 645.45 550.55 C 653.69 573.26 661.29 596.22 668.83 619.17 C 674.14 635.00 679.29 650.89 684.18 666.86 C 697.42 709.45 710.45 752.10 723.15 794.86 C 727.74 810.55 732.33 826.28 737.22 841.88 C 738.45 845.99 739.61 850.49 738.82 854.79 C 737.91 859.49 734.84 863.22 731.48 866.47 C 722.88 874.55 713.11 881.10 702.79 886.79 C 686.06 895.76 667.69 902.77 648.96 906.02 C 636.08 908.03 623.00 909.19 609.96 908.94 C 604.55 908.88 599.15 907.74 593.76 907.86 C 589.60 908.29 585.52 911.01 581.78 912.78 C 562.36 922.40 541.99 929.22 521.20 935.18 C 510.06 938.06 498.97 940.79 487.61 942.65 C 467.22 946.49 446.09 947.85 425.40 948.55 C 413.61 949.29 401.95 948.46 390.04 947.73 C 378.99 946.82 367.92 945.71 356.97 943.98 C 322.35 938.25 288.25 928.25 256.29 913.71 C 250.84 911.38 245.00 906.83 238.90 907.78 C 206.77 911.70 173.37 906.69 143.99 893.01 C 130.63 886.90 117.67 879.08 106.59 869.40 C 102.41 865.65 97.92 861.12 96.49 855.53 C 95.20 850.21 97.46 844.10 98.96 839.00 C 109.65 803.36 120.26 767.69 131.15 732.10 C 143.71 690.20 156.79 648.47 171.17 607.15 C 178.58 585.33 186.13 563.55 193.85 541.84 C 197.97 530.20 202.88 518.91 207.44 507.44 C 223.14 470.22 240.87 432.11 263.66 398.67 C 266.27 394.57 270.21 390.86 272.00 386.35 C 273.28 381.54 272.97 376.24 273.40 371.29 C 274.28 360.18 273.59 349.20 275.14 338.14 C 275.71 334.21 276.23 329.69 278.22 326.20 C 279.77 323.45 284.15 323.23 286.93 322.85 C 298.42 321.97 309.97 322.33 321.48 321.64 Z" fill="#7bb3d7"/>
<path d="M 409.04 340.33 C 449.03 341.05 489.13 340.27 529.13 341.57 C 533.16 341.72 537.44 341.60 541.37 342.53 C 542.25 347.91 541.79 353.56 541.95 359.00 C 541.89 364.77 542.50 370.79 541.59 376.49 C 536.51 377.34 531.14 376.93 526.00 377.03 C 510.67 377.19 495.34 377.84 480.00 377.99 C 442.00 378.02 404.00 377.99 366.00 378.00 C 348.99 378.10 332.00 377.49 315.00 377.05 C 308.17 376.79 301.16 377.43 294.39 376.52 C 293.30 370.88 293.91 364.72 293.94 359.00 C 294.11 353.55 293.61 347.86 294.48 342.47 C 298.42 341.66 302.60 341.74 306.61 341.55 C 328.38 340.69 350.25 341.09 372.03 340.77 C 384.37 340.23 396.70 340.52 409.04 340.33 Z" fill="#d3f0fc"/>
<path d="M 288.31 397.26 C 293.65 396.11 299.55 397.01 305.00 396.94 C 315.55 397.26 326.26 397.02 336.74 398.20 C 336.11 403.10 334.15 407.95 332.66 412.66 C 321.57 446.03 315.01 479.76 306.46 513.46 C 302.94 527.46 300.55 541.64 297.80 555.79 C 292.78 580.74 287.88 605.64 283.79 630.77 C 280.60 649.86 278.22 669.06 275.17 688.17 C 273.98 695.77 273.09 703.40 272.01 711.01 C 269.49 727.61 267.87 744.30 264.79 760.81 C 259.20 797.74 252.58 834.46 245.04 871.04 C 243.80 876.47 243.36 882.30 241.41 887.52 C 238.90 888.75 235.77 888.92 233.02 889.13 C 225.25 889.56 217.85 890.28 210.05 889.74 C 196.86 888.74 183.81 886.72 171.13 882.86 C 154.79 878.04 139.36 870.39 125.47 860.53 C 122.48 858.36 119.05 856.20 116.74 853.28 C 115.95 852.43 116.50 850.70 116.58 849.65 C 117.47 845.14 119.07 840.74 120.30 836.30 C 131.22 798.40 142.66 760.66 153.83 722.83 C 160.86 700.06 168.25 677.39 175.80 654.78 C 192.20 604.65 208.12 554.51 229.05 506.04 C 234.62 492.31 241.32 479.15 247.88 465.88 C 253.30 454.74 258.93 443.69 264.75 432.75 C 270.35 422.20 277.09 412.60 283.57 402.60 C 284.88 400.74 286.32 398.45 288.31 397.26 Z" fill="#d3f0fc"/>
<path d="M 534.00 396.82 C 538.73 396.85 543.99 396.12 548.59 397.34 C 551.77 399.65 553.82 403.77 556.05 406.96 C 571.13 429.17 583.41 453.97 594.69 478.30 C 602.14 494.46 609.13 510.82 615.61 527.39 C 634.31 576.90 651.30 626.97 667.71 677.28 C 685.07 733.07 701.33 789.21 717.78 845.28 C 718.40 847.62 719.27 850.21 719.11 852.64 C 717.90 854.48 715.93 855.90 714.20 857.23 C 706.32 862.89 697.93 867.90 689.26 872.26 C 663.91 885.02 635.28 890.54 606.99 889.22 C 602.92 889.02 598.31 889.10 594.46 887.65 C 593.29 885.20 592.77 882.32 592.23 879.67 C 588.00 857.18 582.62 834.82 578.76 812.28 C 573.14 781.57 568.53 750.71 564.16 719.80 C 560.56 693.34 556.51 666.93 552.48 640.53 C 548.58 618.05 545.09 595.51 540.96 573.08 C 536.03 543.79 529.52 514.93 523.03 485.97 C 520.50 474.36 517.77 462.82 514.68 451.34 C 511.10 436.92 507.29 422.60 502.45 408.54 C 501.32 405.17 500.03 401.66 499.48 398.14 C 510.88 396.85 522.53 397.23 534.00 396.82 Z" fill="#d3f0fc"/>
<path d="M 373.00 398.12 C 403.68 397.66 434.32 398.07 465.00 398.15 C 469.01 398.22 473.36 397.83 477.27 398.81 C 478.82 400.67 479.73 403.21 480.61 405.46 C 487.21 423.41 492.40 442.23 497.29 460.74 C 501.71 477.40 505.08 494.21 509.00 510.99 C 516.93 545.67 523.30 580.64 529.29 615.69 C 534.24 645.97 538.67 676.34 543.31 706.67 C 547.30 735.20 551.18 763.75 555.83 792.19 C 560.73 821.99 566.19 851.69 571.60 881.41 C 572.27 885.84 574.06 890.83 573.33 895.29 C 569.62 897.80 565.04 899.20 560.91 900.90 C 524.31 915.72 485.37 925.07 445.99 928.09 C 418.75 930.42 390.95 928.94 363.91 925.10 C 331.42 920.46 299.54 911.45 269.27 898.78 C 267.00 897.82 264.58 896.81 262.57 895.36 C 262.13 890.52 263.75 885.31 264.50 880.53 C 267.64 861.70 271.06 842.92 274.08 824.07 C 281.14 782.05 286.88 739.81 292.70 697.60 C 297.07 670.02 301.32 642.43 305.90 614.88 C 308.72 598.81 311.90 582.82 314.78 566.76 C 319.42 542.55 325.09 518.60 330.53 494.56 C 332.74 483.68 335.11 472.87 338.18 462.19 C 343.53 442.55 349.34 423.04 355.62 403.67 C 356.20 402.03 356.84 400.33 357.82 398.89 C 362.69 397.77 368.03 398.26 373.00 398.12 Z" fill="#d3f0fc"/>
</svg>